<svg role="presentation" width="139" height="24" viewBox="0 0 139 24" fill="none" xmlns="http://www.w3.org/2000/svg"><path d="M40.8535 14.3292C40.5204 14.6948 40.1152 14.9877 39.6632 15.1895C39.2113 15.3913 38.7224 15.4977 38.2273 15.5018C37.7722 15.5095 37.3199 15.4274 36.8966 15.2603C36.4732 15.0932 36.0871 14.8444 35.7603 14.5281C35.4388 14.193 35.1872 13.7975 35.02 13.3646C34.8528 12.9317 34.7733 12.47 34.7863 12.0063C34.7783 11.5163 34.8694 11.0298 35.0541 10.5758C35.2389 10.1218 35.5135 9.70972 35.8615 9.36412C36.4882 8.77062 37.3251 8.4493 38.1888 8.47058C38.6926 8.47961 39.1892 8.59177 39.6478 8.8001C40.1065 9.00843 40.5174 9.30851 40.8551 9.68176V6.64338C39.9948 6.24114 39.0598 6.02258 38.11 6.0017C36.9057 5.973 35.7208 6.30879 34.7113 6.96491C33.7018 7.62103 32.9148 8.56676 32.454 9.67772C31.9931 10.7887 31.8799 12.0128 32.1292 13.1892C32.3785 14.3656 32.9787 15.4392 33.8509 16.2686C34.4511 16.833 35.1586 17.2714 35.9316 17.558C36.7046 17.8446 37.5273 17.9734 38.3511 17.937C39.2318 17.9431 40.1004 17.7315 40.8792 17.321L40.8535 14.3292ZM52.5942 6.3081H49.9471V13.0009C50.0029 13.7015 49.7897 14.3971 49.3509 14.9468C48.9108 15.333 48.3449 15.546 47.7589 15.546C47.1729 15.546 46.607 15.333 46.167 14.9468C45.9426 14.6785 45.7743 14.3681 45.6719 14.0339C45.5695 13.6998 45.5351 13.3485 45.5707 13.0009V6.3065H42.9236V13.0586C42.8776 13.7159 42.9668 14.3756 43.1857 14.9971C43.4046 15.6187 43.7486 16.189 44.1965 16.6729C45.291 17.8055 46.5656 17.9852 47.7597 17.9852C48.9539 17.9852 50.2268 17.8055 51.3213 16.6729C51.7654 16.1864 52.1069 15.6157 52.3256 14.9948C52.5443 14.3739 52.6356 13.7155 52.5942 13.0586V6.3081ZM55.0613 6.3081V17.7285H57.7084V13.2174L60.7926 17.7269H64.0167L60.5017 13.0586C61.0974 12.9044 61.645 12.6039 62.0945 12.1843C62.393 11.8774 62.6262 11.5134 62.78 11.1142C62.9339 10.715 63.0052 10.2889 62.9897 9.86143C63.0102 9.39185 62.9323 8.92316 62.761 8.48534C62.5897 8.04751 62.3287 7.65018 61.9948 7.31875C61.1791 6.62499 60.1247 6.27571 59.0552 6.345L55.0613 6.3081ZM57.7084 8.35347H58.3255C58.8322 8.33071 59.3346 8.45497 59.772 8.71121C59.9485 8.84966 60.0892 9.02815 60.1826 9.23184C60.2759 9.43553 60.3192 9.65853 60.3089 9.88228C60.318 10.0878 60.2838 10.293 60.2085 10.4845C60.1332 10.676 60.0185 10.8496 59.8717 10.994C59.4315 11.3557 58.8658 11.5287 58.2982 11.4753H57.7019L57.7084 8.35347ZM73.5282 17.7076H76.2733L71.7522 6.29206H69.3285L64.7126 17.706H67.4593L68.3337 15.5419H72.6523L73.5282 17.7076ZM69.1309 13.5367L70.5629 9.70422L71.9756 13.5367H69.1309ZM83.2743 8.51229V6.29206H75.6577V8.5171H78.1441V17.7124H80.7912V8.53795L83.2743 8.51229ZM84.5473 17.7076H87.1943V6.29206H84.5521L84.5473 17.7076ZM95.3317 6.04982C94.5114 6.01892 93.6932 6.15217 92.9253 6.44173C92.1574 6.73129 91.4553 7.1713 90.8604 7.73585C89.7453 8.9057 89.1139 10.4527 89.0925 12.0672C89.0863 12.8577 89.2397 13.6414 89.5434 14.3715C89.8471 15.1016 90.295 15.7631 90.8604 16.3168C92.0676 17.4377 93.6692 18.0378 95.3172 17.9868C96.9032 18.0573 98.4523 17.4963 99.6241 16.4272C100.796 15.3581 101.494 13.8684 101.566 12.2854C101.606 11.4575 101.472 10.6303 101.174 9.85686C100.875 9.08343 100.418 8.38075 99.8316 7.7938C99.2452 7.20685 98.5425 6.74855 97.7684 6.44825C96.9944 6.14794 96.1661 6.01224 95.3365 6.04982H95.3317ZM95.3172 8.49143C96.252 8.488 97.1539 8.83559 97.8437 9.46519C98.496 10.1585 98.8467 11.0813 98.8193 12.0319C98.8462 12.5012 98.7736 12.9708 98.6064 13.4102C98.4391 13.8496 98.1809 14.2488 97.8486 14.5818C97.5163 14.9149 97.1174 15.1742 96.6779 15.343C96.2384 15.5117 95.7682 15.5861 95.2979 15.5612C94.3983 15.584 93.5264 15.2498 92.8735 14.6317C92.2206 14.0137 91.8399 13.1624 91.8151 12.2645V12.0464C91.7922 11.6 91.858 11.1535 92.0089 10.7326C92.1597 10.3117 92.3925 9.92482 92.6939 9.5942C92.9952 9.26357 93.3592 8.99577 93.7647 8.80622C94.1703 8.61668 94.6094 8.50915 95.0568 8.48983H95.3156L95.3172 8.49143ZM106.084 17.7269V10.317L112.293 17.706H114.581V6.29206H111.952V13.6409L105.745 6.29206H103.435V17.7124H106.082L106.084 17.7269ZM117.129 17.7269H119.774V6.3065H117.127L117.129 17.7269ZM129.207 7.17919C128.225 6.44591 127.031 6.05172 125.804 6.05624C125.286 6.01838 124.766 6.09139 124.279 6.27038C123.791 6.44938 123.347 6.73024 122.977 7.09416C122.643 7.4301 122.381 7.83161 122.21 8.27337C122.038 8.71514 121.96 9.18757 121.981 9.6609C121.939 10.3855 122.182 11.0977 122.658 11.6469C123.113 12.0672 123.657 12.3797 124.25 12.5613L125.186 12.8822C125.661 13.0256 126.11 13.2421 126.518 13.5238C126.643 13.6194 126.744 13.7426 126.813 13.8837C126.882 14.0248 126.918 14.1801 126.917 14.3372C126.92 14.5138 126.884 14.6889 126.811 14.8502C126.739 15.0115 126.633 15.1551 126.499 15.2708C126.163 15.5452 125.738 15.6868 125.305 15.6687C124.793 15.6699 124.291 15.5252 123.858 15.2516C123.481 14.9929 123.128 14.7002 122.804 14.3773L121.431 16.2638C121.925 16.759 122.488 17.1804 123.103 17.5151C123.807 17.8617 124.586 18.0271 125.37 17.9964C126.127 17.9964 127.6 17.8969 128.614 16.8237C129.291 16.0379 129.651 15.0285 129.623 13.9923C129.634 13.6001 129.566 13.2096 129.423 12.8443C129.279 12.4791 129.063 12.1466 128.787 11.8667C128.333 11.4748 127.806 11.1776 127.235 10.9924L126.38 10.6716C125.862 10.5435 125.371 10.3217 124.933 10.017C124.847 9.93471 124.779 9.83485 124.734 9.72417C124.69 9.61349 124.669 9.49455 124.675 9.37535C124.671 9.24175 124.695 9.10885 124.747 8.98549C124.798 8.86212 124.876 8.75113 124.974 8.65987C125.12 8.51837 125.295 8.40969 125.487 8.34109C125.679 8.27249 125.884 8.24553 126.087 8.26203C126.811 8.27818 127.501 8.56972 128.016 9.07697L129.207 7.17919ZM138 8.53795V6.3065H130.399V8.53795H132.886V17.7349H135.533V8.53795H138Z" fill="#1B1D1D"></path><path d="M2 9V21H6.5" stroke="#ECCC74" stroke-width="3.7"></path><path d="M14 22H22V3.5" stroke="#BA594A" stroke-width="3.7"></path><path d="M15 2H2V9" stroke="#477E80" stroke-width="3.7"></path></svg>