<?xml version="1.0" encoding="UTF-8"?>
<svg id="Layer_1" data-name="Layer 1" xmlns="http://www.w3.org/2000/svg" viewBox="0 0 400 368">
  <g>
    <path d="M112.31,28.99c10.53-.14,19.15,2.09,22.35,13.2,3.11,10.8,6.32,37.94,2.99,48.4-2.22,6.98-6.73,10.08-13.62,11.78-.58.14-2.06,0-2.22.61.32,2.54.67,5.02,1.31,7.5s3.28,7.57,2.22,9.61c-.62,1.21-1.88,1.38-3.12,1.25-6.21-.63-10.71-3.68-14.71-8.27-1.79-2.06-3.14-4.43-4.75-6.62-4.65.65-9.06,1.01-13.76.49-3.6-.4-8.72-1.66-11.66-3.84-7.22-5.35-8.67-23.75-9.58-32.22-1.17-10.81-4.02-26.51,6.31-33.9,7.91-5.66,28.36-7.86,38.24-7.99ZM120.12,116.11c-1.24-4.15-2.75-8.82-3.04-13.15-.37-5.61,2.24-4.19,6.42-5.2s7.49-3.25,9.19-7.15c2.55-5.87,1.57-18.25,1-24.75-.67-7.72-1.45-20.65-5.86-27.09-3.06-4.46-11.21-4.98-16.14-4.82-8.87.29-26.77,1.91-34.29,6.35-6.24,3.69-5.96,10.58-5.98,16.98-.03,9.91,1.44,24.14,4.21,33.7,3.64,12.54,14.06,11.71,24.98,11.01,1.02-.07,1.91-.58,3.05-.57,3.92,0,3.53,3.21,5.28,5.82,1.48,2.2,4.88,5.54,7.08,7.04.58.4,3.65,2.25,4.11,1.84Z"/>
    <path d="M113.65,67.29c-2.74,2.53-6.52,3.41-6.57,7.99-.03,2.88,1.7,5.78-2.45,6.66-2.89.61-6.63,1.13-7.64-2.36-.95-3.28-.07-7.89,1.74-10.73,1.49-2.32,4.3-4.13,6.29-5.89,2.44-2.16,5.96-4.63,5.65-8.41-.7-8.61-16.8-5.67-18.18,2.52-.61,3.62,1.56,5.3-3.11,6.57-3.21.87-6.23.72-6.37-3.33-.13-3.55.41-7.79,2.63-10.66,5.17-6.69,15.98-10.5,24.1-7.75,11.83,4.01,12.41,17.53,3.91,25.38Z"/>
    <path d="M105.39,85.18c5.03.06,7.05,7.6,2.64,10.4-10.04,6.39-14.49-10.55-2.64-10.4Z"/>
  </g>
  <g>
    <path d="M193.2,100.33c.53,2.39.61,4.88,1.19,7.25.39,1.6,1.08,3.7,1.66,5.26.44,1.18,1.47,1.86,1.29,3.38-.08.66-.92,2.13-1.57,2.32-2.57.75-7.67-1.04-10.02-2.33-5.94-3.25-9.64-8.47-12.22-14.63-1.98-.34-4-.92-5.97-1.22-1.44-.22-2.99-.11-4.6-.39-14.31-2.51-15.04-11.8-16.1-24.1-.95-11.11-2.76-32.98,3.19-42.63,5.45-8.85,26.16-9.59,35.52-9.33,8.55.24,21.35.34,26.28,8.34,3.67,5.96,3.34,21.55,3.19,28.62-.19,8.89-.35,26.12-5.84,33.18-3.38,4.34-10.71,6.17-16.01,6.28ZM206.61,33.77c-3.87-4.31-8.79-3.98-14.04-4.43-9.54-.81-28.75-1.38-36.72,4.42-4.39,3.2-5.03,11.79-5.27,16.87-.42,8.98-.11,19.52.86,28.48.53,4.83,1.54,11,5.8,13.86,3.93,2.64,12.25,3.44,17.05,4.01.87.1,1.62-.44,2.66.29,1,1.66,1.45,3.67,2.36,5.46,2.07,4.04,7.16,9.81,11.84,10.59.69.12.27-.13.18-.46-1.15-4.3-2.84-9.89-2.86-14.33-.01-3.37,3.55-2.55,5.94-2.94,8.94-1.47,12.71-3.91,14.5-13.18,1.81-9.38,2.33-21.96,1.74-31.5-.29-4.72-.92-13.64-4.05-17.13Z"/>
    <path d="M195.87,39.8c5.52,6.01,3.11,15.63-2.67,20.53-2.64,2.23-7.71,4.1-8.79,7.54-.82,2.59,1.29,7.06-2.76,7.76-.85.15-3.61.08-4.52-.05s-2.19-.63-2.72-1.44c-1.73-2.65.42-11.57,3.16-13.66,2.86-2.98,11.1-6,11.97-10.18.76-3.67-1.84-6.34-5.33-6.72-5-.55-10.77,1.54-11.97,6.86-.24,1.05-.16,2.62-.41,3.47-.53,1.82-7.08,2.92-8.39,1.85-1.66-1.34-.93-7-.34-8.92,3.65-11.85,24.63-15.9,32.77-7.04Z"/>
    <path d="M178.47,79.09c2.56-.4,5.33.2,6.59,2.68,2.62,5.15-2.01,9.48-7.14,8.8-6.64-.87-5.9-10.47.56-11.48Z"/>
  </g>
  <g>
    <path d="M284.18,36.21c8.71,5.67,7.95,17.63,7.13,26.65-.91,9.96-2.71,23.33-6.78,32.59-5.11,11.62-14.16,10.85-25.3,10.44-2.31-.09-2.05-1.27-3.85.83-4.68,5.47-7.19,9.44-14.89,11.41-2.51.64-7.34,1.37-7.93-2.23-.22-1.32,2.31-5.53,2.93-7.2.69-1.87,1.03-3.85,1.72-5.71-.15-.49-5.86-1.74-6.91-2.24-8.69-4.14-8.26-13.45-8.03-21.6.23-7.93.96-15.89,1.99-23.76,1.32-10.06,2.71-21.54,14.44-24.09,5.51-1.2,13.4-1.1,19.14-.73,7.13.47,20.51,1.84,26.34,5.64ZM279.75,94.97c3.19-5.5,4.88-15.98,5.99-22.39,1.5-8.73,4.71-27.47-4.77-32.74-5.69-3.16-19.75-4.36-26.43-4.57-6.51-.2-15.75-.83-20.77,3.89-3.55,3.33-5.08,15.78-5.66,20.64-.92,7.6-2.93,23.38-.97,30.28,1.08,3.82,3.15,5.85,6.9,7.22,1.88.69,7.86.85,8.4,2.67.24.81-.58,3.81-.85,4.85-.8,3.09-2.27,6-2.97,9.07,4.45-1.71,7.98-3.63,11.06-7.34,1.2-1.45,2.49-4.68,3.82-5.33,2.12-1.05,6.92,0,9.34.06,2.72.06,6.69-.11,9.33-.76,3.44-.84,5.81-2.49,7.59-5.56Z"/>
    <path d="M268.07,68.89c-.79.57-1.62,1.36-2.47,1.82-1.86,1.01-3.97,1.37-5.55,3.03-1.67,1.76-.87,3.3-1.48,5.45-.49,1.74-1.25,2.63-3.21,2.6-.8-.01-2.75-.22-3.55-.35-3.72-.63-3.59-3.21-2.91-6.37.69-3.19,2.71-6.33,5.38-8.19,3.16-2.21,10.69-4.82,12.13-8.08,1.67-3.77,1.11-7.42-3.19-8.7-5.24-1.57-12.6,1.12-13.91,6.83-.21.93-.08,1.72-.25,2.52-.64,2.95-8.34,1.35-8.79-1.06-2.12-11.16,10.98-17.74,20.35-17.31,16.45.75,20.45,18.41,7.44,27.82Z"/>
    <path d="M257.88,93.31c-1.06,1.73-4.16,2.7-6.12,2.58-6.75-.42-7.05-9.46-.08-11.13,4.95-1.19,8.78,4.33,6.2,8.55Z"/>
  </g>
</svg>