<?xml version="1.0" encoding="UTF-8"?>
<svg id="Layer_1" data-name="Layer 1" xmlns="http://www.w3.org/2000/svg" viewBox="0 0 400 368">
  <defs>
    <style>
      .cls-1 {
        fill: #fff;
      }
    </style>
  </defs>
  <g>
    <path d="M101.31,28.99c10.53-.14,19.15,2.09,22.35,13.2,3.11,10.8,6.32,37.94,2.99,48.4-2.22,6.98-6.73,10.08-13.62,11.78-.58.14-2.06,0-2.22.61.32,2.54.67,5.02,1.31,7.5s3.28,7.57,2.22,9.61c-.62,1.21-1.88,1.38-3.12,1.25-6.21-.63-10.71-3.68-14.71-8.27-1.79-2.06-3.14-4.43-4.75-6.62-4.65.65-9.06,1.01-13.76.49-3.6-.4-8.72-1.66-11.66-3.84-7.22-5.35-8.67-23.75-9.58-32.22-1.17-10.81-4.02-26.51,6.31-33.9,7.91-5.66,28.36-7.86,38.24-7.99ZM109.12,116.11c-1.24-4.15-2.75-8.82-3.04-13.15-.37-5.61,2.24-4.19,6.42-5.2s7.49-3.25,9.19-7.15c2.55-5.87,1.57-18.25,1-24.75-.67-7.72-1.45-20.65-5.86-27.09-3.06-4.46-11.21-4.98-16.14-4.82-8.87.29-26.77,1.91-34.29,6.35-6.24,3.69-5.96,10.58-5.98,16.98-.03,9.91,1.44,24.14,4.21,33.7,3.64,12.54,14.06,11.71,24.98,11.01,1.02-.07,1.91-.58,3.05-.57,3.92,0,3.53,3.21,5.28,5.82,1.48,2.2,4.88,5.54,7.08,7.04.58.4,3.65,2.25,4.11,1.84Z"/>
    <path d="M102.65,67.29c-2.74,2.53-6.52,3.41-6.57,7.99-.03,2.88,1.7,5.78-2.45,6.66-2.89.61-6.63,1.13-7.64-2.36-.95-3.28-.07-7.89,1.74-10.73,1.49-2.32,4.3-4.13,6.29-5.89,2.44-2.16,5.96-4.63,5.65-8.41-.7-8.61-16.8-5.67-18.18,2.52-.61,3.62,1.56,5.3-3.11,6.57-3.21.87-6.23.72-6.37-3.33-.13-3.55.41-7.79,2.63-10.66,5.17-6.69,15.98-10.5,24.1-7.75,11.83,4.01,12.41,17.53,3.91,25.38Z"/>
    <path d="M94.39,85.18c5.03.06,7.05,7.6,2.64,10.4-10.04,6.39-14.49-10.55-2.64-10.4Z"/>
  </g>
  <g id="aAbfpB">
    <g>
      <path d="M248.59,250.99c.02.16.02.31-.01.44.02-.13.03-.28.01-.44Z"/>
      <path d="M388.93,142.29c-6.13-3.26-23.52-3.08-30.95-3.11-1.31,0-52.91-1.36-68.69-1.63.03-.14.06-.27.08-.41-1.58.05-3.19.25-4.75.3-.82.03-2.92-.38-3.56-.19-.22.06-.18.55-.3.54-5.41-.54-11.32-.46-16.95-.45-11.36.03-24.23-.56-35.4.16-1.02.06-2.73.44-3.47.72-.72.27-2.64,1.14-3.03,1.71-.12.17-1.55,3.14-1.59,3.32-.95,4.25-.74,12.16-.89,16.81-.33,10.13-.1,26.37-.26,36.58-.07,4.7.09,47.52.12,66.13,0,4.77,3.81,8.65,8.58,8.77l56.35,1.36c-.39,1.44.39,8.65-.54,9.29-5.08.45-9.87,1.94-14.73,3.26-2.5.68-7.96,1.25-9.11,4.17-2.3,5.83,7.6,6.35,11.23,6.8,8.74,1.09,17.54,1.24,26.31,1.65,9.21.43,27.89,2.71,35.35-2.75.27-.2,1.85-1.73,1.99-1.96,1.7-2.93.15-4.76-2.36-6.17-3.18-1.79-6.48-2.45-9.8-3.77l-.14-9.14c.3-.3,3.66.24,4.32.25,16.44.48,33.29,1.14,49.74.24,7.96-1.77,7.59-8.49,8.24-15.02,2.63-26.47,4.16-53.17,6.2-79.68.59-7.7,1.98-22.34,2.13-29.95.07-3.71-.74-6.02-4.11-7.81ZM328.78,290.48c.36.11.74.14,1.12.13.11.66-.55.83-1,1.07-6.51,3.45-23.48,1.67-31.24,1.4-6.96-.24-13.99-.25-21.05-.82l-9.83-1.25c3.9-1.37,8.05-2.27,12.11-3.11,2.13-.44,7.33-.61,8.8-2,2.1-1.98.24-13.04,1.12-13.02l28.46,1.14.34.24c.41,3.16-.49,6.65-.11,9.8.24,2,.53,2.83,2.45,3.63,2.51,1.05,6.14,1.95,8.84,2.79ZM386.11,178.11c-1.63,23.6-3.59,47.38-5.55,71.11-.43,5.22-.2,11.44-1.21,16.56-.31,1.58-2.04,3.95-3.7,4.28-3.53.7-6.21.33-9.64.33-38.37-.09-93.17-1.95-133.97-3.07-4.81-.13-8.63-4.11-8.55-8.93.29-17.45.48-47.18.3-47.46-.09-.13-.53.07-.49-.19-.04-.25.4-.05.49-.19.37-.58,0-6.68-.15-7.84-.04-13.75.57-33.27.76-47.07.92-3.05-.35-9.65,1.53-12.04,1.47-1.87,2.16-.83,3.88-.88,17.94-.49,35.8-.16,53.68.03l2.35-.3s.01.04.02.06h0c1.26.01,71.42,1.49,72.68,1.53,1.54.05,3.24.36,4.7.4,6.55.2,15.43-.41,21.53,1.72,2.11.74,3.04,1.56,3,3.94-.11,7.27-1.16,20.73-1.66,28Z"/>
      <path d="M376.75,151.43c-4.94-1.19-13.18-.78-18.43-1.01-.58-.02-57.27-.95-73.52-1.25,0,0,0-.02,0-.02h0c-1.62-.05-3.28-.24-4.87-.22-12.28.13-24.6.07-36.82.24-2.47.03-5.15-.32-7.68.05-4.43.64-4.66,4.78-4.93,8.36-.52,6.95-.95,21.68-.82,28.52.06,3.06-.9,7.54-.61,20.27.08,3.33.71,52.01.67,55.25.14-.01.29-.03.43-.04,0,0,0,.02,0,.03,35.57,1.09,83.08,1.84,118.46,2.45,6.35.11,14.51,1.01,20.74.26,1.44-.17,3.28-1.79,3.84-3.08.8-1.83,1.09-6.75,1.27-8.97,2.03-24.17,3.43-48.28,5.35-72.45.38-4.73,1.32-15.88,1.57-20.57.22-4.2-.17-6.74-4.64-7.81ZM375.85,162.84c-.83,1.71-.23,16.11-.62,16.98-.75,1.69-.34,3.43-.48,5.46-1.28,19.57-3.23,38.87-4.47,58.42l.58.67-.85.15-1.09,14.8c-.44-.1-1.11-.02-1.83.07h0c-.06.06-.13.11-.2.15-.02.01-.04.02-.05.03-.12.06-.25.11-.41.13-4.66.76-23.69-.65-23.69-.65h-.02c-1.23.22-2.44.31-3.64.29-.07,0-.14,0-.22,0-.1,0-.19,0-.29,0-.13,0-.25,0-.38-.02-.1,0-.2,0-.29-.01-.16-.01-.31-.02-.47-.03-.02,0-.04,0-.06,0-.17-.01-.33-.03-.5-.05-.07,0-.13-.01-.2-.02-.13-.01-.26-.03-.39-.04-.12-.01-.24-.03-.37-.04-.13-.02-.26-.03-.38-.05-.13-.02-.25-.04-.38-.06-.01,0-.03,0-.04,0-.35-.05-.69-.11-1.04-.17-.15-.02-.29-.05-.44-.07-.13-.02-.25-.04-.38-.07l-54.58-1.03-28.24-.83c-2.15.21-12.64-.23-17.64-.29-.04-11.98-.07-42.42-.07-43,0-.17,1.8-36.3,1.8-36.3.61-5.63.35-17.28.99-22.94l48.29-.1h0s0-.04,0-.06l92.03,2.34-.02,6.36Z"/>
      <path class="cls-1" d="M342.71,259.06c.07-.01.15-.03.23-.04-.07.02-.14.03-.21.04h-.02Z"/>
    </g>
  </g>
  <g id="aAbfpB-2" data-name="aAbfpB">
    <g>
      <path d="M234.58,274.38c.02.16.02.31-.01.44.02-.13.03-.28.01-.44Z"/>
      <path d="M120,302.91c2.33-.35,4.66-.67,7-.92l4.47-2.02c8.37-5.02,12.78-17.91,15.86-26.77,1.35-3.88,3.43-9.55,4.3-13.42.35-1.57.11-5.03.5-5.87.36-.78,4.2-4.74,5.1-5.69,3.84-4.05,8.29-7.62,12.21-11.61,1.75-1.77,6.16-7.1,6.25-9.46.21-5.21-7.4-5.08-10.7-3.42,2.1-2.71,6.94-9.22,3.58-12.3-2.21-2.02-5.22-1.37-7.71-.27l-4.46,3.16c1.06-2.35,2.58-6.71.26-8.7-3.1-2.65-8.24.65-10.65,2.88-3.47,3.21-5.63,7.82-7.88,11.91l-2.38-4.4c-2.6-5.05-10.33-6.08-11.16.72-.61,4.99,1.19,16.62,1.94,22.07.14,1.04.79,2.18.78,3.32-.04,3.66-1.74,5.31-3.06,8.29-1.63,3.67-2.69,7.62-4.25,11.26-.15.36-1.32,2.91-1.51,2.77.11-1.09-1.43-1.24-1.6-1.45-.14-.17-.06-.8-.31-1.2-3.88-6.25-10.02-13.61-16.27-17.51-.63-.4-4.79-2.4-4.79-2.68,4.64-5.83,6.78-13.34,6.65-20.78-.06-2.99-.67-6-.84-8.98,6.03-1.04,10.69-5.74,8.99-12.18-.53-2.01-1.33-3.49-2.92-4.83-3.08-2.58-7.32-3.42-11.2-4.03-.28-3.68-2.59-6.93-4.2-10.2-1.33-2.7-2.41-5.32-4-7.9-1.19-1.93-2.53-3.98-4.1-5.58,0-.37,2.43-.33,2.4-2.44-.05-3.08-4.77-4.29-7.11-5.17.02-.49.84-.25,1.31-.48.17-.09,1.31-.91,1.37-.98.39-.55.43-2.56.11-3.11-.53-.91-3.29-1.71-4.35-1.95-3.23-.74-12.09-1.17-15.47-.95-7.82.5-16.81,5.49-22.55,10.66-3.9,3.51-9.24,10.35-11.27,15.04-2.93,6.77-4.12,14.23-.84,21.16.63,1.34,1.63,2.44,2.43,3.67-8.8,10.3-2.77,25.9,11.49,25.34.53-.02.99-.2,1.49-.29l3.36,10.9c-3.43,1.07-6.56,2.61-9.52,4.65-13.43,9.22-24.3,28.17-28.2,43.81-1.9,7.6-3.72,18.07,2.25,24.39,1.17,1.23,2.78,1.88,3.88,3.17-1.74.55-6.93.31-7.41,2.43-.53,2.33,2.92,2.61,4.5,2.55,5.36-.19,11.32-1.91,16.61-1.95,3.18-.03,6.99.66,10.23.58,5.27-.12,10.86-.98,16.07-1.4.69-.06,1.85-1.33,3.06-1.4,1.67-.11,3.71.45,5.46.22,5.4-.7,11.15-4.83,13.66-9.63l10.27,5.23c2.98-.73,15.62-3.62,16.17-4.43.2-.29.45-.55.72-.77l-1.3.25c.31-.54,1.03-.51,1.54-1.09,1-1.12,1.68-3.59,1.4-5.09-.24-1.22-.87-1.81-.99-2.96h1.1s1.25,7.6,1.25,7.6c.12-.03.25-.06.37-.09,1.55-.36,3.14-.71,4.72-.94l-1.06-3.39c.22-.24.27-.39.63-.37.44.02,2.7,1.13,3.62,1.37,1.95.52,4.01.72,5.99,1.07M129.02,217.51c.28-1.54,1.76.05,2.33.71,2.7,3.17,3.59,8.64,4.85,12.52,2.41,1.43,5.46,2.29,6.52,5.18.53,1.43.18,5.02,2.42,4.66,2.34-.38,2.77-4.19,2.29-6.05-.65-2.53-4.82-6.76-7.61-6.92-.06-.3-.02-.6.05-.89.33-1.48,3.2-6.54,4.14-8.04,1.61-2.53,5.56-7.67,8.11-9.06.33-.18.53-.37.98-.27-.92,2.92-1.8,5.95-2.99,8.77-.84,1.99-3.1,5.14-3.1,7.15,0,2,1.31,3.35,3.18,2.08,4.03-4.81,8.38-9.66,14.11-12.46.3.42-.07,1.27-.23,1.71-1.55,4.34-10.1,12.08-10.37,15.11-.12,1.37.87,2.27,2.23,1.96,4.02-2.09,8.48-5.97,13.16-6.25.36-.02.96.04,1.18.36-.05,1.16-4.26,5.33-5.29,6.33-.34.33-.94.43-1.37.84-5.31,5.19-10.28,10.81-15.06,16.46-5.71-1.06-11.34-2.94-15.95-6.54-1.29-2.98-1.22-6.18-1.67-9.33-.54-3.85-1.08-7.74-1.4-11.61-.14-1.68-.79-4.91-.51-6.4ZM56.15,159.59l3.38-.63-6.92,2.21,3.54-1.58ZM60.91,163.95c-.38.65-1.46.66-2.09,1.1-.27.19-.29.77-.59.84-.92.23-2.58-.21-3.68.27-.07-.4.48-.37.77-.47,1.84-.62,3.72-1.24,5.59-1.74ZM43.89,166.17c.67-.57,1.8-1.31,2.62-1.66-.98,1.04-2.09,2.12-3.18,3.04-.31.26-.45.67-.97.55-.32-.3,1.28-1.72,1.53-1.93ZM43.47,196.61c-1.58-1.14-.8-4.38-.55-6.09l.55,6.09ZM42.11,222.51c-6.7,1.78-11.86-4.79-10.97-11.03.47-3.26,2.27-6.26,5.82-6.57.8-.07,3.46-.12,4.11.07,1.2.36,1.78,2.83,3.93,3.01,3.55.3,3.53-5.43,3.47-7.92-.2-8.43-1.34-11.57.37-20.3.77-3.95-1.01-5.96-4.81-6.68-.07-.1,1.17-1.36,1.37-1.54.55-.47,2.51-1.48,3.19-1.48.5,0,1.19.55,1.79.68,4.58.98,10.24-.1,15.35.98,1.81.38,8.18,3.94,8.61.29.4-3.44-7.29-4.88-9.61-5.66-.29-.1-.84-.06-.77-.47,2.37.24,5.29-.71,7.57-.54.22.02.45.05.7.11.13.03.25.06.39.09.13.03.27.07.41.11.14.04.28.09.42.13s.28.1.43.15c.36.13.73.28,1.08.44.14.06.29.13.43.19l.21.1c.21.1.41.2.61.31.26.14.51.28.74.42.12.07.22.14.33.21.16.1.3.2.43.3.75.57,2.65,2.48,3.26,3.24,1.63,2.05,2.95,4.81,4.31,7.05.07.54-.01.38-.42.42-1.33.14-4.34-1.11-5.06,1.29-1.25,4.18,5.04,3.24,7.42,3.82.63.3,2.74,5.17,3.04,6.1.04.14.07.45-.13.41-2.08-2.21-6.41-1.85-5.12,1.94-1.7.29-3.59-.28-5.08.6-2.64,1.55-.83,3.98,1.58,4.3,3.67.49,9.66-1.32,13.61-1.3,2.92.01,7.78.92,9.55,3.46,4.09,5.86-5.13,8.29-9.07,9.21-2.79.65-5.97.79-8.66,1.58-.53.16-1.55.46-1.79.97-.54,1.13.17,3.26,1.44,3.54,2.82.63,7.22-.52,10.04-1.05,1.33,5.73,1.18,11.84-.69,17.44-2.85,8.56-7.57,11.26-14.34,16.11-.84.6-2.22,1.56-1.77,2.8.75,2.1,3.65,1.04,5.18.47-.37,2.57-3.59,5.19-6.02,5.75-8.38,1.93-19.7-6.29-24.55-12.69-2.67-3.52-6.58-12.64-6.81-17.01-.09-1.68,1.17-3.12.13-4.55-1.46-2.02-4.01.27-5.65.7ZM54.34,296.76c-2.42,4.97-3.32,10.03-3.41,15.56l-11.2.87c-.57.02-1.1-.29-1.66-.3-12.31-.12-27.93.21-26.13-16.72,2.05-19.2,15.59-43.66,33.27-52.55.63-.32,2.95-1.31,3.47-1,.62,1.03,1.18,2.28,1.87,3.26,4.05,5.72,11.33,11.49,17.92,13.91,7.47,2.74,18.26,1.08,21.48-7.14.8-2.05.4-4.75,1.73-6.72.67-.39,6.85,3.45,7.8,4.16,1.36,1.02,3.21,2.76,4.87,4.47.17.18.35.36.51.54.34.36.67.71.97,1.05.39.43.74.84,1.06,1.22.13.15.25.3.36.44,3.35,4.14,6.41,9.73,9.85,13.68,1.7,1.95,4.04,1.45,4.83-.97,1.54-4.74,3.42-9.25,5.15-13.96.94-2.58,1.67-5.28,2.48-7.9,1.09-.09,1.6,1,2.15,1.39,3.9,2.73,8.99,4.51,13.61,5.68.81.21,1.71-.11,2.22.54-1.47,3.9-2.19,8.09-3.46,12.03-1.94,6.01-5.05,13.93-8.11,19.3-3.95,6.94-8.37,11.1-16.99,9.42-3.2-.63-6.53-1.69-9-3.87-1.98-6.39-2.77-13.19-4.63-19.59-.48-1.63-1.91-7.26-4.45-4.71-2.15,2.16.76,9.89.98,12.75-8.82-8.21-20.94-4.81-29.98,1.16-1.39.92-8.15,6.57-8.91,6.57-.65-.09-1.12-.57-1.74-.74-2.67-.71-4.51-.61-7.12-.91-3.11-.35-6.12-1.08-9.28-.83l5.24-16.49c.24-5.06-3.38-3.92-5.1-.4-1.34,2.75-2.9,7.81-3.82,10.85-.56,1.86-1.03,3.82-1.32,5.74-2.49.15-7.96-.76-9.68,1.26-1.25,1.47-.04,3.04,1.54,3.45,8.36.12,16.74.04,25.04,1.13.15.21-2.14,3.78-2.42,4.36ZM73.13,301.71c-.74,1.42-.43,2.27-1.79,3.88-2.72,3.21-6.43,5.36-10.56,5.36h-5.12c.5-1.86.54-4.17.97-5.97.64-2.69,2.54-8.99,4.97-10.38.68-.39,1.35-.2,2.04-.45,3.22-1.14,6.67-4.73,9.65-6.69,9.45-6.19,18.91-8.83,27.79-.2,1.53,1.49,3.09,3.2,3.31,5.4-.58.02-1.11.51-1.69.42-.29-.05-4.35-2.54-5.04-2.95-3.7-2.21-6.92-4.91-11.63-4.83-.09,0-.19,0-.28.02-.09,0-.18.02-.27.04-.09.02-.17.03-.26.06-.43.11-.81.3-1.12.55-.96.75-1.22,2,.09,2.97,1.31.97,5.43,1.77,7.26,2.71,2.67,1.36,8.01,5.46,9.36,8.08,1.18,2.31-.82,2.76-2.79,2.24-1.49-.4-3.38-3.1-4.72-4.14-1.39-1.08-4.33-2.67-5.97-3.44-2.14-1-7-2.81-8.97-1.02-3.52,3.21,3.96,4.3,5.82,5,3.96,1.49,8.4,4.04,9.97,8.16-.96.12-1.95.81-2.92.84-3.61.12-7.84-4.28-11.21-5.68-1.67-.69-5.85-1.96-6.88.03Z"/>
      <path class="cls-1" d="M43.47,196.61c-1.58-1.14-.8-4.38-.55-6.09l.55,6.09Z"/>
      <path class="cls-1" d="M60.91,163.95c-.39.65-1.46.66-2.09,1.1-.27.19-.29.77-.59.85-.92.23-2.58-.21-3.68.27-.07-.4.48-.37.77-.47,1.84-.62,3.72-1.24,5.59-1.74Z"/>
      <polygon class="cls-1" points="59.53 158.97 52.61 161.17 56.15 159.59 59.53 158.97"/>
      <path class="cls-1" d="M46.52,164.5c-.98,1.04-2.09,2.12-3.18,3.04-.31.26-.45.67-.97.55-.31-.3,1.28-1.72,1.53-1.93.67-.57,1.8-1.31,2.62-1.66Z"/>
      <path d="M82.6,234.64c-1,.92-.8,1.26-2.44,1.85-7.1,2.54-13.86-2.95-17.43-8.61-1.75-2.79-3.67-6.66-1.55-9.81,2.34-3.48,7.78.07,10.57,1.06,3.86,1.37,8.65,2.77,12.83,2.95,1.74.08,6.03-1.03,6.22,1.82.22,3.29-4.55,2.68-4.85,3.16.06,1.87-.63,4.73-1.79,6.24-.48.62-1.06.88-1.56,1.34ZM77.25,232.6l-4.01-5.26-7.61-4.15c2.06,4.37,6.44,9.25,11.62,9.41Z"/>
      <path d="M65.26,183.13c1.16-.01,2.09,1.12,2.02,2.26-.09,1.37-3.09,2.99-4.15,4.16-1.21,1.33-2.11,4.12-4.53,2.61-2.56-1.6.91-6.34,2.68-7.5.77-.51,3.12-1.52,3.98-1.53Z"/>
      <path d="M37.83,216.93c-1.61-1.55-3.65-3.7-2.44-6.11.64-1.27,2.25-1.22,3.25-.36.59.5,3.56,3.68,4.01,4.3,1.83,2.55-.2,4.84-3.11,3.66-.98-.39-1.11-.91-1.7-1.48Z"/>
      <path d="M68.31,194.18c1.39-.42,2.35.09,3.09,1.23,1.42,2.18,2.72,7.99-1.49,7.6-2.5-.23-5-7.8-1.6-8.82Z"/>
      <path class="cls-1" d="M77.25,232.6c-5.18-.15-9.56-5.04-11.62-9.41l7.61,4.15,4.01,5.26Z"/>
    </g>
  </g>
  <g id="aAbfpB-3" data-name="aAbfpB">
    <g>
      <path d="M251.56,263.3c.02.16.02.31-.01.44.02-.13.03-.28.01-.44Z"/>
      <path d="M251.29,229.05c-1.11-.59-13.3.84-13.67.89-.4.06-.9-.02-1.26-.27-1.66.24-3.32.49-4.99.51-.51,0-.87-.22-1.09-.54l-4.55.18c.07-.14.16-.37.24-.68-1.26.15-2.51.37-3.73.73-.14.13-.29.19-.52.23-.12.02-.24.04-.37.05-.23.08-.46.16-.68.25-.42.17-.79.11-1.06-.06-2.49.19-5.22.13-7.59.33-2.65.22-5.35.44-7.97.64-3.28.25-11.38.33-14.03,1.42-2.84,1.17-5.34,7.62-6.37,10.51-4.15,11.6-7.56,23.64-11.43,35.36-1.12,3.41-2.64,6.67-3.38,10.19l-.3.24c-8.24-1.4-16.6.66-24.76,1.97l2.03-.91c-2.36.42-4.71.75-6.99,1.08-.23.03-.45.07-.68.1.04,0,.07.01.11.02l-9,1.84-.08-.24c-1.7.38-3.4.79-5.09,1.27l.03.15-1.59.31c-.15.05-.3.09-.45.13-6.39,1.97-12.61,4.42-18.98,6.45-1.01,1.67-1.06,6-.12,7.51.2.33,1.31,1.43,1.65,1.67,2.25,1.61,10.77,2.99,13.91,3.53,10.15,1.76,20.94,2.59,31.21,3.39,6.64.52,13.26,2.05,16.41-5.54l63.16-10.96c6.43-2.22,6.96-10.13,9.04-15.9.39-2.46,1.38-4.91,2.27-7.1l1.61-4.26c.08.03.15.05.23.08.73-1.57,1.49-3.13,2.24-4.69-.32.05-.64.11-.95.19l4.43-14.12s1.76-6.66,1.82-6.97c.04-.19.08-.37.11-.56.12-.58,3.29-9.85,3.32-9.84.03,0,.06.02.09.04.01,0,1.34-6.77-2.22-8.65ZM159.43,312.34c-1.82,1.33-6.41.15-8.6,0-10.91-.76-21.84-1.72-32.63-3.36-2.79-.42-7.08-.92-9.66-1.69-1.1-.33-1.35-.92-1.48-2.02l.81-.64c.4.18.75.41,1.19.48,14.91,2.57,30.54,4.57,45.65,5.56,2,.13,3.96.14,5.95,0l-1.23,1.67ZM166.29,294.84l-20.36,3.45c-.08,0-.15,0-.23,0-.15.01-.29.02-.43.04-.07.01-.14.02-.21.03-.13.02-.26.05-.39.08-.31.08-.6.19-.85.32-.1.05-.2.11-.29.16-1.59,1.02-1.71,2.98-.38,4.14.07.07.16.13.24.19.13.09.27.17.42.25.1.05.2.1.31.14.11.04.22.08.34.12.3.09.62.15.98.19.14.01.29.02.44.02l16.71.87-.57,1.93-48.15-4.98c.37-.88,1.52-.44,2.29-.61,12.65-2.82,26.63-5.95,39.41-7.38,1.62-.18,10.81-.84,11.45-.31l-.74,1.33ZM246.42,244.85c-5.77,16.83-10.73,33.94-17.37,50.46l-60.63,11.21c3.18-10.35,6.96-20.5,10.32-30.79,2.96-9.06,5.69-18.07,8.63-27.08.78-2.37,2.29-9.12,3.76-10.63.52-.53,1.86-1.18,2.61-1.27,4.51-.54,9.53-.25,14.12-.55,6.98-.46,13.96-.94,20.94-1.35,3.49-.2,6.98-.39,10.47-.55.7-.03,1.4-.06,2.09-.09.4-.02.8-.05,1.2-.09.4-.04.8-.09,1.2-.14.27-.03.53-.07.8-.1,1.57-.2,3.13-.38,4.69-.17l-2.84,11.14Z"/>
      <path class="cls-1" d="M249.26,233.71l-2.84,11.14c-5.77,16.83-10.73,33.94-17.37,50.46l-60.63,11.21c3.18-10.35,6.96-20.5,10.32-30.79,2.96-9.06,5.69-18.07,8.64-27.08.77-2.37,2.29-9.12,3.76-10.63.52-.53,1.86-1.18,2.6-1.27,4.51-.54,9.53-.25,14.12-.55,11.17-.73,22.33-1.53,33.5-1.99,2.63-.11,5.27-.85,7.89-.5Z"/>
    </g>
  </g>
  <g id="aAbfpB-4" data-name="aAbfpB">
    <g>
      <path d="M287.1,154.61c-.02.35,0,.71.07,1.06.07-.2.14-.4.21-.59.05-.15.11-.3.16-.44-.15,0-.3-.02-.44-.02Z"/>
      <path d="M369.9,258.83c-.09-.06-.18-.13-.25-.22-.11-.15-.32-3.04-.49-3.68-1.62-6.11-5.2-14.02-8.95-19.01-.53-.71-3.66-4.02-3.71-4.32-.04-.22-.03-.45.01-.67,1.21.25,1.89-1.29,2.49-1.55.26-.11,3.39.14,4.7-.26,6.39-1.95,6.83-10.1,2.49-14.26,3.64-.56,6.68-4.26,6.93-7.88.4-5.71-3.87-10.39-9.7-9.84,2.74-5.24,2.14-16.36-5.26-17.16.6-1.5,1.68-2.31,2.35-3.88,1.39-3.31,1.95-8.66.35-11.97-.18-.36-2.59-3.4-2.42-3.53h0c1.06-3.79-.04-4.66-.05-4.78-.02,0,0-.04.04-.1,1.1-1.83,1.01-4.14-.12-5.95l-.15-.23s0,0,.01,0c.69-2.36-1.96-3.39-1.95-3.33-.25.25-.84-1.42-1.11-1.79-.54-.74-1.81-2.17-2.48-2.78-3.57-3.27-8.65-3.83-13.02-1.79-3.23-8.74-15.76-11.66-22.56-5.32-4.41-3.62-11.23-4.03-15.9-.61-1.15.84-3.67,3.45-4.1,4.76-.25.74-.34,3.88-1.04,4.11h0c-.5-.01-.93.34-1.02.83-.32,1.77-.53,4.09-.53,4.09l.57.43c-1.99.96-2.92,3.09-3.59,5.16-.25.79-.6,1.55-1.04,2.26-.35.58-.76,1.35-.95,1.84-.08.21-.07.37-.01.5.35.85,1.13,1.45,1.99,1.76l.48.17c1.06,1.05-.74,2.64-1.18,3.53-1.43,2.97-2.74,7.88-3.79,11.16-5.13,15.9-7.59,32.42,7,44.05.86.68,2.4,1.43,3.13,2.08.25.22.23.21.17.57-4.08,1.41-7.98,3.63-11.5,6.1-2.01,1.41-4.1,3.18-5.95,5.11-.67.7-2.63,3.69-3.45,3.47-1.3-3.4-2.33-6.89-3.53-10.32-.29-.83-1.01-1.88-1.18-2.69-.57-2.6.5-3.05,1.17-5.2,1.55-4.94,3.39-12.84,4.13-17.96.68-4.74-1.81-9.03-7.04-7.37-2.55.81-4.45,3.31-5.85,5.49-.14.23.15.57-.58.4-.01-.6-.09-1.22-.3-1.78-1.41-3.94-5.29-13.69-9.88-14.48-3.86-.66-5.3,3.73-4.78,6.85-1.99-1.84-4.21-2.92-7-2.43-.94.17-.48.86-1.28.77-1.52,2.12,1.04,7.07,1.32,10.2.02.42-5.77-2.77-5.76-2.36-6.11,2.18-2.59,6.93-1.18,10.9.5,1.41,12.86,17.32,13.68,19.97.04.12-.74,4.14.74,4.34l-.03,1.86c-.46,1.34,1.74,10.18,1.74,10.18l5.24,14.07c.37.44.72.93,1.06,1.46.74,1.17,1.39,2.41,1.92,3.69,31.83.91,63.53,1.57,95.22,2.12,4.99.09,11.09.66,16.5.53-.18-1.78-.43-3.55-.77-5.31ZM340.45,148.55l.55-.13c.33.72,1.17,1.78,1.94,1.94l-.41.53c-1.02-.39-2.25-1.08-2.08-2.33ZM306.85,151.78c1.79-1.12,3.1-.87,5.09-.6l-3.65,1.46-2.43.47c-.26-.22.9-1.28,1-1.34ZM293.45,169.39c1.6-4.19,4.53-10.64,7.02-14.3.3-.44.7-.78,1.09-1.13l2.42,2.28c3.55,2.09,9.9.15,12.52-2.84,1.55,1.79,3.71,3.16,6.12,3.57,3.41.58,6.33-.21,9.52-1.35.03.94-.08,1.9.07,2.84.46,2.93,4.47,7.13,7.69,6.85-4.01,3.47-4.32,11.38.55,14.25-1.48,1.3-1.31,4.26-.12,5.67,1.74,2.08,3.97-1.18,5.59-1.58.29-.07,3.57-.35,3.75-.31.86.23,2.59,2.27,2.89,3.22,1.8,5.78-4.16,12.43-9.83,12.73-2.54.14-4.82-1.74-6.66,1.34-1.72,7.11-5.2,13.39-8.29,19.96-.25,2.44,1.38,3.13,3.55,2.84-.02,3.09-3.09,6.79-5.35,8.77-4.61,4.02-11.91,7.62-18,4.76-.19-.09-1.76-1.09-1.86-1.19-.19-.19-2.2-3.14-2.2-3.34,0-2.06-.29-5.32,0-7.2.02-.15.36-.4.28-.69,2.34,1.77,7.5.67,5.5-2.88-.67-1.18-6.09-2.35-7.82-3.26-19.47-10.24-14.91-32.02-8.42-49.03ZM245.88,215.71c-2.71-4.77-6.2-9.2-8.44-14.21-.34-.75.53-1.46,1.2-.99,0,0,0,0,.01,0,1.39.97,2.96,2.39,4.06,3.69.87,1.03,2.26,3.66,3.19,4.29,1.94,1.32,3.35-.5,3.06-2.51-.21-1.45-2.9-5.7-3.61-7.74-.52-1.48-1.4-4.26-1.74-5.73-.09-.38-.21-1.16.07-1.46,1.92,1.48,3.67,3.46,5.07,5.45,1.14,1.61,2.56,3.91,3.5,5.64.23.42.11.97.42,1.52,1.13,2.04,3.9.75,3.6-1.92-.31-2.74-2.04-6.29-2.58-9.28-.32-1.75-.43-3.76-.44-5.56l2.35,3.6,5.6,13.98c-1.65,2.08-3.74,4.01-4.23,6.77-.35,1.97.55,3.75,2.78,3.32,1.32-.26,1.63-2.92,2.25-4.12.69-1.33,1.83-2.26,2.61-3.48,1.89-2.96,2.99-8.16,5.99-10.06.31-.2,1.43-.89,1.47-.19,0,.09-.31.47-.28.83.35,3.43-.6,5.9-1.3,9.22-1.01,4.78-2.12,12.54-5.34,16.25-2.19,2.52-6.36,3.22-9.4,4.3-4.72.8-7.24-10.99-9.85-11.61ZM347.65,258.59c-.62-3.65-1.38-8.03-2.83-11.42-.84-1.97-1.64-3.44-3.88-2.12-2.15,1.27.27,5.79.76,7.73.18.71,1.12,5.3.97,5.54l-58.42-1.11c.64-5.43,4.29-9.8,6.59-14.6.36-1.78-1.65-2.88-3.15-2.02-1.78,1.02-6,9.36-6.96,11.58l-1.73,4.63-16.44-.23c-1.07-.41-3.9-6.34-4.47-7.67-.35-.83-.42-1.75-.76-2.57-1.63-3.98-3.62-7.81-4.05-12.18.23-1.08,1.64-2.17,2.65-2.36.43-.08.88.26,1.25.16,2.02-.52,4.05-1.58,6.01-2.3l5.26-3.18c.46,1.48.83,3.2,1.31,4.64.51,1.55,3.46,10.34,4.16,10.87,3.08,2.31,4.85-1.54,6.57-3.33,4.2-4.38,9.55-8.8,14.9-11.68,1.1-.59,2.21-1.26,3.52-1.05-.23,1.19.26,2.36.3,3.46.07,1.78-.31,2.32.27,4.41,1.69,6.14,7.82,9.35,13.96,9.01,8.55-.47,16.77-6.52,20.96-13.93.52-.91,1.52-4.07,2.36-4.31.85-.23,4.66,1.48,5.68,1.97,12.15,5.92,20.19,19.23,22.36,32.32l-17.16-.28Z"/>
      <path class="cls-1" d="M311.93,151.18l-3.65,1.46-2.43.47c-.26-.22.9-1.28,1-1.34,1.79-1.12,3.1-.88,5.09-.6Z"/>
      <path class="cls-1" d="M341,148.42c.33.72,1.17,1.78,1.94,1.94l-.41.53c-1.02-.39-2.25-1.08-2.08-2.33l.55-.13Z"/>
      <path d="M301.41,204.89c-2.33.51-6.68-1.5-4.58-4.17,1.74-2.2,4.15-.69,6.38-.52,3.31.25,10.9-1.32,13.89-2.73,2.15-1.01,4.18-3.14,6.45-3.93-.3-.57-1.28-.55-1.68-1.22-1.4-2.36.99-3.98,3.16-3.93,5.05.11,6.87,4.68,5.59,9.04-.63,2.15-2.82,2.07-3.33,2.76-.31.42-.56,2.54-.84,3.32-1.74,4.86-4.47,8.49-9.21,10.72-6.91,3.26-16.63-.88-15.84-9.33ZM321.07,204.61c-3.11,1.29-5.75,2.84-7.47,5.81,3.26-.39,5.8-3.16,7.47-5.81Z"/>
      <path d="M309.91,173.97c2.39,2.63-2.84,6.91-4.93,8.05-2.7,1.46-7.89,1.99-7.63,6.1.09,1.4,4.65,2.15,5.87,2.12,2.43-.05,5.57-2.5,7.13-2.19,1.45.29,1.72,1.69,1.4,2.95-1.15,4.45-10.54,4.68-13.98,3.29-3.63-1.47-6.54-5.25-4.98-9.25.08-.2,1.52-2.22,1.71-2.44,2.22-2.46,6.49-3.71,9.13-5.55,1.49-1.04,4.14-5.45,6.29-3.08Z"/>
      <path d="M328.45,169.83c-.67-.59-1.99-1.77-2.7-2.14-1.39-.74-4.45-.98-4.32-3.31.14-2.51,3.21-2.24,4.91-1.71,2.48.78,8.73,6.32,5.09,8.41-1.75,1.01-2.1-.5-2.97-1.26Z"/>
      <path d="M318.93,172.3c1.19-1.43,3.91-.91,4.34.9.37,1.54-.06,5.15-1.09,6.36-2.02,2.36-4.76,1.39-4.92-1.75-.04-.85,1.18-4.92,1.68-5.51Z"/>
      <path d="M307.41,164.38c-1.05.8-2.71.49-3.86.71-1.72.32-3.56,2.29-4.87-.24-2.22-4.28,6.94-5.58,8.82-3.28.54.66.65,2.25-.09,2.82Z"/>
      <path d="M302.09,176.5c-.3.25-.21.52-.87.64-5.73,1.06-2.7-11.17,1.86-7.56,2,1.59.76,5.45-1,6.92Z"/>
      <path class="cls-1" d="M321.07,204.61c-1.68,2.65-4.21,5.42-7.47,5.81,1.73-2.97,4.37-4.51,7.47-5.81Z"/>
    </g>
  </g>
  <g>
    <path class="cls-1" d="M162.97,20.28c-6.23.55-15.35,1.82-19.72,6.52-9.38,10.09-8.67,45.98-4.28,58.56,6.99,20.03,31.75,16.25,48.64,17.4,2.24,1.47,2.91,19.92,6.9,21.21,6.59,2.13,11.13-16.25,13.86-20.28,18.42-1.06,32.23-2.59,36.69-23.02,3.24-14.84,5.9-49-10.44-56.58-12.36-5.73-56.81-5.12-71.65-3.8Z"/>
    <path d="M162.97,20.28c14.85-1.32,59.29-1.93,71.65,3.8,16.34,7.58,13.68,41.74,10.44,56.58-4.47,20.44-18.28,21.96-36.69,23.02-2.73,4.03-7.27,22.41-13.86,20.28-3.99-1.29-4.66-19.74-6.9-21.21-16.89-1.15-41.65,2.62-48.64-17.4-4.39-12.57-5.1-48.46,4.28-58.56,4.37-4.7,13.48-5.97,19.72-6.52ZM205.82,97.97c22.78-.13,32.37-.87,35.93-25.14,2.17-14.77,4.28-41.95-14.31-46.09-6.65-1.48-17.85-1.96-24.9-2.25-12.95-.53-36.56-1.11-48.63,2.12-3.85,1.03-6.53,2.27-8.72,5.76-6.32,10.1-5.51,40.64-1.48,51.85,6.44,17.94,33.96,10.64,48.71,14.42l4.2,18.18,9.19-18.85Z"/>
    <path class="cls-1" d="M205.82,97.97l-9.19,18.85-4.2-18.18c-14.75-3.77-42.27,3.53-48.71-14.42-4.03-11.22-4.84-41.75,1.48-51.85,2.19-3.49,4.87-4.73,8.72-5.76,12.06-3.22,35.67-2.64,48.63-2.12,7.05.29,18.25.77,24.9,2.25,18.6,4.14,16.48,31.31,14.31,46.09-3.57,24.28-13.15,25.01-35.93,25.14ZM176.04,85.85c1.93.96,3.57.58,5.54.16,5.11-1.08,30.85-14.99,32.68-18.98,2.37-5.15-5.27-9.3-8.83-11.94-3.93-2.92-24.85-16.14-28.29-16.1-2.66.04-2.99,4.82-3.16,6.76-.43,5.22-.44,37.84,2.07,40.09Z"/>
    <path d="M176.04,85.85c-2.5-2.25-2.5-34.87-2.07-40.09.16-1.95.49-6.73,3.16-6.76,3.44-.05,24.37,13.18,28.29,16.1,3.57,2.65,11.2,6.79,8.83,11.94-1.83,3.98-27.57,17.89-32.68,18.98-1.97.42-3.6.8-5.54-.16Z"/>
  </g>
  <g>
    <path class="cls-1" d="M299.56,119.69c4.39-5.11,8.95-.88,14.87-.95,5.9-.06,10.9-.93,15.34-4.95,8.21-7.44,17.7-45.82,17.47-57.11-.14-6.76-1.28-10.01-6.84-13.86-8.15-5.64-53.76-16.92-63.72-16.07-6.11.52-8.79,1.81-12.26,6.82-6.34,9.16-15.46,50.82-12.73,61.28,3.11,11.94,24.89,14.14,34.2,18.27.66,6.02-1.14,12.45,1.4,18.1,6.47-.2,9.06-7.78,12.27-11.52Z"/>
    <path d="M299.56,119.69c-3.21,3.74-5.8,11.32-12.27,11.52-2.54-5.65-.74-12.08-1.4-18.1-9.31-4.13-31.09-6.33-34.2-18.27-2.73-10.45,6.39-52.11,12.73-61.28,3.47-5.01,6.15-6.3,12.26-6.82,9.96-.85,55.57,10.42,63.72,16.07,5.56,3.85,6.7,7.11,6.84,13.86.23,11.3-9.26,49.67-17.47,57.11-4.44,4.02-9.44,4.89-15.34,4.95-5.92.06-10.48-4.16-14.87.95ZM290.93,125.23l9.79-12.28c8.09-.87,17.22,4.62,24.91-.62,9.97-6.79,15.45-38.64,15.8-50.39.42-14.01-.57-16.02-13.59-20.46-9.45-3.22-45-12.44-53.32-10.83-3.04.59-5.72,3.27-7.41,5.72-5.56,8.08-14.11,45.9-12.39,55.38,2.27,12.54,25.75,13.66,35.27,18.05l.92,15.42Z"/>
    <path class="cls-1" d="M290.93,125.23l-.92-15.42c-9.53-4.4-33-5.51-35.27-18.05-1.72-9.49,6.83-47.3,12.39-55.38,1.69-2.45,4.37-5.13,7.41-5.72,8.32-1.61,43.87,7.61,53.32,10.83,13.02,4.44,14.01,6.44,13.59,20.46-.35,11.75-5.83,43.6-15.8,50.39-7.69,5.24-16.83-.25-24.91.62l-9.79,12.28ZM286.61,47.2c-.49-.26-1.42-6.06-4.39-4.83,4.06,8.07-1.56,5.5-2.87,11.4l6.88-2.85c2.83,8.45,5.39,4.6,2.47-2.15l3.79-1.44.11-2.84-5.98,2.72ZM296.12,61.22c-2.1-2.43,4.04-13.68,4.28-16.96.09-1.29-.99-1.81-2.12-1.55l-6.14,16.98c-1.24.83-11.53-3.37-14.21-3.49-1.8-.08-2.51-.47-3.47,1.5l17.2,5.65-4.9,15.46-16.69-4.44c-1.55,5.53,13.44,5.19,15.16,6.95,1.01,4.77-3.39,10.07-3.81,14.19-.19,1.86-.45,2.47,1.47,3.45l6.07-15.45,17.52,5.09-5.12,14.51c-.05,1.37.22,1.57,1.53,1.13,3.84-1.3,3.15-11.83,6.2-14.58,1.97-.91,8.62,2.6,11.11,3.05,1.39.25,2.74.83,3.21-1.16.56-2.41-12.28-3.03-13.53-5.38l4.82-16.23c1.8-1.57,9.58,2.18,12.53,2.52.94.11,2.3,1.31,1.46-.9-1.35-3.54-9.92-2.44-12.61-5.52-1.05-2.61,5.71-12.65,3.82-16.48-2.81-2.37-5.4,15.14-7.4,15.66l-16.35-4ZM270.83,93.23c5.12,4.12,13.83-3.17,8.43-9.78-5.83-7.13-15.89,3.78-8.43,9.78ZM317.9,74.71c-7.19,2.61-2.77,13.48,4.06,11.86,7.73-1.83,5-15.16-4.06-11.86ZM299.08,100.22l-1.44-6.19c6.49-3.56,4.54-7.56-1.24-2.57-1.87-.58-1.82-5.7-4.36-4.81s1.35,4.35,1.21,5.69c-.26,2.51-6.65,1.76-4.54,5.78l5.5-2.63c2.23.16,1.86,6.04,4.87,4.74Z"/>
    <path d="M296.12,61.22l16.35,4c2.01-.53,4.6-18.04,7.4-15.66,1.89,3.83-4.88,13.87-3.82,16.48,2.69,3.08,11.26,1.98,12.61,5.52.85,2.21-.52,1.01-1.46.9-2.95-.34-10.72-4.09-12.53-2.52l-4.82,16.23c1.25,2.34,14.09,2.96,13.53,5.38-.46,1.98-1.81,1.41-3.21,1.16-2.49-.45-9.14-3.96-11.11-3.05-3.04,2.75-2.35,13.28-6.2,14.58-1.31.44-1.58.24-1.53-1.13l5.12-14.51-17.52-5.09-6.07,15.45c-1.93-.98-1.66-1.6-1.47-3.45.42-4.12,4.82-9.42,3.81-14.19-1.72-1.75-16.71-1.42-15.16-6.95l16.69,4.44,4.9-15.46-17.2-5.65c.96-1.97,1.67-1.57,3.47-1.5,2.69.11,12.97,4.32,14.21,3.49l6.14-16.98c1.12-.26,2.21.26,2.12,1.55-.24,3.28-6.38,14.53-4.28,16.96ZM294.97,63.62l-5.24,16.36,16.88,6.29,5.08-17.52-16.72-5.13Z"/>
    <path d="M270.83,93.23c-7.46-6,2.6-16.91,8.43-9.78,5.4,6.61-3.3,13.9-8.43,9.78ZM277.32,84.49c-6.39-4.41-9.75,7.71-2.68,7.28,3.39-.21,4.98-5.69,2.68-7.28Z"/>
    <path d="M317.9,74.71c9.06-3.29,11.8,10.03,4.06,11.86-6.83,1.62-11.25-9.25-4.06-11.86ZM317.85,83.47c5.75,4.1,9.6-6.62,2.85-6.62-4.11,0-5.49,4.74-2.85,6.62Z"/>
    <path d="M286.61,47.2l5.98-2.72-.11,2.84-3.79,1.44c2.93,6.75.36,10.61-2.47,2.15l-6.88,2.85c1.31-5.9,6.93-3.33,2.87-11.4,2.97-1.23,3.9,4.57,4.39,4.83Z"/>
    <path d="M299.08,100.22c-3.01,1.3-2.64-4.58-4.87-4.74l-5.5,2.63c-2.11-4.02,4.27-3.27,4.54-5.78.14-1.33-3.76-4.79-1.21-5.69s2.49,4.23,4.36,4.81c5.77-4.99,7.73-.98,1.24,2.57l1.44,6.19Z"/>
    <path class="cls-1" d="M294.97,63.62l16.72,5.13-5.08,17.52-16.88-6.29,5.24-16.36ZM305.72,78.87c7.05-8.98-11.49-15.37-11.31-3.94.1,6.53,8.45,7.58,11.31,3.94Z"/>
    <path class="cls-1" d="M277.32,84.49c2.3,1.59.71,7.07-2.68,7.28-7.06.43-3.71-11.69,2.68-7.28Z"/>
    <path class="cls-1" d="M317.85,83.47c-2.64-1.88-1.26-6.62,2.85-6.62,6.75,0,2.9,10.72-2.85,6.62Z"/>
    <path d="M305.72,78.87c-2.86,3.64-11.2,2.59-11.31-3.94-.18-11.43,18.36-5.04,11.31,3.94ZM302.8,71.54c-3.65-2.77-8.37,3.76-4.95,6.67s9.09-3.53,4.95-6.67Z"/>
    <path class="cls-1" d="M302.8,71.54c4.14,3.14-1.41,9.68-4.95,6.67s1.3-9.44,4.95-6.67Z"/>
  </g>
</svg>