<?xml version="1.0" encoding="UTF-8"?>
<svg id="Layer_1" data-name="Layer 1" xmlns="http://www.w3.org/2000/svg" viewBox="0 0 957.33 1101.33">
  <defs>
    <style>
      .cls-1 {
        fill: #fff;
      }
    </style>
  </defs>
  <g id="fEVYo0">
    <g>
      <path class="cls-1" d="M915.91,698.65c.82-1.28.67-26.19.69-30.32.49-107.16-.38-214.55-.41-320.97l-.07-275.07c.01-10.51,6.32-22.12-8.42-23.5-36.06-3.37-77.39,2.56-113.96.05-142.07-.1-286.79-.1-429.03-.06-104.71.02-209.36.12-314.1,0-1.64-.05-3.45.08-4.54,1.46-1.82,2.3-.83,31.49-.86,37.14-1.81,296.15.88,593.58.96,889.89,0,25.46-3.23,52.61-1.05,78.12.56,6.55,4.24,8.19,10.51,8.52,25.79,1.36,53.13-1.05,79.08-1.1,249.66-.52,503.55-.33,752.9.51,3.42.01,7.51.63,10.06.54,3.88-.13,14.07-1.49,16.53-4.46,3.33-4.03,1.38-27.4,1.53-34.04,2.24-97.89.02-197.36-.6-294.95-.06-10,.06-20.02,1.12-29.93l-2.09-1.12c-.15-.92,1.45-.19,1.76-.68Z"/>
      <path d="M915.91,698.65c-.31.49-1.91-.24-1.76.68l2.09,1.12c-1.06,9.9-1.18,19.93-1.12,29.93.62,97.59,2.84,197.06.6,294.95-.15,6.64,1.81,30.01-1.53,34.04-2.46,2.97-12.66,4.33-16.53,4.46-2.55.09-6.64-.53-10.06-.54-249.35-.84-503.24-1.03-752.9-.51-25.94.05-53.28,2.47-79.08,1.1-6.27-.33-9.95-1.97-10.51-8.52-2.18-25.5,1.05-52.66,1.05-78.12-.09-296.3-2.77-593.74-.96-889.89.03-5.64-.96-34.83.86-37.14,1.09-1.38,2.9-1.51,4.54-1.46,104.74.12,209.39.03,314.1,0,142.24-.03,286.96-.04,429.03.06,36.58,2.51,77.9-3.41,113.96-.05,14.74,1.38,8.43,12.99,8.42,23.5l.07,275.07c.03,106.42.9,213.8.41,320.97-.02,4.13.13,29.05-.69,30.32ZM107.29,65.62l-.62-1.8-1.11,1.99c-13.05,1.05-28.11-1.61-40.93-.02-2.13.26-3.51,1.35-5.33,2.22l.31,58.33-1.36,17.08,1.84.84c-1.07,6.29-2.81,35.26,1.09,39.07l175.99.52.96-116.97-130.84-1.26ZM408.16,65.84l-157.05-.57.2,119.42,156.69-1.02.16-117.83ZM587.17,65.84l-165.86-.87-.72,117.93,165.62.47.95-117.53ZM747.17,183.84v-117.52c-.95-.81-9-2.34-10.62-2.38-40.56-.97-85.15.57-125.89,1.69-3.37.09-7.55-2.18-11.36.34l-.07,116.79,147.94,1.07ZM899.06,65.94l-137.96.33.08,117.55,138.99-.98-1.11-116.9ZM238.17,197.84l-177.05.44-1.95,158.54,177.05-.43,1.12-51.1,1.83-.96-2.1-1.1,1.09-105.39ZM319.99,198.58c-1.19.75-11.64-.75-14.29-.78-8.64-.1-17.3.62-25.87.65-9.26.04-18.73-1.75-28.01-.47l-1.94,2.11,1.36,17.24c-3.03,44.26,2.11,87.85-1.98,132.07,3.95.87-.2,3.86,1.96,6.82l156.88.54.07-158.94-86.45,1.07-1.05-2.07c-.92-.15-.19,1.46-.67,1.76ZM587.17,197.83l-166-1v121.42s-2.02,1.09-2.02,1.09l2.12,1.94c-.71,11.77-1.33,23.73-.1,35.55l164.93-.05,1.06-158.95ZM747.5,261.6c-3.56-8.86,2.43-45.36.71-58.31-.23-1.7-.37-3.06-2.05-3.95l-147-1.51c1.58,11.85-.51,23.74-.62,35.67-.29,33.67.95,67.2,1.66,100.88.15,7.14-3.35,15.05,1.12,22.29l145.86.74c1.07-.77.91-1.91,1.03-3.03,1.5-13.19.12-33.15,0-47.09-.1-11.26-1.44-22.78-1.13-33.94.16-5.77,2.01-7.77.42-11.75ZM900.12,197.89l-139.95-.06,1,159.01,138.97-.04v-158.9ZM62.33,370.55l-1.15-1.71c-4.06,8.39-1.06,17.63-.98,26.43.36,41.67.68,83.39.01,125.1-.15,9.18-3.53,12.17,9.46,12.53,27.93.77,57.83-.96,85.94-1.09,24.54-.12,55.5,2.4,79.11.08,1.1-.11,2.27.01,3.01-1.02-.04-5.16-1.87-32.41-.31-34.85.31-.49,1.91.24,1.76-.68l-2.1-1.93c.89-33.7-.75-67.43.05-101.11.09-3.89,2.84-21.11.1-23.02l-174.9,1.28ZM408.17,369.83l-157.87.13-.12,10.86-3.02.51,3.08,1.05.89,148.98,158.04,1.47-.99-163ZM588.17,369.84l-167.54.95.58,52.39-2.06,1.15,1.86.59c-.16,1.03-.68,2.01-.6,3.11.89,12.59.71,27.37.8,40.24.14,21.55-.55,43.14-.03,64.57h165.99s1-163,1-163ZM900.03,371.96l-139.87-1.13,1.94,160.57,138.07.44-.14-159.88ZM748.17,370.83l-148.9-.89-.11,161.9c26.23-.4,52.49,1.04,78.48-.05,6.01.55,13.16,1.05,19.1,1.05,16.02,0,32.8-2.2,48.96-1.12,2.44.16.65,2.32,2.46,2.11l.02-163ZM237.17,705.84l.02-161.58-177.54,1.57-.04,159.06c12.84,2.77,26.76,2.03,40.01.9l137.55.05ZM407.92,546.08l-157.77-1.78v161.54s158.02,0,158.02,0c.62-27.79-1.31-55.94,1.01-83.56.23-4.66-3.16-13.11,1.99-14.95l-3.02-.5c1.02-4.71,1.63-8.71-.08-13.4l2.1-1.1-1.85-.96.88-40.08c-.11-1.46-.22-4.28-1.29-5.21ZM586.17,705.84l.51-161.1-166.41.21,1.89,160.42,164.01.46ZM749.17,545.84l-150.1-.6,1.07,161.17,146.86-.75,2.18-159.82ZM900.03,544.97l-139.87-.14,1.41,160.11c1.33,1.02,9.71,1.8,12.05,1.95,34.99,2.13,71.39-.92,106.02-.94,3.45,0,19.06,1.87,20.38-.25v-160.72ZM238.12,718.87H60.2s-.59,160.03-.59,160.03l177.57.94.95-160.97ZM250.16,879.84l157.04-.46c2.39-1.6.75-10.03.92-13.09,1.39-25.18.26-49.84,0-74.89-.24-23.53-.06-47.11.6-70.59l-158.68-1.52.11,160.55ZM586.17,717.83l-167,1.01,1.41,160.06,166.59.94-1-162.01ZM604.94,718.02c-7.6.84-4.86,6.91-5.02,11.36-1.13,31.27-1.08,62.57-.71,94,1.35,15.74-2.11,36.71.05,51.86.19,1.35.51,2.54,1.38,3.62l145.59.54c1.2-.87,1.85-8.07,1.98-10.02,2.8-41.22-.56-88.66-1.04-130.06-.08-6.5.46-13.12-.48-19.58-.45-.86-13.69-1.29-16.02-1.35-39.08-1.02-78.83.52-118.05.49-2.74,0-5.15-1.14-7.68-.86ZM761.31,878.69l139.44.19-.96-159.1-139.49-.83,1.01,159.73ZM749.17,891.84l-149.99,1,1.22,153.76,147.77.23,1-155ZM238.17,891.83l-178.01,1-1,155.01,177.02-.43,1.99-155.58ZM409.03,893.97l-158.46-1.21-.41,154.07c17.46.62,34.86.79,52.32.9,22.17.14,45.18.51,67.17.17,13.21-.2,26.44-.38,39.51-2.09l-.14-151.85ZM587.12,892.87l-166.95-.03.21,152.79c3.65,3.38,7.4,1.16,11.18,1.32,31.37,1.39,66.33.73,97.68.52,18.84-.12,38.1-.49,56.92-1.65l.96-152.95ZM901.03,892.98l-140.42-.21.71,154.92,138.37-1.84,1.34-152.87Z"/>
      <polygon class="cls-1" points="586.17 717.83 587.17 879.84 420.58 878.9 419.17 718.84 586.17 717.83"/>
      <polygon class="cls-1" points="586.17 705.84 422.16 705.38 420.27 544.95 586.69 544.74 586.17 705.84"/>
      <path class="cls-1" d="M587.17,197.83l-1.06,158.95-164.93.05c-1.24-11.82-.61-23.78.1-35.55l-2.12-1.94,2.03-1.09v-121.42s165.99,1,165.99,1Z"/>
      <polygon class="cls-1" points="408.17 369.83 409.16 532.83 251.12 531.36 250.23 382.38 247.16 381.33 250.18 380.82 250.29 369.96 408.17 369.83"/>
      <path class="cls-1" d="M587.12,892.87l-.96,152.95c-18.82,1.16-38.08,1.53-56.92,1.65-31.35.2-66.31.87-97.68-.52-3.78-.17-7.53,2.06-11.18-1.32l-.21-152.79,166.95.03Z"/>
      <path class="cls-1" d="M250.16,879.84l-.11-160.55,158.68,1.52c-.66,23.48-.84,47.05-.6,70.59.26,25.05,1.39,49.72,0,74.89-.17,3.06,1.47,11.49-.92,13.09l-157.04.46Z"/>
      <path class="cls-1" d="M407.92,546.08c1.08.93,1.18,3.76,1.29,5.21l-.88,40.08,1.85.96-2.1,1.1c1.71,4.69,1.09,8.69.08,13.4l3.02.5c-5.15,1.84-1.76,10.29-1.99,14.95-2.32,27.61-.39,55.77-1.01,83.56h-158.01s-.01-161.54-.01-161.54l157.77,1.78Z"/>
      <path class="cls-1" d="M237.17,705.84l-137.55-.05c-13.26,1.14-27.17,1.87-40.01-.9l.04-159.06,177.54-1.57-.02,161.58ZM96.91,604.05c-3.34-3.49-14,6.38-15.77,9.25-1.11,1.81-2.4,5.28-1.09,7.08,3.63,4.46,9.02-2.68,10.11-1.54-1.62,4.09-.27,7.09-.15,10.64.15,4.64-.7,23,1.39,25.11.9.91,2.87,1.12,4.14,1.31,4.51-9.25,1.11-19.72.99-29.4-.07-6.01,1.47-13.69,1.45-19.23,0-1.05-.35-2.47-1.07-3.23ZM119.41,653.58c2.05,2.38,7.36,1.52,7.44-2.37-.31-9.43-1.3-19.16-1.44-28.61-.1-6.26,4.86-24.58-6.23-16.23-.81.61-5.12,4.04-5.54,4.44-6.84,6.45-6.21,13.23,4.05,9.07l1.47,1.48c-2.25,4.47.01,8.44.06,12.93.04,4.08-1.69,17.09.2,19.29ZM206.83,604.06c-5.36.44-13.91,11.46-15.37,16.56-3.03,10.59-2.8,21.96,5.68,29.73,5.85,5.35,11.54,5.62,18.3,1.26,8.35-5.38,5.73-30.25,1.93-38.49-1.38-3.01-6.94-9.35-10.55-9.06ZM157.18,611.84c-2.47,10.6-7.59,27.8.59,36.89,7.07,7.85,19.9,8.02,23.9-2.9,2.06-5.62,3.29-19.19,2.02-25.01s-5.55-13.41-11.67-15.32c-6.81-2.13-5.48-.13-8.97,2.75-1.8,1.49-4.26.35-3.88,5.58l-1.98-1.99ZM144.91,615.09c-3.37-3.25-9.69-.04-7.27,4.75,3.11,6.17,10.9-1.25,7.27-4.75ZM145.04,635.96c-3.53-.83-10.09,1.21-8.13,5.57,3.31,7.39,12.82,1.95,8.13-5.57Z"/>
      <path class="cls-1" d="M409.03,893.97l.14,151.85c-13.07,1.7-26.3,1.89-39.51,2.09-21.99.33-45.01-.03-67.17-.17-17.46-.11-34.87-.27-52.32-.9l.41-154.07,158.46,1.21Z"/>
      <path class="cls-1" d="M238.12,718.87l-.95,160.97-177.57-.94.59-160.03h177.92ZM96.16,775.84c-.26-.27-6.95,1.69-7.27,1.9-1.16.79-1.66,2.89-3.2,4.12-3.66,2.93-10.15,4.37-8.11,11.04,1.57,2.16,8.06.55,10.57-.06-.79,5.27.91,10.42,1.05,15.44.14,4.97-2.14,13.64.9,17.1,3.42,3.9,6.87.32,7.12-4.07.51-8.89-1.42-19.85-1.64-28.85-.14-5.53.82-11.04.57-16.62ZM127.86,779.14c-4.99-4.56-14.01-1.8-18.21,2.68-2.37,2.52-6.07,6.76-2.03,9.07,5.66,3.24,9.36-7.22,16.55-5.05.71,8.63-5.91,15.13-8.58,22.91l-9.9,13.05c-.29,7.94,9.17,6.38,15.03,6.08,4.62-.24,18.28-.84,14.96-8.01-2.05-4.43-9.2-1.91-13.1-2.14-1.33-.08-1.58-.37-2.38-1.39,4.99-5.06,14.76-23.85,12.24-30.19-.28-.7-4.1-6.58-4.56-7ZM178.81,778.2c-6.38-3.4-10.59-.81-14.47,4.31-6.72,8.87-6.93,18.76-5.61,29.47.83,6.71,4.42,14.75,12.02,15.76,8.25,1.09,11.71-1.47,15.17-8.65,4.65-9.64,3.69-27.18-2.36-36.16-.36-.53-4.45-4.58-4.75-4.74ZM209.89,777.03c-17.89,2.39-25.51,54.19,2.8,50.83,8.69-1.03,13.74-15.98,13.53-23.55-.23-8.01-5.21-28.76-16.32-27.27ZM141.31,788.96c-2.36,3.88,4.51,7.44,7.9,5.42,1.12-1.73,2.52-4.33,1.07-6.1-1.05-2.85-8.42-.23-8.97.67ZM143.41,817.58c5.2,5.24,13.29-6.4,5.02-8.6-5.59-1.49-8.16,5.44-5.02,8.6Z"/>
      <path class="cls-1" d="M238.17,197.84l-1.09,105.39,2.1,1.1-1.83.96-1.12,51.1-177.05.43,1.95-158.54,177.05-.44ZM119.01,263.99c-.86-.53-2.91.14-4.09-.37-2.33-1-2.97-3.21-6.32-3.74-5.31-.83-13.46,1.89-15.68,7.2-1.55,3.7-2.62,17.37-1.55,21.04.96,3.3,8.57,8.06,12.1,7.52,2.51-.38,4.54-3.84,6.66-4.38,3.02-.77,1.03,2.74,1.01,4.03-.1,8.83-4.65,21.78,8.78,17.29.89-.77,1.13-3.02,1.25-4.24.87-9.1.92-27.96,0-37.02-.13-1.27-1.6-7-2.16-7.34ZM172.82,306.49c8-9.41,7.12-34.96-3.16-42.65-17.88-13.37-25.71,19.87-23.05,33.05,2.69,13.39,15.98,21.62,26.21,9.6ZM187.46,305.55c.36.45,6.01,4.64,6.64,4.84,17.2,5.53,21.45-16.55,19.89-28.91-1.36-10.79-9.12-28.37-21.77-17.09-9.27,8.28-12.45,31.42-4.76,41.15ZM133.9,272.03c-5.86,1.24-4.88,8.68.79,8.39,5.15-.26,7.55-10.15-.79-8.39ZM139.92,294.08c-5.66-3.08-12.42-.27-8.61,6.6,5.27.89,12-.14,8.61-6.6Z"/>
      <path class="cls-1" d="M62.33,370.55l174.9-1.28c2.74,1.91-.01,19.13-.1,23.02-.8,33.69.84,67.41-.05,101.11l2.1,1.93c.15.92-1.45.19-1.76.68-1.56,2.44.27,29.69.31,34.85-.74,1.04-1.92.92-3.01,1.02-23.61,2.32-54.57-.2-79.11-.08-28.11.14-58.01,1.86-85.94,1.09-12.99-.36-9.6-3.34-9.46-12.53.67-41.71.35-83.43-.01-125.1-.08-8.8-3.08-18.04.98-26.43l1.15,1.71ZM92.92,479.58c2.81-5.79.28-11.51.2-17.19-.1-7.01-.02-14.07,0-21.09,0-2.32,2.48-9.45-1.56-10.38-1.92-.44-21.93,13.84-12.75,17.77l7.35-2.84.17,32.33c1.4,2.53,4.37,3.12,6.59,1.41ZM127.87,479.54c.34-.24,4.16-6.24,4.48-7.01,1.95-4.67,3-20.13,1.72-25.07-.54-2.08-5.52-11.89-6.88-13.14-3.46-3.18-9.2-3.23-13.27-1.27-3.29,1.59-7.41,9.09-8.47,12.58-2.76,9.1-2.18,19.24,1.52,27.91,1.64,3.86,6.61,7.69,10.82,7.97,1.55.11,8.99-1.17,10.08-1.96ZM167.71,434.39c-14.83,12.92-13.69,52.23,12.74,46.23,14.03-3.18,14.06-54-9.68-48.4-2.48.59-1.85,1.11-3.06,2.17ZM219.61,435.39c-6.82-6.81-13.26-4.17-18.46,2.92-6.53,8.89-9.09,19.14-6.03,30.08,3.25,11.61,15.76,16.58,25.56,9.46,8.91-6.47,6.41-34.98-1.07-42.46ZM143.83,442c-2.33.81-3.68,5.3-1.25,6.92,2.03,1.53,7.03,1.54,8.68-.49l.95-3.04-1.46-2.64c-1.53-1.18-5.12-1.37-6.93-.74ZM150.92,464.07c-.75-.76-5.61-1.64-6.81-.8-1.72,1.2-.24,5.66.14,7.46,4.58,2,10.52-2.71,6.67-6.65Z"/>
      <path class="cls-1" d="M748.17,370.83l-.02,163c-1.81.21-.01-1.95-2.46-2.11-16.16-1.08-32.94,1.12-48.96,1.12-5.94,0-13.09-.5-19.1-1.05-25.99,1.09-52.25-.35-78.48.05l.11-161.9,148.9.89Z"/>
      <polygon class="cls-1" points="749.17 545.84 746.99 705.66 600.14 706.41 599.07 545.24 749.17 545.84"/>
      <path class="cls-1" d="M747.5,261.6c1.6,3.97-.25,5.98-.42,11.75-.31,11.16,1.03,22.68,1.13,33.94.12,13.94,1.5,33.9,0,47.09-.13,1.12.03,2.25-1.03,3.03l-145.86-.74c-4.46-7.24-.96-15.15-1.12-22.29-.71-33.67-1.95-67.21-1.66-100.88.1-11.94,2.2-23.82.62-35.67l147,1.51c1.68.88,1.82,2.24,2.05,3.95,1.72,12.96-4.27,49.46-.71,58.31Z"/>
      <path class="cls-1" d="M238.17,891.83l-1.99,155.58-177.02.43,1-155.01,178.01-1ZM96.02,996.67c.51-.83,1.23-13.13,1.22-15.31-.04-8.31-1.39-16.39-.75-24.89.25-3.34,3.29-6.46.18-10.64-2.76-2.49-6.26-.52-8.07,1.95-1.13,1.54-1.37,3.88-1.52,4.03-.28.28-1.93-.71-2.92-.37-1.78.61-7.55,5.82-7.05,7.86,1.41,5.72,7.28,1.88,9.76,1.7,3.73-.28,1.09,4.23,1.2,6.33.13,2.38,1.04,4.57,1.13,6.96.22,5.98-1.05,15.56,0,20.81.43,2.12,5.44,3.77,6.8,1.58ZM129.84,949.16c-7.63-8.95-22.05-1.31-23.25,8.69,6.73,6.04,9.01-3.33,14.33-3.8,6.33-.56,4.22,4.33,2.72,8.75-3.22,9.46-10.37,20.71-17.37,27.69l.05,2.64c1.53,5.5,20.56,2.89,25.07,1.42,3.86-1.26,4.29-2.46,3.7-6.65l-13.92-1.07c3.19-9.03,14.07-21.42,11.79-31.29-.11-.46-2.89-6.1-3.12-6.37ZM186.88,953.1c-2.15-2.65-11-7.01-14.75-5.83-10.67,3.34-14.77,18.13-13.99,27.99.68,8.52,2.55,18.69,12,21.1,8.96,2.28,15.18-1.03,18.53-9.55.47-1.2,2.52-16.14,2.51-17.5s-3.77-15.56-4.3-16.21ZM204.52,995.46c11.97,6.35,22.06-4.93,22.57-16.3.2-4.5-1.98-18.99-3.47-23.29-1.7-4.92-9.85-10.48-15.2-8.28-11.69,4.8-17.34,29.33-11.68,40.17.39.75,7.13,7.36,7.78,7.71ZM146.92,955.99c-7.67,1.44-2.23,11.11,3.31,6.42,3.85-3.26,1.14-7.25-3.31-6.42ZM142.29,979.95v4.24c4.57,5.21,13.84-.14,7.92-5.84l-7.92,1.59Z"/>
      <polygon class="cls-1" points="749.17 891.84 748.17 1046.84 600.4 1046.61 599.18 892.84 749.17 891.84"/>
      <polygon class="cls-1" points="761.31 878.69 760.3 718.96 899.79 719.79 900.75 878.88 761.31 878.69"/>
      <polygon class="cls-1" points="900.03 371.96 900.17 531.84 762.1 531.4 760.16 370.83 900.03 371.96"/>
      <polygon class="cls-1" points="900.12 197.89 900.13 356.79 761.16 356.84 760.16 197.83 900.12 197.89"/>
      <polygon class="cls-1" points="901.03 892.98 899.69 1045.85 761.31 1047.69 760.6 892.77 901.03 892.98"/>
      <path class="cls-1" d="M107.29,65.62l130.84,1.26-.96,116.97-175.99-.52c-3.9-3.81-2.16-32.78-1.09-39.07l-1.84-.84,1.36-17.08-.31-58.33c1.82-.88,3.2-1.96,5.33-2.22,12.82-1.58,27.89,1.07,40.93.02l1.11-1.99.62,1.8ZM169.8,146.47c1.07-1.05,3.22-4.19,3.92-5.58,3.31-6.64,2.65-19.91-.17-26.94-2.05-5.13-6.82-11.21-12.35-12.64-27.41-7.08-39.29,53.84-5.63,50.41,4.32-.44,11.13-2.22,14.24-5.25ZM219.17,149.83v-47.5c0-1.91-10.19-3.69-10.08,4.05.03,1.87,1.08,3.52,1.08,3.95v22.5c-2.41.53-1.62-.42-2.23-1.31-5.43-7.87-9.61-18.22-14.29-26.67-2.29-2.65-6.37-2.02-9.48-2.03-.7,10.39-.36,21.12-1.01,31.49-.36,5.69-6.12,17.42,4.74,17.28,6.24-.08,3.34-18.58,3.28-22.76.83.08,1.76-.16,2.54-.07,4.01.5,11.74,20,15.16,22.11,3.6,2.23,6.72-.44,10.3-1.05ZM117.17,126.83v22.5c1.79,2.26,9.81,3.3,10.9-.18l-2.34-42.38c-11.82-6.07-10.64,14.15-20.03,16.1-.99-.18-7.22-15.9-9.06-18.01-3.09-3.56-9.22-2.77-9.41,2.54l-3.65,41.98c11.42,12.43,9.66-13.49,10.57-20.04.23-1.69-.27-3.32,1.52-4.5,2.36,6.18,3.87,12.8,8.16,18.06,4.85,1.06,9.22-10.05,11.08-13.86.66-1.36-.65-2.74,2.26-2.2Z"/>
      <path class="cls-1" d="M408.16,65.84l-.16,117.83-156.69,1.02-.2-119.42,157.05.57ZM305.93,102.08c-2.65-3-16.77-.39-21.24-.22-4.36.17-18.01-3.35-15.35,5.27,1.84,5.97,13.39.34,14.69,4.33.74,8.05-3.37,34.63.21,39.78,1.99,2.86,6.93,3.01,9,.15s.06-4.57.16-7.1c.49-11.59.08-22.82-.24-34.48,6.2-.33,15.98,1.65,12.77-7.75ZM332.86,142.52c-3.1,2.18-8.82,1.66-11.16-1.62l1.27-34.35c-.64-4.76-7.71-4.97-8.66-2.08l-2.23,30.86c-1.89,18.07,21.98,22.5,30.54,9.46,4.97-7.57,6.79-30.47,5.59-39.5-.83-6.26-9.32-6.07-10.64-1.47-.75,2.61,1.4,8.19,1.35,11.78-.03,2.33-1.1,4.19-1.21,6.08-.34,5.72.94,16.75-4.86,20.83ZM384.92,108.59c3.09-9.61-1.83-6.75-7.21-6.71-6.49.05-13.01-.18-19.49,0l-2.02,47.43c.16,1.22.83,2.5,1.96,3.04,2.2,1.04,17.08,2.82,17.03-1.5l2.44,2.1c6.55.24,13.34-5.32,6.54-8.62-8.44-4.09-23.52,8.1-18.08-12.03,3.01-1.84,14.67,2.18,14.72-4.95.04-6.41-12.25-1.64-14.21-4.45l-.38-12.01,18.7-2.3Z"/>
      <path class="cls-1" d="M587.17,65.84l-.95,117.53-165.62-.47.72-117.93,165.86.87ZM489.92,101.07c-.68-.7-2.11-1.01-3.1-.94l-2.66,1.45-9.01,34.24-8.15-15.83c-.68-.43-6.18-.39-7.36-.17-4.18.78-5.23,15.07-6.49,19l-2.7-7.78c-2.63-6.51-1.69-19.96-4.51-25.49-1.2-2.35-5.79-3.98-7.34-1.78-1.93,2.74,6.58,40.76,7.8,46.82,2.99,1.68,7.21,2.82,9.83-.21,2.76-3.2,2.7-17.8,7.44-17.53,4.71,7.29,4.31,23.68,16.57,16.56l10.73-42.34c.38-1.75.19-4.71-1.06-6ZM506.43,123.56c-1.96-2.42-1.51-10.79,1.14-12.82,3.68-2.81,14.57,2.96,17.85-4.2.46-1.01,1.05-1.55.31-2.71-2.91-4.58-12.6-1.94-17.08-1.92-2.79.01-8.55-2.3-10.04-.14l-2.28,47.61,3.35,4.45,1-2.01,1.93,2.1,6.58-.1-1.02-1.98,1.97.05.64,1.94,15.41-3c-1.41-2.26-.98-3.68.78-5.51.14-4.56-17.17-.2-19.65-1.63-1.1-.69-2.16-10.08.57-10.04l-.72-1.81c4.02-.31,13.19,1.97,13.01-4.56-.16-5.77-10.57.19-13.75-3.72ZM534.27,151.79c7.05-.39,12.2,1.23,18.8-2.55,15.22-8.71,17.71-31.73,4.12-42.93-6.57-5.41-13.95-4.72-22.02-5.47-.73,6.77-4.02,48.51-.9,50.95Z"/>
      <path class="cls-1" d="M747.17,183.84l-147.94-1.07.07-116.79c3.81-2.52,7.99-.24,11.36-.34,40.74-1.13,85.33-2.66,125.89-1.69,1.62.04,9.67,1.57,10.62,2.38v117.52ZM690.17,152.84l.48-51.02c-.87-2.2-5.52-2.04-6.57-.33l-1.87,21.71c-.72,2.46-13.44-.18-16.05.65-.28-7.05,2.21-13.17,1.05-20.34-.34-1.58-6.63-2.26-8.11-1.22l-2.44,46.57c1.15,2.36,6.31,2.98,8.02,1,3.67-5.91-1.36-12.2,2.46-17.6h14.09c3.65,8.05-6.81,22.91,8.94,20.6ZM735.17,123.33c.48-6.64,0-14.22,0-21,0-3.13-10.86-2.96-10.01,3.94.18,1.5,1.81,2.47,1.91,4,.26,3.92-1.11,15.48-1.92,19.97-.74,4.14-1.65,10.47-5.79,12.54-4.59,2.3-10.42-.26-11.19-5.55.73-8.51,1.69-17.35,2.03-25.87.07-1.8.25-9.12-1.7-9.58l-5.4.48c-1.58,11.15-6.07,32.97-.7,42.83s24.35,6.87,29.27-4.26c1.94-4.4,3.16-12.8,3.5-17.5ZM650.09,101.91c-9.71-.15-20.69-1.98-30.31-1-3.13.32-4.78,1.72-4.2,4.96,1.55,5.36,9.43,3.2,13.53,3.01,2.3,2.1-3.76,35.16.16,41.35,2.2,3.47,7.97,3.82,8.87-.92,1.94-10.26-1.08-26.66-.57-37.5l2.06-2.59c6.32.6,12.15,1.17,10.46-7.31Z"/>
      <path class="cls-1" d="M899.06,65.94l1.11,116.9-138.99.98-.08-117.55,137.96-.33ZM795.16,121.83l2.41-11.09c3.04-2.42,12.05.25,15.93-1.07,2.09-.7,3.46-5.1,2.23-6.88-2.64-3.81-22.88.13-27.46-.85-2.06,8.26-.81,16.96-1.06,25.43-.12,4.11-2.83,21.84,1.4,24.1,1.33.71,7.09-.02,7.89-1.85,2.27-5.17-1.57-13.02-.34-18.79,3.87-.36,13.39,1.74,13.81-3.7.67-8.77-9.52-3.02-14.81-5.3ZM824.17,102.33v49c1.07,1.98,8.11,1.53,8.86.35l-.86-15.84c3.36-2.02,17.04,25.56,24.84,13.35.21-7.18-13.86-12.16-13.86-16.93,0-2.11,2.07-1.57,3.49-3.44,6.27-8.26,10.16-20.94-1.79-26.17-3.49-1.53-19.69-3.55-20.68-.32ZM864.37,150.61c1.98,1.96,10.51,1.68,9.79-3.38-.72-10.61-1.42-21.27-2.01-31.85-.17-3.02,1.13-12.23-.44-13.55-2.14-1.8-7.32-1.85-7.55,1.5,1.43,6.46-2.77,44.34.2,47.28Z"/>
      <path class="cls-1" d="M319.99,198.58c.48-.3-.25-1.91.67-1.76l1.05,2.07,86.45-1.07-.07,158.94-156.88-.54c-2.16-2.96,1.99-5.95-1.96-6.82,4.09-44.22-1.05-87.81,1.98-132.07l-1.36-17.24,1.94-2.11c9.28-1.28,18.74.51,28.01.47,8.57-.04,17.22-.75,25.87-.65,2.65.03,13.1,1.53,14.29.78ZM390.02,212.99c-.52-.83-10.45-1.21-12.31-1.21-27.78.11-55.51.14-83.15.94-6.35.19-13.16-.81-19.67.34-5.2.92-7.59,4.75-8.29,9.72-2.59,18.28-.97,38.27-1.28,56.7-.27,16.37-2.25,36.02-1.2,51.9.13,2.03,1.07,10.01,2.01,10.99,3.44,3.55,15.09.41,19.53.41,24.45-.04,49.57,2.31,74.01,2.05,5.82-.06,25.99.22,30.08-2.9,1.34-1.02,2.01-4,2.32-5.68,2.65-14.03.07-28.85.04-42.86-.05-22.2,2.25-48.09-.25-69.76-.39-3.41-2.25-6.85-1.84-10.63Z"/>
      <path class="cls-1" d="M588.17,369.84l-1,162.99h-165.99c-.52-21.42.17-43.01.03-64.56-.08-12.87.1-27.65-.8-40.24-.08-1.09.44-2.07.6-3.11l-1.86-.59,2.06-1.15-.58-52.39,167.54-.95ZM574.88,437.62c.99-1.52.22-31.1.3-36.28.07-4.68,2.56-9.93-.55-14.47-3.46-5.05-24.72-2.83-31-3-19.57-.52-39.54-1.15-59.01-1.09-13.74.04-31.69-1.25-44.81.35-7.58.93-7.5,6.97-8.65,13.18l3.03-1.97c-.16,2.2-.45,4.66-3,4.5l-.03,1.47c3.21.77.87,3.01,1.09,5.94,2.24,28.93,1.67,59.06,1.89,88.09.06,7.97-.13,16.09-.05,24.06,1.53,4.3,12.1,3.57,16.56,3.49,27.86-.53,56.09-1.09,83.97-2.11,12.89-.47,25.73.24,38.54-1.96,1.7-25.55,3.53-50.82,1.98-76.47l-1.98-3.03c-.15-.89,1.4-.23,1.71-.7Z"/>
      <path class="cls-1" d="M900.03,544.97v160.72c-1.33,2.12-16.93.25-20.39.25-34.63.02-71.03,3.06-106.02.94-2.34-.14-10.72-.93-12.05-1.95l-1.41-160.11,139.87.14ZM861.18,558.83l-.51-2.01-1.99,2.99c-1.49-1.36-3-1.82-4.98-2.01-16.68-1.62-44.87-.93-62.02.04-9.8.55-20.25.37-19.51,12.99l-2-.5c3.56,4.76,1.72,5.84,1.91,9.99,1.53,32.62,1.81,66.09,1.14,99.04-.09,4.41-2.31,8.55.15,13.27,2.41.43,4.81,1.04,7.27,1.23,25.96,1.94,59.53.48,86.1,0,2.92-.05,17.5.08,18.78-.36,1.38-.48,2.31-1.55,3.13-2.69l-1.38-47.37c1.31-22.84-.94-45.9-1.76-68.67-.13-3.49,1.38-7.48.64-11.41-1.54-8.09-17.99-4.73-23.88-6.36l-1.08,1.83Z"/>
      <path class="cls-1" d="M604.94,718.02c2.52-.28,4.94.86,7.68.86,39.21.03,78.96-1.52,118.05-.49,2.33.06,15.57.49,16.02,1.35.95,6.46.41,13.07.48,19.58.48,41.4,3.84,88.84,1.04,130.06-.13,1.96-.78,9.16-1.98,10.02l-145.59-.54c-.87-1.08-1.18-2.27-1.38-3.62-2.17-15.15,1.29-36.12-.05-51.86-.37-31.43-.42-62.73.71-94,.16-4.45-2.58-10.52,5.02-11.36ZM734.86,735.15c-2.24-1.98-8.22-2.82-11.32-3.19-18.8-2.22-41.45.75-60.6.63-13.6-.09-30.95-3.79-44.13-1.44-3.9.7-5.72,5.88-6.3,9.39-1.79,10.81-.3,25.14-.39,36.83-.17,22.54-1.88,46.36-.99,69,.11,2.79,1.42,18.24,2.28,19.21,4.84,1.57,11.13,2.1,16.22,2.3,25.6.99,58.36.12,84.09-1.01,3.48-.15,11.85-.62,14.74-1.25,7.8-1.7,5.9-13.03,6.33-18.89,1.85-25.36,2.95-53.89,2.4-79.34-.12-5.5-3.35-9.14,1.04-15.04l-2.05-.53c-.43-1.69,1.79-.39,2.04-1.64.55-2.74-1.05-12.99-3.36-15.03Z"/>
      <path d="M157.18,611.84l1.98,1.99c-.38-5.23,2.08-4.09,3.88-5.58,3.49-2.89,2.16-4.88,8.97-2.75,6.12,1.91,10.37,9.41,11.67,15.32s.04,19.39-2.02,25.01c-3.99,10.92-16.83,10.75-23.9,2.9-8.18-9.09-3.06-26.29-.59-36.89ZM166.88,612.97c-11.96,3.06-7.37,42.02,5.25,31.32,4.41-3.74,4.36-24.17,1.49-28.41-.83-1.23-5.22-3.3-6.75-2.91Z"/>
      <path d="M206.83,604.06c3.61-.3,9.16,6.05,10.55,9.06,3.8,8.24,6.41,33.11-1.93,38.49-6.76,4.36-12.46,4.09-18.3-1.26-8.49-7.77-8.72-19.14-5.68-29.73,1.46-5.11,10.01-16.12,15.37-16.56ZM203.89,612.98c-7.2,1.95-7.95,22.91-6.23,28.86l6.98,4.98c9.1-2.73,10.91-13.8,9.05-22.02-1-4.44-3.86-13.42-9.8-11.82Z"/>
      <path d="M96.91,604.05c.72.75,1.07,2.18,1.07,3.23.03,5.54-1.52,13.22-1.45,19.23.11,9.68,3.51,20.15-.99,29.4-1.27-.19-3.24-.41-4.14-1.31-2.1-2.1-1.24-20.47-1.39-25.11-.12-3.56-1.47-6.56.15-10.64-1.09-1.14-6.48,6.01-10.11,1.54-1.31-1.8-.02-5.27,1.09-7.08,1.77-2.88,12.43-12.74,15.77-9.25Z"/>
      <path d="M119.41,653.58c-1.89-2.2-.16-15.21-.2-19.29-.04-4.5-2.3-8.46-.06-12.93l-1.47-1.48c-10.25,4.16-10.88-2.63-4.05-9.07.42-.39,4.73-3.82,5.54-4.44,11.1-8.35,6.13,9.97,6.23,16.23.15,9.44,1.13,19.17,1.44,28.61-.08,3.89-5.39,4.75-7.44,2.37Z"/>
      <path d="M145.04,635.96c4.68,7.52-4.82,12.96-8.13,5.57-1.95-4.36,4.6-6.39,8.13-5.57Z"/>
      <path d="M144.91,615.09c3.62,3.5-4.16,10.92-7.27,4.75-2.42-4.79,3.91-8.01,7.27-4.75Z"/>
      <path d="M178.81,778.2c.3.16,4.39,4.2,4.75,4.74,6.05,8.98,7.01,26.52,2.36,36.16-3.46,7.18-6.92,9.74-15.17,8.65-7.6-1.01-11.19-9.05-12.02-15.76-1.32-10.7-1.11-20.6,5.61-29.47,3.88-5.12,8.09-7.71,14.47-4.31ZM172.83,786.06c-1.72.68-3.84,1.46-5.11,2.82-5.59,6.03-2.54,36.65,8.02,29.01,6.96-5.04,5.49-32.56-2.9-31.83Z"/>
      <path d="M209.89,777.03c11.11-1.49,16.1,19.27,16.32,27.27.21,7.57-4.84,22.52-13.53,23.55-28.31,3.36-20.68-48.43-2.8-50.83ZM206.6,785.1c-4.91,6.26-5.62,11.54-5.45,19.28.38,17.25,14.23,21.39,16,3.94.91-8.93,1.5-23.59-10.56-23.22Z"/>
      <path d="M127.86,779.14c.47.43,4.28,6.31,4.56,7,2.52,6.33-7.25,25.13-12.24,30.19.8,1.02,1.05,1.31,2.38,1.39,3.91.24,11.06-2.29,13.1,2.14,3.32,7.17-10.35,7.77-14.96,8.01-5.87.3-15.32,1.86-15.03-6.08l9.9-13.05c2.67-7.78,9.29-14.28,8.58-22.91-7.18-2.17-10.88,8.29-16.55,5.05-4.04-2.31-.34-6.54,2.03-9.07,4.2-4.47,13.22-7.24,18.21-2.68Z"/>
      <path d="M96.16,775.84c.25,5.58-.71,11.09-.57,16.62.23,9,2.16,19.96,1.64,28.85-.25,4.39-3.7,7.97-7.12,4.07-3.04-3.46-.76-12.14-.9-17.1-.14-5.03-1.84-10.18-1.05-15.44-2.51.62-9,2.22-10.57.06-2.04-6.67,4.45-8.11,8.11-11.04,1.54-1.23,2.04-3.33,3.2-4.12.31-.21,7-2.17,7.27-1.9Z"/>
      <path d="M143.41,817.58c-3.13-3.16-.57-10.09,5.02-8.6,8.26,2.2.17,13.84-5.02,8.6Z"/>
      <path d="M141.31,788.96c.55-.91,7.92-3.53,8.97-.67,1.44,1.76.05,4.37-1.07,6.1-3.39,2.01-10.25-1.54-7.9-5.42Z"/>
      <path d="M119.01,263.99c.56.35,2.04,6.07,2.16,7.34.91,9.06.87,27.92,0,37.02-.12,1.22-.36,3.47-1.25,4.24-13.43,4.49-8.88-8.46-8.78-17.29.01-1.29,2.01-4.8-1.01-4.03-2.12.54-4.15,4-6.66,4.38-3.53.53-11.13-4.22-12.1-7.52-1.07-3.67,0-17.34,1.55-21.04,2.23-5.32,10.37-8.03,15.68-7.2,3.34.52,3.98,2.73,6.32,3.74,1.18.51,3.24-.16,4.09.37ZM105.82,267.04c-7.54,2.32-11.11,18-1,18.5,10.75.53,10.78-16.86,1-18.5Z"/>
      <path d="M172.82,306.49c-10.23,12.03-23.52,3.79-26.21-9.6-2.65-13.18,5.18-46.42,23.05-33.05,10.28,7.69,11.16,33.24,3.16,42.65ZM161.8,267.91c-8.92,5.72-9.23,17.86-7.58,27.36.78,4.48,3.6,7.97,8.45,7.65,10.5-.68,9.22-31.6-.87-35.02Z"/>
      <path d="M187.46,305.55c-7.69-9.73-4.51-32.87,4.76-41.15,12.65-11.29,20.41,6.29,21.77,17.09,1.56,12.35-2.69,34.43-19.89,28.91-.63-.2-6.29-4.39-6.64-4.84ZM202.94,300.6c5.72-5.91,5.03-33.25-5.21-31.8-7.5,1.06-10.77,23.94-5.25,29.73,2.14,2.25,7.89,4.72,10.46,2.06Z"/>
      <path d="M139.92,294.08c3.39,6.47-3.34,7.49-8.61,6.6-3.81-6.87,2.95-9.69,8.61-6.6Z"/>
      <path d="M133.9,272.03c8.34-1.76,5.94,8.13.79,8.39-5.67.29-6.66-7.16-.79-8.39Z"/>
      <path d="M219.61,435.39c7.48,7.47,9.97,35.99,1.07,42.46-9.81,7.12-22.31,2.16-25.56-9.46-3.06-10.94-.5-21.19,6.03-30.08,5.21-7.09,11.64-9.74,18.46-2.92ZM209.9,440.01c-7.82,1.67-8.43,17.09-7.73,23.32.77,6.89,3.3,7.56,9.52,9.16,9.33-4.9,8.13-23.07,3.93-30.61-1.26-2.27-3.38-2.37-5.72-1.87Z"/>
      <path d="M167.71,434.39c1.21-1.06.58-1.58,3.06-2.17,23.73-5.6,23.7,45.22,9.68,48.4-26.43,6-27.57-33.31-12.74-46.23ZM176.97,472.63c.66-.38,3.92-8.01,4.13-9.36,1.25-8.3.67-18.1-5.37-24.31-12.91-1.16-11.84,25.64-6.59,31.4,1.6,1.76,5.74,3.48,7.83,2.27Z"/>
      <path d="M127.87,479.54c-1.09.79-8.53,2.07-10.08,1.96-4.21-.29-9.18-4.12-10.82-7.97-3.7-8.67-4.28-18.81-1.52-27.91,1.06-3.5,5.18-11,8.47-12.58,4.07-1.96,9.81-1.91,13.27,1.27,1.36,1.25,6.34,11.06,6.88,13.14,1.28,4.94.23,20.4-1.72,25.07-.32.78-4.15,6.77-4.48,7.01ZM121.14,438.83c-5.99,2.3-8.21,3.15-9.41,9.87-.57,3.2-.17,16.63.63,19.44,1.7,5.95,8.28,6.47,11.61.01,4.63-8.99,3.02-21.46-2.83-29.31Z"/>
      <path d="M92.92,479.58c-2.23,1.71-5.19,1.12-6.59-1.41l-.17-32.33-7.35,2.84c-9.18-3.93,10.83-18.21,12.75-17.77,4.04.93,1.56,8.06,1.56,10.38-.02,7.02-.1,14.08,0,21.09.08,5.68,2.61,11.4-.2,17.19Z"/>
      <path d="M143.83,442c1.81-.63,5.4-.44,6.93.74l1.46,2.64-.95,3.04c-1.65,2.03-6.64,2.02-8.68.49-2.43-1.62-1.08-6.11,1.25-6.92Z"/>
      <path d="M150.92,464.07c3.86,3.94-2.08,8.66-6.67,6.65-.39-1.79-1.86-6.26-.14-7.46,1.2-.83,6.06.04,6.81.8Z"/>
      <path d="M186.88,953.1c.53.65,4.29,14.92,4.3,16.21s-2.04,16.3-2.51,17.5c-3.35,8.52-9.58,11.83-18.53,9.55-9.44-2.41-11.32-12.58-12-21.1-.78-9.86,3.32-24.65,13.99-27.99,3.75-1.18,12.6,3.18,14.75,5.83ZM174.7,955.27c-12.27-1.03-10.62,27.28-4.61,32.14,6.75,5.47,11.72-3.88,12.15-10.03.35-5.02-.74-21.54-7.54-22.11Z"/>
      <path d="M204.52,995.46c-.65-.34-7.39-6.96-7.78-7.71-5.65-10.84,0-35.37,11.68-40.17,5.35-2.19,13.5,3.37,15.2,8.28,1.49,4.31,3.67,18.79,3.47,23.29-.51,11.37-10.6,22.65-22.57,16.3ZM205.46,986.54c.9.66,6.54,2.23,7.75,1.89,8.72-2.43,4.88-24.56,2.22-30.35-2.08-4.53-9.28-2.42-11.23,2.28-2.3,5.52-4.06,22.28,1.27,26.18Z"/>
      <path d="M129.84,949.16c.23.27,3.02,5.91,3.12,6.37,2.28,9.87-8.6,22.26-11.79,31.29l13.92,1.07c.59,4.19.16,5.39-3.7,6.65-4.51,1.47-23.54,4.08-25.07-1.42l-.05-2.64c7-6.98,14.15-18.22,17.37-27.69,1.51-4.42,3.61-9.31-2.72-8.75-5.32.47-7.6,9.84-14.33,3.8,1.2-9.99,15.62-17.64,23.25-8.69Z"/>
      <path d="M96.02,996.67c-1.36,2.2-6.38.55-6.8-1.58-1.06-5.25.21-14.83,0-20.81-.09-2.39-1-4.58-1.13-6.96-.12-2.11,2.53-6.61-1.2-6.33-2.48.18-8.34,4.02-9.76-1.7-.51-2.04,5.26-7.25,7.05-7.86.99-.34,2.64.64,2.92.37.15-.15.39-2.49,1.52-4.03,1.82-2.47,5.32-4.44,8.07-1.95,3.11,4.18.07,7.3-.18,10.64-.64,8.5.7,16.58.75,24.89.01,2.19-.7,14.49-1.22,15.31Z"/>
      <path d="M142.29,979.95l7.92-1.59c5.92,5.7-3.36,11.04-7.92,5.84v-4.24Z"/>
      <path d="M146.92,955.99c4.45-.83,7.16,3.16,3.31,6.42-5.55,4.69-10.99-4.98-3.31-6.42Z"/>
      <path d="M117.17,126.83c-2.9-.55-1.6.84-2.26,2.2-1.86,3.81-6.23,14.92-11.08,13.86-4.29-5.25-5.8-11.88-8.16-18.06-1.79,1.18-1.29,2.81-1.52,4.5-.91,6.55.85,32.46-10.57,20.04l3.65-41.98c.18-5.31,6.32-6.1,9.41-2.54,1.83,2.11,8.07,17.83,9.06,18.01,9.4-1.95,8.22-22.18,20.03-16.1l2.34,42.38c-1.1,3.48-9.11,2.44-10.9.18v-22.5Z"/>
      <path d="M219.17,149.83c-3.58.61-6.7,3.28-10.3,1.05-3.41-2.11-11.15-21.61-15.16-22.11-.77-.1-1.71.15-2.54.07.06,4.18,2.96,22.68-3.28,22.76-10.86.14-5.1-11.59-4.74-17.28.65-10.36.31-21.1,1.01-31.49,3.11,0,7.19-.62,9.48,2.03,4.68,8.44,8.86,18.8,14.29,26.67.61.89-.18,1.84,2.23,1.31v-22.5c0-.43-1.05-2.08-1.08-3.95-.12-7.74,10.08-5.96,10.08-4.05v47.5Z"/>
      <path d="M169.8,146.47c-3.11,3.03-9.92,4.81-14.24,5.25-33.65,3.43-21.78-57.49,5.63-50.41,5.54,1.43,10.3,7.5,12.35,12.64,2.81,7.03,3.47,20.3.17,26.94-.69,1.39-2.84,4.54-3.92,5.58ZM154.88,111.04c-11.45,2.57-17.02,39.27,3.27,31.27,14.63-5.77,11.99-34.69-3.27-31.27Z"/>
      <path d="M332.86,142.52c5.8-4.08,4.52-15.12,4.86-20.83.11-1.9,1.18-3.75,1.21-6.08.05-3.6-2.1-9.17-1.35-11.78,1.32-4.59,9.81-4.79,10.64,1.47,1.2,9.03-.62,31.93-5.59,39.5-8.57,13.04-32.44,8.61-30.54-9.46l2.23-30.86c.95-2.89,8.02-2.69,8.66,2.08l-1.27,34.35c2.34,3.28,8.06,3.8,11.16,1.62Z"/>
      <path d="M384.92,108.59l-18.7,2.3.38,12.01c1.96,2.81,14.25-1.97,14.21,4.45-.05,7.14-11.71,3.11-14.72,4.95-5.44,20.13,9.64,7.94,18.08,12.03,6.8,3.3,0,8.86-6.54,8.62l-2.44-2.1c.05,4.32-14.82,2.54-17.03,1.5-1.13-.53-1.8-1.81-1.96-3.04l2.02-47.43c6.48-.18,13,.05,19.49,0,5.38-.04,10.3-2.9,7.21,6.71Z"/>
      <path d="M305.93,102.08c3.21,9.4-6.57,7.41-12.77,7.75.32,11.65.73,22.89.24,34.48-.11,2.53,1.92,4.22-.16,7.1s-7.01,2.71-9-.15c-3.57-5.15.53-31.73-.21-39.78-1.3-4-12.85,1.64-14.69-4.33-2.66-8.62,10.98-5.11,15.35-5.27,4.47-.17,18.58-2.78,21.24.22Z"/>
      <path d="M489.92,101.07c1.25,1.29,1.44,4.24,1.06,6l-10.73,42.34c-12.26,7.12-11.86-9.27-16.57-16.56-4.75-.27-4.68,14.33-7.44,17.53-2.62,3.03-6.83,1.89-9.83.21-1.21-6.06-9.72-44.08-7.8-46.82,1.55-2.2,6.14-.58,7.34,1.78,2.82,5.52,1.88,18.98,4.51,25.49l2.7,7.78c1.26-3.94,2.31-18.23,6.49-19,1.18-.22,6.68-.25,7.36.17l8.15,15.83,9.01-34.24,2.66-1.45c.98-.07,2.42.24,3.1.94Z"/>
      <path d="M506.43,123.56c3.17,3.91,13.59-2.05,13.75,3.72.18,6.54-9,4.25-13.01,4.56l.72,1.81c-2.73-.04-1.67,9.34-.57,10.04,2.47,1.43,19.78-2.94,19.65,1.63-1.77,1.83-2.19,3.25-.78,5.51l-15.41,3-.64-1.94-1.97-.05,1.02,1.98-6.58.1-1.93-2.1-1,2.01-3.35-4.45,2.28-47.61c1.5-2.16,7.25.15,10.04.14,4.49-.02,14.17-2.65,17.08,1.92.73,1.16.15,1.7-.31,2.71-3.28,7.17-14.17,1.39-17.85,4.2-2.65,2.03-3.11,10.39-1.14,12.82Z"/>
      <path d="M534.27,151.79c-3.12-2.45.17-44.18.9-50.95,8.07.76,15.45.06,22.02,5.47,13.59,11.2,11.1,34.22-4.12,42.93-6.6,3.78-11.75,2.16-18.8,2.55ZM554.84,139.52c9.06-10.31,4.22-30.34-11.04-30.6l-1.64,2.42-1.01,31.5c5.08.1,10,.87,13.68-3.32Z"/>
      <path d="M690.17,152.84c-15.75,2.31-5.3-12.54-8.94-20.58h-14.09c-3.82,5.39,1.21,11.67-2.46,17.59-1.71,1.98-6.86,1.36-8.02-1l2.44-46.57c1.48-1.04,7.77-.36,8.11,1.22,1.16,7.17-1.33,13.29-1.05,20.34,2.61-.83,15.33,1.81,16.05-.65l1.87-21.71c1.05-1.71,5.7-1.86,6.57.33l-.48,51.02Z"/>
      <path d="M735.17,123.33c-.34,4.7-1.55,13.1-3.5,17.5-4.91,11.13-23.73,14.43-29.27,4.26s-.88-31.68.7-42.83l5.4-.48c1.95.46,1.78,7.79,1.7,9.58-.34,8.52-1.3,17.35-2.03,25.87.76,5.29,6.59,7.85,11.19,5.55,4.14-2.07,5.05-8.4,5.79-12.54.81-4.49,2.18-16.05,1.92-19.97-.1-1.53-1.73-2.5-1.91-4-.84-6.9,10.01-7.07,10.01-3.94,0,6.78.48,14.36,0,21Z"/>
      <path d="M650.09,101.91c1.68,8.48-4.14,7.91-10.46,7.31l-2.06,2.59c-.51,10.84,2.51,27.24.57,37.5-.9,4.75-6.67,4.4-8.87.92-3.93-6.19,2.13-39.26-.16-41.35-4.1.19-11.97,2.35-13.53-3.01-.58-3.24,1.07-4.64,4.2-4.96,9.62-.98,20.6.85,30.31,1Z"/>
      <path d="M824.17,102.33c1-3.24,17.2-1.21,20.68.32,11.94,5.23,8.06,17.92,1.79,26.17-1.42,1.87-3.5,1.33-3.49,3.44,0,4.77,14.07,9.75,13.86,16.93-7.8,12.21-21.49-15.38-24.84-13.35l.86,15.84c-.75,1.18-7.79,1.63-8.86-.35v-49ZM833.18,126.83c11.37-1.21,17.4-19.71,2.69-18.81-4.26.66-3.8,18.02-2.69,18.81Z"/>
      <path d="M795.16,121.83c5.29,2.27,15.48-3.47,14.81,5.3-.42,5.45-9.94,3.35-13.81,3.7-1.23,5.77,2.61,13.63.34,18.79-.8,1.83-6.57,2.56-7.89,1.85-4.23-2.26-1.52-19.99-1.4-24.1.26-8.47-1-17.17,1.06-25.43,4.58.98,24.82-2.96,27.46.85,1.23,1.78-.14,6.17-2.23,6.88-3.89,1.31-12.89-1.36-15.93,1.07l-2.41,11.09Z"/>
      <path d="M864.37,150.61c-2.98-2.95,1.23-40.83-.2-47.28.23-3.35,5.41-3.3,7.55-1.5,1.57,1.32.27,10.53.44,13.55.58,10.57,1.28,21.24,2.01,31.85.72,5.06-7.81,5.34-9.79,3.38Z"/>
      <path d="M390.02,212.99c-.41,3.78,1.45,7.22,1.84,10.63,2.5,21.67.2,47.56.25,69.76.03,14.02,2.61,28.84-.04,42.86-.32,1.67-.98,4.65-2.32,5.68-4.08,3.12-24.26,2.84-30.08,2.9-24.44.26-49.56-2.1-74.01-2.05-4.45,0-16.1,3.15-19.53-.41-.94-.97-1.88-8.96-2.01-10.99-1.04-15.87.93-35.53,1.2-51.9.3-18.43-1.31-38.42,1.28-56.7.7-4.97,3.1-8.8,8.29-9.72,6.51-1.15,13.32-.16,19.67-.34,27.64-.81,55.37-.83,83.15-.94,1.85,0,11.79.37,12.31,1.21ZM343.16,218.83c-1.52,1.85-5.61,0-5.86.18s-.33,1.55-1.23,2.23c-.75.57-2.31.39-2.69.82-.62.7-.02,3.02-1.11,4.39-1.6,2.01-4.3-.07-4.1,3.91l-3.01-.51.84,2.87c-3.92,2.13-6.17,7.57-10.83,8.21,1.91,3.61-2.51,4.7-4.63,7.36-.51.64-4.22,6.23-3.9,6.55,2.07,2.13,2.69-3.05,5.04-3l1.64-2.84,1.75.78c5.07-9.05,14.29-16.69,22-23.52,1.52-1.35,5.01-2.37,6.6-4.43l-.51-2.99ZM292.16,220.83l-13.59,1.9c-2.79,5.22-5.21,10.47-2.39,16.09l4.53-3.93,11.45-14.06ZM302.42,237.12c.97-1.1,3.64-1.72,5.16-3.38,1.21-1.32,7.79-10.43,7.59-11.38-.95-4.62-9.9,4.92-11.47,6.54-7.08,7.35-13.62,16.3-21.75,22.63-.28.21-1.51-.43-2.28.24-2.64,2.3-4.58,4.6-5.52,8.06l3,.49,19.53-17.52c.83-.31,5.13-1.89,5.35-2.07.16-.13-.9-2.17.37-3.61ZM373.16,221.84c-9.56-1.49-6.83,2.12-9.5,5.98-1.1,1.59-4.36,1.17-5.27,2.24-1.4,1.66.39,5.84-4.22,4.78l1.99,1.49c-2.62,3.96-7.75,6.23-10.77,9.18-1.22,1.2-1.69.84-1.22,3.32l28.98-26.98ZM377.58,246.28c1.31-1.49,8.01-6.83,7.58-8.93-2.03-3.07-3.33-.03-5.59.41-2.1.41-7.17.34-8.44,1.54l.03,4.53-1.99-1.02c1.12,4.02-4.31,4.45-6,6.03-1.23,1.15,2.87.36,1.98,2.47-2.8,4.31-9.84,4.47-10.02,10.51l-1.94-1c-.86,6.37-8.48,7.53-8.03,14.99l10.48-11.05c7.18.33,6.69-7.22,8.92-9.04,1.89-1.55,8.85-1.37,9.47-2.02.4-.42.16-3.27.82-4.64.39-.8,1.93-1.88,2.73-2.79ZM304.16,257.84c-3.57.13-6.91,4.31-9.29,5.73-.72.43-2.03-.59-2.72-.18-2.65,1.57-4.89,5.45-7.98,6.45l1.99,1.48c-1.98,1.84-5-.09-5.99,3.5l1.99.5c-3.65,4.08-10.45,4.38-7.51,11.52l29.51-29.01ZM383.16,270.84h-6.99c1.8,10.61-8.26,9.24-12.94,15.8-1.9,2.66-2.36,2.38-.06,5.18l-1.99.99,4.02,1.56,17.96-23.53ZM309.18,278.82l-.46-1.99c-1.31,1.77-4.38.92-5.32,1.36-1.62.77-5.18,7.78-9.06,7.8l.84,1.83-2.92.09c-.81,10.45-22.52,18.43-14.59,29.92.57.27,3.03-11.57,7.49-8l-.75-2.35,29.73-29.15c-1.83-3.55-4.48.92-4.97.49ZM332.17,289.84c-1.88-.44-2.38,1.04-3.5,1.99-9.29,7.81-17.25,17.23-25.17,25.05-4.66,4.6-13.96,7.95-12.31,15.95,1.69.41.63-1.39,1.11-1.78.27-.22,1.74.78,2.8.27,6.33-3.07,10.95-11.33,16.21-16.81,2.99-3.12,7.8-8.13,10.54-10.72,1.92-1.81,5.88-1.17,6.34-4.95l-3.48,1.01-.5-2,7.98-8.01ZM360.58,328.25c2.12-1.47,3.8-3.62,5.64-4.87,2.99-2.02,13.59-6.83,15.01-8.98,2.41-3.65-.56-7.6-.08-11.58-.12-.18-2.91,1.44-3.5,1.99-7.88,7.18-15.33,18.34-22.94,25.02-1.28,1.12-3.45,1.01-4.54,2.51-.67,2.65,3.25.25,3.96-.04,3.26-1.33,4.16-2.46,6.45-4.05ZM317.17,332.83h14l.13-2.83,2.87-.18-2.04-1.62c-1.39-5.84,12.29-16.73,16.07-20.83,1.01-1.1,2.35-1.76,1.96-3.54-3.43,4.55-6.61.82-6.97,1.01-.26.14-1.64,4.12-3.75,4.2l.74,1.78-4,.02,1.99,1.98-5.2,4.76c-2.82-1.55-1.2.62-2.74,2.77-3.72,5.19-10.52,6.31-13.04,12.48Z"/>
      <path d="M574.88,437.62c-.31.48-1.86-.18-1.71.7l1.98,3.03c1.55,25.65-.29,50.92-1.98,76.47-12.81,2.2-25.65,1.49-38.54,1.96-27.88,1.02-56.11,1.58-83.97,2.11-4.46.09-15.03.82-16.56-3.49-.09-7.97.11-16.09.05-24.06-.22-29.03.36-59.16-1.89-88.09-.23-2.93,2.11-5.18-1.09-5.94l.03-1.47c2.55.16,2.84-2.3,3-4.5l-3.03,1.97c1.14-6.21,1.07-12.26,8.65-13.18,13.12-1.6,31.07-.3,44.81-.35,19.47-.06,39.44.56,59.01,1.09,6.28.17,27.54-2.04,31,3,3.11,4.53.62,9.79.55,14.47-.08,5.17.69,34.76-.3,36.28ZM513.87,396.58c1.45-1.21,1.49-3.71-1-3.57-4.54.25-9.13,6.94-13.7,7.84v1.98s2.99-.99,2.99-.99c1.16,1.03-10.06,12.63-11.73,13.97-.96.77-2.97.74-4.16,1.63-4.98,3.74-9.25,8.2-11.1,14.39,2.9-2.34,7.09-2.49,7-7.01l2.9.94c.97-2.39,2.86-5.05,4.58-6.94,3.12-3.43,11.14-11.93,14.43-14.58,1.24-1,2.48-1.54,4.1-1.42l-.93-2.9c.46-.71,5.9-2.74,6.63-3.35ZM489.16,397.84c1.09-7.79-10.05-.67-12.92,1.56-6.69,5.19-14.89,16.57-22.58,23.42-2.21,1.97-4.95,2.05-6.47,6.51,1.08,1.18,1.26,1.94,2.99,1.02,3.02-1.61,9.43-8.85,12.51-11.49,5.22-4.48,9.82-8.84,14.97-13.07,1.65-1.36,4.4-.05,3.51-3.97,2.49,1.57,3.87-.12,5.69-2.35,1.09-1.34-1-3.75,2.3-1.63ZM445.18,410.83c1.74-.62,3.16-1.75,4.52-2.97,1.02-.92,8.67-9.4,8.99-10.02.71-1.35.66-1.56-.49-2.55-4.06-1.94-9.64.21-11.64,3.89s.13,7.76-1.38,11.64ZM520.82,416.49c.93-.79,1.51-2.62,2.78-3.7,5.06-4.31,10.14-8.43,14.54-13.45-8.82-8.49-14.27,5.52-19,10.98-13.95,16.08-28.11,34.05-44.46,47.54-2.07,1.7-6.41,1.68-6.53,4.98l-1.97-1.98c-2.6,2.49-.85,4.55-1.47,5.97-.38.86-5.39,5.44-6.6,6.49-1.85,1.61-4.84.63-3.95,4.53l-1.99-.02-.44-1.9-3.57.93,1,4-2-.49,1.13,8.43c7.38,1.81,11.68-15.4,14.09-16.74,1.06-.59,2.59-.13,3.79-.22l-1.99-1.98c8.06-.55,10.73-11.52,16.07-15.47,1.77-1.31,3.69-.38,5.92-1.95,4.8-3.4,5.15-9.72,10.86-11.74l-.86-1.84,4.01-.02-.84-1.83c2.23-1.05,3.39-2.62,5.83-1.17-3.71-12.42,9.72-14.28,15.67-19.34ZM545.53,413.17c.68-.92,7.85-6.16,6.63-7.34-4.29,1.47-5.05,7.01-10,6.01l.72,1.77c-3.65-.05-.8,8.14,1.29,6.21-1.3-2.43-.17-4.59,1.36-6.65ZM561.15,415.84l-40.98,45.99c4.77,2.06,4.7-1.44,7.04-2.53,1.17-.54,2.7.59,2.87.46.2-.14.92-3.11,2.05-4.46,3.35-4.02,13.47-14.01,17.51-17.48,7.52-6.48,13.61-5.85,12.45-18.34-.12-1.26-.8-2.39-.94-3.63ZM470.16,436.83c-1.92,1.12-3.58.18-5.51.96-4.29,1.75-3.29,4.64-4.79,6.74-1.31,1.84-10.91,8.01-13.43,9.48l-.25,10.82,1.07-1.93,2.91.94c-2.87-7.12,7.8-4.54,5.01-11.99l4.94-.09-.5-5.97c4.24-1.63,11.62-3.06,10.54-8.94ZM513.16,445.84c-.81-.79-6.25,4.21-7.19,5.07-4.59,4.19-12.54,14.09-17.28,17.02-1.43.89-2.14.03-3.52-.09-.29.26,1.15,1.64.55,2.95-.97,2.12-10.57,10.21-13.07,13.03-4.61,5.21-8.86,12.15-13.04,16.96-1.38,1.6-4.11,1.18-5.91,3.09-4.81,5.12,2.81,5.56,6.89,4.89,5.43-.89,5.73-7.15,8.73-11.31,2.49-3.45,7.96-7.75,11.81-9.64v-1.98c-6.51,2.62-3.74-5.77,1.01-3l-1.99-2.99c8.22,2.85,6.07-3.38,7.76-7.66,1.6-4.06,5.35-8.12,10.01-7.57l5.33-9.74,2.88.98c-.54-4.24,2.94-2.77,4.95-5.65-.43-1.59,3.16-3.27,2.05-4.36ZM551.53,473.24c1.2-1.08,3-1.19,4.13-2.44,1.75-1.94.58-3.81,1.12-4.99,1.14-2.48,6.67-4.29,3.89-8.97-5.38,3.97-10.39,8.25-14.17,13.83-.97,1.43-1.24,3.99-1.39,4.14-.09.09-1.32-.92-1.72-.69-3.56,2.04-10.7,13.29-14.2,16.34-1.09.96-1.68.91-2.96.44l-.07,2.94c-4.52-2.36-2.8,1.19-3.99,2.43-2.42,2.53-7.98,3.84-8.01,9.55,6.76,2.9,13.82-10.95,16.25-11.77,1.37-.46,3.45,2,3.77-2.22l2.98,1.99-1.01-2.4,3.03-3.11-2.01-1.97c2.3-3.15,4.89-4.98,8.31-6.78.93-.49,2.48.24,2.57.15.7-.72.76-4.02,3.48-6.48ZM519.16,476.84c-1.73-.45-2,.71-3,1.49-2.66,2.05-6.98,6.42-9.58,8.95-1.71,1.67-20.48,20.55-19.41,21.54,1.97.46,2.37-1.01,3.41-2.08,2.83-2.93,6.07-7.86,8.94-10.56,5.09-4.78,10.94-8.23,17.65-10.36l-2-3.98c3.6.84,3.47-2.07,3.99-5ZM560.16,488.84l-8.67,6.32-7.31,10.67c1.9.41,3.94-1.83,5.52-1.63.98.12,1.86,1.98,2.43,1.59.1-.07-.14-1.34.32-1.65.95-.65,2.44-.02,3.45-.57.23-.13,3.54-3.6,3.7-3.81,2.56-3.59.91-6.93.57-10.92Z"/>
      <path d="M861.18,558.83l1.08-1.83c5.89,1.63,22.34-1.73,23.88,6.36.75,3.93-.76,7.92-.64,11.41.82,22.77,3.07,45.83,1.76,68.67l1.38,47.37c-.82,1.14-1.75,2.22-3.13,2.69-1.29.44-15.87.31-18.78.36-26.57.49-60.13,1.95-86.1,0-2.46-.18-4.87-.79-7.27-1.23-2.46-4.72-.24-8.86-.15-13.27.68-32.96.4-66.43-1.14-99.04-.2-4.15,1.65-5.23-1.91-9.99l2,.5c-.74-12.62,9.71-12.44,19.51-12.99,17.15-.97,45.35-1.66,62.02-.04,1.98.19,3.49.65,4.98,2.01l1.99-2.99.51,2.01ZM804.76,571.52c4.97-5.84-9.21-4.67-12.17-2.76-.63.41-9.01,11.06-9.22,11.78-.81,2.69.11,6.42-.19,9.29,1.65.42.61-1.35,1.18-1.8.22-.17,5.18-.01,5.62-.47.67-.69.76-2.64,1.72-3.68,2.24-2.43,4.64-4.69,6.97-7.04l1.48,3.99v-5.98s5-1.04,5-1.04l-1.98-1.98c.48.03,1.32-.02,1.59-.33ZM840.17,568.84c-3.28-1.53-4.81.13-7.02.49-1.14.18-2.34-.36-2.79-.19-.51.19-6.01,6.78-7.3,8.05-7.11,7.01-13.77,13.05-21.64,19.03-1.22.92-4.64,5.17-5.76,5.61l-.99-1.99c-3.44,5.24-10.95,8.56-9.02,16.01l10.22-5.32c1.97-3.52,5.43-3.95,5.31-8.69l1.97,1.98,2.03-4.98,1.97,1.98c.97-2.49,3.25-6.09,6.01-3.98l.07-2.9c5.44,1.26,5.43-2.57,7.26-3.79,1.73-1.15,4.47-1.45,6.22-3.3,1.17-1.24,1.14-2.91,1.83-3.66,4.26-4.56,10.56-8.01,11.63-14.35ZM868.12,568.89c-3.79-.66-7.91-1.25-9.96,2.93,4.62-.67,4.01,3.69,9.35,1.04l.61-3.97ZM874.97,587.03l-3.3-3.19c-2.26,3.09-4.06,6.54-6.51,9.5-1.64,1.99-5.79,6.56-7.6,8.39-4.04,4.07-12.61,9.27-15.92,13.08s-3.52,8.79.83,4.78c3.52-3.25,6.89-7.99,10.66-11.33,2.12-1.88,5.71-2.88,7.56-6.42l2.48,1.99.47-4.09,2.48.07c-1.13-7.52,10.12-4.52,8.86-12.78ZM816.17,614.83c-.37-.33.82-2.39-1-2l-.51,3.01-1.51-1.52c-1.69,6.88-3.06,4.46-6.48,6.5-2.68,1.61-5.03,3.85-6.53,6.6l-2.98-.59c3.24,6.09-4.85,7.03-6.73,9.29-.55.67-.35,2.29-1.26,3.2-1.09,1.1-3.27,1.07-3.84,1.66-.43.44-1.39,10.21-3.18,11.85l4.1-.46,1.38-4.62c4.89.18.7-1.58,2.39-3.46,1.13-1.26,3.44-1.4,4.66-2.42,2.09-1.76,3.58-5.03,6.46-6.54l-2.99-.98c3.88-3.01,7.45-7.98,10.94-11.06,3.76-3.33,9.2-3.87,11.06-10.43-1.67-.78-3.44,2.48-3.99,1.99ZM873.15,627.84c.29-.3,1.54-7.92-.48-7.99-4.8,2.71-8.43,6.84-12.55,10.45-5.54,4.85-4.66,4.11-8.91,10.11-3.2,4.52-11.62,9.81-15.05,14.13-.72.9-.78,3.01-1.07,3.23-.15.12-1.17-.89-1.68-.65-.24.11-.89,2.76-4.15,1.82l-.09,2.9-1.99-1.02c1.79,4.18.18,2.34-2.03,4.45-4.36,4.16-7.68,9.03-12.61,12.51l-2.27-.9-2.09,5.93c8.51,1.93,10.5-3.5,15.67-7.87,2.73-2.3,4.94-.3,5.27-4.64,3.79,1.13,1.14-.42,1.51-1.99.32-1.37,2.01-1.72,1.53-3.5l-2,.5,4-4.49.5,2.99,4.55-4.95,1.95-.04v1.99c2.48-2.18,6.64-5.59,6.01-10l1.97,1.01c1.55-10.84,8.61-13.59,16.06-19.46,1.63-1.29,2.64-4,3.68-4.63,1.55-.95,4.03.34,4.27.1ZM804.78,662.46c2.38-2.6,9.49-9.61,10.62-11.93.94-1.93-.39-3.85.04-5.01.69-1.9,3.1-2.39,2.72-4.68-1.6,1.49-4.21,2.14-5.69,3.31-4.07,3.23-24.18,26.2-25.98,30.51-.36.86-1.57,4.94-1.32,5.18,2.01.43,2.68-.45,4.04-1.45,4.28-3.14,11.66-11.65,15.57-15.92ZM876.16,651.84c-.76-.83-5.94,2.61-6.41,3.04-1.65,1.5-4.12,4.98-6.05,7.01-2.09,2.19-4.6,1.42-3.54,5.94l-1.98-1.99c-.99,4.15-5.66,6.83-8.06,9.43-.94,1.02-.65,2.75-1.12,3.37-.13.17-3.49-1.2-2.84,2.18h10c-.39-1-.88-1.78-.51-2.92.44-1.37,8.34-9.61,10-11.09s9.58-6.12,10.34-7.22c.22-.32-.32-6.53.16-7.77Z"/>
      <path d="M734.86,735.15c2.31,2.04,3.91,12.29,3.36,15.03-.25,1.25-2.48-.05-2.04,1.64l2.05.53c-4.39,5.89-1.16,9.54-1.04,15.04.55,25.45-.55,53.98-2.4,79.34-.43,5.85,1.47,17.18-6.33,18.89-2.89.63-11.26,1.1-14.74,1.25-25.73,1.13-58.48,2-84.09,1.01-5.09-.2-11.38-.73-16.22-2.3-.86-.97-2.17-16.42-2.28-19.21-.88-22.64.82-46.46.99-69,.09-11.69-1.41-26.02.39-36.83.58-3.5,2.4-8.69,6.3-9.39,13.18-2.35,30.52,1.35,44.13,1.44,19.15.12,41.81-2.85,60.6-.63,3.1.37,9.08,1.21,11.32,3.19ZM640.16,741.85c-2.55-2.17-10.47-.5-12.59,1.9-3.03,3.44-2.34,10.81-2.4,15.09,1.56.06,1.67-2.6,2.1-2.89.34-.23,2.81,1.23,3.88.88.21-1.69-2.82-1.26-2.98-2.48-.13-1,7.02-7.88,8.98-8.02-.26-1.42,3.23-4.27,2.99-4.47ZM663.16,742.85h-1.98c-.23,4.22-6.04,7.37-8.96,10.76-9.92,11.48-11.96,13.35-23.56,22.26-2.32,1.79-3.76.26-5.03,4.99-.39,1.44.21,2.64.04,3.47-.28,1.34-1.94,1.77-1.49,3.5h3.99c-1.79-3.52,2.11-3.12,3.62-4.42,3.1-2.67,4.07-6.59,7.9-8.58l.52,1.96,1.46.04c1.67-2.15,2.24-4.38,5.51-4.01l-2.99-2.97c1.6-1.24,6.79-3.36,7.81-4.17.14-.11-.75-1.59.57-2.84,5.91-5.63,13.11-8.45,16.78-15.84l1.82.85,1.02-5-6.49,2.05-.52-2.04ZM686.56,756.25c.85-.73,2.47-.84,3.65-1.86,3.26-2.79,6.45-6.35,9.94-9.06.04-2.38-10.46-.85-11.74-.23-.87.42-12.35,11.43-13.82,13.12-3.07,3.52-6.57,10.15-9.88,13.65-4.4,4.66-11.8,7.34-14.54,13.95,1.62.28,2.72-.74,3.92-1.57,11.52-7.99,21.72-18.86,32.47-28ZM724.17,746.84c-1.8.51-4.09-1.08-5.4-1.01-.55.03-.56,1.38-.98,1.62-.94.53-2.22.29-2.48.48-.23.17.36,4.04-1.2,5.38,5.17,1.9-1.92,4.35-3.62,5.85-2.37,2.1-5.31,5.15-7.32,7.65l14.66-9.33c1.94-4.06,7.27-5.6,6.34-10.65ZM719.17,778.82l1.99-5.99c-7.26,1.63-9.63,9.82-15.92,12.59l-16.06,14.41,5.41-1.03,2.57,3.02c-.35-2.54,1.32-1.17,2.48-1.96,7.26-4.93,13.69-12.08,20.97-17.09l1.55-4.94-2.99.99ZM683.17,782.84c-.57-.52-6.45,3.28-7.24,3.97-5.26,4.57-11.28,14.45-18.77,15.03,1.9,1.94-2.96,5.75-5.41,5.03l-2-1.98c-3.97,1.45-5.56,4.92-8.02,6.99-5.57,4.71-11.79,8.68-15.53,14.44-.73,1.12-2.4,1.74-2.84,3.21-.92,3.06.75,6.01.42,8.3-.24,1.66-3.46,5.94-2.6,7,8.64-5.83,12.16-16.83,23.99-18.01v-1.98s-2.99.5-2.99.5c5.31-5.42,11.08-9.82,18.03-12.97,3.19-3.56-7.12,1.25-6.02-2.02,6.01-5.83,12.09-12.44,18.71-17.51,1.13-.87,3.38-1.01,5.34-2.47,2.64-1.96,2.53-5.36,4.95-7.53ZM646.17,789.84l-9.69,5.3c-1.01,1.69-2.8,5.31-3.85,6.7-.58.77-4.04-.4-3.45,3.99l8.82-7.17-.82-1.79c4.46-1.11,7.87-2.48,8.99-7.03ZM725.17,801.84c-2.37-.29-4.04,1.67-6.01,2.35-.99.35-2.61-.6-2.88-.32s-.02,2.19-1.12,3.41c-1.96,2.16-9.24,5.62-10.45,7.61-2.89,4.77-2.46,7.51-8.63,11.37-2.47,1.55-5.09-.73-4.91,5.57-2.45-1.87-1.63.38-3.2,1.33-4.86,2.95-8.63,4.91-12.36,9.66,3.04,5.35-.65,2.59-2.8,4.06-1.06.72-1.25,2.14-2.41,2.93-1.77,1.21-5.62.16-5.21,5.01,9.21,2.16,6.84-3.39,10.25-6.75,2.67-2.63,9.96-5.67,12.45-7.54,1.25-.94,5.44-8.28,7.63-10.36,5.77-5.48,14.08-10.97,20.65-16.85,1.58-1.42,6.96-4.54,7.55-5.53.86-1.42-.94-4.15,1.45-5.95ZM673.16,823.84c-1.29-.98-7.97,2.46-8.99,3.53-6,6.25-14.12,13.2-20.24,19.46-1.06,1.08-5.96,5.68-4.75,7,1.51-2.08,3.92-.86,4.72-1.23,2.32-1.07,8.04-10.02,9.73-11.81,4.09-4.36,9.77-8.04,12.56-12.94l1.95.03.52,1.94,4.5-5.99ZM718.49,838.13c1.98-2.8,6.95-4.13,4.66-9.3-3.07,1.78-6.07.6-5.93,4.53l-4.05.49,1.99,1.98c-3.78-.92-7.47,3.46-8.01,7l-1.48-1.99c-3.21,4.67-8.89,8.06-8.51,13.97,8.13,1.62,5.47-.35,7.54-3.91,1.38-2.37,9.61-9.85,12.45-8.06.07-1.74.31-3.24,1.35-4.71Z"/>
      <path class="cls-1" d="M166.88,612.97c1.52-.39,5.92,1.68,6.75,2.91,2.87,4.25,2.91,24.67-1.49,28.41-12.62,10.7-17.21-28.26-5.25-31.32Z"/>
      <path class="cls-1" d="M203.89,612.98c5.94-1.61,8.8,7.37,9.8,11.82,1.86,8.22.05,19.29-9.05,22.02l-6.98-4.98c-1.71-5.95-.97-26.91,6.23-28.86Z"/>
      <path class="cls-1" d="M172.83,786.06c8.39-.73,9.86,26.79,2.9,31.83-10.55,7.64-13.61-22.98-8.02-29.01,1.27-1.37,3.39-2.14,5.11-2.82Z"/>
      <path class="cls-1" d="M206.6,785.1c12.06-.36,11.46,14.29,10.56,23.22-1.77,17.45-15.62,13.32-16-3.94-.17-7.74.54-13.02,5.45-19.28Z"/>
      <path class="cls-1" d="M105.82,267.04c9.78,1.64,9.75,19.02-1,18.5-10.11-.49-6.54-16.18,1-18.5Z"/>
      <path class="cls-1" d="M161.8,267.91c10.09,3.41,11.37,34.34.87,35.02-4.85.31-7.67-3.18-8.45-7.65-1.65-9.5-1.34-21.64,7.58-27.36Z"/>
      <path class="cls-1" d="M202.94,300.6c-2.57,2.65-8.32.19-10.46-2.06-5.52-5.79-2.24-28.67,5.25-29.73,10.24-1.45,10.93,25.88,5.21,31.8Z"/>
      <path class="cls-1" d="M209.9,440.01c2.34-.5,4.46-.4,5.72,1.87,4.2,7.54,5.39,25.71-3.93,30.61-6.23-1.6-8.75-2.27-9.52-9.16-.7-6.23-.09-21.65,7.73-23.32Z"/>
      <path class="cls-1" d="M176.97,472.63c-2.1,1.22-6.23-.51-7.83-2.27-5.25-5.76-6.32-32.57,6.59-31.4,6.04,6.21,6.63,16.01,5.37,24.31-.2,1.35-3.47,8.98-4.13,9.36Z"/>
      <path class="cls-1" d="M121.14,438.83c5.85,7.85,7.47,20.33,2.83,29.31-3.33,6.46-9.92,5.94-11.61-.01-.8-2.81-1.2-16.23-.63-19.44,1.2-6.71,3.42-7.56,9.41-9.87Z"/>
      <path class="cls-1" d="M174.7,955.27c6.8.57,7.89,17.09,7.54,22.11-.43,6.15-5.4,15.5-12.15,10.03-6-4.86-7.66-33.17,4.61-32.14Z"/>
      <path class="cls-1" d="M205.46,986.54c-5.33-3.91-3.56-20.66-1.27-26.18,1.95-4.7,9.15-6.81,11.23-2.28,2.66,5.79,6.51,27.92-2.22,30.35-1.21.34-6.85-1.23-7.75-1.89Z"/>
      <path class="cls-1" d="M154.88,111.04c15.27-3.42,17.9,25.51,3.27,31.27-20.29,8-14.73-28.71-3.27-31.27Z"/>
      <path class="cls-1" d="M554.84,139.52c-3.68,4.19-8.6,3.42-13.68,3.32l1.01-31.5,1.64-2.42c15.26.26,20.09,20.3,11.04,30.6Z"/>
      <path class="cls-1" d="M833.18,126.83c-1.11-.79-1.57-18.16,2.69-18.81,14.72-.9,8.69,17.6-2.69,18.81Z"/>
      <path class="cls-1" d="M309.18,278.82c.48.42,3.13-4.04,4.97-.49l-29.73,29.15.75,2.35c-4.46-3.56-6.92,8.27-7.49,8-7.92-11.48,13.78-19.46,14.59-29.92l2.92-.09-.84-1.83c3.88-.02,7.44-7.03,9.06-7.8.93-.44,4,.4,5.32-1.36l.46,1.99Z"/>
      <path class="cls-1" d="M377.58,246.28c-.8.91-2.34,1.99-2.73,2.79-.66,1.37-.41,4.22-.82,4.64-.63.65-7.58.48-9.47,2.02-2.23,1.82-1.74,9.37-8.92,9.04l-10.48,11.05c-.45-7.46,7.17-8.61,8.03-14.99l1.94,1c.18-6.04,7.22-6.2,10.02-10.51.89-2.11-3.22-1.32-1.98-2.47,1.69-1.58,7.11-2.01,6-6.03l1.99,1.02-.03-4.53c1.27-1.2,6.34-1.13,8.44-1.54,2.26-.44,3.56-3.48,5.59-.41.43,2.1-6.27,7.44-7.58,8.93Z"/>
      <path class="cls-1" d="M332.17,289.84l-7.98,8.01.5,2,3.48-1.01c-.46,3.77-4.42,3.13-6.34,4.95-2.74,2.59-7.55,7.6-10.54,10.72-5.26,5.48-9.87,13.74-16.21,16.81-1.05.51-2.52-.49-2.8-.27-.48.39.58,2.19-1.11,1.78-1.64-8.01,7.65-11.35,12.31-15.95,7.92-7.82,15.88-17.24,25.17-25.05,1.12-.94,1.63-2.43,3.5-1.99Z"/>
      <path class="cls-1" d="M360.58,328.25c-2.3,1.59-3.19,2.72-6.45,4.05-.71.29-4.63,2.69-3.96.04,1.09-1.5,3.26-1.39,4.54-2.51,7.61-6.68,15.06-17.84,22.94-25.02.59-.54,3.38-2.16,3.5-1.99-.49,3.98,2.49,7.92.08,11.58-1.42,2.16-12.02,6.96-15.01,8.98-1.84,1.24-3.52,3.4-5.64,4.87Z"/>
      <path class="cls-1" d="M317.17,332.83c2.52-6.16,9.33-7.29,13.04-12.48,1.54-2.15-.08-4.32,2.74-2.77l5.2-4.76-1.99-1.98,4-.02-.74-1.78c2.11-.09,3.49-4.07,3.75-4.2.36-.19,3.54,3.55,6.97-1.01.38,1.78-.95,2.44-1.96,3.54-3.78,4.1-17.46,15-16.07,20.83l2.04,1.62-2.87.18-.13,2.83h-14Z"/>
      <path class="cls-1" d="M343.16,218.83l.51,2.99c-1.59,2.06-5.08,3.09-6.6,4.43-7.71,6.83-16.93,14.47-22,23.52l-1.75-.78-1.64,2.84c-2.35-.05-2.97,5.13-5.04,3-.32-.33,3.39-5.91,3.9-6.55,2.12-2.66,6.53-3.75,4.63-7.36,4.66-.64,6.91-6.09,10.83-8.21l-.84-2.87,3.01.51c-.2-3.98,2.5-1.89,4.1-3.91,1.09-1.37.48-3.69,1.11-4.39.38-.43,1.93-.24,2.69-.82.89-.68.98-2.06,1.23-2.23s4.34,1.67,5.86-.18Z"/>
      <path class="cls-1" d="M304.16,257.84l-29.51,29.01c-2.93-7.14,3.86-7.44,7.51-11.52l-1.99-.5c.99-3.58,4.01-1.66,5.99-3.5l-1.99-1.48c3.08-1,5.33-4.88,7.98-6.45.7-.41,2,.61,2.72.18,2.38-1.43,5.71-5.61,9.29-5.73Z"/>
      <path class="cls-1" d="M302.42,237.12c-1.27,1.44-.21,3.48-.37,3.61-.23.18-4.52,1.76-5.35,2.07l-19.53,17.52-3-.49c.94-3.46,2.87-5.75,5.52-8.06.77-.67,2-.03,2.28-.24,8.13-6.33,14.67-15.28,21.75-22.63,1.57-1.63,10.51-11.16,11.47-6.54.2.96-6.38,10.06-7.59,11.38-1.52,1.66-4.19,2.28-5.16,3.38Z"/>
      <path class="cls-1" d="M292.16,220.83l-11.45,14.06-4.53,3.93c-2.82-5.63-.4-10.88,2.39-16.09l13.59-1.9Z"/>
      <path class="cls-1" d="M383.16,270.84l-17.96,23.53-4.02-1.56,1.99-.99c-2.29-2.8-1.84-2.52.06-5.18,4.68-6.56,14.74-5.19,12.94-15.81h6.99Z"/>
      <path class="cls-1" d="M373.16,221.84l-28.98,26.98c-.47-2.48,0-2.12,1.22-3.32,3.01-2.95,8.14-5.22,10.77-9.18l-1.99-1.49c4.61,1.06,2.82-3.12,4.22-4.78.91-1.07,4.16-.65,5.27-2.24,2.67-3.86-.06-7.46,9.5-5.98Z"/>
      <path class="cls-1" d="M561.15,415.84c.14,1.25.82,2.37.94,3.63,1.16,12.49-4.92,11.86-12.45,18.34-4.04,3.48-14.16,13.47-17.51,17.48-1.13,1.35-1.85,4.32-2.05,4.46-.17.12-1.7-1.01-2.87-.46-2.34,1.09-2.27,4.59-7.04,2.53l40.98-45.99Z"/>
      <path class="cls-1" d="M513.16,445.84c1.11,1.09-2.48,2.78-2.05,4.36-2.02,2.88-5.49,1.41-4.95,5.65l-2.88-.98-5.33,9.74c-4.66-.54-8.42,3.51-10.01,7.57-1.69,4.28.47,10.51-7.76,7.66l1.99,2.99c-4.76-2.77-7.53,5.63-1,3v1.98c-3.86,1.89-9.34,6.19-11.83,9.64-3,4.15-3.29,10.42-8.73,11.31-4.08.67-11.7.24-6.89-4.89,1.8-1.92,4.52-1.5,5.91-3.09,4.17-4.82,8.42-11.75,13.04-16.96,2.5-2.82,12.1-10.91,13.07-13.03.6-1.31-.84-2.69-.55-2.95,1.39.13,2.09.98,3.52.09,4.74-2.93,12.69-12.83,17.28-17.02.94-.86,6.38-5.86,7.19-5.07Z"/>
      <path class="cls-1" d="M551.53,473.24c-2.72,2.46-2.78,5.76-3.48,6.48-.09.09-1.64-.64-2.57-.15-3.41,1.79-6.01,3.62-8.31,6.78l2.01,1.97-3.03,3.11,1.01,2.4-2.98-1.99c-.32,4.23-2.4,1.76-3.77,2.22-2.43.82-9.49,14.67-16.25,11.77.03-5.7,5.59-7.02,8.01-9.55,1.19-1.24-.53-4.78,3.99-2.43l.07-2.94c1.28.47,1.87.52,2.96-.44,3.49-3.06,10.63-14.3,14.2-16.34.4-.23,1.63.79,1.72.69.15-.16.42-2.72,1.39-4.14,3.78-5.58,8.79-9.86,14.17-13.83,2.79,4.68-2.75,6.49-3.89,8.97-.54,1.18.63,3.05-1.12,4.99-1.13,1.25-2.93,1.35-4.13,2.44Z"/>
      <path class="cls-1" d="M520.82,416.49c-5.95,5.06-19.38,6.92-15.67,19.34-2.44-1.45-3.6.12-5.83,1.17l.84,1.83-4.01.02.86,1.84c-5.7,2.02-6.05,8.35-10.86,11.74-2.22,1.57-4.15.64-5.92,1.95-5.34,3.95-8.01,14.92-16.07,15.47l1.99,1.98c-1.2.09-2.73-.38-3.79.22-2.41,1.35-6.71,18.55-14.09,16.74l-1.13-8.43,2,.49-1-4,3.57-.93.44,1.9,1.99.02c-.88-3.9,2.11-2.92,3.95-4.53,1.21-1.05,6.22-5.63,6.6-6.49.62-1.42-1.13-3.48,1.47-5.97l1.97,1.98c.11-3.3,4.46-3.27,6.53-4.98,16.36-13.48,30.51-31.46,44.46-47.54,4.74-5.46,10.19-19.46,19-10.98-4.4,5.03-9.48,9.14-14.54,13.45-1.27,1.09-1.86,2.92-2.78,3.7Z"/>
      <path class="cls-1" d="M489.16,397.84c-3.3-2.11-1.21.3-2.3,1.63-1.82,2.23-3.2,3.93-5.69,2.35.9,3.92-1.85,2.61-3.51,3.97-5.15,4.23-9.75,8.59-14.97,13.07-3.09,2.65-9.5,9.88-12.51,11.49-1.73.92-1.91.16-2.99-1.02,1.52-4.46,4.26-4.55,6.47-6.51,7.69-6.85,15.89-18.23,22.58-23.42,2.87-2.23,14.02-9.35,12.92-1.56Z"/>
      <path class="cls-1" d="M513.87,396.58c-.73.61-6.17,2.64-6.63,3.35l.93,2.9c-1.61-.12-2.86.42-4.1,1.42-3.29,2.65-11.31,11.15-14.43,14.58-1.72,1.89-3.62,4.55-4.58,6.94l-2.9-.94c.09,4.52-4.11,4.68-7,7.01,1.84-6.19,6.12-10.65,11.1-14.39,1.19-.89,3.2-.86,4.16-1.63,1.67-1.34,12.89-12.94,11.73-13.97l-2.99.99v-1.98c4.57-.91,9.16-7.6,13.7-7.84,2.49-.14,2.45,2.36,1,3.57Z"/>
      <path class="cls-1" d="M560.16,488.84c.34,3.99,1.99,7.32-.57,10.92-.15.22-3.47,3.69-3.7,3.81-1.01.55-2.5-.09-3.45.57-.46.32-.22,1.59-.32,1.65-.57.39-1.44-1.47-2.43-1.59-1.58-.2-3.62,2.04-5.52,1.63l7.31-10.67,8.67-6.32Z"/>
      <path class="cls-1" d="M445.18,410.83c1.51-3.89-.53-8.12,1.38-11.64s7.57-5.83,11.64-3.89c1.15.98,1.2,1.2.49,2.55-.32.61-7.97,9.1-8.99,10.02-1.36,1.22-2.78,2.35-4.52,2.97Z"/>
      <path class="cls-1" d="M470.16,436.83c1.08,5.87-6.3,7.31-10.54,8.94l.5,5.97-4.94.09c2.79,7.45-7.89,4.87-5.01,11.99l-2.91-.94-1.07,1.93.25-10.82c2.52-1.46,12.12-7.63,13.43-9.48,1.5-2.1.49-4.99,4.79-6.74,1.92-.78,3.59.16,5.51-.96Z"/>
      <path class="cls-1" d="M519.16,476.84c-.53,2.93-.4,5.84-3.99,5l2,3.98c-6.71,2.13-12.56,5.58-17.65,10.36-2.87,2.7-6.11,7.63-8.94,10.56-1.03,1.07-1.44,2.54-3.41,2.08-1.06-.99,17.7-19.87,19.41-21.54,2.59-2.54,6.92-6.9,9.58-8.95,1-.78,1.27-1.94,3-1.49Z"/>
      <path class="cls-1" d="M545.53,413.17c-1.53,2.06-2.66,4.23-1.36,6.65-2.09,1.93-4.94-6.26-1.29-6.21l-.72-1.77c4.95,1,5.71-4.53,10-6.01,1.23,1.18-5.95,6.42-6.63,7.34Z"/>
      <path class="cls-1" d="M840.17,568.84c-1.07,6.35-7.37,9.79-11.63,14.35-.69.74-.66,2.42-1.83,3.66-1.75,1.85-4.49,2.15-6.22,3.3-1.83,1.21-1.82,5.04-7.26,3.79l-.07,2.9c-2.76-2.12-5.04,1.49-6.01,3.98l-1.97-1.98-2.03,4.98-1.97-1.98c.12,4.74-3.34,5.17-5.31,8.69l-10.22,5.32c-1.93-7.46,5.58-10.78,9.02-16.01l.99,1.99c1.12-.43,4.54-4.68,5.76-5.61,7.88-5.98,14.53-12.02,21.64-19.03,1.29-1.27,6.79-7.87,7.3-8.05.45-.16,1.65.38,2.79.19,2.2-.36,3.74-2.02,7.02-.49Z"/>
      <path class="cls-1" d="M873.15,627.84c-.23.24-2.72-1.05-4.27-.1-1.04.64-2.05,3.35-3.68,4.63-7.45,5.87-14.51,8.61-16.06,19.46l-1.97-1.01c.63,4.42-3.53,7.82-6,10v-1.99s-1.97.04-1.97.04l-4.55,4.95-.5-2.99-4,4.49,2-.5c.48,1.78-1.21,2.13-1.53,3.5-.37,1.56,2.28,3.11-1.51,1.99-.33,4.34-2.55,2.34-5.27,4.64-5.17,4.37-7.16,9.8-15.67,7.87l2.09-5.93,2.27.9c4.93-3.48,8.26-8.35,12.61-12.51,2.21-2.11,3.82-.27,2.03-4.45l1.99,1.02.09-2.9c3.26.94,3.91-1.71,4.15-1.82.51-.24,1.53.76,1.68.65.29-.22.35-2.33,1.07-3.23,3.43-4.32,11.86-9.61,15.05-14.13,4.25-6,3.37-5.26,8.91-10.11,4.12-3.61,7.75-7.74,12.55-10.45,2.02.07.77,7.69.48,7.99Z"/>
      <path class="cls-1" d="M804.78,662.46c-3.91,4.27-11.28,12.79-15.57,15.92-1.37,1-2.04,1.88-4.04,1.45-.26-.24.95-4.31,1.32-5.18,1.8-4.31,21.92-27.28,25.98-30.51,1.47-1.17,4.08-1.82,5.69-3.31.38,2.29-2.02,2.78-2.72,4.68-.43,1.16.9,3.08-.04,5.01-1.13,2.32-8.24,9.33-10.62,11.93Z"/>
      <path class="cls-1" d="M804.76,571.52c-.26.31-1.11.36-1.59.33l1.98,1.98-5,1.04v5.98s-1.49-3.99-1.49-3.99c-2.33,2.35-4.73,4.61-6.97,7.04-.96,1.04-1.04,2.99-1.72,3.68-.44.46-5.4.3-5.62.47-.58.45.47,2.22-1.18,1.8.3-2.87-.62-6.6.19-9.29.21-.72,8.6-11.37,9.22-11.78,2.96-1.91,17.14-3.08,12.17,2.76Z"/>
      <path class="cls-1" d="M816.17,614.83c.55.49,2.32-2.78,3.99-1.99-1.85,6.56-7.29,7.1-11.06,10.43-3.48,3.08-7.05,8.06-10.94,11.06l2.99.98c-2.89,1.51-4.37,4.78-6.46,6.54-1.22,1.02-3.53,1.16-4.66,2.42-1.69,1.89,2.5,3.64-2.39,3.46l-1.38,4.62-4.1.46c1.79-1.64,2.75-11.4,3.18-11.85.57-.59,2.75-.56,3.84-1.66.9-.91.7-2.53,1.26-3.2,1.88-2.25,9.97-3.2,6.73-9.29l2.98.59c1.5-2.74,3.85-4.99,6.53-6.6,3.42-2.05,4.79.38,6.48-6.5l1.51,1.52.51-3.01c1.82-.39.63,1.67,1,2Z"/>
      <path class="cls-1" d="M876.16,651.84c-.49,1.24.06,7.45-.16,7.77-.76,1.1-8.7,5.76-10.34,7.22s-9.56,9.72-10,11.09c-.37,1.14.12,1.92.51,2.92h-10c-.65-3.38,2.71-2.01,2.84-2.18.46-.63.18-2.35,1.12-3.37,2.4-2.61,7.07-5.28,8.06-9.43l1.98,1.99c-1.06-4.52,1.45-3.75,3.54-5.94,1.93-2.03,4.4-5.5,6.05-7.01.47-.43,5.65-3.87,6.41-3.04Z"/>
      <path class="cls-1" d="M874.97,587.03c1.26,8.26-10,5.26-8.86,12.78l-2.48-.07-.47,4.09-2.48-1.99c-1.85,3.55-5.43,4.54-7.56,6.42-3.77,3.33-7.14,8.08-10.66,11.33-4.34,4.01-4.04-1.08-.83-4.78s11.88-9.01,15.92-13.08c1.82-1.83,5.96-6.4,7.6-8.39,2.45-2.96,4.25-6.41,6.51-9.5l3.3,3.19Z"/>
      <path class="cls-1" d="M868.12,568.89l-.61,3.97c-5.34,2.65-4.73-1.71-9.35-1.04,2.05-4.19,6.17-3.59,9.96-2.93Z"/>
      <path class="cls-1" d="M683.17,782.84c-2.41,2.17-2.31,5.57-4.95,7.53-1.95,1.45-4.21,1.6-5.34,2.47-6.62,5.07-12.7,11.68-18.71,17.51-1.1,3.27,9.21-1.54,6.02,2.02-6.94,3.16-12.72,7.55-18.03,12.97l2.99-.5v1.98c-11.82,1.18-15.34,12.19-23.98,18.01-.86-1.06,2.36-5.34,2.6-7,.33-2.29-1.34-5.24-.42-8.3.44-1.47,2.11-2.09,2.84-3.21,3.74-5.76,9.96-9.73,15.53-14.44,2.46-2.08,4.05-5.54,8.02-6.99l2,1.98c2.46.72,7.32-3.09,5.41-5.03,7.49-.58,13.5-10.46,18.77-15.03.79-.69,6.67-4.49,7.24-3.97Z"/>
      <path class="cls-1" d="M725.17,801.84c-2.39,1.81-.6,4.53-1.45,5.95-.59.99-5.97,4.11-7.55,5.53-6.57,5.88-14.88,11.37-20.65,16.85-2.19,2.08-6.38,9.42-7.63,10.36-2.49,1.88-9.78,4.91-12.45,7.54-3.41,3.36-1.04,8.91-10.25,6.75-.41-4.85,3.44-3.8,5.21-5.01,1.16-.79,1.35-2.21,2.41-2.93,2.15-1.47,5.84,1.29,2.8-4.06,3.74-4.75,7.51-6.71,12.36-9.66,1.56-.95.75-3.21,3.2-1.33-.18-6.3,2.44-4.02,4.91-5.57,6.18-3.86,5.75-6.6,8.63-11.37,1.21-1.99,8.49-5.45,10.45-7.61,1.11-1.22.85-3.12,1.12-3.41s1.89.66,2.88.32c1.97-.69,3.64-2.64,6.01-2.35Z"/>
      <path class="cls-1" d="M663.16,742.85l.52,2.04,6.49-2.05-1.02,5-1.82-.85c-3.66,7.4-10.87,10.22-16.78,15.84-1.32,1.25-.43,2.73-.57,2.84-1.02.81-6.21,2.93-7.81,4.17l2.99,2.97c-3.27-.37-3.84,1.85-5.51,4.01l-1.46-.04-.52-1.96c-3.82,1.99-4.79,5.91-7.9,8.58-1.51,1.3-5.41.9-3.62,4.41h-3.99c-.46-1.73,1.21-2.15,1.49-3.49.17-.83-.42-2.03-.04-3.47,1.26-4.74,2.71-3.21,5.03-4.99,11.59-8.91,13.63-10.78,23.56-22.26,2.93-3.39,8.73-6.54,8.96-10.77h1.98Z"/>
      <path class="cls-1" d="M686.56,756.25c-10.75,9.14-20.95,20.01-32.47,28-1.2.83-2.3,1.84-3.92,1.57,2.74-6.61,10.14-9.29,14.54-13.95,3.31-3.5,6.82-10.13,9.88-13.65,1.47-1.69,12.95-12.7,13.82-13.12,1.27-.62,11.78-2.15,11.74.23-3.49,2.71-6.67,6.27-9.94,9.06-1.19,1.01-2.8,1.13-3.65,1.86Z"/>
      <path class="cls-1" d="M719.17,778.82l2.99-.99-1.55,4.94c-7.28,5.01-13.71,12.16-20.97,17.09-1.16.79-2.84-.58-2.48,1.96l-2.57-3.02-5.41,1.03,16.06-14.41c6.29-2.76,8.66-10.95,15.92-12.59l-1.99,5.99Z"/>
      <path class="cls-1" d="M718.49,838.13c-1.04,1.47-1.28,2.97-1.35,4.71-2.84-1.79-11.07,5.69-12.45,8.06-2.07,3.55.59,5.53-7.54,3.91-.38-5.91,5.3-9.3,8.51-13.97l1.48,1.99c.53-3.54,4.23-7.92,8.01-7l-1.99-1.98,4.05-.49c-.14-3.93,2.86-2.75,5.93-4.53,2.29,5.17-2.69,6.5-4.66,9.3Z"/>
      <path class="cls-1" d="M640.16,741.85c.24.2-3.26,3.05-2.99,4.47-1.97.15-9.11,7.02-8.98,8.02.15,1.22,3.19.79,2.98,2.48-1.08.35-3.55-1.11-3.88-.88-.43.29-.54,2.95-2.1,2.89.05-4.28-.64-11.65,2.4-15.09,2.11-2.39,10.04-4.07,12.59-1.9Z"/>
      <path class="cls-1" d="M724.17,746.84c.93,5.05-4.41,6.59-6.34,10.65l-14.66,9.33c2.01-2.5,4.95-5.55,7.32-7.65,1.7-1.5,8.78-3.95,3.62-5.85,1.55-1.34.97-5.2,1.2-5.38.26-.2,1.54.04,2.48-.48.42-.24.43-1.59.98-1.62,1.31-.07,3.61,1.52,5.4,1.01Z"/>
      <path class="cls-1" d="M673.16,823.84l-4.5,5.99-.52-1.94-1.95-.03c-2.79,4.9-8.47,8.58-12.56,12.94-1.68,1.79-7.41,10.74-9.73,11.81-.8.37-3.21-.85-4.72,1.23-1.21-1.32,3.69-5.92,4.75-7,6.13-6.26,14.24-13.21,20.24-19.46,1.03-1.07,7.71-4.52,8.99-3.53Z"/>
      <path class="cls-1" d="M646.17,789.84c-1.12,4.56-4.53,5.92-8.99,7.03l.82,1.79-8.82,7.17c-.59-4.38,2.86-3.21,3.45-3.99,1.05-1.39,2.84-5.02,3.85-6.7l9.69-5.3Z"/>
    </g>
  </g>
</svg>