<svg width="99" height="36" viewBox="0 0 99 36" fill="none" xmlns="http://www.w3.org/2000/svg">
<g clip-path="url(#clip0_86_688)">
<path d="M91.5602 2.16203L91.1609 33.329C91.1541 33.811 91.5267 34.2088 92.0032 34.2392L96.2319 34.4819C96.7285 34.5089 97.1514 34.1279 97.1749 33.629L98.6751 2.44859C98.6985 1.94965 98.316 1.52825 97.8193 1.50802L92.4932 1.2754C91.9898 1.25181 91.5669 1.65298 91.5602 2.16203Z" fill="#37251E"/>
<path d="M28.1577 16.3347C28.2114 15.0806 28.2617 13.9141 28.3121 12.8185C28.349 12.06 27.7046 11.4295 26.9529 11.5172C22.4792 12.0195 20.1837 14.8952 20.1837 14.8952C20.1267 14.6153 19.9958 13.5972 19.9958 12.6904V12.5926L14.1227 12.3195L14.8744 35.1461L20.771 35.0079V27.6384C20.7542 24.3717 21.4389 21.8095 22.8115 20.0262C23.9257 18.5799 25.4493 17.6562 27.3589 17.2651C27.8053 17.1741 28.1375 16.7932 28.1577 16.3347Z" fill="#37251E"/>
<path d="M9.80014 1.41028C7.92076 1.41028 6.38704 2.0171 5.1151 3.26782C3.7559 4.60282 3.08469 6.4334 3.05784 8.8573V16.3549H1.15832C0.987159 16.3549 0.842849 16.4897 0.836137 16.6617L0.675047 19.7497C0.664978 19.9351 0.812645 20.0902 0.997227 20.0902H3.05449V35.7495L9.99815 35.4259L9.78336 22.1264L9.75316 20.3363L11.5352 20.4172L12.6327 20.4678C13.0522 20.488 13.4113 20.1677 13.4415 19.7463L13.6764 16.5639C13.7099 16.0919 13.324 15.6975 12.8508 15.7278L11.5654 15.8088L9.78001 15.9234V11.2374C9.78001 9.61583 10.0284 8.37859 10.5418 7.45825C11.2063 6.26483 12.3071 5.60745 13.6495 5.60745C13.9851 5.60745 14.3207 5.65127 14.6563 5.7423C15.0289 5.84343 15.4115 5.61082 15.5021 5.23661L15.7706 4.11063C15.8343 3.8443 15.737 3.56786 15.5222 3.3993C14.898 2.90373 14.0892 2.46547 13.1092 2.09464C11.8373 1.64626 10.7231 1.41702 9.79343 1.41702L9.80014 1.41028Z" fill="#37251E"/>
<path d="M67.8498 30.659C66.061 28.6025 65.1515 25.7505 65.1515 22.1871C65.1515 19.2946 65.9201 16.9179 67.4941 14.9491C67.192 14.2816 66.8497 13.6984 66.4604 13.2095C65.0811 11.4801 62.8694 10.6373 59.6946 10.6373C57.7514 10.6373 56.0432 11.0081 54.6135 11.7363L52.1737 12.9837V10.0878C52.1737 9.90236 52.026 9.74729 51.8381 9.74729L45.5019 9.65289C45.3072 9.65289 45.1528 9.80797 45.1562 10.0035L45.2669 14.4063C46.2737 16.247 47.002 19.8137 47.2604 22.5916C47.2604 22.6152 47.2638 22.6388 47.2671 22.6591C46.9181 22.7265 46.455 22.8816 45.5757 23.1749C45.5656 23.1749 45.5556 23.1816 45.5488 23.185L45.579 26.7821C46.5859 26.6607 47.6598 26.5258 48.4183 26.4281C48.9452 26.3607 49.3445 26.8731 49.17 27.3788C48.7539 28.5722 47.992 30.3758 46.7067 31.5827C46.4013 31.8659 46.0925 32.1254 45.7838 32.3715L45.7401 33.2481L52.8449 33.42V24.1694C52.8214 21.5331 52.8214 19.5542 53.996 18.3641C54.8417 17.5045 55.9929 17.0527 57.3219 17.0527C58.6509 17.0527 60.2383 17.5517 61.0773 20.8824C61.4834 22.4197 61.5706 22.8377 61.5706 27.4799C61.5706 29.5701 61.5404 31.2692 61.4767 32.594C61.4498 33.1503 61.8727 33.6223 62.4264 33.6627L67.8833 33.9965C68.4539 34.0369 68.9439 33.5987 68.9741 33.0256C68.9942 32.6514 69.0076 32.2333 69.0244 31.7951C68.6083 31.4647 68.2156 31.0905 67.8498 30.6691V30.659Z" fill="#37251E"/>
<path d="M47.4148 27.099C46.3006 27.2405 43.3238 27.4664 42.0585 27.6114C41.8303 27.6383 41.629 27.7698 41.5249 27.9755C41.2195 28.5789 39.0347 29.951 37.4876 29.951C35.9405 29.951 33.7993 29.9881 32.4837 27.0888C32.2253 26.5157 32.2052 25.8449 32.4837 25.2785C32.8395 24.5503 33.561 24.1053 34.3531 24.1053C34.5913 24.1053 38.0682 24.7762 40.4241 24.1828C42.8741 23.5659 46.2033 22.3186 46.1697 22.0185C45.777 18.2562 44.7702 15.3165 43.0519 13.2938C41.3571 11.3014 39.1421 10.3305 36.2828 10.3305C35.8666 10.3305 35.4337 10.3507 34.9941 10.3912C32.6314 10.6137 30.7218 11.5543 29.2049 13.25C29.2854 13.4253 29.329 13.6208 29.319 13.8298C29.2686 14.9255 29.2149 16.0919 29.1646 17.346C29.1445 17.8045 28.8122 18.1854 28.3625 18.2798C27.651 18.4282 26.9966 18.654 26.3925 18.9473C26.0233 20.6296 25.9294 22.4703 26.114 24.4559C26.4563 28.1305 27.8255 30.8107 30.3057 32.6547C32.2924 34.1448 34.6685 34.8696 37.5749 34.8696C38.1387 34.8696 38.726 34.8426 39.3267 34.7853C41.4545 34.5864 43.5755 33.5279 45.626 31.6366C46.9114 30.4331 47.7571 29.243 48.1733 28.0463C48.3478 27.544 47.9484 27.0315 47.4215 27.099H47.4148ZM38.6287 19.8171C38.6287 20.1374 38.5246 20.2958 38.3199 20.2925L37.6856 20.0194C36.5748 19.5407 35.3196 19.5204 34.192 19.9621L33.0442 20.4105C32.8865 20.4206 32.8059 20.3127 32.8093 20.0834C32.816 19.1361 33.165 18.3709 33.8631 17.7843C34.4806 17.2752 35.1887 17.0224 35.9942 17.0291C36.8567 17.0359 37.5245 17.3056 37.9977 17.845C38.4239 18.3372 38.6354 18.9945 38.632 19.8137L38.6287 19.8171Z" fill="#37251E"/>
<path d="M89.6439 0.749502L84.7206 0.830411C84.2675 0.837154 83.8984 1.20462 83.8883 1.65973L83.6567 11.2239L83.5863 14.113L81.1162 12.6297C79.5355 11.679 77.9783 11.2171 76.3473 11.2171C73.6557 11.2171 71.4172 12.188 69.5009 14.1838C67.4772 16.2908 66.4939 18.9103 66.4939 22.1837C66.4939 25.7505 67.4 28.5991 69.1922 30.6556C70.9474 32.6749 73.2463 33.656 76.213 33.656C82.6633 33.656 83.6567 29.0913 83.6567 29.0913V33.484C83.6567 34.0774 84.1501 34.546 84.7374 34.519L88.419 34.337C88.9559 34.31 89.3788 33.8751 89.3989 33.3391L90.5064 1.62265C90.5232 1.13719 90.1305 0.736017 89.6473 0.74276L89.6439 0.749502ZM80.8813 25.7842C80.6262 26.9708 79.8644 27.9249 78.5992 28.6463C77.4178 29.3206 76.1627 29.5397 74.837 29.3004C73.3302 29.0104 72.1824 28.171 71.3971 26.7821C71.2091 26.4483 71.2326 26.2224 71.4776 26.1044L73.5416 25.8145C75.5653 25.5313 77.3943 24.4627 78.6428 22.8344L79.3509 21.9073C79.6496 21.7353 79.9315 21.8837 80.1966 22.3523C80.8779 23.5558 81.1061 24.6986 80.8779 25.7808L80.8813 25.7842Z" fill="#37251E"/>
</g>
<defs>
<clipPath id="clip0_86_688">
<rect width="98" height="35" fill="white" transform="translate(0.675049 0.749512)"/>
</clipPath>
</defs>
</svg>
