<?xml version="1.0" encoding="UTF-8"?>
<svg id="Layer_1" data-name="Layer 1" xmlns="http://www.w3.org/2000/svg" viewBox="0 0 973.95 954.77">
  <defs>
    <style>
      .cls-1 {
        fill: #fff;
      }
    </style>
  </defs>
  <g id="eQQ8uu">
    <g>
      <path d="M631.66,31.54c.24.16,2.15-.71,3.59-.14,18.83,7.44,22.52,14.95,20.25,35.37,24.77-.3,57.97,17.34,47.19,46.68-3.79,10.31-11.79,14.35-18.94,21.8-.22,2.66,8.37,7.74,10.4,9.87,7.64,8,16.19,30.23,7.02,39.31-3.34,3.31-11.14,3.97-11.6,4.4-.35.33-.49,6.52-5.05,7.43,27.57,20.14,4.76,75.37-28.02,75.51,10.35,15.55-.66,33.79-18.45,21.99-1.17.26-6.13,10.53-7.55,12.5-.68.94-4.95,6.12-5.47,6.53-2.11,1.67-6.74,1.3-6.53,4.96,7.43.78,14.91,2.01,21.97,4.53,56.57,20.18,91.28,67.26,107.52,123.48,8.17,28.28,10.67,59.01,4.51,88,20.27-2.92,45.13-2.21,62.47,9.66,21.5-9.2,48.29-10.28,69.51.34,6.58-22.97,4.44-41.16-10.57-59.91-4.65-5.81-11.17-10.53-15.44-15.84-20.96-26.12-29.43-62.15-13.16-92.93,9.97-18.86,43.58-41.44,65.42-35.05,9.64,2.82,11.84,13.2,11.41,22.08-.72,14.78-32.37,26.54-36.41,41.39-2.31,8.49-.59,22.17,3.55,29.97,2.24,4.22,7.42,8.12,10.18,11.82,19.47,26.09,30.18,52.54,26.91,85.85-1.22,12.38-8.26,22.95-11.32,34.64,10.04,13.64,16.26,29.76,21.67,45.74,24.26,6.18,40.52,20.95,36.66,47.62-1.62,11.21-8.06,20.68-10.59,31.42-2.49,10.58-1.56,21.98-3.81,32.2-4.23,19.22-18.31,33.38-34.18,43.81-7.86,5.17-22.62,10.56-28.34,15.66-6.2,5.53-14.9,21.46-21.16,28.89-29.25,34.74-72.43,31.52-108.12,53.83-17.71,11.07-29.69,27.87-45.78,40.22-17.56,13.48-37.14,23.41-55.82,35.17-7.19,4.53-13.94,9.19-20.6,14.42-10.28-1.52-20.27-6.37-30.05-8.94-25.37-6.68-43.17-8.66-67.46-20.54-27.37-13.38-38.47-20.58-70.61-18.92-33.57,1.73-55.76,5.04-88.72-8.75-12.22-5.11-21.48-14.57-32.76-21.24-49.19-29.14-95.24-2.91-143.56-28.44-16.82-8.89-24.42-21.93-44.08-28.92-18.67-6.63-38.28-4.95-56.49-11.51-21.09-7.59-38.07-28.44-60.67-33.14-10.87-2.26-28.02,1.78-38.4-2.7-12.31-5.3-14.88-15.05-9.56-27.27.5-1.15,5.3-9.08,6-9.99,8.16-10.65,20.73-17.14,31.87-24.15-10.17-5.2-19.47-9.09-25.82-19.17-13.59-21.59-13.75-52.59-2.55-75.2,4.25-8.58,11.49-15.42,12.36-25.63,1.65-19.42-12.23-24.66-12.96-41-.37-8.2,2.59-15.06,9.62-19.35,10.88-6.64,21.43-5.32,30.87,2.84,16.17,13.99,16.73,40.49,13.2,60.22-4.87,27.16-43.53,69.98-1.71,86.79-1.83-57.9,18.13-115.45,47.78-164.51-7.26-8-15.35-14.93-21.23-24.25-2.96-.46-18.35,7.6-22.52,8.37-2.84.53-6.21-.35-5.51-3.69,1.45-6.98,18.41-10.97,24.42-14.02l-1.99-14.84c-4.81-1.13-27.38,5.03-29.51,2.01-5.21-7.38,14.74-10.97,19.34-11.79,2.77-.5,6.58.27,8.59-.41,2.79-.95,3.06-14.63,3.91-18.09,1.36-5.52,6.96-14.95,7.42-19.4.49-4.79-1.99-14.87-1.75-20.91.33-8.05,4.13-37.05,8.2-42.82,6.52-9.25,19.27,1.3,25.33,6.37,7.45,6.24,15.56,15.2,21.17,23.05,18.95-5.59,38.7-6.55,58.35-5.08-1.36-6,5.84-14.86,9.58-19.91,4.67-6.3,18.18-22.05,26.06-22.05,8.87,0,12.36,26.62,13.23,33.59.91,7.36-.02,24.43,1.54,29.41.95,3.03,6.02,6.23,8.02,9.02,3.77,5.25,9.36,16.71,11.07,22.93,1.59,5.76,1.29,11.48,3.02,17.05.51.7,15.34-.84,15.47,4.4.17,6.39-10.78,6.1-15.04,4.97l-2.94,13.09c-.19.83,14.89,2.17,14.96,6.95.12,8.95-14.82.6-18.04,2.96-4.78,15.13-15.45,26.36-26.64,37.06,12.31,28.28,18.14,61.21,19.73,91.97.31,5.91-.5,12.27-.07,18.09.13,1.79-.28,3.24,1.54,4.44,2.41,0,1.27-10.37,1.52-12.46,1.58-13.35,10.25-29.83,20.46-38.54,13.96-11.91,33.58-16.95,51.53-18.98l-1.01-6.99c-14.5,3.35-35.78-9.24-26.01-25.5-12.28-4.41-17.89-19.07-8.05-29.14-10.53-12.61-2.95-26.99,12.14-29.95-2.2-11.49-3.91-23.2-6.35-34.63-1.45-6.8-6.44-19.56-6.77-25.31-.25-4.3,1.77-10.04,6.61-10.48,1.84-.17,20.17,6.28,23.42,7.53,29.77,11.46,67.1,30.15,94.69,46.31,5.25,3.08,24.17,16.94,27.79,17.05,5.89.18,19.12-8.89,25.18-11.73,45.15-21.13,93.71-31.13,142.45-40.59,6.08,1.18,7.42,5.66,8.66,11.18,2.46,10.9,3.97,26.4,5.23,37.77.27,2.47-.2,4.99.05,7.45,11.35.82,20.27,7.89,27.46,16.04,2.29-3.29-.11-5.63-.57-8.42-3.13-18.78-7.53-35.82-12.98-54.03-1.63-5.43-6.29-10.37-3.29-17.32,4.27-9.91,13.77,15.16,14.81,17.8,6.53,16.65,10.45,34.36,13.61,51.9,5.5-.69,27.06-4.31,27.97,4.62.66,6.5-8.34,2.96-11.55,3.02-6.09.12-12.2,1.51-17.24,5.09-2.88,2.05-2.11,5.64-7.26,3.35,5.52,8.41,8.89,17.92,10.82,27.78,2.09,10.67,1.57,23.61-2.34,35.18l-4.48,8.01c9.7,2.38,21.16.34,30.51-2.97,57.33-20.3,41.16-99.78,22.34-142.37-8.97-20.3-19.91-42.23-36.2-57.3-18.83-17.41-51.29-36.38-77.29-38.24-9.34-.67-16.58,10.69-25.45,13.31-4.11,22.92-18.16,41.34-38.24,52.76-28.23,16.05-74.59,2.79-70.68-35.16-13.55-1.78-26.88-4.86-39.54-9.96-21.54,12.13-39.06,29.59-53.29,49.61-1.75,2.46-3.22,7.2-5.11,8.89-1.7,1.52-3.85.76-4.04,2.44l41.99,20c-2.97-4.77,2.08-27.6,5.99-29.5,1.4-.68,3.81-.94,5.07-.06,1.35.94.13,11.73-.18,13.95-.79,5.62-2.7,11.1-3.9,16.62l-1.98-1.01.14,3.36,32.75,24.19,1.84-.21c1.14-.42,1.29-1.91,2-2.3,46.65-25.57,93.57-43.65,147.72-46.07,3.14-.14,10.29-.82,11.53,2.55l-1.99,1.49,1.99,1.49c-2.45,3.04-2.87,4.88-6.94,6.05-13.37,3.84-33.53,1.98-48.3,4.71-24.13,4.47-57.81,16.96-79.63,28.37-4.31,2.25-22.9,15.08-24.7,15.36-3.71.59-6.62-1.55-9.73-3.18-8.97-4.73-17.75-13.46-26.77-19.23-20.18-12.89-48.08-26.26-70.23-35.77-8.96-3.85-20.63-5.44-27.69-12.32l1.98-.48.03-2.52-2.02-1.48c6.93-1.43,16.05,2.2,22.96,4.53,3.38,1.14,19.26,8.39,20.92,7.34,1.54-3.69,3.24-7.79,5.3-11.2,7.82-12.98,21.79-28.74,33.35-38.65,2.51-2.15,18.2-12.42,18.48-13.53.34-1.36-.82-1.73-1.65-2.34-9.15-6.69-18.63-12.52-26.29-20.95-14.59-16.04-25.8-37.11-31.16-58.1-6,.39-11.18-.63-16.13-4.14s-13.83-17.5-14.69-23.55c-2.29-16.24,7.55-41.37,27.91-34.42l-1.06-4.43,2.05-.58c-1.94-3.56-1.43-11.91-.88-16.37.98-7.86,4.91-15.22,5.9-23.11.29-2.33-.29-1.73-1.39-.39-10.93,13.25-36.02,13.71-33.64-7.63,1.25-11.19,11.89-17.45,22.03-19.48-2.47-2.56-1.51-3.81-1.01-6.99-6.36,2.44-9.61-1.63-12.64-6.86-11.91-20.52,16.32-37.71,31.64-45.65-7.72-4.58-1.6-17.62,3.03-22.97,4.92-5.68,25.35-17.07,32.72-18.28,8.14-1.34,20.11,2.24,26.32.31,2.35-.73,7.99-6.95,11.04-8.96,13.06-8.62,33.7-7.62,46.89.41,5.64-13.8,26.93-18.14,40.54-18.71,14.86-.62,41.07,4.72,50.3,17.39,3.63,4.99,4.52,10.29,7.73,15.3,5.78-2.9,12.38-4.83,18.9-5.01,2.39-.07,15.52.67,16.93,1.18s1.35,2.34,1.78,2.64ZM566.5,18.78c-17.21-7.51-39.08-9.56-56-.51-.31,2.73,1.08.76,2.54.53,7.28-1.16,17.74-2.29,25.01-2.08,8.84.26,18.51,3.54,26.97,4.04,1.98.12,1.56-.2,1.48-1.99ZM476.5,25.76h-17.5c-.2,0-3.9.93-3.49,1.99,4.41-1.02,9.56,1.18,13.46,1.06,1.7-.05,6.67-1.22,7.53-3.05ZM517.5,29.77c-5.82,1.28-11.91-.21-16.72,3.66-3.23,2.59-4.26,8.21-7.27,11.32l8.32-3.17,15.67-11.81ZM560.51,45.75c3.3.06,5.24-2.55,8.61-2.93,7.69-.87,17.25,6.26,10.87-8.11l-.92-.66c-1.86.66-3.9.54-5.79.99-1.5.36-7.23,2.2-8.24,2.82-1.72,1.06-.58,2.56-1.42,4.45-.97,2.18-2.6,1.81-3.1,3.44ZM471.85,51.11c1.93-1.62,15.71-13.04,13.64-15.35-3.22,3.77-10.12,4.83-13.28,6.95-1.02.69-8.32,8.27-9.67,9.82-1.97,2.27-3.13,5.85-6.04,7.73-.16.76.96.64,1.47.48,4.68-1.43,10.39-6.73,13.87-9.64ZM418.5,40.75c-.72-2.72-6.11-1.01-8-.49-9.12,2.53-28.41,13.07-24.91,24.41,16.13,1.08,17.55-21.17,32.91-23.92ZM603,44.76c5.85-.32,12.09,0,18,0,.69,0,12.17,3.28,13.22,3.78,3.75,1.81,5.73,6.76,9.77,8.23l-4.97-10.03c-12.79-5.26-26.19-8.86-39.52-2.97-.55,3.99,2.43,1.04,3.5.99ZM533.5,42.77c-7.14.33-12.87,4.82-19.36,7.13l-17.64,10.85,6.35,1.85,30.65-19.83ZM451.49,48.75c-3.1-5.18-10.04,4.42-12.44,7.07-1.08,1.19-3.52,2.04-4.06,2.94-1.15,1.95.06,4.81-.98,7.03-.86,1.82-9.25,7.46-10.52,9.96,3.71.61,7.23-3.2,9.88-5.66,6.74-6.28,10.22-16.43,18.11-21.35ZM487.5,72.76l-1.49-8.99-6.5,7.98,8,1ZM549.5,65.77c-.68-.76-5.54,2.43-5.59,3.93l3.11,4.06c2.4,1.01,2.52-6.84,2.48-7.99ZM454.5,79.77c-.86-.78-18.95,8.47-18.98,10.49,4.84,7.21,20.52-9.1,18.98-10.49ZM686.16,88.11c-2.87-2.75-17.28-10.82-20.66-8.34,7.45,12.42,16.2,23.93,20.5,38,.77,0,7.3-11.5,7.37-13.47.12-3.64-4.52-13.61-7.21-16.2ZM472.5,81.77l-10.77,10.95-18.8,10.99c.13,11.39,16.31,2.74,20.51-1.52s6.43-14.64,9.06-20.43ZM537.16,99.44c2.25-3.61,3.45-12.34,3.33-16.67-8.19,6.49-6.02,19.43-14.99,24.5,2.79.82,10.48-5.94,11.66-7.83ZM374.5,83.77c-3.53,1.46-8.34,4.63-11.23,7.03-4.47,3.72-12.2,10.24-7.75,15.95,1.82,1.33,5.53-8.33,7.01-10.47,3.28-4.77,8.22-8.21,11.98-12.51ZM564.49,84.77l-2.04.57c-2.35,3.51,1.19,20.05,5.29,21.76,8.92,3.72,10.22-2.97,10.62-10.15-5.26-3.58-12.68-4.92-13.87-12.18ZM493.48,85.77c-1.73-1.48-1.67.29-2.01,1.45-2.01,6.89-2.48,11.36-.27,18.35,1.73,5.49,3.87,9.55,10.38,7.78,4.38-1.19,1.61-6.5,1.97-9.97.23-2.2,3.78-9.51,2.94-10.61-3.69,3.34-6.14,2.02-9.37-1.11-1.41-1.36-3.37-5.65-3.64-5.88ZM592.5,100.76v-14c-2.02.95-1.57,3.72-5,3.01,3.85,3.08,1.57,8.44,5,10.99ZM383.86,94.11c.78-.83,3.98-1.55,2.15-3.34-4.59,3.69-9.71,7.98-13.51,12.49-.95,1.12-2.42,1.63-1.99,3.5,4.64-4,9.17-8.16,13.35-12.65ZM660.12,99.17c-1.75-1.56-13.13-8.75-14.62-7.4-.44,1.89,1.07,2.37,1.99,3.5,2.77,3.39,14.79,13.28,18.52,14.48.5.16,1.63.27,1.48-.48-3.12-3.39-3.86-6.98-7.37-10.1ZM553.86,109.42c-2.02-3.94-1.06-9.91-4.35-12.66.82,2.87-1.91,7.44-3.95,9.55-5.15,5.34-20.2,13.37-27.64,14.43-2.26.32-4.27-.94-5.77-.71-1.69.26-6.08,4.25-8.81,5.05-5.66,1.65-12.62.15-17.2-3.46-4.18-3.3-3.2-11.76-11.42-10.71-4.44.57-15.19,9.45-20.93,10.62s-14.77-.05-19.25-4.35c-.26-.25-4.12-5.37-4.3-5.69-1.17-2.04-2.61-11.39-5.22-10.74-.92.23-3.32,5.19-4.51,6.49-5.15,5.6-12.18,11.2-19.76,12.75-5.33,16.06-14.01,30.85-18.29,47.29-7.83,30.02-8.4,81.91,3.58,110.45,35.52,84.67,159.57,93.67,221.38,33.42,17.36-16.92,19-30.6,27.07-51.93,3.99-10.56,12.56-1.17,19.59-.43,15.26,1.6,25.05-13.35,28.75-26.23,6.99-24.31-12.25-40.41-29.14-19.14-3.76,4.73-5.24,13.11-14.54,8.21-9.14-4.82-5.04-18.16-2.62-25.86-11.55-.62-13.93-13.52-15.73-22.79-2.4-12.36-3.35-24.73-2.27-37.23-10.45,1.14-22.22-1.92-25.49-13-.56-1.9-.46-8.65-1.97-8.77-11.78.67-18.83,9.63-30.71,2.44-.97-.59-6.09-6.26-6.47-7.01ZM604.5,99.76v17.5c0,5.03,10.42,8.19,12.02,1-4.78-3.53-7.11-10.87-9.76-16.31-.66-1.36.65-2.74-2.26-2.2ZM385.5,114.77l-4.9,2.67.91,8.33c2.74-.61,4.9-9.97,3.98-11ZM671.5,125.77c-7.24,1.42-12.33-4.65-18.99-6l11.76,9.81c1.31,1.02,9.3-2.23,7.23-3.82ZM637.49,139.76l-1.98-16.99c-1.21,5.15-2.79,13.3,1.98,16.99ZM364.5,139.77c-7.02,1.82-20.23,1.65-17.51,12.01l12.45-6.58,5.06-5.43ZM670.51,168.76c2.85-1.07,2.24-4.76,1.52-7.03l-8.52-13.96,7,20.99ZM631.51,159.77c-.1,3.22,2.73,21.89,5.49,21.98,3.55-5.75-.38-13.5-3.15-18.84-.54-1.05-1.03-3.23-2.34-3.14ZM363.49,208.77c-22.2,1.73-18.43,39.33,2.01,40.99l-2.01-40.99ZM570.5,350.77c-25.68,9.85-51.43,15.24-79,10.99-1.05,14.32,7.51,22.63,20.78,25.73,25.94,6.06,50.51-12.74,58.22-36.72ZM905.49,556.76c13.96-30.67,11.54-61.11-5.84-89.65-10.76-17.67-25.7-26.06-27.18-48.81-1-15.33,2.75-25.19,13.51-35.56,4.91-4.74,21.02-15.26,22.75-20.24,3.93-11.32-4.81-12.12-13.27-10.28-42,9.11-56.98,54.33-38.77,90.87,10.01,20.09,29.94,31.32,38.3,51.7,7.56,18.43,5.87,36.64.48,55.39l10.02,6.59ZM241.52,406.73c1.39-17.54-.44-34.74-4.04-51.96l-22.99,31.49-4.55,3.51c.1,5.59,5.58,21.63-2.95,22.09s-10.31-12.84-9.49-19.1h-6.01c-.85.86,4.7,18.44-4.51,21.99-2.54.98-.36-1.8-1.44-2.53-7.31.36-8.26-13.72-8.05-19.46l-11.99,1c1.1,7.87,4.81,15.38-1.44,21.76-8.26-.25-12.32-10.29-11.56-17.77-4.66-.59-9.99,2.61-14.31.06-1.39-.82-5.29-7.76-7.05-9.7-.76-.85-2.25-1.25-3.18-2.29-1.5-1.66-16.43-20.5-18.46-18.06-1.54,17.57-6.76,35.32-.45,52.52-7.3,11-10.05,22.69-12.55,35.47,4.4.97,17.39.34,19.29,4.27,3.38,7.01-6.9,7.38-11.78,7.81-3.78.34-7.48-2.73-7.27,2.12.74,16.89,12.41,1.77,22.38,6.76,5.64,9.28-14.55,8.54-15.62,10.06,5.4,11.06,17.19,21.36,27.98,27.51,4.63,2.64,23,8.99,24.51,11.48,6.05,9.99-16.29,6.43-21.05,5.05-5.72-1.66-9.46-5.38-14.85-7.13l-5.16,13.07c6.17,4.77,10.95,11.07,17.65,15.42,4.47,2.9,18.14,8.12,20.47,10.54,1.4,1.45,1.96,6.07.49,7.51-7.24,7.08-28.25-.6-35.99-5.03-3.59-2.06-11.01-9.78-12.58-10.43-1.66-.68-1.35.63-1.71,1.25-2.24,3.82-3.06,8.68-5.62,12.42-.16,1.85,12.49,13.88,14.83,15.83,5.72,4.78,22.43,13.96,25.39,18.57,1.35,2.11,1.95,4.53.39,6.67-7.17,4.06-15.92-.26-23.03-2.99-10.16-3.9-18.3-8.96-26.72-15.77l-4.86,16.35c.43,2.31,13.67,12.73,16.38,15.62,3.37,3.59,12.01,12.13,4.45,15.5s-24.36-9.21-25.98-7.48l-1.98,19.97c5.21.65,9.59,3.47,14.51,5.08,8.47,2.77,28.88,4.34,23.23,17.71-2.53,1.54-5.73,1.82-8.35.31l-.83,1.84c-10.14-1.82-20.05-3.99-29.58-7.91-.09,2.43-.09,4.82.25,7.24.91,6.51,4.29,23.73,6.68,29.32,2.18,5.08,7.65,9.29,12.69,11.31,9.31,3.72,31.73,7.73,41.85,8.16.84.04,1.69-.03,2.52-.04l-1.93-9.92c5.48-2.62,7.44,4.57,7.94,8.93,1.37,1.4,4.74-4.49,4.97-5.53,1.47-6.71-7.85-12.24-13.72-13.24-5.38-.91-11.06.81-16.24-1.32l-1.02-5.9c5.17-2.48,7.37-4.7,14.12-4.59,11.71-27.05,1.74-56.24-27.7-64.37l2.24-7.09c23.98-.76,38.46,20.13,40.85,42.05.41-8.86-.91-17.65-.5-26.58.23-4.89-.05-16.28,7.28-14.3,6.01,3.58,2.36,21.9,5.69,25.39,8.83,2.95,19.03,2.44,28.39,2.45l1.14,2.03c1.4-5.57.14-29.4,3.51-32.5.71-.66,2.93-1.23,4.03-.99,6.78,2.53,3.11,24.21,4.4,30.55,1.99,2.88,23.99-1.1,28.56,1.93.8-.92,1.15-20.6,2.2-24.3.79-2.78,4.44-3.44,6.82-2.22,2.04,1.04,2.75,5.84,2.91,8.06.61,8.07-.66,23.48-1.13,31.96-.65,11.66-1.72,23.4-3.63,34.91l8.33,8.58v-4.06c8-7.47,8.4,4.34,14.49,6.06,4.58-17.54-14.07-11.84-18.08-22.48,2.17-9.3,6.44-17.52,7.97-27.13,1.87-11.78,3.16-29.99,3.12-41.88-.02-4.22-2-9.77-1.01-14.5-5.03,3.72-20.28,6.11-20.68-2.66-.32-7.04,14.26-10.88,17.53-17.07l-2.85-18.27c-6.46,5.56-28.74,16.12-25.64-.77,4.44-4.53,20.05-17.25,19.47-23.48-.46-4.91-4.74-10.84-5.86-15.74-1.02-.75-19.46,8.56-24.3,3.08-1.49-1.45-.83-4.84.76-6.17,1.4-1.17,12.91-4.39,16.6-6.4,13.74-7.49,27.01-22.1,31.81-37.05-.44-2.34-11.02-1.03-11.87-5.98-1.32-7.72,9.91-3.53,14.39-3.41l2.65-9.06-13.78.33-2.23-6.78,14.88-3.7c1.27-11.53-4.56-26.19-11.88-35.07-1.34-1.63-6.85-7.37-8.31-8.54-.59-.47-1.85-.21-2.65-.29ZM621.49,432.76c-45.12,9.79-90.23,17.21-132.23,37.27-8.7,4.16-22.74,14.68-32.15,14.62-10.86-.06-18.64-9.51-27.08-14.91-21.62-13.85-50.18-26.57-73.84-37.16-12.69-5.68-25.53-11.35-38.69-15.8,5.6,17.85,8.44,36.49,10.99,55,17.05-1.41,46.03,13.12,30,32.46,8.46,5.7,11.66,14.64,4.04,22.92,17.97,11.89,4.89,29.51-13.04,28.61l3.08,17.91c42.98,11.42,83.27,30.9,123.4,49.64,40.95-9.38,81.19-22.9,122.47-31.12,7.26-1.45,17.59-3.12,24.91-3.86,2.42-.24,6.63-.03,9.13.42l-2.02-24.47-1.46-2.51c-11.02,4.83-35.68,5.27-40.55-8.47-1.99-5.6-.72-11.41,4.04-15.07v-1.47c-5.54-.39-10.76-9.73-10.9-14.61s3.43-8.09,3.76-10.08c.18-1.13-2.04-3.21-2.59-5.08-6.66-22.53,30.42-28.06,45.31-31.2l-6.58-43.05ZM323.28,483.04c-19.89,2.32-12.2,14.42,4.74,15.71,4.64.35,28.37.13,22.55-8.56-4.52-6.74-19.95-8.01-27.29-7.15ZM651.19,493.08c-11.45-9.48-38.46-3.99-50.92,1.96-1.91.91-8.22,4.83-5.87,7.27,7.94,4.4,17.77,3.77,26.64,3.5,3.98-.12,10.59-2.77,13.94-.03,7.33,5.99-3.27,9.78-8.23,10.73-9.83,1.89-20.41.63-30.3,1.7-9.2,6.47,3.55,9.94,9.56,10.54,8.95.89,20.26-1.89,27.94-.91,3.03.39,3.71,2.93,6.61,3.49,1.36,4.51-3,6.05-6.84,7.15-7.87,2.26-31.08.94-34.78,8.28-.71,1.4-.36,1.49.49,2.55,4.19,5.29,23.83,3.66,30.3,2.21,3.41-.76,3.18-3.93,7.67-1.12,5.11,3.19,2.78,8.33,4.59,11.37.9,1.5,9.73,5.79,12.15,5.65,20.18-1.14,16.41-37.46,11.82-50.62-2.29-6.56-9.49-19.36-14.77-23.73ZM312.76,517.51c5.1,5.28,27.87,4.97,35.28,4.29,15.19-1.4,6.95-10.31-3.3-11.78-5.19-.74-25.1-2.09-29.29-.81-3.72,1.14-5.44,5.45-2.69,8.3ZM324.66,532.96c-6.59,8.22-.37,11.38,7.64,13.52,5.65,1.51,27.61.68,28.26-6.26.45-4.84-6.9-5.02-9.5-8.04l-26.39.78ZM34.63,572.7c6.05-.2,14.25-1.17,19.38,2.04.92-.75,1.42-1.17,1.53-2.45.19-2.25-1.69-13.96-2.5-16.56-3.25-10.42-16.22-24.64-27.1-14.03-8.25,8.05,6.3,22.86,8.69,31ZM803.5,549.78c-18.01-6.78-36.85-7.55-55.81-4.82-4.49,9.55-12.44,19.21-21.98,24.01l.8,21.8c4.34-3.82,26.78,1.35,25.94,6.39-1.02,6.12-20.83-2.39-25.82,1.74-2.55,7.44.2,20.53-11.13,18.88l8.01,18,23.95-3.05c5.97-34.45,27.19-63.9,56.04-82.95ZM867.45,695.68c-7.42-13.27-12.85-25.8-11.99-41.46.69-12.55,7.82-31.24,17.03-39.97,3.52-3.34,8.85-8.22,14-4.97,3.39,2.71-6.4,11.61-8.4,14.58-10.96,16.28-15.2,36.15-6.78,54.6,2.26,4.95,12.16,14.73,11.06,18.6-.56,1.96-9.81,6.68-12.34,8.73-3.73,3.02-18.75,18.21-11.53,22.48,9.59,3.11,12.21-3.34,18-8.02,32.48-26.26,50.65-43.48,48.74-88.96-3.58-85.32-95.39-111.73-146.14-43.45-9.73,13.09-16.03,27.75-20.42,43.45l19.87,5.04c7.71-10.43,17.62-21.19,28.05-28.99,5.7-4.26,17.38-13.36,23.57-7.24,8.33,8.23,3.33,44.19.88,55.69-.57,2.67-3.12,6.83-3.3,8.65-.11,1.17,4.88,12.3,5.5,15.09,2.84,12.91.61,24.95-1.78,37.67.15.87,16.5,2.22,13.56,8.6-2.56,5.55-15.32-.08-19,2.97-.61.5-5.52,8.92-5.52,9.5,1.22,4.86,9.44,5.98,7.87,11.77-1.98,7.31-13.42-2.14-17.12-1.13-1.78.48-13.5,9.73-17.41,11.67-18.23,9.03-37.76,7.12-53.55,19.17-5.28,4.03-14.71,12.57-16.27,19-.6,2.48-1.2,9.24,2.34,5.35,1.78-1.96,8.39-12.05,9.81-12.27,3.63,1.87,7.1,3.34,4.81,7.89l-5.44,8.04c1.14.98,16.21-6.55,18.66-7.83,27.68-14.55,53.97-32.31,81.09-47.85l16.77-12.29c1.59-2.4-2.71-3.17-3.98-5.07-8.16-12.27,7.92-34.02,19.4-39.03ZM642.5,574.76v20c-1.88-.35-2.11,1.95-3.27,2.35-1.64.56-3.22-.28-4.06,0-13.26,4.34-24.44,5.01-37.9,7.93-22.27,4.82-44.65,10.69-66.78,16.22-14.83,3.71-39.14,13.2-53.4,13.42-10.82.16-41.64-17.36-53.61-22.39-21.57-9.08-45.45-16.08-66.67-25.33-5.87-2.56-13.6-5.21-14.88-12.23-25.42,4.6-55.37,15.56-59.92,44.49-7.72,49.14,49.93,72.31,85.8,88.74,16.73,7.66,36.28,16.49,52.57,22.37,14.53,5.24,29.81,9.04,44.49,14.17,2.56-.1,3.59-3.09,4.77-5.06,10.59-17.55,16.96-39.5,31.83-54.17-8.7-5.74-17.86-10.96-26.96-16.02-27.32-15.19-64.99-36.38-94.26-45.74-3.98-1.27-19.82-3.84-21.19-4.81-2.01-1.41-2.15-5.05-1.4-7.27,1.07-3.17,7.49-2.83,10.32-2.64,11.13.74,31.11,8.61,41.75,13.25,16.72,7.28,46.49,27.77,62.28,29.72,9.72,1.21,20.34-.48,29.99,3.58,41.61-18.11,105.95-48,151.51-35.07,8.13,2.31,18.89,5.96,8.02,14.12-9.5-1.31-18.89-4.29-28.56-4.66-16.41-.63-36.26,4.95-52.52,7.5l-83.95,31.05c4.23,2.19,8.38,4.65,12.22,7.49,1.49,1.1,1.62,3.13,4.04,4.25,8.14,3.76,16.41,2.09,26.66,8.34,14.95,9.12,20.49,21.34,26.21,37.29,10.53.16,20.83,2.35,31.41,2.17,8.31-.14,20.45-1.89,28.85-3.16,10.87-1.64,21.55-5.56,32.61-5.89,2.88-2.34-11.4-7.74-12.45-8.04-5.13-1.49-19.24-.87-17.41-7.26,2.02-7,25.54-1.56,30.85.3.95-10.5,1.73-21.09,7.2-30.3,2.15-3.61,7.81-8.93,8.59-12.41.91-4.08-.16-9.44.22-13.78.73-8.22,1.62-17.68,3.29-25.71,1.2-5.79,5.28-21.76,11.4-23.59,9.95-2.98,18.85,10.29,24.29,16.79.67-12.71,1.86-25.33,0-38-14.04,3.99-31.51,7.53-45.81,3.32-2.42-.71-5.12-3.16-6.71-3.31-2.77-.26-6.63,1.58-10.91.92-2.97-.46-5.45-2.86-8.56-2.93ZM53.49,590.76c-6.13,3.16-11.72,1.61-17.98,0,1.55,10.93-7.21,18.7-11,27.99,5.89-.5,11.52,1,16.98,3,3.95-10.39,9.95-19.91,12-31ZM804.08,626.35c-3,2.83-6.31,5.28-9.1,8.4-3.23,3.62-9.25,14.03-13.22,14.84-3.53.72-13.22-3.83-17.91-4.71-7.27-1.36-20.48-1.06-27.73,0-4.98.73-14.28,4.57-18.08,3.87-5.33-.98-5.09-9.06-6.77-13.26-3.36-8.41-8.48-18.66-14.96-25.04-.88-.87-.84-2.19-2.81-1.68-4.57,18.54-6.7,37.09-6.25,56.25-48.33,61.58,14.43,108.7,78.46,92.46,11.15-2.83,24.21-7.27,32.78-14.7-5.74-.03-11.03-8.29-4.76-11.28,5.36-2.55,10.15,2.85,15.64,2.15l3.12-6.88-13.29-1.9c-8.77-12.54,18.79-7.75,20.25-9.16,2.41-13.04,4.85-25.11.77-38.17-1.06-3.39-4.61-7.91-4.59-11.28.02-3.68,3.94-12.57,4.77-17.09,2.19-11.85,1.8-25.37,2.09-37.4-1.42-1.62-16.78,13.03-18.41,14.58ZM868.11,800.37c9.4-11.87,13.59-24.94,27.71-32.8,23.72-13.2,46.9-21.61,51.54-52.45,2.64-17.57,1.83-21.99,8.34-39.67,5.28-14.34,11.55-30.48-2.19-42.21-3.01-2.57-10.9-7.07-14.53-8.48-1.52-.59-1.55.27-1.52,1.5.11,4.04.86,8.72.91,12.86l-1.8,16.01c10.36,4.92,11.29,10.21-1.98,9.71-.57.49-3.3,12.46-4.05,14.45-6.23,16.66-22.16,28.49-34.57,40.48-.62.6-1.62.86-2.47.99v1.98c4.75-2.75,23.27.75,25.54,4.99,1.83,1.78-2.01,5.53-2.54,5.01l-1-1.99c.29,4.45-3.99.36-6.57.05-11.31-1.38-23.01-1.49-32.18,5.66-.82.64-1.83-.03-1.27,2.28,3.94.13,16.32,4.89,18.78,7.26,1.25,1.2,1.15,5.85-.45,6.85-3.96,2.49-25.65-10.22-32.32-4.6l-69,42.99c10.14-1.81,36.91,2.48,44.68,8.79.61.5.55,1.71,1.33,2.22-2.51.29-1.14,2.57-1.9,3.01-4.19,2.43-21.29-3.66-26.69-4.45-9.78-1.43-20.53-.09-29.9-1.7-18.56,7.57-37,25.23-58.54,18.13-14.25-4.7-9.49-21.64-3.42-31.46l11.93-12.07c-11.85,4.34-21.87,12.15-32.8,18.2-11.75,6.5-31.81,19.54-43.62,7.25-11.43-11.89,6.4-31.53,15.46-39.41l10.38-7.41c-2.97-2.91-11.01-13.67-14.38-13.7-2.05-.02-16.18,7.96-19.41,9.69-4.35,2.33-7.84,7.41-13.01,5.3-1.92-8.02,8.83-13.12,14.88-16.43,4.16-2.27,8.43-3.61,12.48-5.52,1.48-.7,2.97-.66,2.53-2.96-18.3,3.75-36.93,8.78-55.63,10.86-4.1.46-9.8,1.15-13.82,1.18-8.14.06-15.79-1.91-23.55-1.03,6.53,18.71,4.89,60.47-23.35,57.86-25.81-2.38-43.74-41.5-63.16-55.86l-9.97,13.01c-2.87,2.78-6.79,1.97-10.28,1.22-14.21-3.04-29.76-9.98-43.98-12.01-8.06-1.15-29.03,9.32-37.47,13.06-11.2,4.95-24.25,12.97-35.58,16.42-2.93.89-8.12.74-10.23,1.79s-1.39,4.95-5.97,4.05c-5.22-1.02-15.43-8.23-21.33-10.72-14.82-6.27-22.85-6.09-38.23-7.77-4.82-.53-4.35-3.49-.96-6.06,5.75-4.37,15.96-2.85,22.74-1.72,5.75.96,11.23,3.03,16.76,4.73-7.53-22.41,9.79-41.89,30.01-49.01-14.4-9.99-32.36-16.36-44.64-29.07-3.58.5-20.29,7.14-22.36,5.62s.31-4.31,1.51-5.54l1.49,1.99c-1.02-7,7.58-6.49,12-8.49-7.68-9.05-13.3-19.46-17.49-30.49-.8,1.26-2.92,1.51-3.47,2.76-2.23,5.13-2.18,16.74-3.52,23.23-1.2,5.8-3.04,10.67-5.51,15.98,24.4,5.96,25.06,39.63-3.99,36,.49,16.41-18.71,21.81-32.04,18.53-3.7-.91-6.58-3.26-10.3-3.59-11.63,17.81-44.57,13.16-54.69-3.92-5,2.51-9.92,4.54-15.64,4.9-10.65.67-48.48-8.68-57.27-14.48-2.37-1.56-4.97-4.25-6.78-6.48-16.33.43-31.18,3.58-44.62,13.22-6.34,4.55-22.11,20.05-16.73,28.4,3.85,5.97,25.64,3.87,32.44,4.55,31.56,3.17,50.95,31.79,79.39,37.61,16.12,3.3,30.93,2.86,47.21,8.79,25.07,9.14,39.06,31.26,67.78,37.22,33.88,7.03,66-2.1,99.76,10.24,25.01,9.14,42.78,30.66,67.97,36.79,33.88,8.25,67.63-2.92,99.76,3.47,22.03,4.38,36.58,16.56,55.79,24.21,20.41,8.11,42.53,10.22,63.19,16.81,3.35,1.07,8.41,4.39,12.3,5.37,29.65-19.06,60.51-34.29,86.23-58.63,11.02-10.44,21.68-21.92,35.33-30.42,34-21.18,80.15-19.67,106.52-52.97ZM35.5,637.77c-6.59,2.14-12.4-.57-18.99-1.01-1.88,10.97-1.25,22.16,1,33l14.88-8.1,3.11-23.89ZM228.82,705.45c-1.13-1.35-2.31-4.38-2.34-6.15-.12-6.68,3.39-19.16,4.02-27.04.41-5.13.61-10.39,0-15.49-1.83.37-1.33,2.97-3.02,4.47-4.51,4-19.71,4.17-25.97,3.53l1.14,16.86c8.12.63,16.15-1.32,23.92,1.78,3.91,13.65-15.38,12.34-24.06,11.36l.1,10.32c7.32,5.36,12.24,10.89,10.94,20.64l11.95,3.03c-.83-2.49-2.23-9.72,1.49-10.09,7.67-.75,5.59,4.62,9.01,9.07,4.64-1.38,4.3-7.97,2.96-11.93-1.48-4.38-7.73-7.49-10.14-10.36ZM161.5,665.26c.06,4.83-.04,9.68,0,14.5l24.96,2.04c5.76,16.85-13.24,15.33-23.95,11.97,1.19,8.06.76,17.48,2.15,25.33,1.22,6.86,2.49,10.68,9.32,13.67,1.72-.26.71-4.92,1.49-6.33.13-.23,3.73-2.18,4.53-2.67l4.35,4.14-.85,5.86h6.01c-.06-3.85-1.88-16.24,4.5-14.54,5.82,1.55,2.82,6.81,5.99,10.53,8.2-9.96-8.33-16.89-8.95-23.83l.45-46.14c-2.61-.43-2.95,2.15-3.05,3.96l-1.93-.98c.99,6.88-15.62,2.67-20.26,1.76-1.42-.28-3.12-1.89-4.23-1.75-2.34.29-.52,2.38-.52,2.5ZM150.5,676.76c-3.24-.31-1.49.41-1.62,1.85-.5,5.25-.97,9.87-3.39,14.7.66,1.79,6.29,7.41,5.76,2.22-.05-.51-.75-.91-.75-1.27v-17.5ZM66.49,689.77c-10.01,2.35-18.73-5.73-26.46-10.98l-13.49,7.47c9.02,12.17,27.29,17.19,41.96,17.51l-2.01-14ZM497.51,731.76c1.99.26,3.39-1.67,4.43-3.06,2.16-2.88,5.08-8.49,6.55-11.94-1.58,2.14-13.05,12.64-10.98,14.99ZM520.5,725.77c-2.11-.49-2.25,1.14-3.22,2.27-2.81,3.32-5.38,8.38-7.92,12.11-1.57,2.3-3.67.37-1.85,4.61l12.98-18.99ZM330.74,743.58c-1.1-.7-.49-4.68-2.24-3.33-2.51,2.88-3.58,5.61-2.98,9.51l7.99-5.5c-.19-1.05-1.93-.15-2.76-.68ZM712.5,770.75c1.09-1.43-11.19-5.2-12.67-5.82-3.33-1.39-9.17-5.79-12.35-4.78-3.42,1.08-16.2,11.96-18.95,15.14-3.38,3.89-11.96,14.82-4.03,17.47-.44-4.35,4.83-14.42,9.79-12.75.25.08,2.92,3.56,2.95,4.37.05,1.25-.84,3.99-1.43,5.12-.73,1.39-5.34,3.32-1.82,3.26l38.52-22Z"/>
      <path class="cls-1" d="M770.5,561.77c-5.83-.51-11.23.21-16.34,3.15-3.38,1.95-11.87,9.51-9.18,13.86,2.96,4.78,5.71-1.75,7.78-3.36,5.97-4.63,17.58-5.25,17.73-13.65Z"/>
      <path d="M655.49,882.77l.61,5.03c-.35.5-9.98,4.35-11.37,4.7-10.2,2.54-24.16,2.79-34.55,1.18-42.89-6.64-57.42-42.37-107.47-32.09-1.72.35-3.61-.81-4.06-.64-.12.05-.12,1.65-1.4,2.16-2.58,1.04-7.07.48-7.79-2.76.57-6.71,19.83-10.94,25.67-11.46,28.44-2.54,46.41,11.94,69.07,24.67s45.88,13.09,71.29,9.2Z"/>
      <path d="M642.33,823c1.01,1.17-1.38,4.22,2.65,1.75l.53,3.01,1.48-1.99,30.29,15.72c5.55,1.16,11.07,2.65,16.73,3.27,6.9.76,21.13-1.13,26.27.7.19.07,3.1,2.16,3.21,2.33,1.55,2.43-3.42,1.38-.98,3.96-2.57-.77-2.84,1.61-4.38,2.18-10.39,3.83-34.62.72-45.41-2.87-4.84-1.61-19.06-8.41-22.27-11.83-.95-1.01.16-2.38.06-2.45-.4-.27-2.01.72-3.1.45-3.3-.8-8.24-4.55-11.92-5.94-20.37-7.65-30.56-8.08-51.76-2.81-6.69,1.66-15.78,6.14-21.84,7.18-2.37.41-1.17-1.46-1.39-2.89l-1,3.01-2.99-1.02,3.28-5.71c18.48-9.69,40.19-15.44,61.06-12.13,3.12.49,20.22,4.62,21.48,6.08Z"/>
      <path d="M473.49,831.76l-1.48-1.99c-1.59.73-.46,2.66-1.46,3.48-4.22,3.5-28.36,3.21-34.54,2.5-31.91-3.65-54.82-32.78-89.09-25.9l-2.41-2.08-.62,3.05-29.4,7.93-.49-2.01c-1.02,3.22-5.43,3.2-4.52-.5.41-1.67,3.66-4.2,5.09-4.99.4-.22,1.94-.59,3.65-1.45,14.83-7.46,30.96-11.35,47.76-10.04,31.3,2.45,48.66,25.8,82.02,27.98,5.65.37,20-1.15,24.03.39,1.87.71,1.55,1.97,1.45,3.62Z"/>
      <path d="M223.86,804.39c-5.68-4.53-10.4-10.83-16.43-15.06-17.89-12.57-36.8-13.55-57.42-7.51l-2.05-1.02v-3.09c.36-.86,8.36-1.36,5.91-2.96-.46-.3-1.73.69-1.37-.98,16.58-7.56,34.76-6.5,51.04,1.44,22.18,10.83,27.19,30.54,55.46,32.54,6.5.46,13.42-.89,19.45-.56,7.51.41.11,6.53-4.29,7.74-16.59,4.57-36.99.07-50.3-10.54Z"/>
      <path d="M496.09,791.2c2.16,1.49,4.03,2.77,5.4,5.08l-3.41,2.57c-21.2-5.11-37.39-16.27-60.07-14.07-6.89.67-19.11,4.61-24.99,4.04-1.26-.12-3.06-.1-3.44-1.64-1.44-5.85,13.41-9.25,17.69-10.15,22.53-4.71,49.86,1.06,68.81,14.16Z"/>
      <path d="M271.34,782.66l-1.56.29.73,1.81c-10.77,1-19.68-7.53-29.31-11.18-2.92-1.11-9.54-2.88-12.54-3.25-2.73-.34-10.91,1.02-12.88-.81-3.18-2.93,2.01-2.32-.28-4.73,17.72-4.68,32.37.86,47.33,10.17,1.67,1.04,9.97,5.81,8.52,7.72Z"/>
      <path d="M439.94,860.37c1.12,1.44,3.76,2.06-.43,4.4l-.02-2-1.64,2.05c-1.46.37-16.9-4.17-18.63-5.09-.74-.39-.85-1.21-.74-1.96l-1.41,1.94c-3.1-1.25-7.75-1.94-11.06-1.99s-9.22,2.55-8.53-.94l-.99,1.98h-1.99s-.99-1.99-.99-1.99l-2.01,1.99.13-5.33,1.5-1.45c3.11.98,2.47-1.69,7.36-2.7,9.83-2.03,33.28,3.17,39.45,11.09Z"/>
      <path d="M632.2,772.07c.4.26.57,1.51,1.31,2.08.55.42,2.44-1.07,3,2.6-6.88,3.69-14.01,2.38-21.13,3.63-4.07.72-18.35,6.75-20.72,5.24-.76-1.87-1.69-2.97-.49-4.87,1.74-2.74,13.89-8.82,17.28-9.53,3.07-.64,18.4-.68,20.75.86Z"/>
      <path d="M129.46,748.81l.05,4.96-9.45,1.05-1.05-2.05c-1.82,2.64-4.85,1.73-7.55,2.46-4.72,1.28-15.07,6.36-18.68,6.32-1.66-.02-2.28-1.29-3.28-2.28,2.39-.44,1.64-2.73,2.65-3.55,1.49-1.21,8.29-4.63,10.36-5.43,8.58-3.33,18.13-3.47,26.94-1.47Z"/>
      <path d="M48.5,744.77h3.01s-1-3.01-1-3.01l1.97,1.02c-.02-5.54,15.14-11.48,19.54-11.09,5.58.5,3.53,3.03.23,5.33-2.22,1.55-17.35,10.51-19.05,11.02-2.37.71-4.89-.73-4.7-3.27Z"/>
      <path d="M309.5,702.76l-3.01-.53-.98,2.54,2,.5c-8.32,1.58-18.02,5.19-26,2.49,1.34-5.17,8.23-5.96,12.63-6.9,2.52-.53,3.21-.89,4.02-1.08,2.99-.7,9.84-.43,11.34,2.98Z"/>
      <path d="M450.08,298.18c-3.05-4.09-5.72-8.08-4.55-13.9.86-4.28,7.41-5.71,10.03-2.07,1.19,1.66,1,4.03,2.07,5.93,2.61,4.65,11.27,10.63,16.2,12.8,27.17,12.01,60.99,2.12,73.9-25.46,1.48-3.15,1.49-10.57,8.05-9.56,7.86,1.21,4.02,11.25,2.21,15.82-15.79,39.78-82.28,50.78-107.9,16.43Z"/>
      <path d="M480.16,227.42c-6.1,6.37-26,13.99-19.07,26.26,4.07,7.21,13.47,6.97,20.68,5.84,3.94-.61,22.38-10.53,19.31,1.28-2.11,8.11-22.97,11.49-30.11,10.99-21.32-1.51-30.65-25.83-15.5-40.57,4.48-4.36,14.16-8.23,18.05-12.95s4.82-17.63,10.49-17.61c10.31.03.21,22.52-3.85,26.76Z"/>
      <path d="M570.21,197.93c11.05-3.31,5.4,17.6,2.68,22.72-7.27,13.68-28.88,17.45-38.79,5.03-4.25-5.32-14.2-28.09-1.14-25.91,4.53.76,4.2,9.79,6.15,13.9,2.76,5.84,7.4,8.59,13.88,8.12,15.15-1.1,11.01-22,17.23-23.86Z"/>
      <path d="M417.26,203.02c3.09,3.13-1.01,16.26,9.35,21.14,17.12,8.07,15.24-19.97,19.1-22.17,7.89-1.48,7.13,4.23,6.52,10.01-1.82,17.05-13.9,30.02-31.41,20.97-9.01-4.66-15.5-22.71-8.29-30.75,1.32-.74,3.74-.2,4.74.8Z"/>
      <path d="M550.3,144.05c9.36-.66,16.03,2.35,23.11,8.3,3.89,3.27,10.48,12.09,1.6,12.52-7.33.35-13.28-10.46-27.91-8.99-5.44.54-16.2,7.67-16.7-.61-.43-7.11,14.25-10.82,19.9-11.21Z"/>
      <path d="M448.36,156.62c-10.7-.35-14.71-3-24.19,3.32-3.84,2.56-16.02,16.82-17.2,4.94-.7-7.05,17.66-18.87,24.27-19.87,7.11-1.08,22.65,1.26,17.12,11.61Z"/>
      <path d="M459.51,608.76c.2,1.98.06,2.31-1.99,2-5.62-21.08-6.79-43.47-10.53-65.01-3.05-17.53-9.81-38.47-11.36-55.61-.49-5.41.84-15.39,6.74-7.75,5.29,6.85,12.91,51.06,14.82,62.17,2.89,16.82,8.38,44.47,8.13,60.71-.02,1.33-1.17,5.22-2.34,5.48l-3.47-2.01Z"/>
      <path d="M491.69,613.07c-.23.12-.21,1.71-.74,1.76-4.97.5-5.72-9.33-6.31-12.72-5.34-30.96-11.83-67.05-15-97.99-.38-3.76-3.13-23.8,4.88-18.88,2.68,1.65,5.96,17.46,6.71,21.29,6.08,31.26,7.67,64.42,14.25,95.75-.36,2.67,1.32,10.44-1.62,11.25-.58.16-1.61-.75-2.17-.45Z"/>
      <path d="M209.13,465.42c-1.26,2-6.86,6.06-7.45,8.07-.83,2.82.68,5.12.7,7.74.04,3.81-2.99,7.89,3.58,8.6,11.15,1.21,11.09-9.56,15.34-12.04,2.43-1.41,5.22.1,5.98,2.69,2.63,8.91-9.92,20.22-18.28,20.29-3.91.03-11.05-3.72-12.01-3.66-.71.04-4.58,3.23-6.69,3.97-9.19,3.23-24.93.06-29.06-9.56-1.52-3.54-.96-8.66,3.84-8.73,4.41-.07,7.93,8.81,15.18,9.79,10.08,1.36,12.22-4.6,11.23-13.31-1.09-9.53-5.52-6.15-10.51-10.48-11.07-9.59,5.88-17.11,14.14-17.69,8.78-.61,20.44,4.11,14,14.33Z"/>
      <path d="M139.74,441c13.24-6.94,5.12,14.87,17.22,12.77,9.73-1.69,2.59-18.62,11.85-15.83,7.16,2.16,2.26,16.37-.87,20.76-12.73,17.84-34.89-.23-28.2-17.69Z"/>
      <path d="M221.78,445.48c10.25,6.51,5.56-15.31,13.98-14.58,9.28,1.27,3.93,26.99-10.34,26.54-10.44-.33-19.07-14.17-13.93-23.2,8.92-3.79,6.97,9.13,10.29,11.23Z"/>
      <path d="M129.33,406.59c-13.99,9.43-23.97-22.26-5.31-16.88,1.95,6.13,7.33,9.86,5.31,16.88Z"/>
      <path d="M226.68,377.89c.36-.22,6.11.58,6.83,1.31,2.61,2.65-.99,15.13-4.73,16.34-5.61,1.82-9.08-1.17-8.23-7.21.25-1.78,5.14-9.85,6.13-10.45Z"/>
      <path d="M743.83,715.55c.36.53,2.09.58,2.55,1.84,2.23,6.02-8.62,12.27-13.78,12.47-2.2,10.13,3.06,15.78,13.35,13.85,6.41-1.2,9.67-11.94,16.38-6.79.38,15.77-21.56,19.25-32.78,11.24-.72-.52-.86-2.35-1.69-2.49-1.71-.29-3.92,1.75-5.91,2.03-11.34,1.56-22.73-4.83-19.53-17.27,7.59-5.39,7.27,7.05,13.03,8.89,7.41,2.37,8.94-5.18,9.13-10.96-5.34-1.3-9.41-7.58-8.79-12.98.91-7.81,21.89-5.98,27.17-2.5,1.71,1.13.55,2.22.86,2.67Z"/>
      <path d="M762.8,706.48c.61.76,3.22,2.05,4.25,2.23,14.01,2.37,9.32-14.71,17.03-14.92,6.83-.18,2.85,11.74,1.14,15.21-9.79,19.88-36.4,10.56-32.67-11.67.38-2.24,1.94-5.37,4.49-5.6,7.28-.68,2.67,10.94,5.75,14.76Z"/>
      <path d="M696.36,687.91c2.54,1.58-1.97,19.94,8.88,15.11,7-3.11,3.88-16.95,13.02-13.02,4.78,15.05-16.5,33.1-27.23,17.74-3.73-5.34-5.54-23.25,5.33-19.82Z"/>
      <path d="M770.5,561.77c-.15,8.4-11.76,9.03-17.73,13.65-2.07,1.6-4.82,8.13-7.78,3.36-2.69-4.35,5.79-11.91,9.18-13.86,5.11-2.94,10.51-3.66,16.34-3.15Z"/>
    </g>
  </g>
</svg>