<?xml version="1.0" encoding="UTF-8"?>
<svg id="Layer_2" data-name="Layer 2" xmlns="http://www.w3.org/2000/svg" viewBox="0 0 212.39 159.76">
  <defs>
    <style>
      .cls-1 {
        fill: none;
        stroke: #000;
        stroke-miterlimit: 10;
        stroke-width: 7px;
      }
    </style>
  </defs>
  <g id="Layer_1-2" data-name="Layer 1">
    <g>
      <g id="wLe9CG">
        <g>
          <path class="cls-1" d="M138.87,57.67c-7.8-15.64-16.96-36.53-27.36-50.31-.93-1.23-1.52-2.4-3.09-2.87l-.18.96-1.74.09c-8.05,11.13-14,23.68-20.45,35.77-3.76,7.04-7.99,14.06-11.52,21.33-1.83,3.76-3.26,8.07-5.15,11.74-1.15,2.23-3.35,2.25-5.23.97-16.57-15.38-33.56-30.67-52.47-42.99-2.1-1.37-4.47-2.59-6.73-3.7l23.19,107.61c2.56-.21,5.18-.38,7.73-.68,31.83-3.72,64.51-4.56,96.72-3.26l14.27.3,41.2,3.31,19.22-108.93-9.11,7.61c-16.14,12.22-31.43,25.86-45.78,40.35-4.56,1.85-5.27-.53-7.08-4.03-2.24-4.31-4.31-9-6.43-13.26Z"/>
          <path d="M119.71,113.95c-7.67,9.04-24.52,7.65-26.84-5.15-.6-3.31.58-8.01,2.52-10.72.24-.34,2.48-2.56,3.09-3.2,2.92-3.13,11.04-3.71,14.94-2.32,7.97,2.86,11.85,14.85,6.3,21.4ZM113.1,98.68c-.58-.49-1.84-1.35-2.52-1.64-.55-.23-3.4-1.04-3.81-1.02-.73.02-4.15,1.72-4.91,2.24-.36.24-3.05,2.58-3.19,2.84-2.65,4.76.44,10.93,5.07,13.06,4.28,1.97,7.63,1.39,10.66-2.37,2.56-3.18,2.65-6.05,1.11-9.72-.48-1.14-1.46-2.59-2.4-3.38Z"/>
          <path d="M165.41,101.66c10.36,6.57.21,23.67-11.28,15.75-9.31-6.42-.06-22.93,11.28-15.75ZM162.81,113.33c2.24-1.8,1.97-6.14-.59-7.66-4.72-2.8-9.82,4.39-4.93,7.58,1.49.97,4.09,1.23,5.52.08Z"/>
          <path d="M53.79,100.04c14.72-.32,11.53,21.89-1.84,19.21-10.51-2.11-10.33-18.94,1.84-19.21ZM56.83,113.33c.19-.14,1.14-1.56,1.29-1.86,3.63-7.59-9.87-8.89-8.39-.92.59,3.15,4.55,4.69,7.1,2.78Z"/>
        </g>
      </g>
      <path d="M189.96,146.24c-5.85-1.93-18.6-2.26-25.22-2.77-34.75-2.7-71.08-2.79-105.99-.38-8.16.56-29.51,1.21-35.4,6.02-4.69,3.83-1.82,9.7,3.64,10.25,11.69,1.19,26.68-1.37,38.74-1.91,26.38-1.19,52.49-.75,78.83-.41,13.11-.2,28.2,3.22,41.06,2.67,1.07-.05,5.62-.52,6.43-.84,4.38-1.71,6.26-8.5,1.44-11.04-.63-.33-3.1-1.45-3.53-1.59Z"/>
    </g>
  </g>
</svg>