<?xml version="1.0" encoding="UTF-8"?>
<svg id="Layer_2" data-name="Layer 2" xmlns="http://www.w3.org/2000/svg" viewBox="0 0 283.17 285.32">
  <defs>
    <style>
      .cls-1 {
        fill: #231f20;
        stroke-linecap: round;
        stroke-width: 3.17px;
      }

      .cls-1, .cls-2, .cls-3 {
        stroke-miterlimit: 10;
      }

      .cls-1, .cls-3 {
        stroke: #231f20;
      }

      .cls-2 {
        stroke: #000;
        stroke-width: 7.49px;
      }

      .cls-2, .cls-3 {
        fill: none;
      }

      .cls-3 {
        stroke-width: 4.2px;
      }
    </style>
  </defs>
  <g id="Layer_1-2" data-name="Layer 1">
    <g>
      <g id="_Radial_Repeat_" data-name="&amp;lt;Radial Repeat&amp;gt;">
        <line class="cls-1" x1="144.12" y1="283.74" x2="143.7" y2="260.28"/>
      </g>
      <g id="_Radial_Repeat_-2" data-name="&amp;lt;Radial Repeat&amp;gt;">
        <line class="cls-1" x1="104.28" y1="278.74" x2="110.48" y2="256.11"/>
      </g>
      <g id="_Radial_Repeat_-3" data-name="&amp;lt;Radial Repeat&amp;gt;">
        <line class="cls-1" x1="67.45" y1="262.71" x2="79.78" y2="242.75"/>
      </g>
      <g id="_Radial_Repeat_-4" data-name="&amp;lt;Radial Repeat&amp;gt;">
        <line class="cls-1" x1="36.63" y1="236.96" x2="54.08" y2="221.28"/>
      </g>
      <g id="_Radial_Repeat_-5" data-name="&amp;lt;Radial Repeat&amp;gt;">
        <line class="cls-1" x1="14.31" y1="203.57" x2="35.48" y2="193.45"/>
      </g>
      <g id="_Radial_Repeat_-6" data-name="&amp;lt;Radial Repeat&amp;gt;">
        <line class="cls-1" x1="2.31" y1="165.25" x2="25.47" y2="161.49"/>
      </g>
      <g id="_Radial_Repeat_-7" data-name="&amp;lt;Radial Repeat&amp;gt;">
        <line class="cls-1" x1="1.59" y1="125.1" x2="24.87" y2="128.02"/>
      </g>
      <g id="_Radial_Repeat_-8" data-name="&amp;lt;Radial Repeat&amp;gt;">
        <line class="cls-1" x1="12.21" y1="86.37" x2="33.72" y2="95.73"/>
      </g>
      <g id="_Radial_Repeat_-9" data-name="&amp;lt;Radial Repeat&amp;gt;">
        <line class="cls-1" x1="33.31" y1="52.19" x2="51.31" y2="67.24"/>
      </g>
      <g id="_Radial_Repeat_-10" data-name="&amp;lt;Radial Repeat&amp;gt;">
        <line class="cls-1" x1="63.18" y1="25.35" x2="76.22" y2="44.86"/>
      </g>
      <g id="_Radial_Repeat_-11" data-name="&amp;lt;Radial Repeat&amp;gt;">
        <line class="cls-1" x1="99.41" y1="8.02" x2="106.42" y2="30.41"/>
      </g>
      <g id="_Radial_Repeat_-12" data-name="&amp;lt;Radial Repeat&amp;gt;">
        <line class="cls-1" x1="139.05" y1="1.59" x2="139.47" y2="25.04"/>
      </g>
      <g id="_Radial_Repeat_-13" data-name="&amp;lt;Radial Repeat&amp;gt;">
        <line class="cls-1" x1="178.9" y1="6.59" x2="172.69" y2="29.21"/>
      </g>
      <g id="_Radial_Repeat_-14" data-name="&amp;lt;Radial Repeat&amp;gt;">
        <line class="cls-1" x1="215.72" y1="22.61" x2="203.39" y2="42.57"/>
      </g>
      <g id="_Radial_Repeat_-15" data-name="&amp;lt;Radial Repeat&amp;gt;">
        <line class="cls-1" x1="246.54" y1="48.36" x2="229.09" y2="64.04"/>
      </g>
      <g id="_Radial_Repeat_-16" data-name="&amp;lt;Radial Repeat&amp;gt;">
        <line class="cls-1" x1="268.86" y1="81.75" x2="247.69" y2="91.88"/>
      </g>
      <g id="_Radial_Repeat_-17" data-name="&amp;lt;Radial Repeat&amp;gt;">
        <line class="cls-1" x1="280.86" y1="120.07" x2="257.7" y2="123.83"/>
      </g>
      <g id="_Radial_Repeat_-18" data-name="&amp;lt;Radial Repeat&amp;gt;">
        <line class="cls-1" x1="281.59" y1="160.23" x2="258.31" y2="157.31"/>
      </g>
      <g id="_Radial_Repeat_-19" data-name="&amp;lt;Radial Repeat&amp;gt;">
        <line class="cls-1" x1="270.97" y1="198.96" x2="249.45" y2="189.6"/>
      </g>
      <g id="_Radial_Repeat_-20" data-name="&amp;lt;Radial Repeat&amp;gt;">
        <line class="cls-1" x1="249.87" y1="233.13" x2="231.86" y2="218.08"/>
      </g>
      <g id="_Radial_Repeat_-21" data-name="&amp;lt;Radial Repeat&amp;gt;">
        <line class="cls-1" x1="219.99" y1="259.97" x2="206.95" y2="240.46"/>
      </g>
      <g id="_Radial_Repeat_-22" data-name="&amp;lt;Radial Repeat&amp;gt;">
        <line class="cls-1" x1="183.77" y1="277.31" x2="176.75" y2="254.92"/>
      </g>
    </g>
    <g id="Xd1d7x">
      <path class="cls-3" d="M200.27,58.85c-11.6-7.46-24.99-10.71-38.3-13.53-8.44-1.79-16.98-1.4-25.57-.74-27.95,2.14-48.16,11.56-67.83,31.04-29.31,29.03-36.36,72.56-20.35,110.44,11.97,28.32,41.92,50.52,71.49,57.16,9.01,2.02,19.1,2.5,28.24,2.69,32.05.68,69.42-21.18,85.61-48.56,20.31-34.35,19.72-75.88-1.94-109.4-7.16-11.08-20.26-21.98-31.34-29.1Z"/>
    </g>
    <g>
      <path class="cls-2" d="M214.77,111.29l-27.93,5.52c-8.29,3.02-17.59.62-23.39-6.03l-19.91-22.84-22.58,24.46c-5.35,5.8-13.47,8.17-21.1,6.17l-25.67-6.73c-3.16-.83-6.15,1.84-5.67,5.07l7.26,49.71c.59,4.06,5.39,5.87,8.56,3.26,11.97-9.85,35.56-16.55,62.7-16.55,25.09,0,47.14,5.72,59.79,14.36,3.29,2.25,7.78.22,8.21-3.74l5.16-47.7c.33-3.06-2.4-5.56-5.42-4.97Z"/>
      <path d="M147.04,167.67c-24.32,0-45.79,5.38-58.6,13.58-2.39,1.53-1.33,5.27,1.51,5.29.02,0,.05,0,.07,0h110.96c1.13,0,2.23-.15,3.27-.44,2.43-.66,2.93-3.89.79-5.22-12.87-7.99-34.05-13.21-58.01-13.21Z"/>
    </g>
  </g>
</svg>