<svg width="383" height="114" viewBox="0 0 383 114" fill="none" xmlns="http://www.w3.org/2000/svg">
<g clip-path="url(#clip0_161_134)">
<path d="M88.7549 37.7015V37.819C88.4546 43.6007 88.1542 50.297 87.8539 57.9079C87.8539 58.5205 87.4784 58.8561 86.7275 58.9317C75.2971 59.2338 69.6152 66.6181 69.6903 81.0681V101.728C69.6903 102.944 69.0812 103.557 67.8714 103.557L48.4647 104.01C47.33 104.01 46.7626 103.439 46.7626 102.298L44.7185 40.2189C44.7185 39.1532 45.2441 38.6246 46.3038 38.6246H46.4206L65.9358 39.5392C67.1456 39.5392 67.7546 40.0679 67.7546 41.1336V43.8692C67.7546 44.1713 67.788 44.3223 67.8714 44.3223C67.8714 44.2468 67.9465 44.1293 68.0967 43.9783C71.5759 39.0358 77.0992 36.5603 84.6667 36.5603C85.8765 36.5603 86.9361 36.6358 87.8455 36.7869C88.4462 36.9379 88.7549 37.24 88.7549 37.7015Z" fill="#37251E"/>
<path d="M48.3646 19.1398L45.5278 31.0052C45.5278 31.0052 45.3359 31.7604 44.6184 32.0289C44.6935 32.0289 44.0093 31.5003 42.5742 30.4346C41.1392 29.3689 39.7375 28.8402 38.3775 28.8402C34.7481 28.8402 32.9293 32.1128 32.9293 38.6581V45.8495L41.8901 45.2789C42.6493 45.2789 43.0248 45.6229 43.0248 46.3026V46.4201L41.6648 64.9063C41.5897 65.6699 41.2143 66.0475 40.5301 66.0475L32.9293 65.7035L33.4966 101.039C33.4966 102.332 32.8125 102.978 31.4525 102.978H31.3357L9.32581 104.002C8.2662 104.002 7.77394 103.314 7.84903 101.946V64.8979H2.88471C2.11712 64.8979 1.72498 64.5455 1.72498 63.849V63.7315L2.5176 48.3753C2.5176 47.6788 2.89305 47.2928 3.6523 47.2089H7.84903V32.717C7.92412 25.5676 10.0433 19.937 14.2234 15.8252C18.1698 11.9484 23.0257 10.01 28.791 10.01C31.5943 10.01 34.8232 10.6561 38.4609 11.9484C42.4825 13.4672 45.5528 15.414 47.6804 17.772C48.2144 18.3846 48.4397 18.8377 48.3646 19.1398Z" fill="#37251E"/>
<path d="M381.55 77.3423C381.516 77.1074 381.441 76.9647 381.35 76.8892C381.208 76.8053 380.932 76.7885 380.599 76.8304L380.482 76.8556V76.8053C379.756 77.015 378.454 77.2836 376.177 77.7367C375.576 77.8542 374.95 77.9717 374.316 78.0808C370.987 78.7017 367.249 79.3562 363.186 80.0359C361.709 80.2625 361.667 80.9002 361.651 81.2107C359.456 85.1798 355.543 87.2106 353.458 87.521C348.185 88.3182 344.105 84.7687 341.602 79.8597C341.268 79.2136 341.351 78.45 341.81 77.8961C342.277 77.3255 343.012 77.2584 343.746 77.3004C364.271 78.3409 375.634 72.9201 375.284 66.551C375.05 62.4141 373.757 58.7387 372.539 55.4157C370.803 50.6074 368.434 46.6132 365.464 43.4832C360.324 38.0791 353.649 35.5785 345.59 36.0317C344.472 36.0904 343.329 36.2163 342.152 36.3925C333.934 37.626 327.61 42.0483 323.371 49.5166C319.099 57.0604 317.706 66.0979 319.25 76.3857C320.726 86.3211 325.098 93.7558 332.24 98.4885C338.998 102.995 347.409 104.522 357.262 103.037C363.253 102.13 369.01 98.8745 374.349 93.3614C374.75 92.9335 375.142 92.5223 375.509 92.0943C380.29 86.6232 382.376 82.7715 381.566 77.3255L381.55 77.3423ZM345.732 56.5905C349.094 56.087 351.088 57.8995 351.705 62.0365C351.764 62.4141 351.639 62.6239 351.338 62.6658C347.801 61.0799 343.671 61.6673 340.709 64.1763L339.749 64.9902C339.916 59.9638 341.91 57.1611 345.723 56.5905H345.732Z" fill="#37251E"/>
<path d="M215.057 50.255C214.29 48.7445 213.439 47.3851 212.496 46.2019C208.257 40.8734 201.566 38.2134 192.413 38.2134C186.89 38.2134 182.051 39.2791 177.887 41.4105V37.8693C177.812 36.7281 177.245 36.1239 176.185 36.04L153.608 35.7043C152.549 35.7043 152.023 36.233 152.023 37.2987V37.4162L152.432 53.9388C152.398 59.8882 153.541 87.2105 153.541 98.2451L153.608 101.09C153.608 102.156 154.176 102.726 155.31 102.802L176.528 103.372C177.437 103.372 177.887 102.802 177.887 101.66V69.3705C177.812 60.5428 180.591 56.1289 186.231 56.1289C189.81 56.1289 192.13 58.2603 193.198 62.5231C194.115 65.9468 194.574 73.2137 194.574 84.3155C194.574 93.2187 194.341 99.2689 193.89 102.466V102.575C193.89 103.112 194.19 103.414 194.8 103.49L215.558 104.01H215.675C216.509 104.01 216.993 103.632 217.152 102.869C217.31 101.669 217.444 100.083 217.552 98.1193C216.684 97.3389 219.796 58.3946 215.057 50.255Z" fill="#37251E"/>
<path d="M292.292 12.4688C292.292 12.4688 292.25 12.4688 292.225 12.4688C291.358 12.4688 290.916 12.989 290.882 14.0295V14.147L289.764 101.115C289.731 102.181 290.281 102.768 291.416 102.877L311.132 104.018H311.248C311.248 104.018 311.307 104.018 311.332 104.018C312.333 104.018 312.85 103.507 312.875 102.466L317.064 15.2463C317.097 14.1806 316.58 13.5932 315.529 13.4925L292.284 12.4771L292.292 12.4688Z" fill="#37251E"/>
<path d="M286.201 11.2268H286.093L264.967 11.5709C263.758 11.5709 263.124 12.217 263.048 13.5093L262.373 41.4693C257.817 38.7337 253.153 37.3575 248.381 37.3575C240.563 37.3575 233.888 40.2525 228.357 46.0342C222.591 52.0424 219.713 59.6533 219.713 68.8587C219.713 78.8276 222.291 86.7742 227.447 92.7069C232.603 98.6396 239.47 101.61 248.039 101.61C253.804 101.61 258.576 99.7473 262.373 96.0215V102.273C262.448 103.431 263.057 104.01 264.192 104.01H264.308L282.914 103.095C284.124 103.02 284.766 102.332 284.841 101.04L286.051 66.3664L286.727 13.996V13.8785C286.76 12.9303 287.011 12.1834 287.386 11.5792C287.103 11.3527 286.719 11.2268 286.21 11.2268H286.201ZM231.919 78.6094L235.732 80.2961C238.761 81.6303 242.04 82.3604 245.352 82.2261C245.494 82.2261 245.636 82.2177 245.778 82.2093C249.516 82.0247 253.137 80.8583 256.332 78.9031L259.11 77.2081C259.469 77.1913 259.711 77.5857 259.528 77.8962C248.397 97.0201 234.581 82.8135 231.602 79.3646C231.352 79.0793 231.544 78.6346 231.919 78.6094Z" fill="#37251E"/>
<path d="M151.247 79.7001C151.247 85.9433 147.918 91.6494 141.26 96.8185C134.977 101.61 128.703 104.01 122.421 104.01C112.208 104.01 103.998 101.199 97.7992 95.5682C91.2163 89.6355 87.929 81.4959 87.929 71.1493C87.929 60.8028 90.6739 51.673 96.1555 44.6746C101.637 37.6762 108.696 34.177 117.314 34.177C127.377 34.177 134.936 37.7937 140.008 45.0186C144.322 51.1779 146.475 59.435 146.475 69.7815C146.475 72.601 145.265 74.0444 142.845 74.1199C137.397 74.3464 126.617 74.6905 110.506 75.1436C111.791 81.6889 115.312 84.9615 121.061 84.9615C123.03 84.9615 124.807 84.5252 126.392 83.6525C127.977 82.7798 128.962 81.6973 129.346 80.3966C129.571 79.3309 130.405 78.8023 131.84 78.8023C136.755 78.7267 149.695 78.2316 149.545 78.2316C150.68 78.2316 151.247 78.7267 151.247 79.7169V79.7001ZM122.996 61.7846C122.996 57.5973 121.294 55.5078 117.89 55.5078C114.035 55.5078 111.649 57.9833 110.74 62.9258L122.537 62.3552C122.838 62.3552 122.988 62.1622 122.988 61.7846H122.996Z" fill="#37251E"/>
</g>
<defs>
<clipPath id="clip0_161_134">
<rect width="380" height="94" fill="white" transform="translate(1.72498 10.01)"/>
</clipPath>
</defs>
</svg>
