<svg width="383" height="114" viewBox="0 0 383 114" fill="none" xmlns="http://www.w3.org/2000/svg">
<g clip-path="url(#clip0_161_134)">
<g clip-path="url(#clip1_161_134)">
<path d="M104.31 35.0499V35.1899C103.95 42.0799 103.59 50.0599 103.23 59.1299C103.23 59.8599 102.78 60.2599 101.88 60.3499C88.18 60.7099 81.37 69.5099 81.46 86.7299V111.35C81.46 112.8 80.73 113.53 79.28 113.53L56.02 114.07C54.66 114.07 53.98 113.39 53.98 112.03L51.53 38.0499C51.53 36.7799 52.16 36.1499 53.43 36.1499H53.57L76.96 37.2399C78.41 37.2399 79.14 37.8699 79.14 39.1399V42.3999C79.14 42.7599 79.18 42.9399 79.28 42.9399C79.28 42.8499 79.37 42.7099 79.55 42.5299C83.72 36.6399 90.34 33.6899 99.41 33.6899C100.86 33.6899 102.13 33.7799 103.22 33.9599C103.94 34.1399 104.31 34.4999 104.31 35.0499Z" fill="#37251E"/>
<path d="M55.9 12.93L52.5 27.07C52.5 27.07 52.27 27.97 51.41 28.29C51.5 28.29 50.68 27.66 48.96 26.39C47.24 25.12 45.56 24.49 43.93 24.49C39.58 24.49 37.4 28.39 37.4 36.19V44.76L48.14 44.08C49.05 44.08 49.5 44.49 49.5 45.3V45.44L47.87 67.47C47.78 68.38 47.33 68.83 46.51 68.83L37.4 68.42L38.08 110.53C38.08 112.07 37.26 112.84 35.63 112.84H35.49L9.11 114.06C7.84 114.06 7.25 113.24 7.34 111.61V67.46H1.39C0.47 67.46 0 67.04 0 66.21V66.07L0.95 47.77C0.95 46.94 1.4 46.48 2.31 46.38H7.34V29.11C7.43 20.59 9.97 13.88 14.98 8.98004C19.71 4.36004 25.53 2.04004 32.44 2.04004C35.8 2.04004 39.67 2.81004 44.03 4.35004C48.85 6.16004 52.53 8.48004 55.08 11.29C55.72 12.02 55.99 12.56 55.9 12.92V12.93Z" fill="#37251E"/>
<path d="M179.01 82.8349C178.99 82.5549 178.91 82.3749 178.8 82.2849C178.64 82.1749 178.31 82.1349 177.91 82.1649L177.77 82.1849V82.1249C176.89 82.3249 175.32 82.5549 172.56 82.9449C171.83 83.0449 171.08 83.1449 170.31 83.2349C166.28 83.7549 161.77 84.2849 156.86 84.8149C155.08 84.9849 154.99 85.7449 154.94 86.1149C154.57 88.0349 153.37 89.6549 151.35 91.0149C149.42 92.3149 147.17 93.1049 144.66 93.3349C138.3 93.9349 133.71 91.1849 131.04 85.1749C130.68 84.3849 130.83 83.4849 131.42 82.8549C132.02 82.2049 132.95 81.9749 133.78 82.2749C141.73 85.1049 157.1 79.9649 164.48 77.4949C166.88 76.6849 168.46 76.1649 169.23 76.0549C169.53 76.0149 169.83 75.9649 170.12 75.8749C171.39 75.4949 172.5 74.5049 172.23 71.5849C171.76 66.6649 170.92 62.1849 169.68 58.1549C167.92 52.3149 165.35 47.4049 162 43.4849C156.21 36.7149 148.39 33.2949 138.71 33.2949C137.37 33.2949 135.99 33.3649 134.57 33.4949C124.65 34.4149 116.79 39.2549 111.22 47.8549C105.61 56.5449 103.34 67.2049 104.5 79.5549C105.61 91.4749 110.35 100.615 118.58 106.725C126.37 112.535 136.33 114.915 148.22 113.805C155.45 113.125 162.55 109.635 169.31 103.435C169.82 102.955 170.31 102.485 170.78 102.005C176.86 95.8149 179.62 89.3749 179.01 82.8349ZM137.52 57.7549C141.58 57.3749 143.84 59.6649 144.31 64.6349C144.35 65.0849 144.19 65.3249 143.83 65.3649C139.7 63.2449 134.72 63.6649 131.01 66.4549L129.81 67.3549C130.35 61.3849 132.92 58.1849 137.52 57.7549Z" fill="#37251E"/>
<path d="M255.69 50.0099C254.77 48.2099 253.75 46.5899 252.62 45.1799C247.54 38.8299 239.52 35.6599 228.55 35.6599C221.93 35.6599 216.13 36.9299 211.14 39.4699V35.2499C211.05 33.8899 210.37 33.1699 209.1 33.0699L182.04 32.6699C180.77 32.6699 180.14 33.2999 180.14 34.5699V34.7099L180.63 54.3999C180.59 61.4899 181.96 94.0499 181.96 107.2L182.04 110.59C182.04 111.86 182.72 112.54 184.08 112.63L209.51 113.31C210.6 113.31 211.14 112.63 211.14 111.27V72.7899C211.05 62.2699 214.38 57.0099 221.14 57.0099C225.43 57.0099 228.21 59.5499 229.49 64.6299C230.59 68.7099 231.14 77.3699 231.14 90.5999C231.14 101.21 230.86 108.42 230.32 112.23V112.36C230.32 113 230.68 113.36 231.41 113.45L256.29 114.07H256.43C257.43 114.07 258.01 113.62 258.2 112.71C258.39 111.28 258.55 109.39 258.68 107.05C257.64 106.12 261.37 59.7099 255.69 50.0099Z" fill="#37251E"/>
<path d="M346.26 4.96997C346.26 4.96997 346.21 4.96997 346.18 4.96997C345.14 4.96997 344.61 5.58997 344.57 6.82997V6.96997L343.23 110.61C343.19 111.88 343.85 112.58 345.21 112.71L368.84 114.07H368.98C368.98 114.07 369.05 114.07 369.08 114.07C370.28 114.07 370.9 113.46 370.93 112.22L375.95 8.27997C375.99 7.00997 375.37 6.30997 374.11 6.18997L346.25 4.97997L346.26 4.96997Z" fill="#37251E"/>
<path d="M340.96 3.5H340.83L315.51 3.91C314.06 3.91 313.3 4.68 313.21 6.22L312.4 39.54C306.94 36.28 301.35 34.64 295.63 34.64C286.26 34.64 278.26 38.09 271.63 44.98C264.72 52.14 261.27 61.21 261.27 72.18C261.27 84.06 264.36 93.53 270.54 100.6C276.72 107.67 284.95 111.21 295.22 111.21C302.13 111.21 307.85 108.99 312.4 104.55V112C312.49 113.38 313.22 114.07 314.58 114.07H314.72L337.02 112.98C338.47 112.89 339.24 112.07 339.33 110.53L340.78 69.21L341.59 6.8V6.66C341.63 5.53 341.93 4.64 342.38 3.92C342.04 3.65 341.58 3.5 340.97 3.5L340.96 3.5ZM274.81 83.86L276.33 84.12C287.39 86 298.73 85.3 309.47 82.08C294.36 109.19 274.8 83.86 274.8 83.86H274.81Z" fill="#37251E"/>
</g>
</g>
<defs>
<clipPath id="clip0_161_134">
<rect width="383" height="114" fill="white"/>
</clipPath>
<clipPath id="clip1_161_134">
<rect width="375.96" height="114.07" fill="white"/>
</clipPath>
</defs>
</svg>
