<svg width="137" height="40" viewBox="0 0 137 40" fill="none" xmlns="http://www.w3.org/2000/svg">
<g clip-path="url(#clip0_208_2016)">
<path d="M31.4485 13.2705V13.3122C31.342 15.3619 31.2356 17.7358 31.1291 20.434C31.1291 20.6512 30.996 20.7702 30.7298 20.797C26.6775 20.9041 24.6632 23.5219 24.6898 28.6447V35.9688C24.6898 36.4001 24.4739 36.6173 24.045 36.6173L17.165 36.7779C16.7627 36.7779 16.5616 36.5757 16.5616 36.1711L15.8369 14.163C15.8369 13.7852 16.0233 13.5978 16.3989 13.5978H16.4403L23.3588 13.922C23.7877 13.922 24.0036 14.1095 24.0036 14.4873V15.4571C24.0036 15.5642 24.0154 15.6177 24.045 15.6177C24.045 15.5909 24.0716 15.5493 24.1248 15.4957C25.3583 13.7436 27.3164 12.866 29.9992 12.866C30.4281 12.866 30.8037 12.8927 31.1261 12.9463C31.3391 12.9998 31.4485 13.1069 31.4485 13.2705Z" fill="#37251E"/>
<path d="M17.1297 6.69002L16.124 10.8965C16.124 10.8965 16.056 11.1642 15.8016 11.2594C15.8282 11.2594 15.5857 11.072 15.0769 10.6942C14.5682 10.3164 14.0712 10.129 13.5891 10.129C12.3024 10.129 11.6576 11.2892 11.6576 13.6096V16.159L14.8344 15.9567C15.1035 15.9567 15.2366 16.0787 15.2366 16.3197V16.3613L14.7545 22.9149C14.7279 23.1857 14.5948 23.3195 14.3522 23.3195L11.6576 23.1976L11.8588 35.7247C11.8588 36.1829 11.6162 36.4119 11.1341 36.4119H11.0927L3.28983 36.7749C2.91418 36.7749 2.73967 36.5309 2.76629 36.046V22.912H1.00636C0.734234 22.912 0.595215 22.787 0.595215 22.5401V22.4985L0.876212 17.0545C0.876212 16.8075 1.00932 16.6707 1.27848 16.641H2.76629V11.5034C2.79291 8.96877 3.5442 6.97264 5.02609 5.51495C6.42516 4.14056 8.14664 3.45337 10.1905 3.45337C11.1844 3.45337 12.3291 3.68243 13.6187 4.14056C15.0444 4.67901 16.1329 5.36918 16.8871 6.20512C17.0764 6.42229 17.1563 6.58293 17.1297 6.69002Z" fill="#37251E"/>
<path d="M135.249 27.3237C135.237 27.2404 135.21 27.1898 135.178 27.163C135.127 27.1333 135.03 27.1273 134.912 27.1422L134.87 27.1511V27.1333C134.613 27.2077 134.151 27.3029 133.344 27.4635C133.131 27.5051 132.909 27.5468 132.684 27.5855C131.504 27.8056 130.179 28.0376 128.738 28.2786C128.215 28.3589 128.2 28.585 128.194 28.6951C127.416 30.1022 126.029 30.8221 125.29 30.9322C123.42 31.2148 121.974 29.9564 121.086 28.2161C120.968 27.9871 120.998 27.7164 121.16 27.52C121.326 27.3177 121.586 27.2939 121.847 27.3088C129.123 27.6777 133.152 25.7559 133.027 23.498C132.945 22.0314 132.486 20.7284 132.054 19.5503C131.439 17.8457 130.599 16.4297 129.546 15.3201C127.724 13.4043 125.358 12.5178 122.5 12.6784C122.104 12.6992 121.699 12.7439 121.282 12.8063C118.368 13.2436 116.126 14.8114 114.624 17.459C113.109 20.1334 112.615 23.3374 113.162 26.9845C113.686 30.5068 115.236 33.1425 117.768 34.8203C120.164 36.4178 123.145 36.9593 126.638 36.4327C128.762 36.1114 130.803 34.9572 132.696 33.0027C132.838 32.851 132.977 32.7052 133.107 32.5535C134.802 30.6139 135.542 29.2484 135.255 27.3177L135.249 27.3237ZM122.551 19.9668C123.743 19.7883 124.45 20.4309 124.668 21.8975C124.689 22.0314 124.645 22.1058 124.538 22.1206C123.284 21.5584 121.82 21.7666 120.77 22.6561L120.43 22.9447C120.489 21.1627 121.196 20.1691 122.548 19.9668H122.551Z" fill="#37251E"/>
<path d="M76.2248 17.7209C75.9527 17.1854 75.651 16.7035 75.3168 16.2841C73.8142 14.395 71.442 13.452 68.1972 13.452C66.2391 13.452 64.5235 13.8298 63.0476 14.5854V13.33C63.0209 12.9254 62.8198 12.7112 62.4441 12.6815L54.4402 12.5625C54.0645 12.5625 53.8782 12.7499 53.8782 13.1277V13.1694L54.0231 19.0269C54.0113 21.1361 54.4165 30.8222 54.4165 34.7342L54.4402 35.7427C54.4402 36.1205 54.6413 36.3228 55.0436 36.3495L62.5654 36.5518C62.8878 36.5518 63.0476 36.3495 63.0476 35.945V24.4977C63.0209 21.3681 64.0059 19.8033 66.0054 19.8033C67.2743 19.8033 68.0966 20.5589 68.4752 22.0702C68.8006 23.2839 68.9633 25.8602 68.9633 29.7959C68.9633 32.9522 68.8805 35.0971 68.7207 36.2305V36.2692C68.7207 36.4596 68.8272 36.5667 69.0431 36.5935L76.4023 36.7779H76.4437C76.7395 36.7779 76.9111 36.644 76.9673 36.3733C77.0235 35.9479 77.0708 35.3857 77.1092 34.6896C76.8016 34.4129 77.9049 20.6065 76.2248 17.7209Z" fill="#37251E"/>
<path d="M103.606 4.3252C103.606 4.3252 103.591 4.3252 103.582 4.3252C103.274 4.3252 103.118 4.50964 103.106 4.87852V4.92017L102.709 35.7517C102.698 36.1295 102.893 36.3377 103.295 36.3764L110.285 36.781H110.326C110.326 36.781 110.347 36.781 110.356 36.781C110.711 36.781 110.894 36.5995 110.903 36.2306L112.388 5.30988C112.399 4.93207 112.216 4.72383 111.843 4.68813L103.603 4.32817L103.606 4.3252Z" fill="#37251E"/>
<path d="M101.446 3.88477H101.408L93.9187 4.00674C93.4898 4.00674 93.265 4.2358 93.2384 4.69393L92.9988 14.6062C91.3838 13.6364 89.7304 13.1485 88.0385 13.1485C85.267 13.1485 82.9007 14.1748 80.9396 16.2245C78.8957 18.3545 77.8752 21.0527 77.8752 24.3162C77.8752 27.8503 78.7892 30.6675 80.6172 32.7707C82.4451 34.874 84.8795 35.9271 87.9172 35.9271C89.9611 35.9271 91.653 35.2666 92.9988 33.9458V36.1621C93.0254 36.5726 93.2413 36.7779 93.6436 36.7779H93.685L100.281 36.4536C100.71 36.4268 100.938 36.1829 100.964 35.7248L101.393 23.4326L101.633 4.86647V4.82482C101.645 4.48866 101.733 4.2239 101.866 4.00971C101.766 3.92939 101.63 3.88477 101.449 3.88477H101.446ZM82.2026 27.7729L83.5543 28.3709C84.6281 28.8439 85.7905 29.1027 86.9648 29.0551C87.015 29.0551 87.0653 29.0521 87.1156 29.0492C88.4407 28.9837 89.7245 28.5702 90.8573 27.8771L91.8423 27.2761C91.9695 27.2702 92.0552 27.41 91.9902 27.5201C88.0444 34.2998 83.1462 29.2634 82.0902 28.0407C82.0015 27.9395 82.0695 27.7819 82.2026 27.7729Z" fill="#37251E"/>
<path d="M53.603 28.1597C53.603 30.373 52.4228 32.3959 50.0624 34.2284C47.8352 35.927 45.6108 36.7778 43.3836 36.7778C39.7631 36.7778 36.8526 35.7813 34.6549 33.7851C32.3212 31.6819 31.1558 28.7963 31.1558 25.1283C31.1558 21.4603 32.1289 18.2236 34.0722 15.7426C36.0155 13.2615 38.5179 12.021 41.5734 12.021C45.1405 12.021 47.8204 13.3032 49.6187 15.8645C51.148 18.0481 51.9111 20.9753 51.9111 24.6434C51.9111 25.6429 51.4822 26.1546 50.6244 26.1814C48.6929 26.2617 44.8714 26.3837 39.1597 26.5443C39.6153 28.8647 40.8635 30.0249 42.9014 30.0249C43.5995 30.0249 44.2295 29.8702 44.7915 29.5608C45.3535 29.2514 45.7025 28.8677 45.8386 28.4066C45.9185 28.0288 46.2142 27.8413 46.723 27.8413C48.4652 27.8146 53.0528 27.6391 52.9996 27.6391C53.4019 27.6391 53.603 27.8146 53.603 28.1656V28.1597ZM43.5877 21.8083C43.5877 20.3239 42.9843 19.5831 41.7774 19.5831C40.4109 19.5831 39.565 20.4607 39.2426 22.2129L43.425 22.0106C43.5315 22.0106 43.5847 21.9422 43.5847 21.8083H43.5877Z" fill="#37251E"/>
</g>
<defs>
<clipPath id="clip0_208_2016">
<rect width="134.716" height="33.3245" fill="white" transform="translate(0.595215 3.45337)"/>
</clipPath>
</defs>
</svg>
