<svg width="55" height="52" viewBox="0 0 55 52" fill="none" xmlns="http://www.w3.org/2000/svg">
<g clip-path="url(#clip0_86_552)">
<path d="M27.0435 19.5666C27.288 19.6329 27.3122 19.5018 27.4482 19.4079C28.9972 18.3331 29.868 17.022 31.8524 16.2046C35.1479 14.8465 39.8418 15.2496 41.3957 18.8916C44.9339 27.1922 34.8452 32.427 29.4844 36.4963C28.1636 37.4999 25.1789 40.4928 23.9213 40.9703C22.3998 41.5482 21.9045 39.7919 21.2927 38.6718C18.5281 33.6151 13.1657 23.678 13.5962 18.0288C13.9636 13.2052 17.5942 8.91244 22.4678 12.2453C25.0122 13.9854 26.1841 16.7015 27.0452 19.5666H27.0435ZM25.6289 23.4061C25.1336 23.0823 24.525 19.0583 24.1074 18.0482C23.617 16.8618 22.0874 14.6911 21.0385 13.9951C19.9557 13.2764 18.4002 13.3088 17.4129 14.2233C13.2741 18.0531 18.4294 27.851 20.4283 31.9235C21.4659 34.0375 22.5536 36.1353 23.7254 38.1781C24.9216 37.2895 26.0335 36.2632 27.2167 35.36C30.8618 32.5775 39.3336 27.5386 39.8111 22.7036C40.0021 20.7725 38.8431 18.3963 36.8215 17.9592C36.0349 17.7893 33.4419 17.9366 32.7119 18.1955C31.8022 18.5193 29.4553 20.711 28.7382 21.5057C28.1669 22.1386 27.5113 23.6149 26.6405 23.6116C26.4625 23.6116 25.7454 23.4821 25.6273 23.4045L25.6289 23.4061Z" fill="black"/>
<path d="M44.8012 28.8238C45.1945 28.738 45.4228 28.8157 45.7869 28.9031C48.1307 29.4696 50.8985 31.446 53.3766 31.9948C54.8058 33.0388 53.8994 34.1411 52.3229 33.8611C51.2513 33.6701 46.2563 31.4315 45.1864 30.7969C44.3658 30.3097 43.2862 29.1524 44.8012 28.8222V28.8238Z" fill="black"/>
<path d="M38.6668 1.14116C38.7558 1.56688 38.7153 1.99097 38.6166 2.41182C38.3786 3.42026 36.4331 7.78421 35.8439 8.70362C35.2548 9.62303 34.2755 9.96457 33.7948 8.83797C33.5487 8.2601 34.4956 6.06518 34.7821 5.37562C35.0476 4.73301 36.684 1.18325 37.0109 0.969583C37.5936 0.589194 38.1116 0.882175 38.6668 1.14116Z" fill="black"/>
<path d="M42.4803 36.9868C43.2718 37.835 45.7757 40.4621 46.0768 41.4155C46.2435 41.9432 45.52 42.8367 44.9616 42.6894C42.8137 40.9574 41.2032 38.5423 39.2657 36.5594C38.7915 35.1593 40.3502 34.5507 41.2971 35.4976C41.6273 35.8278 42.0627 36.5384 42.4803 36.9868Z" fill="black"/>
<path d="M1.43405 22.205C3.3877 21.9865 6.53102 22.1257 8.53323 22.2584C8.78411 22.2746 9.04632 22.1192 9.3053 22.1532C10.0256 22.2439 10.291 23.2652 9.79897 23.7719C9.30692 24.2785 6.24129 24.0697 5.4239 24.0924C4.29412 24.1231 3.4832 24.1134 2.35018 24.0908C1.54897 24.0746 -0.192641 24.6557 0.0145398 23.0613C0.122986 22.2277 0.733198 22.2827 1.43243 22.205H1.43405Z" fill="black"/>
<path d="M54.8365 21.789C54.6941 21.9606 53.7165 22.3458 53.4348 22.409C52.216 22.6825 47.9462 23.4595 46.9766 23.1795C46.7856 23.1244 45.3337 22.4899 45.3337 22.3993C47.5674 20.5005 50.9827 21.0881 53.6873 20.2254C54.3866 20.2254 55.3966 21.1108 54.8365 21.789Z" fill="black"/>
<path d="M2.23522 9.55829C2.54761 9.50487 2.73537 9.59228 3.01377 9.68293C3.80688 9.93706 7.84205 12.4314 8.57689 13.0239C9.81351 14.0194 9.53834 15.2577 7.77407 14.7963C7.14929 14.6328 4.25523 12.9559 3.58837 12.5075C3.21933 12.2599 1.89046 11.2676 1.74964 10.9487C1.49552 10.3692 1.51171 9.68293 2.2336 9.55829H2.23522Z" fill="black"/>
<path d="M12.5991 0.0080967C13.1381 -0.0550317 13.3647 0.231474 13.6901 0.623194C14.4702 1.56526 15.927 5.11502 16.3494 6.38083C16.9176 8.08529 15.7781 8.66154 14.8296 7.41516C14.1498 6.52327 13.0281 4.04831 12.5198 2.92657C12.1038 2.00878 11.0178 0.194245 12.5991 0.00647802V0.0080967Z" fill="black"/>
<path d="M10.9757 30.7662L12.5603 31.3813C13.0556 32.3444 11.3949 32.8025 10.9012 33.1295C9.91548 33.7834 7.49406 35.5963 6.48405 35.8472C5.66666 36.0512 4.95933 35.4345 5.22155 34.5733C5.54527 33.5082 9.9948 31.6306 10.974 30.7662H10.9757Z" fill="black"/>
<path d="M32.987 40.8004C33.4369 40.7049 33.759 40.7712 33.9792 41.1986C34.8451 43.3886 35.4796 45.6321 35.7823 47.9711C35.5249 48.9277 34.2754 48.9326 33.7623 48.2139C33.4175 47.7299 33.5017 46.7231 33.3366 46.0497C32.9789 44.5897 32.5176 43.1426 32.2375 41.6599C32.2715 41.2374 32.5726 40.8878 32.987 40.802V40.8004Z" fill="black"/>
<path d="M46.3696 12.3505C45.7675 12.7892 44.0631 14.3836 43.5079 13.2165C43.1794 12.5269 43.6002 11.9167 44.0405 11.3971C44.4548 10.9066 47.4719 8.6923 48.0416 8.43816C49.3122 7.86839 50.6298 8.63402 49.7039 9.77843C49.1828 10.421 47.1579 11.7791 46.3713 12.3521L46.3696 12.3505Z" fill="black"/>
<path d="M23.7562 44.5266C24.2142 44.3874 24.839 44.4893 25.1902 44.8179L24.5784 51.3396C24.3583 52.1198 22.5794 52.4176 22.4985 51.0466C22.4418 50.098 22.6992 47.717 22.8336 46.681C22.9242 45.9785 22.9614 44.7694 23.7562 44.5282V44.5266Z" fill="black"/>
<path d="M15.5013 38.6912C16.3041 38.4468 17.1652 39.2173 16.8868 40.0752C16.7217 40.5851 14.2663 44.1446 13.8535 44.4958C12.9779 45.2404 11.4952 44.7014 12.0019 43.4631C12.3013 42.7315 13.9442 40.5236 14.5123 39.8114C14.7001 39.575 15.3151 38.7463 15.5029 38.6896L15.5013 38.6912Z" fill="black"/>
<path d="M25.3779 0.814201C25.7162 0.764022 26.723 1.17679 26.7958 1.57822L26.8687 6.85025C26.8055 7.8425 25.4151 8.14195 24.9555 7.32614C24.7871 7.02668 24.6334 5.80458 24.6059 5.39506C24.5848 5.08427 24.7693 4.79938 24.7596 4.57439C24.7175 3.6307 24.0733 1.00521 25.3779 0.812583V0.814201Z" fill="black"/>
</g>
<defs>
<clipPath id="clip0_86_552">
<rect width="55" height="52" fill="white"/>
</clipPath>
</defs>
</svg>
