<?xml version="1.0" encoding="UTF-8"?>
<svg id="Layer_1" data-name="Layer 1" xmlns="http://www.w3.org/2000/svg" viewBox="0 0 400 368">
  <defs>
    <style>
      .cls-1 {
        stroke: #000;
        stroke-linecap: round;
        stroke-linejoin: round;
        stroke-width: 5.73px;
      }

      .cls-1, .cls-2 {
        fill: #fff;
      }
    </style>
  </defs>
  <rect x="85.33" y="231.33" width="242" height="16.44" rx="8.22" ry="8.22"/>
  <g id="Uf4PTo">
    <g>
      <path class="cls-2" d="M204.3,243.87c-1.59,0-2.14-.19-2.33-.31-9.71-5.96-19.98-11.41-29.92-16.67-14.96-7.93-30.42-16.12-44.01-26.14-30.39-22.4-34.89-45.97-33.32-61.8,2.2-22.15,19.56-37.62,42.2-37.62,6.46,0,12.87,1.3,19.03,3.86,3.01,1.25,6.11,2.86,9.73,5.06.07.04.13.09.2.14l3.29,2.64c1.54,1.23,3.38,1.88,5.34,1.88,3.56,0,6.71-2.15,8.01-5.47.45-1.14.93-2.25,1.31-3.09,8.62-19.32,24.66-30.41,43.99-30.41,1.02,0,2.07.03,3.11.09,22.17,1.31,35.88,21.68,39.25,40.04,5.71,31.19-12.61,61.61-28.78,88.46-3.58,5.94-6.95,11.55-10.09,17.15-4.33,7.73-8.37,15.71-11.56,22.15-1.49-.1-3.77-.19-7.31-.19-.59,0-1.21,0-1.88,0-1.28.01-2.49.07-3.56.12-.97.05-1.89.09-2.69.09Z"/>
      <path d="M227.81,79.44c.96,0,1.93.03,2.9.09,20.29,1.2,32.89,20.12,36.01,37.18,5.47,29.88-11.72,58.42-28.33,86.02-3.59,5.96-6.98,11.59-10.15,17.25-3.91,6.97-7.58,14.16-10.62,20.25-1.36-.05-3.06-.08-5.19-.08-.6,0-1.23,0-1.91,0-1.35.01-2.6.07-3.7.13-.93.05-1.81.09-2.52.09-.45,0-.73-.02-.9-.03-9.69-5.93-19.87-11.32-29.72-16.54-14.84-7.87-30.19-16-43.58-25.87-16.04-11.83-34.6-31.6-31.91-58.64,1.03-10.32,5.46-19.07,12.83-25.31,6.96-5.9,16.16-9.15,25.89-9.15,6,0,11.95,1.21,17.68,3.59,2.82,1.17,5.73,2.68,9.16,4.76l3.21,2.58c2.13,1.71,4.81,2.65,7.53,2.65,5.01,0,9.44-3.02,11.27-7.69.42-1.07.89-2.13,1.25-2.94,8.04-18.01,22.9-28.33,40.79-28.33M227.81,72.44c-21.66,0-38.43,12.85-47.19,32.48-.45,1.02-.93,2.11-1.37,3.23-.81,2.06-2.75,3.25-4.75,3.25-1.09,0-2.2-.36-3.15-1.12l-3.3-2.64c-.18-.14-.37-.28-.56-.4-3.29-2-6.65-3.83-10.2-5.3-6.73-2.79-13.65-4.13-20.37-4.12-22.73,0-43.14,15.23-45.68,40.77-2.73,27.42,13.86,49.58,34.73,64.97,22.87,16.86,49.92,28.08,74.18,42.98,1.06.65,2.48.83,4.16.83,1.8,0,3.92-.2,6.28-.22.65,0,1.27,0,1.85,0,7.75,0,9.12.43,9.38.43.11,0,.02-.08.13-.29,3.95-8.02,8.04-16.08,12.41-23.88,18.04-32.2,46.44-68.69,39.26-107.95-3.91-21.36-19.59-41.55-42.48-42.91-1.12-.07-2.22-.1-3.32-.1h0Z"/>
    </g>
  </g>
  <path class="cls-1" d="M112.83,164.76c-9.15-15.85-4.06-35.93,11.37-44.84,7.72-4.45,16.56-5.27,24.61-3"/>
</svg>