<?xml version="1.0" encoding="UTF-8"?>
<svg id="Layer_1" data-name="Layer 1" xmlns="http://www.w3.org/2000/svg" viewBox="0 0 400 368">
  <defs>
    <style>
      .cls-1 {
        fill: #fff;
      }
    </style>
  </defs>
  <g id="rBS1hc">
    <g>
      <path class="cls-1" d="M191.72,134.67c-.53-2.61-.71-4.73-2.51-6.84-1.84-2.15-4.6-3.28-7.41-3.21-.04-.82.1-1.67-.03-2.5-.61-3.82-1.25-9-2.22-12.61-.43-1.6-1.09-2.9-2.13-4.18-5.08-6.24-21.39-11.18-29.24-12.65-7.85-1.47-15.81-1.68-23.67-2.79l5.08-23.34c1.17-1.69,1.88-2.43,3.73-3.41,7.91-4.22,16.68-7.01,24.9-10.49,3.75-1.59,11.76-4.5,12.79-8.81.68-2.86-.03-6.06-1.53-8.33-.62-.94-1.79-2.97-3.04-3.16-.42-.06-.89.26-1.31.25-2.77-.07-1.95.1-4.13.98-11.68,4.71-24.43,9.32-34.71,15.44-9.42,5.6-12.02,16.99-14.43,27.05-1.22,5.1-1.78,10.3-3.16,15.38-9.63.46-19.53,1.37-29.03,3.33-7.47,1.54-20.25,4.84-25.06,11-3.73,4.78-3.49,10.25-4.28,15.94-.54,3.93-2.01,2.58-4.91,3.85-.85.38-3.48,2.19-4.04,2.87-2.16,2.63-4.41,15.81-3.66,19.1.41,1.78,1.63,2.85,2.95,3.94.08.07,1.23.9,1.53,1.09,1.35.85,5.52,2.41,6.16,3.21.83,1.06.26,2.01.4,3.05.14,1.04.57,3.08.73,4.52,1.04,9.55,2.11,18.24,3.26,27.82,3.63,30.49,7.21,61.4,11.12,92.01.38,2.97.72,7.58,1.49,10.29.9,3.16,3.28,2.61,4.15,4.3.55,1.07.33,2.22.54,3.23.48,2.33.47,3.52.73,5.68.49,3.98.65,6.79,3.71,9.69,3.54,3.36,15.73,7.88,20.57,8.7.44.07.99-.29,1.47-.23l-.67.67c2.48-.51,5.05.64,7.6.89,9.01.87,20.15.42,29.15-.71,1.54-.19,1.72-.8,1.83-.8,2.69.12,4.59.22,7.32-.13,8.34-1.07,16.51-4.24,24.63-6.33,1.33-.74.58-2.2.65-2.31.11-.18,1.96-.5.38-1.3-1.7-.86-1.42.21-1.65.27-1.41.32-4.6.18-6.57.53-.99.18-2.38.85-3.16.97-.22.03-1.3-.02-1.18-.5,4.7-1.3,5.75-4.22,6.58-8.6.14-.73-.09-1.84.02-2.57.33-2.24,1.15-4.39.87-6.81,1.91-1.93,4.1-3.31,4.58-6.21.19-1.15-.18-2.18-.07-2.97.44-3.24,1.39-7.35,1.77-10.08,2.34-16.84,4.19-33.86,6.13-50.61,2.32-19.98,4.9-40.32,7.09-60.3.26-2.37.51-4.77,1.02-7.1l-.26-1.91.9-4.82c.61-.92,2.4-1.3,3.07-2.03.32-.34-.04-.79,0-.81.18-.11.87.05,1.32-.2.24-.13,2.67-2.22,2.9-2.5,3.24-3.86,2.04-6.81,1.32-11.15-.14-.83-.19-1.99-.34-2.76Z"/>
      <path class="cls-1" d="M271.62,92.55c-.94,1.07-.88.28-2.01.35-9.87.63-19.56.48-29.57,2.15-11.01,1.83-23.77,4.8-29.43,15.41l-2.88,15.49c-1.07-.25-4.41,1.16-5.26,1.82-3.19,2.47-4.57,10.32-4.99,14.21-.68,6.25,1.18,7.25,6.18,10.5.77.5,1.95.69,2.51,1.11.62.46.25,3.08.35,4.12,3.69,37.42,6.81,74.94,9.85,112.23.19,2.32.87,4.87.46,7.15l.69.41-.31,3.37.66.35c-.2,3.46.05,8.76,1.02,12.07.55,1.86,2.74,2.98,3.26,4.83.66,2.35.42,5.85.78,8.32.41,2.77,1.01,5.8,1.96,8.41.25.34.89.26,1.2.55,14.01,12.75,50.46,13.17,68.32,10.7,1.75-.24,4.11-.62,5.52-1.57l.65.66.84-.67.5.71,1.86-.71.16.67c1.66-.73,3.45-.72,5.24-1.17,4.58-1.17,9.05-3.02,13.41-4.79,1.31-.53,2.61.11,3.22-1.84.84-2.7-.66-1.63-1.93-1.72-1.56-.11-5.48.07-7.04.78-.37.17-.22.63-.25.65-.24.19-.81.14-.64-.46.27-1,1.21-2.16,1.57-3.49,1.04-3.88.73-9.77,1.86-13.31.38-1.2,1.95-2.26,2.62-3.45,1.22-2.18,2.13-11.76,2.61-14.95,1.63-10.86,3.13-22.87,4.6-33.1.67-4.6,1.56-8.52,2.18-12.67,3.35-22.82,7.67-46.47,10.38-69.39.13-1.11-.1-2.26.11-3.37l.67.17c-.36-1.74-.4-5.06.85-6.4.62-.66,2.63-1.09,3.5-1.56,4.71-2.57,7.01-6.21,5.75-11.69-.07-.29-.62-.24-.61-.39.35-5.55-2.07-12.29-7.72-14.26-.71-.25-1.37-.3-2.11-.25l-.27-.39c-.15-2.95-1.01-5.79-1.39-8.73-.4-3.07.21-5.21-1.56-8.22-4.8-8.18-22.43-14.24-31.15-15.7-3.25-.55-6.52-.88-9.78-1.22-.73,2.68-1.65,5.3-2.82,7.86,1,.7,1.79,1.73,2.09,2.82.77,2.8-.98,5.17-3.49,6.15-5.52,2.16-11.13.4-16.3-1.84-.68-.29-1.21-.79-1.6-1.38-.55-.05-1.1-.09-1.65-.16-2.69-.35-5-2.01-5-5"/>
      <path d="M274.17,109.64c-2.17,1.72-1.52,4.93.86,6.19,4.43,2.34,11.03,2.64,15.98,1.58,1.76-.38,6.87-2.33,4.74-4.77-.75-.86-7.29-3.6-9.11-3.69-3.12-.15-11.49-.08-12.47.69Z"/>
      <path d="M352.67,143.4c-.07-.29-.62-.24-.61-.39.35-5.55-2.07-12.29-7.72-14.26-.71-.25-1.37-.3-2.11-.25l-.27-.39c-.15-2.95-1.01-5.79-1.39-8.73-.4-3.07.21-5.21-1.56-8.22-4.8-8.18-22.43-14.24-31.15-15.7-3.25-.55-6.52-.88-9.78-1.22,0,.01,0,.02,0,.03-10.04.61-48.06-.89-58.03.77-11.01,1.83-23.77,4.8-29.43,15.41l-2.88,15.49c-1.07-.25-4.41,1.16-5.26,1.82-3.19,2.47-4.57,10.32-4.99,14.21-.68,6.25,1.18,7.25,6.18,10.5.77.5,1.95.69,2.51,1.11.62.46.25,3.08.35,4.12,3.69,37.42,6.81,74.94,9.85,112.23.19,2.32.87,4.87.46,7.15l.69.41-.31,3.37.66.35c-.2,3.46.05,8.76,1.02,12.07.55,1.86,2.74,2.98,3.26,4.83.66,2.35.42,5.85.78,8.32.41,2.77,1.01,5.8,1.96,8.41.25.34.89.26,1.2.55,14.01,12.75,50.46,13.17,68.32,10.7,1.75-.24,4.11-.62,5.52-1.57l.65.66.84-.67.5.71,1.86-.71.16.67c1.66-.73,3.45-.72,5.24-1.17,4.58-1.17,9.05-3.02,13.41-4.79,1.31-.53,2.61.11,3.22-1.84.84-2.7-.66-1.63-1.93-1.72-1.56-.11-5.48.07-7.04.78-.37.17-.22.63-.25.65-.24.19-.81.14-.64-.46.27-1,1.21-2.16,1.57-3.49,1.04-3.88.73-9.77,1.86-13.31.38-1.2,1.95-2.26,2.62-3.45,1.22-2.18,2.13-11.76,2.61-14.95,1.63-10.86,3.13-22.87,4.6-33.1.67-4.6,1.56-8.52,2.18-12.67,3.35-22.82,7.67-46.47,10.38-69.39.13-1.11-.1-2.26.11-3.37l.67.17c-.36-1.74-.4-5.06.85-6.4.62-.66,2.63-1.09,3.5-1.56,4.71-2.57,7.01-6.21,5.75-11.69ZM336.22,127.78c.19,1.27.65,4.98,1.09,5.85.09.19.62-.03.56.26-.27.7-4.03,2.11-4.98,2.44-21.54,7.4-51.41,9.35-73.94,7.64-7.43-.56-15.05-1.93-22.39-3.21l-.83.71-.22-1.03c-2.4-.14-4.9-1.59-7.18-1.34-.96-.71.48-11.12.66-12.8l13.01,2.66c14,1.76,27.97,3.17,42.11,2.75,10.17-.3,21.35-1.23,31.58-3.14,6.84-1.27,13.58-2.63,19.64-6.3.53.02.76,4.69.88,5.51ZM221.6,106.61c5.63-4.03,21.31-6.92,28.99-7.44,3.55-.24,7.32-.08,10.92-.26l35.34.29v-.03c10.25,2.01,21.35,3.1,30.46,8.54,2.57,1.53,9.91,6.65,5.67,9.83-3.83,2.88-11.14,4.12-15.93,4.97-24.24,4.3-46.93,3.92-71.4,1.41-6.64-1.85-14.79-2.26-21.71-4.86-1.87-.7-7.39-3.48-7.62-5.73-.18-1.78,3.84-5.69,5.29-6.72ZM226.29,126.3c-.65-.04-.82.34-.93.91-.28,1.4-.32,9.67-1.09,10.22l-4.02-1.03,1.2-11.79c.47-1.11,3.26-.41,3.84.19.27.28.24.75.46,1.06.09.13.37.14.54.11v.33ZM212.92,124.89c.09-.7.88-5.65,1.41-5.66.31.31.69.55,1.05.8.55.39,1.54,1.12,2,1.53.35.31.77.67.8,1.17l-1.32,12.33c-.3.41-3.72-2.81-4.01-3.25-.67-1.02-.12-5.49.08-6.93ZM311.79,312.26c-.1.19-2.26,2.04-2.61,2.28-10.87,7.47-36.98,8.02-50.03,6.59-7.21-.79-18.56-3.71-24.95-7.07-1.18-.62-4.49-2.42-4.96-3.47-1.02-2.3-1.32-7.45-1.44-10.02,1.39.86,3,1.94,4.47,2.6,17.19,7.73,52.25,9.51,70.35,4.16,3.79-1.12,7.23-3.19,10.96-4.4-.99,2.64-.58,6.92-1.8,9.33ZM335.84,165.07c-3.38,0-6.36,2.07-9.48,3.16-2.76.97-5.72,1.54-8.47,2.66-1.2.49-3.34.99-3.54,2.5-.29,2.21,3.79,1.7,5.04,1.36,3.12-.84,6.48-2.39,9.3-3.58,1.79-.75,3.97-1.33,5.61-2.38.07-.04-.06-1.95.56-.2.63,1.76-.7,7.61-.96,9.81-1.29,10.91-3.22,21.79-4.78,32.72-3.02,21.23-5.69,43.22-9.31,64.7-.56,3.32-1.51,6.59-1.5,10.03l-15.28,5.27-.41,2.04c.25.31.58.6.94.76,3.33,1.4,10.34-2.48,13.56-3.79.71-.35.45,1.25.38,1.46-1.09,3.33-5.34,5.93-8.41,7.38-9.2,4.36-22.64,5.88-32.74,5.65-.61,1.32-3.62.17-4.67.11-14.94-.86-33.13-2.14-45.33-10.98-1.01-.73-1.8-2.63-3.45-2.27v-.33c.89.16.84-1.06.81-1.74-.13-3.27-.87-6.93-1.13-10.21-3.09-38.52-6.79-76.93-9.35-115.41-.07-1.12-1.37-7.43.06-7.46.59.56,1.44.91,2.2,1.16,8.26,2.72,16.65,5.23,25.2,6.82,4.58.85,9.28,1.15,13.85,2.08l.37-.63.51.7c7.65.27,15.24,1.51,22.91,1.67,3.73.08,10.01-.33,13.84-.76.16-.02.11-.55.37-.59.59-.09,2.25.49,2.99.49,1.57,0,3.11-.62,4.73-.16l-.17-.67c.8.02.92.62,1.84.68,1.73.12,5.77-1.06,7.8-1.32,2.82-.37,5.66-.45,8.49-.95,2.01-.36,4.62-.76,6.31-1.78l.5.67.05-.6c1.13.2,2.44-.07,3.54-.35.45-.12.46-.6.63-.65,2.35-.65,4.9-.82,7.25-2.1l-.67,5.05ZM347.46,147.18c-.29.47-1.07,1.15-1.53,1.52-8.56,7.01-28.65,11.38-39.57,12.16-1.42.1-1.58-.79-1.77-.84-1.25-.29-2.07.48-3.05.58-28.24,3.14-67.3.16-92.95-12.38-.85-.42-4.87-2.67-5.24-3.18-.42-.58-.34-1.04-.32-1.69.06-1.98.99-6.22,1.45-8.35.25-1.16,1.04-2.28.58-3.29,2.7-.92,3.21,2.29,4.5,3.93,3.67,4.68,15.41,8.14,21.25,9.59,12.19,3.03,25.23,4.1,37.79,4.35.87.02,1.91.41,2.71.36.85-.06.21-.77.83-.7-.03.24-.06.59.23.67,1.71.48,5.55.14,7.35-.01,20.19-.19,41.67-2.46,60.43-11.2l2.08-4.09c1.14-1.66,4.08,3.57,4.25,4.52-.06,2.05,2,6.46,1,8.06Z"/>
      <path d="M169.45,35.51c1.5,2.27,2.21,5.48,1.53,8.33-1.03,4.3-9.03,7.22-12.79,8.81-8.22,3.48-16.99,6.27-24.9,10.49-1.84.98-2.55,1.73-3.73,3.41l-5.08,23.34c7.87,1.11,15.83,1.32,23.67,2.79s24.16,6.41,29.24,12.65c1.04,1.28,1.7,2.58,2.13,4.18.98,3.6,1.62,8.79,2.22,12.61.13.82,0,1.67.03,2.5,2.81-.07,5.57,1.06,7.41,3.21s1.99,4.23,2.52,6.84c.16.77.2,1.93.34,2.76.72,4.34,1.92,7.29-1.32,11.15-.23.28-2.66,2.37-2.9,2.5-.45.25-1.13.09-1.32.2-.03.02.32.46,0,.81-.68.73-2.47,1.11-3.08,2.03l-.9,4.82.26,1.91c-.52,2.33-.76,4.72-1.02,7.1-2.19,19.98-4.76,40.32-7.09,60.3-1.95,16.75-3.79,33.76-6.13,50.61-.38,2.74-1.33,6.84-1.77,10.08-.11.79.26,1.82.07,2.97-.48,2.89-2.66,4.28-4.58,6.21.28,2.42-.54,4.57-.87,6.81-.11.73.12,1.83-.02,2.57-.83,4.38-1.89,7.3-6.58,8.6-.12.48.96.53,1.18.5.78-.12,2.17-.79,3.16-.97,1.96-.35,5.15-.22,6.57-.53.24-.05-.04-1.13,1.65-.27,1.58.8-.28,1.12-.38,1.3-.07.11.68,1.57-.65,2.31-8.12,2.09-16.29,5.26-24.63,6.33-2.72.35-4.63.25-7.32.13-.11,0-.29.61-1.83.8-9,1.13-20.14,1.58-29.15.71-2.55-.25-5.12-1.4-7.6-.89l.67-.67c-.48-.06-1.03.31-1.47.23-4.84-.82-17.04-5.34-20.57-8.7-3.06-2.91-3.22-5.71-3.71-9.69-.27-2.16-.25-3.35-.73-5.68-.21-1.01.01-2.16-.54-3.23-.87-1.69-3.25-1.14-4.15-4.3-.77-2.71-1.11-7.32-1.49-10.29-3.9-30.61-7.49-61.52-11.12-92.01-1.14-9.58-2.22-18.27-3.26-27.82-.16-1.44-.59-3.48-.73-4.52s.43-1.99-.4-3.05c-.63-.8-4.81-2.36-6.16-3.21-.3-.19-1.44-1.03-1.53-1.09-1.32-1.09-2.54-2.16-2.95-3.94-.75-3.29,1.5-16.48,3.66-19.1.56-.68,3.19-2.5,4.04-2.87,2.9-1.28,4.37.08,4.91-3.85.79-5.69.55-11.17,4.28-15.94,4.81-6.16,17.6-9.46,25.07-11,9.5-1.96,19.4-2.87,29.03-3.33,1.39-5.07,1.94-10.27,3.16-15.38,2.41-10.05,5.01-21.45,14.43-27.05,10.28-6.11,23.03-10.73,34.71-15.44,2.18-.88,1.35-1.05,4.13-.98.43.01.89-.31,1.31-.25,1.25.18,2.42,2.22,3.04,3.16ZM165.2,42.65c.12-.26-.88-5.64-2.36-4.59-3.01,1.16-5.84,2.78-8.79,4.04-7.48,3.19-15.73,6.01-22.53,9.75-.4.22-3.06,2.15-3.14,2.33-.75,1.62,1.85,3.75.84,5.72.54.05.39-.72.81-1.04s1.09-.25,1.51-.51c9.77-6.03,21.48-8.57,31.5-13.67.43-.22,1.32-.53,1.59-.79.39-.37-.04-.72,0-.96.05-.27.54-.21.57-.28ZM124.66,57.89c-1.79,2.23.31,2.65,1.69,4.03.7-.44.36-.85.08-1.42-.4-.81-1.28-1.78-1.76-2.61ZM114.38,112.15l9.75-44.72c.04-1.86-1.6-3.16-2.17-4.84-.18.53-.75.72-.94,1.1-1.63,3.31-2.2,7.39-3.11,10.89-3.12,12.08-5.42,24.38-8.05,36.58-.09.44-.44.61-.54.99h5.06ZM166.49,104.21c-1.31-.75-3.82-1.79-5.26-2.33-11.86-4.43-25.51-4.99-38.07-5.89-.26,1.64-.57,3.31-.97,4.92-.13.53-.31.71-.54,1.82-.33,1.54-1.81,6.94-1.05,8.09.85.92,3.23-.05,3.92.88.58.79.15,2.37-.47,3.05-2.67,2.93-13.99,3.13-17.88,2.41-3.4-.63-7.64-1.82-5.99-6.21.78-.97,3.37-.6,4.41-.14l2.53-14.5c-3.39.79-6.88.71-10.28,1.18-10.15,1.41-27.64,3.9-35.93,9.74-1.46,1.03-2.88,2.45-3.39,4.19-.92,3.09.61,2.98,2.44,4.76,7,6.83,19.43,8.58,28.93,9.51,21.53,2.09,44.21,1.14,65.4-3.45,1.98-.43,4.4-1.16,6.02-1.75,2.58-.94,5.11-1.92,7.51-3.26s7.1-4.25,5.54-7.42l-.64.32c-.11-.89-.6-1.42-1.19-2.02-.84-.88-3.94-3.25-5.04-3.88ZM177.05,129.64l-1.99-11.42c.02.23-.06.53-.25.67-7.16,5.33-15.93,8.19-24.16,9.81-18.5,3.64-37.79,4.23-56.68,2.76-1.42-.11-3.78.25-4.99-.1-.29-.08-.26-.43-.23-.67l-.49.67c-.73-.5-7.23-1.62-7.6-1.34.7,1.1.03,2.04-.02,3.19-.09,2.27-.07,4.66.02,6.92-.69.07-1.58-.39-1.35.67,10.04,1.2,20.22,2.83,30.33,2.03l-.5.68c3.32-.58,6.75-.17,10.12-.33,14.65-.72,36.19-3.4,49.54-9.44,2.77-1.25,5.19-3.45,8.22-4.09ZM58.43,134.39l.96-11.56-3.65-2.93.31,1.2-.66.34c.28,2.75-.64,5.7-.89,8.51s1.58,3.62,3.93,4.45ZM69.17,127.37c-1.73-1.04-3.58-1.78-5.47-2.48-.35-.13-.33-.48-.74.05l-1.16,11.12,6.74,2.03c-.32-3.46-.07-7.29.63-10.73ZM77.31,129.34l-4.38-1.01c-.81.71-.32,9.05-.99,10.23-.29.52-1.13-.13-1.04.55l7.75,1.69-1.03-.89-.32-10.57ZM49.33,130.01c-.71-.73-4.54,3.19-4.88,4.05-.45,1.13-2.25,11.65-1.83,12.1.3.08.69.06.94.23,5.14,3.55,9.48,5.53,15.29,7.32,2.59.8,5.15,2.03,8.02,1.93l-.34.67c1.68-.74,3.15.33,4.59.64,12.74,2.73,26.76,3.79,40.09,3.9,11.61.1,24.59-.4,35.89-2.03,9.35-1.35,20.38-3.4,28.88-7.52,3.75-1.82,7.54-4.46,10.63-7.06l.61.26c-.49-.98.31-1.76.34-2.57.03-.69-.65-1.41-.81-2.21-.49-2.5-.49-9.78-4.4-9.38-.67.07-2.91,2.9-3.76,3.65-5.08,4.43-11.97,6.99-18.35,8.7-1.23.33-2.46,1.19-3.81,1.16l-.54-.7-.19,1.03c-21.47,4.83-43.61,5.07-65.52,3.16-11.98-1.05-22.84-2.78-33.96-7.82-4.55-2.06-6.81-4.14-6.84-9.51ZM75.39,295.73c5.41,3.53,17.18,6.33,23.75,7.44,17.02,2.88,41.58,1.03,56.68-7.84,1.25-.73,4.15-2.74,4.89-3.87,1.37-2.1,1.53-9.66,1.91-12.58,4.94-37.39,9.56-74.88,13.44-112.29.34-3.33,1.36-6.56,1.01-9.94-.55-.07-.19.52-.74.78-1.12.53-3.14,1.22-4.38,1.67-9.34,3.39-19.83,5.01-29.38,6.35-6.22.87-22.09,2.7-27.68.97l-.31.64c-3.86-.56-7.91-.09-11.85-.31-13.46-.76-31.89-2.38-44.49-7.06-.8-.3-2.54-1.82-3.03-1.04-.22.35.27,7.1.37,8.15,3.36,34.32,8.1,68.43,12.26,102.64l-.15,1.63,1.58,8.7,20.5,7.66c-.42,1.09-.25,1.99-1.6,2.28-1.59.34-9.13-1.91-11.06-2.61-2.61-.95-4.94-2.51-7.57-3.38-.44.5.88,7.37,1.42,8.18.61.92,2.44,1.93,3.37,2.62.37.28.76,1.01,1.05,1.2ZM156.51,301.25c-1.66.79-2.96,1.81-4.72,2.53-19.89,8.09-46.96,8.18-67.35,1.96-2.67-.82-5.64-2.53-8.33-3.47l-.17.84.65.31c-.32,1.6.02,5.7.62,7.19,1.02,2.51,8.43,5.55,11.03,6.5,13.9,5.1,28.54,4.92,43.06,2.59,5.71-.92,17.05-3.6,21.49-7.16,3.51-2.82,3.1-7.23,3.72-11.28Z"/>
      <path class="cls-1" d="M254.57,166.38l.37-.63.51.7c7.65.27,15.24,1.51,22.91,1.67,3.73.08,10.01-.33,13.84-.76.16-.02.11-.55.37-.59.59-.09,2.25.49,2.99.49,1.57,0,3.11-.62,4.73-.16l-.17-.67c.8.02.92.62,1.84.68,1.73.11,5.77-1.06,7.8-1.32,2.82-.37,5.66-.45,8.49-.95,2.01-.36,4.62-.76,6.31-1.78l.5.67.05-.6c1.13.2,2.44-.07,3.54-.35.45-.12.46-.6.63-.65,2.35-.65,4.9-.82,7.25-2.1l-.67,5.05c-3.38,0-6.36,2.07-9.48,3.16-2.76.97-5.72,1.54-8.47,2.66-1.2.49-3.34.99-3.54,2.5-.29,2.21,3.79,1.7,5.04,1.36,3.12-.84,6.48-2.39,9.3-3.58,1.79-.75,3.97-1.33,5.61-2.38.07-.04-.06-1.95.56-.2s-.7,7.61-.96,9.81c-1.29,10.91-3.22,21.79-4.78,32.72-3.02,21.23-5.69,43.22-9.31,64.7-.56,3.32-1.51,6.59-1.5,10.03l-15.28,5.27-.41,2.04c.25.31.58.6.94.76,3.33,1.4,10.34-2.48,13.56-3.79.71-.35.45,1.25.38,1.46-1.09,3.33-5.34,5.93-8.41,7.38-9.2,4.36-22.64,5.88-32.74,5.65-.61,1.32-3.62.17-4.67.11-14.94-.86-33.13-2.14-45.33-10.98-1.01-.73-1.8-2.63-3.45-2.27v-.33c.89.16.84-1.06.81-1.74-.13-3.27-.87-6.93-1.13-10.21-3.09-38.52-6.79-76.93-9.35-115.41-.07-1.12-1.37-7.43.06-7.46.59.56,1.44.91,2.2,1.16,8.26,2.72,16.65,5.23,25.2,6.82,4.58.85,9.28,1.15,13.85,2.08ZM235.26,172.63c-2.41-1.46-9.9-2.34-13.28-3.42-1.18-.37-6.15-2.8-6.83-2.31-2.09,1.5,1.68,4.22,2.95,4.87,2.53,1.3,5.92,2.35,8.84,2.92s6.26,1.55,8.97-.17l.15-1.13c-.26-.16-.61-.65-.8-.77ZM330.45,175.52l-3.6,1.29c-1.13.96-6.93,2.97-7.3,3.86-.65,1.55,1.61,2.54,3.16,2.11.9-.25,6.57-3.55,7.25-4.21.43-.42.68-1.12,1.16-1.53l-1-.16.33-1.35ZM289.56,187.43c-12.26-5.12-30.67-6.34-42.39.04-20.61,11.22-27.51,43.09-13.79,61.94,10.52,14.46,29.6,19.99,47.24,16,20.94-4.73,30.86-19.11,32.29-39.17,1.18-16.56-8.23-32.5-23.35-38.81ZM316.85,280.24c.71-.59,2.05-3.01.56-3.55-2.19-.05-4.56,1.79-6.67,2.66-1.93.79-9.78,2.92-10.63,3.58-1.77,1.38-1.26,3.24,1.16,3.13,2.91-.13,7.3-1.8,9.86-2.95,1.18-.53,4.93-2.22,5.72-2.88Z"/>
      <path class="cls-1" d="M263.96,108.03c-.43.52-11.66,1.34-13.41,1.6-4.85.72-9.16,1.57-13.71,3.47-1.31.54-3.42,2.61-4.82,1.24-3.11-3.08,6.02-6.71,8.05-7.36,4.76-1.52,15.69-2.68,20.65-2.13.74.08,2.31.18,2.82.54.73.51.94,1.99.4,2.65ZM321.8,115.17c-.53,1.13-1.56,2.13-2.91,1.97-1.52-.19-.85-1.35-1.01-1.56-1.02-1.36-12.11-3.71-14.48-4.54-1.55-.54-2.81-.8-2.22-2.71.73-2.35,9.14-.7,11.14-.14,2.83.79,6.51,2.75,8.49,4.83.53.56,1.45,1.19.99,2.16Z"/>
      <path class="cls-1" d="M209.55,135.63c3.67,4.68,15.41,8.14,21.25,9.59,12.19,3.03,25.23,4.1,37.79,4.35.87.02,1.91.41,2.71.36.85-.06.21-.77.83-.7-.03.24-.06.59.23.67,1.71.48,5.56.14,7.35-.01,20.19-.19,41.67-2.46,60.43-11.2l2.08-4.09c1.14-1.66,4.08,3.57,4.25,4.52-.06,2.05,2,6.46,1,8.06-.29.47-1.07,1.15-1.53,1.52-8.56,7.01-28.65,11.38-39.57,12.16-1.42.1-1.58-.79-1.77-.84-1.25-.29-2.07.48-3.05.58-28.24,3.14-67.3.16-92.95-12.38-.85-.42-4.87-2.67-5.24-3.18-.42-.58-.34-1.04-.32-1.69.06-1.98.99-6.22,1.45-8.35.25-1.16,1.04-2.28.58-3.29,2.7-.92,3.21,2.29,4.5,3.93Z"/>
      <path class="cls-1" d="M337.3,133.63c.09.19.62-.03.56.26-.27.7-4.03,2.11-4.98,2.44-21.54,7.4-51.41,9.35-73.94,7.64-7.43-.56-15.05-1.93-22.39-3.21l-.83.71-.22-1.03c-2.4-.14-4.9-1.59-7.18-1.34-.96-.71.48-11.13.66-12.8l13.01,2.66c14,1.76,27.97,3.17,42.11,2.75,10.17-.3,21.35-1.23,31.58-3.14,6.84-1.27,13.58-2.63,19.64-6.3.53.02.76,4.69.88,5.51.19,1.27.65,4.98,1.09,5.85Z"/>
      <path class="cls-1" d="M313.59,302.93c-.99,2.64-.58,6.92-1.8,9.33-.1.19-2.26,2.04-2.61,2.28-10.87,7.47-36.98,8.02-50.03,6.59-7.21-.79-18.56-3.71-24.95-7.07-1.18-.62-4.49-2.42-4.96-3.47-1.02-2.3-1.32-7.45-1.44-10.02,1.39.86,3,1.94,4.47,2.6,17.19,7.73,52.25,9.51,70.35,4.16,3.79-1.12,7.23-3.19,10.96-4.4Z"/>
      <path class="cls-1" d="M215.37,120.04c.55.39,1.54,1.12,2,1.53.35.31.77.67.8,1.17l-1.32,12.33c-.3.4-3.72-2.81-4.01-3.25-.67-1.02-.12-5.49.08-6.93.1-.7.88-5.65,1.41-5.66.31.31.69.55,1.05.8Z"/>
      <path class="cls-1" d="M225.74,125.86c.09.13.37.14.54.11v.33c-.65-.04-.81.34-.93.91-.28,1.4-.32,9.67-1.09,10.22l-4.02-1.03,1.2-11.79c.47-1.11,3.26-.41,3.84.19.27.28.24.75.46,1.06Z"/>
      <path class="cls-1" d="M75.39,295.73c-.29-.19-.68-.93-1.05-1.2-.92-.69-2.76-1.7-3.37-2.62-.54-.82-1.86-7.69-1.42-8.18,2.62.88,4.96,2.43,7.57,3.38,1.93.7,9.47,2.95,11.06,2.61,1.35-.29,1.18-1.19,1.6-2.28l-20.5-7.66-1.58-8.7.15-1.63c-4.16-34.21-8.9-68.33-12.26-102.64-.1-1.05-.59-7.81-.37-8.15.49-.78,2.23.74,3.03,1.04,12.6,4.68,31.02,6.3,44.49,7.06,3.94.22,7.99-.25,11.85.31l.31-.64c5.59,1.73,21.46-.1,27.68-.97,9.55-1.34,20.04-2.96,29.38-6.35,1.25-.45,3.26-1.14,4.38-1.67.56-.27.2-.85.74-.78.36,3.38-.66,6.62-1.01,9.94-3.88,37.41-8.5,74.9-13.44,112.29-.39,2.92-.54,10.48-1.91,12.58-.74,1.13-3.64,3.14-4.89,3.87-15.1,8.88-39.66,10.72-56.68,7.84-6.57-1.11-18.34-3.91-23.75-7.44ZM74.2,172.41c.13-.07.65-1.2.99-1.44-.07-.3-.23-.6-.44-.83-1.21-1.32-10.9-4.05-13.29-4.91-1.55-.56-2.8-2.22-4.67-1.12-.65,2.48,1.08,3.79,3.08,4.74,2.28,1.09,7.06,2.68,9.56,3.28,1.08.26,3.9.76,4.77.28ZM69.17,176.92c-.12-.21-3.56-2.18-4.1-2.47-.91-.49-5.26-2.76-5.88-2.91s-1.17.11-1.73.31c-.27,1.97,1.08,3.03,2.56,3.98,1.12.71,5.48,2.87,6.7,3.05,1.33.19,3.22-.67,2.46-1.95ZM133.83,181.7c-.29-.24-4.83-1.34-5.48-1.44-27.55-3.93-51.12,11.5-53.57,39.25-1.14,12.94,1.17,22.95,10.45,32.54,14.11,14.58,35.94,17.36,53.68,9.18.46-.21,4.88-2.64,5.06-2.87.22-.27,0-.82.08-.93.07-.1.67.41,2.08-.68,20.34-15.68,19.68-54.73-1.31-69.71-3.24-2.31-6.64-4.12-10.39-5.45l-.5.67c.01-.17,0-.47-.11-.56Z"/>
      <path class="cls-1" d="M166.49,104.21c1.1.63,4.2,3.01,5.04,3.88.59.61,1.08,1.13,1.19,2.02l.64-.32c1.56,3.17-3.13,6.08-5.54,7.42s-4.94,2.32-7.51,3.26c-1.62.59-4.04,1.32-6.02,1.75-21.19,4.59-43.87,5.54-65.4,3.45-9.5-.92-21.93-2.67-28.93-9.51-1.82-1.78-3.35-1.66-2.44-4.76.52-1.74,1.93-3.16,3.39-4.19,8.29-5.84,25.78-8.33,35.93-9.74,3.4-.47,6.9-.39,10.28-1.18l-2.53,14.5c-1.04-.46-3.64-.83-4.41.14-1.65,4.39,2.58,5.59,5.99,6.21,3.89.72,15.2.52,17.88-2.41.62-.68,1.05-2.26.47-3.05-.68-.93-3.07.04-3.92-.88-.77-1.16.71-6.55,1.05-8.09.24-1.11.41-1.29.54-1.82.4-1.61.71-3.28.97-4.92,12.55.9,26.21,1.46,38.07,5.89,1.44.54,3.95,1.58,5.26,2.33ZM102.56,106.73c1.12-1.56-3.26-2.68-4.18-2.68-5.25-.02-18.64,2.44-22.74,5.59-2.16,1.66-3.51,4.12-1.36,6.38,1.35,1.42,7.76,4.07,9.76,4.42,1.29.23,2.26.06,2.25-1.43,0-2.51-3.24-2.64-5.01-3.52-.24-.12-.29-.49-.54-.61-1.05-.52-2.48-.54-3.1-1.72,3.78-1.6,7.87-2.19,11.93-3.07,3.64-.78,8.4-1.16,11.59-2.97.35-.2,1.3-.26,1.39-.39ZM130.17,107.15c.72,1.69,4.34.92,6.13,1.12,4.38.49,11.24,1.34,15.23,2.96,1.46.59,6.07,4.45,6.61,1.34.61-3.49-6.07-5.97-8.65-6.71-5.8-1.67-12.16-2.07-17.97-1.28-1.45.19-2.25,1.47-1.97,2.86l.62-.28Z"/>
      <path class="cls-1" d="M49.33,130.01c.03,5.37,2.29,7.45,6.84,9.51,11.13,5.05,21.98,6.78,33.96,7.82,21.91,1.91,44.06,1.67,65.52-3.16l.19-1.03.54.7c1.34.03,2.58-.83,3.81-1.16,6.38-1.71,13.27-4.28,18.35-8.7.86-.75,3.1-3.58,3.76-3.65,3.91-.4,3.91,6.87,4.4,9.38.16.8.84,1.52.81,2.21-.03.8-.83,1.58-.34,2.57l-.61-.26c-3.09,2.6-6.88,5.24-10.63,7.06-8.5,4.11-19.53,6.17-28.88,7.52-11.29,1.63-24.27,2.13-35.89,2.03-13.33-.11-27.35-1.17-40.09-3.9-1.44-.31-2.91-1.38-4.59-.64l.34-.67c-2.88.11-5.43-1.13-8.02-1.93-5.8-1.79-10.15-3.77-15.29-7.32-.25-.17-.64-.16-.94-.23-.41-.45,1.39-10.97,1.83-12.1.34-.86,4.17-4.78,4.88-4.05Z"/>
      <path class="cls-1" d="M177.05,129.64c-3.03.64-5.46,2.84-8.22,4.09-13.35,6.03-34.9,8.72-49.54,9.44-3.37.17-6.81-.24-10.12.33l.5-.68c-10.12.8-20.3-.83-30.33-2.03-.23-1.06.66-.6,1.35-.67-.09-2.26-.11-4.65-.02-6.92.04-1.14.72-2.09.02-3.19.37-.28,6.87.84,7.6,1.34l.49-.67c-.03.24-.06.59.23.67,1.21.35,3.56-.01,4.99.1,18.89,1.47,38.18.89,56.68-2.76,8.23-1.62,17-4.48,24.16-9.81.18-.14.26-.44.25-.67l1.99,11.42Z"/>
      <path class="cls-1" d="M156.51,301.25c-.62,4.05-.21,8.46-3.72,11.28-4.44,3.56-15.78,6.24-21.49,7.16-14.52,2.33-29.15,2.51-43.06-2.59-2.6-.95-10.01-3.99-11.03-6.5-.6-1.49-.94-5.59-.62-7.19l-.65-.31.17-.84c2.69.94,5.66,2.65,8.33,3.47,20.39,6.23,47.45,6.14,67.35-1.96,1.76-.72,3.06-1.74,4.72-2.53Z"/>
      <path class="cls-1" d="M114.38,112.15h-5.06c.1-.38.45-.55.54-.99,2.63-12.2,4.93-24.5,8.05-36.58.9-3.5,1.48-7.58,3.11-10.89.19-.39.76-.57.94-1.1.57,1.68,2.21,2.98,2.17,4.84l-9.75,44.72Z"/>
      <path class="cls-1" d="M165.2,42.65c-.03.07-.52,0-.57.28-.04.25.39.59,0,.96-.27.26-1.16.57-1.59.79-10.01,5.1-21.73,7.64-31.5,13.67-.42.26-1.08.18-1.51.51s-.27,1.08-.81,1.04c1.01-1.97-1.59-4.1-.84-5.72.08-.18,2.74-2.11,3.14-2.33,6.8-3.75,15.05-6.56,22.53-9.75,2.95-1.26,5.79-2.89,8.79-4.04,1.48-1.05,2.48,4.33,2.36,4.59Z"/>
      <path class="cls-1" d="M69.17,127.37c-.7,3.44-.95,7.26-.63,10.73l-6.74-2.03,1.16-11.12c.41-.53.39-.18.74-.05,1.89.7,3.74,1.44,5.47,2.48Z"/>
      <path class="cls-1" d="M77.31,129.34l.32,10.57,1.03.89-7.75-1.69c-.09-.68.75-.03,1.04-.55.67-1.18.17-9.52.99-10.23l4.38,1.01Z"/>
      <path class="cls-1" d="M58.43,134.39c-2.35-.82-4.18-1.69-3.93-4.45s1.17-5.75.89-8.51l.66-.34-.31-1.2,3.65,2.93-.96,11.56Z"/>
      <path class="cls-1" d="M124.66,57.89c.48.83,1.36,1.81,1.76,2.61.28.57.62.97-.08,1.42-1.38-1.38-3.47-1.8-1.69-4.03Z"/>
      <path d="M289.56,187.43c15.13,6.32,24.53,22.26,23.35,38.81-1.43,20.06-11.35,34.44-32.29,39.17-17.65,3.99-36.73-1.55-47.24-16-13.72-18.85-6.81-50.73,13.79-61.94,11.72-6.38,30.12-5.16,42.39-.04ZM286.88,192.17c-9.42-3.94-25.31-4.92-34.76-.76-10.1,4.44-15.6,13.13-19.42,23.06l.68.31c-.84,1.71-1.48,4.49-1.69,6.41-1.17,11.05,2.34,22.14,10.44,29.66,15.34,14.24,46.84,13.43,58.79-4.58,12.2-18.38,7.01-45.3-14.05-54.11Z"/>
      <path d="M235.26,172.63c.19.11.54.6.8.77l-.15,1.13c-2.71,1.72-6.03.75-8.97.17s-6.32-1.62-8.84-2.92c-1.27-.66-5.05-3.37-2.95-4.87.68-.49,5.65,1.94,6.83,2.31,3.39,1.07,10.87,1.96,13.28,3.42Z"/>
      <path d="M316.85,280.24c-.79.66-4.54,2.35-5.72,2.88-2.57,1.14-6.95,2.81-9.86,2.95-2.42.11-2.93-1.74-1.16-3.13.85-.67,8.69-2.79,10.63-3.58,2.12-.86,4.48-2.71,6.67-2.66,1.49.54.15,2.96-.56,3.55Z"/>
      <path d="M330.45,175.52l-.33,1.35,1,.16c-.48.42-.73,1.11-1.16,1.53-.67.66-6.35,3.96-7.25,4.21-1.55.44-3.81-.56-3.16-2.11.37-.89,6.17-2.9,7.3-3.86l3.6-1.29Z"/>
      <path d="M263.96,108.03c-.43.52-11.66,1.34-13.41,1.6-4.85.72-9.16,1.57-13.71,3.47-1.31.54-3.42,2.61-4.82,1.24-3.11-3.08,6.02-6.71,8.05-7.36,4.76-1.52,15.69-2.68,20.65-2.13.74.08,2.31.18,2.82.54.73.51.94,1.99.4,2.65Z"/>
      <path d="M320.81,113.02c.53.56,1.45,1.19.99,2.16-.53,1.13-1.56,2.13-2.91,1.97-1.52-.19-.85-1.35-1.01-1.56-1.02-1.36-12.11-3.71-14.48-4.54-1.55-.54-2.81-.8-2.22-2.71.73-2.35,9.14-.7,11.14-.14,2.83.79,6.51,2.75,8.49,4.83Z"/>
      <path d="M133.83,181.7c.1.09.12.39.11.56l.5-.67c3.75,1.34,7.15,3.14,10.39,5.45,20.99,14.97,21.65,54.03,1.31,69.71-1.42,1.09-2.02.59-2.08.68-.08.1.14.66-.08.93-.18.23-4.6,2.66-5.06,2.87-17.74,8.18-39.58,5.4-53.68-9.18-9.27-9.58-11.59-19.6-10.45-32.54,2.45-27.75,26.02-43.18,53.57-39.25.65.09,5.19,1.19,5.48,1.44ZM143.27,192.48c-10.86-8.62-29.02-9.09-41.36-3.64-13.21,5.84-21.95,19.17-21.92,33.67l-.67.38c1.11.27.35.42.39,1.32.26,6.21,1.46,12.23,4.54,17.69,1.57,2.77,4.09,6.34,6.87,7.79l-.67.67c1.66-.03,2.92,1.7,4.13,2.47,21.34,13.58,51.83,7.64,59.34-18.37,3.85-13.34.73-32.92-10.65-41.96Z"/>
      <path d="M74.2,172.41c-.87.49-3.69-.01-4.77-.28-2.5-.61-7.28-2.19-9.56-3.28-2-.96-3.72-2.26-3.08-4.74,1.88-1.1,3.12.56,4.67,1.12,2.39.86,12.08,3.59,13.29,4.91.21.23.36.53.44.83-.34.24-.86,1.37-.99,1.44Z"/>
      <path d="M69.17,176.92c.76,1.29-1.13,2.15-2.46,1.95-1.22-.18-5.58-2.34-6.7-3.05-1.49-.95-2.83-2.01-2.56-3.98.56-.21,1.11-.47,1.73-.31s4.98,2.42,5.88,2.91c.54.29,3.98,2.27,4.1,2.47Z"/>
      <path d="M102.56,106.73c-.1.13-1.04.19-1.39.39-3.19,1.82-7.95,2.19-11.59,2.97-4.07.88-8.16,1.47-11.93,3.07.61,1.18,2.05,1.2,3.1,1.72.25.12.29.49.54.61,1.77.88,5,1.01,5.01,3.52,0,1.49-.97,1.66-2.25,1.43-2.01-.35-8.42-2.99-9.76-4.42-2.15-2.27-.8-4.72,1.36-6.38,4.11-3.15,17.5-5.62,22.74-5.59.92,0,5.29,1.13,4.18,2.68Z"/>
      <path d="M130.17,107.15l-.62.28c-.28-1.39.52-2.66,1.97-2.86,5.82-.78,12.18-.39,17.97,1.28,2.58.74,9.26,3.22,8.65,6.71-.54,3.11-5.15-.75-6.61-1.34-3.99-1.62-10.85-2.47-15.23-2.96-1.8-.2-5.41.57-6.13-1.12Z"/>
      <path class="cls-1" d="M286.88,192.17c21.06,8.81,26.24,35.73,14.05,54.11-11.95,18.02-43.45,18.82-58.79,4.58-8.1-7.52-11.62-18.62-10.44-29.66.2-1.92.85-4.7,1.69-6.41l-.68-.31c3.83-9.93,9.32-18.62,19.42-23.06,9.45-4.16,25.34-3.18,34.76.76ZM258.55,203.6c-1.95-1.41-3.96.5-4.9,2.14-1.15,2-1.75,7.46-.96,9.62,1.05,2.86,3.57,3.41,5.49.97,1.41-1.8,2.13-11.47.37-12.73ZM275.24,219.59c5.91,2.49,6.83-7.99,6.17-11.73-.48-2.78-2.59-4.38-4.98-2.35-2.08,1.77-2.88,8.92-2.19,11.53.22.83.74,1.71,1,2.55ZM248.66,228.66c-1.46-2.73,1.88-2.59,1.57-4.75-1.93-3.99-7.64-.17-9.51,2.1l-.59-.26c.05,1.25-1.23,1.52-1.04,2.84.39,2.73,4.11.36,4.91,1.52,2.51,10.61,11.38,18.12,22.29,19.09,8.08.72,14.66-2.02,20.34-7.44,3.48-3.32,5.92-7.67,7.08-12.3,2.54,1.32,4.82-2.28,3.01-3.86-.25-.22-5.48-3.2-5.82-3.31-1.87-.56-3.79.38-4.21,2.38-.55,2.64,2.89,1.81,2.54,3.55-.06.31-2.51,4.9-2.89,5.52-5.76,9.48-17.87,12.33-27.67,7.32-5.79-2.96-7.33-7.34-10.02-12.39Z"/>
      <path class="cls-1" d="M143.27,192.48c11.39,9.05,14.51,28.62,10.65,41.96-7.51,26.01-38.01,31.95-59.34,18.37-1.21-.77-2.47-2.5-4.13-2.47l.67-.67c-2.78-1.45-5.3-5.02-6.87-7.79-3.08-5.45-4.28-11.48-4.54-17.69-.04-.9.73-1.05-.39-1.32l.67-.38c-.03-14.5,8.71-27.83,21.92-33.67,12.33-5.45,30.5-4.98,41.36,3.64ZM135.28,210.91c-.05-3.01.94-9.59-3.33-9.94-4.49-.37-3.82,9.9-3.26,12.64,1.1,5.42,7.35.85,5.92-3.05l.67.34ZM107.4,203.25c-1.12,1.15-1.89,7.68-1.74,9.48.19,2.33,1,5.15,3.5,5.91,4.9-.96,4.8-9.71,3.56-13.31-.78-2.28-3.2-4.24-5.32-2.08ZM100.83,220.09c-.61-.76-3.78-.46-4.64.1-.5.33-.55.94-.92,1.18-.45.3-1.29.28-1.7.56-.95.65-4.34,3.44-4.48,4.33-.4,2.69,3.45,2.23,5.07,1.83-.12,1.27.45,2.47.95,3.6,2.52,5.72,8.2,11.06,13.95,13.01,12.19,4.13,25.54-.35,31.29-12.05.4-.81,1.17-3.5,1.5-3.89.85-1.03,4.93,1.19,3.53-2.5l.68-.19c.12-.51-.44-.23-.68-.57-.19-.28-.17-.79-.42-1.02-1.68-1.52-5.99-4.2-8.09-2.47-1.72,1.41.48,2.83.71,3.63.36,1.24-2.33,5.9-3.17,7.14-5,7.34-16.37,9.91-24.37,6.57-4.79-2.01-10.74-8.21-11.47-13.49-.33-2.36,1.55-1.49,2.42-3.27.23-.47.11-2.17-.16-2.51Z"/>
    </g>
  </g>
</svg>