<?xml version="1.0" encoding="UTF-8"?>
<svg id="Layer_1" data-name="Layer 1" xmlns="http://www.w3.org/2000/svg" viewBox="0 0 400 368">
  <defs>
    <style>
      .cls-1 {
        fill: #fff;
      }
    </style>
  </defs>
  <g id="fEVYo0">
    <g>
      <path class="cls-1" d="M336.28,213.82c.2-.38-.41-7.44-.5-8.61-2.31-30.4-5.01-60.83-7.45-91.01l-6.31-78c-.24-2.98,1.29-6.42-2.92-6.47-10.3-.13-21.89,2.5-32.32,2.62-40.29,3.22-81.33,6.53-121.66,9.79-29.69,2.4-59.37,4.82-89.07,7.18-.47.02-.98.1-1.25.52-.46.69.49,8.95.6,10.55,6.26,84.02,13.82,168.3,20.62,252.32.58,7.22.29,14.99,1.49,22.18.31,1.84,1.39,2.22,3.17,2.17,7.35-.2,15.04-1.51,22.4-2.12,70.78-5.86,142.78-11.61,213.51-17.07.97-.07,2.14,0,2.86-.08,1.1-.13,3.96-.75,4.59-1.64.85-1.22-.24-7.8-.34-9.69-1.6-27.81-4.51-55.97-6.91-83.63-.25-2.83-.44-5.68-.37-8.51l-.62-.27c-.06-.26.41-.09.48-.23Z"/>
      <path d="M336.28,213.82c-.08.15-.55-.02-.48.23l.62.27c-.07,2.83.12,5.68.37,8.51,2.41,27.66,5.31,55.82,6.91,83.63.11,1.89,1.2,8.47.34,9.69-.63.9-3.49,1.52-4.59,1.64-.72.08-1.89,0-2.86.08-70.73,5.46-142.73,11.21-213.51,17.07-7.36.61-15.05,1.92-22.4,2.12-1.78.05-2.87-.33-3.17-2.17-1.2-7.18-.9-14.96-1.49-22.18-6.8-84.02-14.36-168.3-20.62-252.32-.12-1.6-1.07-9.86-.6-10.55.28-.42.79-.49,1.25-.52,29.71-2.36,59.38-4.78,89.07-7.18,40.34-3.26,81.37-6.57,121.66-9.79,10.43-.12,22.01-2.75,32.32-2.62,4.21.05,2.69,3.49,2.92,6.47l6.31,78c2.44,30.18,5.14,60.61,7.45,91.01.09,1.17.7,8.23.5,8.61ZM92.5,52.79l-.22-.5-.27.59c-3.68.6-8.01.19-11.61.93-.6.12-.96.46-1.46.75l1.42,16.53v4.87s.55.2.55.2c-.16,1.81,0,10.06,1.2,11.05l49.92-3.88-2.4-33.19-37.13,2.64ZM177.83,45.98l-44.55,3.43,2.79,33.86,44.41-3.87-2.65-33.42ZM228.59,41.89l-47.05,3.54,2.49,33.46,46.98-3.65-2.42-33.35ZM276.66,71.69l-2.69-33.32c-.29-.21-2.61-.46-3.07-.43-11.52.65-24.13,2.11-35.66,3.36-.95.1-2.19-.45-3.21.36l2.65,33.12,41.98-3.08ZM317.04,34.78l-39.11,3.25,2.71,33.33,39.39-3.46-2.99-33.12ZM132.64,87.3l-50.2,4.17,3.07,45,50.2-4.17-.85-14.52.5-.31-.62-.26-2.1-29.91ZM155.86,85.63c-.32.24-3.32.05-4.07.11-2.45.17-4.89.57-7.32.78-2.63.22-5.35-.07-7.95.51l-.5.64.78,4.86c.15,12.62,2.61,24.86,2.46,37.5,1.14.16.03,1.1.71,1.89l44.5-3.43-3.61-45.07-24.49,2.28-.35-.56c-.26-.02-.02.42-.15.51ZM231.61,79.31l-47.1,3.51,2.78,34.43-.55.35.65.5c.07,3.35.16,6.76.79,10.08l46.77-3.78-3.33-45.1ZM278.53,93.73c-1.21-2.43-.35-12.92-1.13-16.55-.1-.48-.17-.86-.67-1.07l-41.72,2.93c.72,3.32.4,6.74.64,10.13.69,9.55,1.81,19.04,2.78,28.57.21,2.02-.61,4.34.83,6.29l41.38-3.12c.29-.24.21-.56.22-.88.12-3.77-.72-9.4-1.08-13.35-.29-3.19-.93-6.43-1.1-9.6-.09-1.64.39-2.25-.15-3.34ZM320.35,72.18l-39.69,3.18,3.92,45.07,39.41-3.19-3.64-45.06ZM86.73,140.29l-.37-.46c-.96,2.47.1,5.02.33,7.52,1.06,11.81,2.1,23.63,2.86,35.47.17,2.61-.72,3.53,2.97,3.34,7.94-.42,16.38-1.59,24.34-2.27,6.96-.59,15.79-.59,22.43-1.79.31-.06.64-.05.83-.36-.13-1.46-1.27-9.15-.88-9.87.08-.15.55.02.48-.23l-.64-.5c-.52-9.58-1.75-19.1-2.3-28.67-.06-1.11.32-6.05-.5-6.53l-49.57,4.36ZM184.78,132.18l-44.77,3.65.22,3.08-.85.21.9.23,3.66,42.23,44.85-3.19-4.01-46.2ZM235.82,128.07l-47.49,4.1,1.36,14.84-.56.37.54.13c-.02.3-.15.59-.1.89.54,3.55.83,7.75,1.15,11.39.53,6.11.83,12.25,1.47,18.31l47.07-3.8-3.44-46.24ZM324.31,121.54l-39.69,2.88,4.22,45.49,39.16-3.03-3.7-45.33ZM281.22,124.69l-42.24,3.15,3.67,45.91c7.43-.71,14.91-.91,22.25-1.81,1.72.02,3.76,0,5.44-.14,4.54-.37,9.25-1.37,13.86-1.44.7,0,.24.64.74.54l-3.72-46.22ZM143.97,231.37l-3.69-45.82-50.31,4.5,3.63,45.11c3.71.49,7.63-.03,11.37-.66l39.01-3.13ZM188.74,182.17l-44.78,3.1,3.7,45.81,44.81-3.61c-.46-7.89-1.65-15.83-1.62-23.72-.04-1.33-1.2-3.64.22-4.28l-.87-.07c.18-1.36.26-2.51-.33-3.8l.57-.36-.55-.23-.67-11.39c-.06-.41-.16-1.21-.49-1.45ZM242.94,223.39l-3.54-45.69-47.19,3.86,4.2,45.45,46.52-3.62ZM285.5,174.3l-42.58,3.26,3.99,45.68,41.63-3.57-3.04-45.37ZM328.26,170.6l-39.67,3.16,4.06,45.37c.4.26,2.79.29,3.46.28,9.97-.2,20.22-1.89,30.04-2.69.98-.08,5.45.09,5.77-.54l-3.67-45.58ZM144.54,235.05l-50.45,4.07,3.49,45.39,50.37-3.79-3.41-45.67ZM151.63,280.42l44.52-3.72c.64-.51-.02-2.86-.04-3.73-.18-7.17-1.06-14.14-1.71-21.24-.61-6.67-1.09-13.36-1.44-20.03l-45.03,3.2,3.7,45.53ZM243.21,226.79l-47.33,4.1,4.06,45.36,47.26-3.54-3.99-45.92ZM248.54,226.42c-2.14.41-1.22,2.07-1.16,3.34.39,8.89,1.13,17.77,1.95,26.67.74,4.43.24,10.46,1.2,14.7.09.38.2.71.47.99l41.3-3.17c.32-.27.34-2.33.33-2.89-.15-11.75-2.19-25.13-3.27-36.86-.17-1.84-.17-3.73-.58-5.54-.15-.23-3.91-.05-4.57-.02-11.11.6-22.34,1.95-33.46,2.84-.78.06-1.49-.21-2.2-.07ZM296.55,268.41l39.55-3.13-3.91-45.09-39.57,2.95,3.94,45.27ZM293.41,272.41l-42.51,3.71,3.86,43.57,41.91-3.31-3.26-43.98ZM148.51,284.09l-50.46,4.35,3.26,43.98,50.19-4.17-2.99-44.16ZM197.01,280.79l-44.96,3.28,3.41,43.7c4.96-.22,9.9-.57,14.86-.94,6.29-.47,12.82-.89,19.05-1.49,3.74-.36,7.49-.71,11.16-1.49l-3.51-43.06ZM247.48,276.41l-47.34,3.81,3.55,43.32c1.11.87,2.13.16,3.2.12,8.93-.32,18.83-1.31,27.71-2.09,5.34-.47,10.79-1.01,16.1-1.77l-3.22-43.39ZM336.5,269.26l-39.82,3.15,3.74,43.92,39.2-3.69-3.12-43.38Z"/>
      <polygon class="cls-1" points="243.21 226.79 247.2 272.71 199.94 276.25 195.88 230.9 243.21 226.79"/>
      <polygon class="cls-1" points="242.94 223.39 196.42 227.01 192.22 181.56 239.4 177.7 242.94 223.39"/>
      <path class="cls-1" d="M231.61,79.31l3.33,45.1-46.77,3.78c-.62-3.32-.72-6.73-.79-10.08l-.65-.5.55-.35-2.78-34.43,47.1-3.51Z"/>
      <polygon class="cls-1" points="184.78 132.18 188.79 178.38 143.94 181.58 140.28 139.35 139.38 139.12 140.23 138.91 140.01 135.83 184.78 132.18"/>
      <path class="cls-1" d="M247.48,276.41l3.22,43.39c-5.31.76-10.76,1.3-16.1,1.77-8.89.77-18.78,1.76-27.71,2.09-1.08.04-2.09.75-3.2-.12l-3.55-43.32,47.34-3.81Z"/>
      <path class="cls-1" d="M151.63,280.42l-3.7-45.53,45.03-3.2c.35,6.67.84,13.36,1.44,20.03.65,7.1,1.53,14.07,1.71,21.24.02.87.68,3.23.04,3.73l-44.52,3.72Z"/>
      <path class="cls-1" d="M188.74,182.17c.33.24.42,1.04.49,1.45l.67,11.39.55.23-.57.36c.59,1.29.51,2.44.33,3.8l.87.07c-1.42.64-.26,2.96-.22,4.28-.03,7.88,1.16,15.82,1.62,23.72l-44.81,3.61-3.7-45.81,44.78-3.1Z"/>
      <path class="cls-1" d="M143.97,231.37l-39.01,3.13c-3.73.63-7.66,1.15-11.37.66l-3.63-45.11,50.31-4.5,3.69,45.82ZM101.87,205.71c-1.03-.91-3.82,2.13-4.26,2.98-.27.54-.56,1.55-.15,2.03,1.13,1.18,2.5-.97,2.83-.67-.37,1.2.09,2.02.2,3.02.15,1.31.33,6.54.97,7.09.28.24.84.25,1.2.28,1.07-2.73-.14-5.62-.39-8.36-.16-1.7.1-3.92-.03-5.49-.03-.3-.16-.69-.38-.89ZM109.38,219.24c.63.63,2.12.26,2.06-.84-.3-2.67-.81-5.4-1.06-8.08-.17-1.77.82-7.08-2.14-4.46-.22.19-1.36,1.26-1.47,1.38-1.79,1.98-1.46,3.89,1.35,2.48l.45.38c-.53,1.32.2,2.39.31,3.67.1,1.16-.09,4.89.5,5.47ZM133.04,203.21c-1.51.25-3.68,3.57-3.98,5.05-.62,3.07-.29,6.29,2.29,8.3,1.78,1.38,3.4,1.33,5.22-.06,2.24-1.72.93-8.71-.33-10.96-.46-.82-2.18-2.49-3.2-2.33ZM119.14,206.55c-.46,3.06-1.52,8.06,1.01,10.45,2.18,2.07,5.83,1.82,6.71-1.37.45-1.64.5-5.52,0-7.14s-1.88-3.68-3.66-4.08c-1.98-.45-1.56.09-2.48.99-.48.46-1.2.2-.97,1.67l-.61-.52ZM115.73,207.75c-1.03-.85-2.75.21-1.95,1.51,1.02,1.68,3.06-.6,1.95-1.51ZM116.25,213.66c-1.02-.15-2.83.57-2.18,1.76,1.11,2.02,3.68.26,2.18-1.76Z"/>
      <path class="cls-1" d="M197.01,280.79l3.51,43.06c-3.67.78-7.41,1.14-11.16,1.49-6.23.6-12.76,1.02-19.05,1.49-4.95.37-9.89.72-14.86.94l-3.41-43.7,44.96-3.28Z"/>
      <path class="cls-1" d="M144.54,235.05l3.41,45.67-50.37,3.79-3.49-45.39,50.45-4.07ZM105.58,254.45c-.08-.07-1.93.64-2.02.71-.31.25-.41.86-.81,1.24-.97.91-2.78,1.47-2.05,3.32.49.58,2.3-.03,3-.26-.1,1.51.5,2.93.65,4.36s-.29,3.92.65,4.83c1.06,1.03,1.96-.07,1.93-1.32-.06-2.53-.86-5.6-1.13-8.14-.17-1.57-.02-3.15-.22-4.73ZM114.65,254.66c-1.52-1.18-4.01-.19-5.1,1.18-.61.77-1.57,2.06-.37,2.62,1.68.79,2.49-2.26,4.58-1.81.4,2.43-1.33,4.43-1.91,6.69l-2.51,3.93c.1,2.26,2.75,1.6,4.4,1.38,1.3-.17,5.16-.66,4.06-2.61-.68-1.21-2.65-.33-3.76-.31-.38,0-.46-.07-.71-.34,1.3-1.55,3.64-7.1,2.78-8.84-.09-.19-1.31-1.77-1.45-1.88ZM129.08,253.23c-1.89-.82-3.02.01-4,1.55-1.7,2.67-1.54,5.48-.92,8.48.39,1.88,1.59,4.08,3.77,4.19,2.36.12,3.29-.68,4.1-2.8,1.1-2.84.42-7.79-1.5-10.2-.11-.14-1.37-1.2-1.46-1.24ZM137.86,252.18c-5.02,1.09-6,15.95,1.96,14.35,2.44-.49,3.53-4.85,3.3-6.99-.25-2.27-2.14-8.04-5.25-7.36ZM118.69,257.13c-.58,1.15,1.45,2.01,2.36,1.36.28-.52.62-1.29.17-1.75-.36-.78-2.39.13-2.53.4ZM119.94,265.2c1.59,1.37,3.62-2.12,1.23-2.55-1.62-.29-2.19,1.73-1.23,2.55Z"/>
      <path class="cls-1" d="M132.64,87.3l2.1,29.91.62.26-.5.31.85,14.52-50.2,4.17-3.07-45,50.2-4.17ZM100.36,108.78c-.26-.13-.82.11-1.17-.01-.68-.23-.92-.84-1.88-.91-1.53-.11-3.77.84-4.28,2.4-.35,1.08-.34,4.99.04,6,.35.91,2.61,2.09,3.6,1.86.7-.17,1.2-1.19,1.79-1.39.84-.29.35.75.38,1.12.17,2.51-.82,6.28,2.88,4.7.23-.24.25-.88.26-1.23.04-2.6-.38-7.95-.84-10.5-.07-.36-.61-1.95-.78-2.03ZM116.59,119.6c2.05-2.85,1.22-10.08-1.87-12.02-5.37-3.38-6.84,6.22-5.78,9.9,1.07,3.73,5.03,5.77,7.65,2.12ZM120.72,119c.11.12,1.81,1.18,1.99,1.22,5,1.17,5.7-5.18,4.98-8.65-.63-3.03-3.24-7.84-6.56-4.35-2.44,2.56-2.81,9.19-.41,11.78ZM104.77,110.72c-1.63.48-1.19,2.57.42,2.36,1.45-.19,1.91-3.05-.42-2.36ZM106.98,116.83c-1.67-.75-3.53.21-2.29,2.07,1.52.13,3.4-.31,2.29-2.07Z"/>
      <path class="cls-1" d="M86.73,140.29l49.57-4.36c.82.48.43,5.42.5,6.53.54,9.57,1.78,19.1,2.3,28.67l.64.5c.06.26-.41.09-.48.23-.39.73.76,8.41.88,9.87-.19.31-.52.3-.83.36-6.64,1.2-15.48,1.19-22.43,1.79-7.97.68-16.41,1.85-24.34,2.27-3.69.2-2.8-.73-2.97-3.34-.76-11.84-1.81-23.67-2.86-35.47-.22-2.5-1.29-5.05-.33-7.52l.37.46ZM97.89,170.51c.66-1.71-.18-3.27-.34-4.88-.19-1.99-.33-3.99-.48-5.98-.05-.66.49-2.74-.68-2.91-.56-.08-5.9,4.43-3.21,5.33l2.02-.97.79,9.16c.46.69,1.31.78,1.9.25ZM107.8,169.7c.09-.08,1.04-1.86,1.11-2.09.45-1.37.39-5.78-.09-7.15-.2-.58-1.84-3.25-2.25-3.57-1.05-.82-2.68-.71-3.79-.06-.9.52-1.89,2.75-2.11,3.76-.57,2.65-.18,5.51,1.07,7.88.55,1.06,2.05,2.03,3.25,2.01.44,0,2.52-.54,2.81-.79ZM118.07,155.99c-3.91,4-2.69,15.12,4.67,12.82,3.9-1.22,2.75-15.63-3.85-13.5-.69.22-.5.36-.82.68ZM132.81,155.08c-2.09-1.78-3.85-.88-5.17,1.25-1.65,2.67-2.14,5.64-1.02,8.67,1.19,3.22,4.85,4.34,7.46,2.1,2.38-2.04,1.02-10.07-1.27-12.02ZM111.47,158.69c-.64.28-.92,1.59-.2,1.99.61.39,2.03.28,2.45-.34l.2-.88-.47-.72c-.46-.3-1.48-.27-1.98-.05ZM113.99,164.79c-.23-.2-1.63-.34-1.95-.07-.46.38.06,1.61.21,2.11,1.35.46,2.92-1.01,1.74-2.04Z"/>
      <path class="cls-1" d="M281.22,124.69l3.72,46.22c-.51.1-.05-.55-.74-.54-4.61.06-9.31,1.07-13.86,1.44-1.68.14-3.72.16-5.44.14-7.35.9-14.82,1.09-22.25,1.81l-3.67-45.91,42.24-3.15Z"/>
      <polygon class="cls-1" points="285.5 174.3 288.54 219.67 246.91 223.24 242.92 177.56 285.5 174.3"/>
      <path class="cls-1" d="M278.53,93.73c.54,1.09.06,1.7.15,3.34.17,3.17.81,6.41,1.1,9.6.35,3.95,1.2,9.58,1.08,13.35-.01.32.06.64-.22.88l-41.38,3.12c-1.43-1.95-.62-4.27-.83-6.29-.97-9.53-2.09-19.01-2.78-28.57-.24-3.39.08-6.81-.64-10.13l41.72-2.93c.5.21.57.59.67,1.07.78,3.64-.08,14.12,1.13,16.55Z"/>
      <path class="cls-1" d="M148.51,284.09l2.99,44.16-50.19,4.17-3.26-43.98,50.46-4.35ZM110.59,317.07c.13-.25.05-3.75,0-4.37-.2-2.36-.77-4.62-.78-7.04,0-.95.79-1.91-.19-3.02-.84-.64-1.79,0-2.24.74-.29.46-.3,1.13-.34,1.18-.07.08-.56-.16-.84-.04-.49.21-2.01,1.82-1.82,2.39.53,1.59,2.11.37,2.81.26,1.05-.16.4,1.17.49,1.77.09.67.4,1.27.48,1.95.2,1.69.06,4.44.48,5.9.17.59,1.63.95,1.97.29ZM119.1,302.83c-2.37-2.36-6.28.13-6.39,2.99,2.05,1.56,2.48-1.15,3.98-1.4,1.78-.3,1.3,1.13.97,2.42-.7,2.76-2.47,6.11-4.29,8.25l.07.75c.56,1.52,5.9.35,7.14-.17,1.07-.45,1.16-.8.9-1.97h-3.97c.7-2.62,3.5-6.38,2.63-9.13-.04-.13-.96-1.66-1.03-1.74ZM135.36,302.64c-.67-.7-3.28-1.74-4.32-1.32-2.95,1.19-3.78,5.48-3.33,8.26.39,2.4,1.15,5.24,3.88,5.71,2.59.44,4.28-.64,5.04-3.13.11-.35.34-4.64.31-5.02s-1.42-4.33-1.59-4.5ZM141.33,314.25c3.54,1.53,6.14-1.9,6.03-5.14-.05-1.28-.99-5.34-1.52-6.53-.6-1.36-3.03-2.75-4.5-2-3.21,1.63-4.25,8.71-2.39,11.66.13.2,2.19,1.92,2.38,2.01ZM124.1,304.37c-2.14.58-.38,3.2,1.09,1.74,1.02-1.01.16-2.08-1.09-1.74ZM123.33,311.27l.1,1.2c1.41,1.37,3.92-.36,2.11-1.84l-2.21.63Z"/>
      <polygon class="cls-1" points="293.41 272.41 296.67 316.39 254.76 319.7 250.9 276.13 293.41 272.41"/>
      <polygon class="cls-1" points="296.55 268.41 292.62 223.13 332.19 220.18 336.1 265.27 296.55 268.41"/>
      <polygon class="cls-1" points="324.31 121.54 328 166.87 288.84 169.91 284.62 124.42 324.31 121.54"/>
      <polygon class="cls-1" points="320.35 72.18 323.99 117.24 284.58 120.43 280.66 75.36 320.35 72.18"/>
      <polygon class="cls-1" points="336.5 269.26 339.61 312.64 300.42 316.33 296.67 272.41 336.5 269.26"/>
      <path class="cls-1" d="M92.5,52.79l37.13-2.64,2.4,33.19-49.92,3.88c-1.19-.99-1.36-9.25-1.2-11.05l-.54-.2v-4.87s-1.43-16.53-1.43-16.53c.5-.29.86-.63,1.46-.75,3.6-.74,7.93-.33,11.61-.93l.27-.59.22.5ZM112.08,74.29c.28-.32.82-1.26.98-1.67.79-1.96.29-5.71-.66-7.64-.7-1.41-2.19-3.02-3.79-3.3-7.93-1.38-9.91,16.17-.44,14.42,1.22-.22,3.1-.88,3.92-1.81ZM126.15,74.12l-1.09-13.47c-.04-.54-2.97-.81-2.76,1.38.05.53.39.97.4,1.1l.51,6.38c-.67.21-.47-.08-.66-.32-1.72-2.11-3.14-4.95-4.66-7.24-.71-.7-1.85-.43-2.73-.36.04,2.96.38,6,.43,8.95.03,1.62-1.34,5.08,1.74,4.79,1.77-.17.52-5.34.41-6.53.24,0,.5-.09.72-.08,1.15.05,3.79,5.4,4.8,5.92,1.07.55,1.9-.28,2.9-.53ZM96.7,69.93l.51,6.38c.56.6,2.86.71,3.09-.3l-1.63-11.97c-3.49-1.45-2.69,4.25-5.31,5.02-.29-.03-2.41-4.34-2.98-4.9-.96-.94-2.68-.58-2.61.93l-.07,11.99c3.52,3.26,2.43-4.05,2.54-5.92.03-.49-.15-.94.33-1.31.81,1.7,1.39,3.54,2.73,4.93,1.4.19,2.38-3.06,2.82-4.18.16-.4-.25-.76.59-.67Z"/>
      <path class="cls-1" d="M177.83,45.98l2.65,33.42-44.41,3.87-2.79-33.86,44.55-3.43ZM149.67,58.59c-.82-.79-4.76.27-6.03.42s-5.18-.54-4.23,1.85c.66,1.65,3.81-.21,4.27.89.39,2.27-.16,9.9.97,11.28.63.77,2.04.69,2.56-.16s-.09-1.3-.12-2.02c-.13-3.3-.5-6.47-.86-9.77,1.75-.24,4.57.1,3.44-2.49ZM158.23,69.44c-.83.69-2.46.67-3.2-.2l-.42-9.77c-.29-1.34-2.3-1.23-2.5-.39l.07,8.8c-.12,5.17,6.75,5.88,8.88,1.98,1.24-2.26,1.23-8.8.68-11.33-.38-1.76-2.78-1.51-3.05-.17-.15.76.58,2.29.65,3.31.04.66-.22,1.21-.2,1.75.04,1.63.65,4.73-.9,6.02ZM172.21,58.63c.66-2.8-.67-1.87-2.2-1.74-1.84.16-3.69.25-5.53.44l.51,13.49c.07.34.29.69.63.82.65.25,4.91.41,4.79-.81l.74.54c1.86-.08,3.66-1.81,1.66-2.59-2.49-.97-6.48,2.83-5.4-3,.81-.59,4.21.28,4.06-1.74-.13-1.82-3.51-.18-4.13-.94l-.38-3.4,5.25-1.08Z"/>
      <path class="cls-1" d="M228.59,41.89l2.42,33.35-46.98,3.65-2.49-33.46,47.05-3.54ZM201.82,54.1c-.21-.18-.62-.24-.9-.2l-.72.47-1.77,9.92-2.67-4.3c-.2-.11-1.76.03-2.09.12-1.17.32-1.14,4.39-1.41,5.54l-.94-2.15c-.9-1.79-.94-5.62-1.86-7.12-.39-.64-1.73-1-2.12-.34-.48.82,2.8,11.41,3.28,13.1.89.41,2.11.64,2.78-.28.71-.97.36-5.11,1.71-5.14,1.5,1.96,1.76,6.62,5.08,4.32l2.07-12.25c.07-.51-.05-1.34-.44-1.68ZM207.01,60.1c-.61-.64-.67-3.02.03-3.66.98-.88,4.2.51,4.96-1.6.11-.3.26-.46.03-.77-.93-1.23-3.62-.26-4.89-.16-.79.07-2.48-.46-2.85.19l.44,13.55,1.05,1.18.24-.59.59.55,1.86-.18-.33-.54.56-.03.23.53,4.3-1.2c-.45-.61-.36-1.02.1-1.58-.07-1.3-4.87.34-5.61-.01-.33-.17-.84-2.81-.07-2.86l-.25-.5c1.13-.18,3.79.26,3.59-1.59-.18-1.63-2.99.3-3.98-.74ZM215.55,67.47c1.99-.27,3.49.07,5.27-1.15,4.12-2.82,4.3-9.4.19-12.27-1.99-1.39-4.06-1.02-6.37-1.05-.05,1.94-.03,13.85.91,14.47Z"/>
      <path class="cls-1" d="M276.66,71.69l-41.98,3.08-2.65-33.12c1.02-.8,2.26-.25,3.21-.36,11.53-1.25,24.14-2.71,35.66-3.36.46-.03,2.78.22,3.07.43l2.69,33.32ZM259.79,64.2l-1.03-14.48c-.3-.6-1.61-.45-1.87.06l-.03,6.2c-.15.71-3.82.26-4.54.55-.24-1.99.33-3.79-.17-5.79-.13-.44-1.93-.49-2.33-.16l.37,13.26c.38.64,1.86.7,2.3.1.9-1.76-.67-3.43.29-5.05l4-.32c1.22,2.2-1.41,6.65,3.01,5.63ZM271.87,54.81c-.02-1.9-.33-4.03-.48-5.96-.07-.89-3.15-.59-2.75,1.35.09.42.57.66.63,1.09.16,1.11.04,4.41-.09,5.71-.12,1.19-.23,3.01-1.36,3.69-1.25.76-2.96.17-3.3-1.32.01-2.43.08-4.96-.01-7.38-.02-.51-.14-2.59-.7-2.68l-1.52.26c-.19,3.2-.97,9.49.78,12.16s7.06,1.39,8.2-1.88c.45-1.29.6-3.7.59-5.04ZM247.26,50.67c-2.76.18-5.91-.09-8.62.41-.88.16-1.32.6-1.08,1.5.56,1.48,2.75.69,3.9.54.7.54-.26,10.06.99,11.72.7.93,2.35.9,2.49-.46.32-2.95-.92-7.54-1.02-10.62l.52-.78c1.81.02,3.47.06,2.8-2.31Z"/>
      <path class="cls-1" d="M317.04,34.78l2.99,33.12-39.39,3.46-2.71-33.33,39.11-3.25ZM288.85,53.01l.43-3.2c.81-.76,3.42-.21,4.49-.67.58-.25.86-1.52.47-2-.84-1.02-6.48.56-7.81.39-.4,2.39.16,4.83.28,7.24.06,1.17-.3,6.26.95,6.8.39.17,2.01-.17,2.2-.7.53-1.52-.74-3.66-.53-5.32,1.09-.19,3.84.19,3.83-1.37,0-2.5-2.77-.64-4.32-1.16ZM296.63,46.82l1.12,13.9c.35.54,2.33.25,2.52-.1l-.61-4.47c.91-.65,5.42,6.86,7.35,3.22-.11-2.04-4.21-3.13-4.32-4.48-.05-.6.55-.49.91-1.06,1.59-2.48,2.4-6.17-1.1-7.38-1.02-.35-5.66-.56-5.87.38ZM309.13,59.59c.61.51,3.02.23,2.7-1.18-.45-2.99-.89-6-1.3-8.99-.12-.85.04-3.49-.43-3.83-.65-.46-2.12-.36-2.11.6.55,1.8.23,12.64,1.14,13.4Z"/>
      <path class="cls-1" d="M155.86,85.63c.13-.1-.11-.54.15-.51l.35.56,24.49-2.28,3.61,45.07-44.5,3.43c-.68-.79.43-1.73-.71-1.89.15-12.63-2.3-24.88-2.46-37.5l-.78-4.86.5-.64c2.6-.58,5.33-.28,7.95-.51,2.43-.21,4.87-.61,7.32-.78.75-.05,3.75.14,4.07-.11ZM176.05,88.12c-.17-.22-2.99-.11-3.52-.06-7.87.67-15.74,1.31-23.56,2.17-1.8.2-3.75.07-5.57.55-1.45.38-2.04,1.52-2.13,2.94-.32,5.24.6,10.87.93,16.11.3,4.65.19,10.27.84,14.74.08.57.53,2.82.82,3.07,1.06.93,4.29-.23,5.55-.33,6.93-.57,14.11-.48,21.03-1.11,1.65-.15,7.38-.53,8.46-1.51.36-.32.48-1.18.53-1.66.43-4.04-.64-8.18-.97-12.16-.52-6.29-.46-13.69-1.67-19.78-.19-.96-.8-1.89-.77-2.97Z"/>
      <path class="cls-1" d="M235.82,128.07l3.44,46.24-47.07,3.8c-.64-6.07-.94-12.2-1.47-18.31-.32-3.65-.6-7.84-1.15-11.39-.05-.31.08-.6.1-.89l-.54-.13.56-.37-1.36-14.84,47.49-4.1ZM233.6,147.59c.25-.45-.65-8.83-.75-10.29-.09-1.33.5-2.88-.49-4.09-1.1-1.35-7.07-.24-8.86-.14-5.56.3-11.24.58-16.76,1.04-3.9.33-9.02.37-12.7,1.12-2.13.44-1.97,2.15-2.15,3.94l.81-.63c0,.63-.02,1.33-.75,1.35l.03.42c.93.14.31.83.45,1.66,1.3,8.15,1.82,16.71,2.55,24.94.2,2.26.33,4.56.54,6.82.53,1.19,3.51.74,4.78.61,7.89-.79,15.88-1.59,23.76-2.52,3.64-.43,7.3-.52,10.88-1.44-.1-7.28-.16-14.49-1.19-21.73l-.63-.81c-.06-.25.39-.1.47-.24Z"/>
      <path class="cls-1" d="M328.26,170.6l3.67,45.58c-.33.63-4.79.46-5.77.54-9.82.8-20.07,2.49-30.04,2.69-.67.01-3.06-.02-3.46-.28l-4.06-45.37,39.67-3.16ZM317.56,175.42l-.19-.56-.5.89c-.45-.35-.89-.45-1.46-.46-4.77-.08-12.75.76-17.59,1.43-2.77.38-5.73.57-5.24,4.13l-.58-.1c1.12,1.27.62,1.62.77,2.79,1.18,9.21,2.02,18.7,2.59,28.06.08,1.25-.46,2.48.35,3.76.69.07,1.39.19,2.09.18,7.41-.04,16.89-1.22,24.41-1.97.83-.08,4.96-.38,5.32-.53.38-.17.62-.49.83-.84l-1.48-13.4c-.15-6.51-1.32-12.99-2.07-19.43-.12-.99.22-2.15-.08-3.25-.62-2.26-5.21-.93-6.92-1.26l-.27.54Z"/>
      <path class="cls-1" d="M248.54,226.42c.71-.14,1.42.13,2.2.07,11.12-.89,22.36-2.23,33.46-2.84.66-.04,4.43-.22,4.57.02.42,1.81.41,3.7.58,5.54,1.08,11.73,3.12,25.1,3.27,36.86,0,.56-.01,2.61-.33,2.89l-41.3,3.17c-.27-.29-.39-.62-.47-.99-.96-4.25-.46-10.27-1.2-14.7-.82-8.9-1.55-17.78-1.95-26.67-.06-1.27-.97-2.93,1.16-3.34ZM285.77,228.31c-.68-.51-2.4-.61-3.28-.65-5.38-.2-11.74,1.16-17.17,1.56-3.86.29-8.86-.37-12.55.6-1.09.29-1.49,1.8-1.57,2.81-.26,3.11.49,7.14.73,10.45.47,6.4.53,13.19,1.3,19.59.09.79.82,5.14,1.09,5.4,1.41.33,3.2.34,4.65.28,7.28-.3,16.55-1.3,23.82-2.21.98-.12,3.35-.45,4.15-.69,2.17-.66,1.38-3.83,1.36-5.5-.05-7.23-.4-15.35-1.13-22.55-.16-1.56-1.16-2.52-.05-4.29l-.59-.1c-.16-.47.5-.15.54-.51.09-.79-.59-3.66-1.3-4.19Z"/>
      <path d="M119.14,206.55l.61.52c-.23-1.47.5-1.21.97-1.67.92-.9.5-1.43,2.48-.99,1.78.4,3.16,2.43,3.66,4.08s.45,5.5,0,7.14c-.88,3.19-4.53,3.43-6.71,1.37-2.53-2.39-1.47-7.39-1.01-10.45ZM121.91,206.64c-3.32,1.14-1.13,12.09,2.21,8.76,1.16-1.16.68-6.95-.23-8.09-.26-.33-1.56-.82-1.98-.67Z"/>
      <path d="M133.04,203.21c1.02-.17,2.74,1.51,3.2,2.33,1.26,2.25,2.58,9.24.33,10.96-1.82,1.39-3.44,1.45-5.22.06-2.58-2.01-2.91-5.23-2.29-8.3.3-1.48,2.47-4.8,3.98-5.05ZM132.41,205.8c-2,.72-1.73,6.68-1.11,8.33l2.09,1.25c2.52-.98,2.78-4.16,2.06-6.45-.39-1.24-1.4-3.72-3.05-3.13Z"/>
      <path d="M101.87,205.71c.22.2.35.59.38.89.13,1.57-.13,3.78.03,5.49.25,2.74,1.46,5.63.39,8.36-.37-.03-.93-.04-1.2-.28-.64-.55-.82-5.78-.97-7.09-.11-1.01-.57-1.83-.2-3.02-.34-.3-1.7,1.85-2.83.67-.41-.48-.13-1.49.15-2.03.44-.86,3.23-3.9,4.26-2.98Z"/>
      <path d="M109.38,219.24c-.59-.58-.39-4.31-.5-5.47-.11-1.27-.85-2.35-.31-3.67l-.45-.38c-2.81,1.42-3.15-.5-1.35-2.48.11-.12,1.25-1.19,1.47-1.38,2.96-2.62,1.97,2.69,2.14,4.46.26,2.67.76,5.41,1.06,8.08.07,1.11-1.42,1.47-2.06.84Z"/>
      <path d="M116.25,213.66c1.5,2.03-1.07,3.78-2.18,1.76-.65-1.19,1.16-1.92,2.18-1.76Z"/>
      <path d="M115.73,207.75c1.11.91-.93,3.19-1.95,1.51-.8-1.3.92-2.36,1.95-1.51Z"/>
      <path d="M129.08,253.23c.09.04,1.34,1.09,1.46,1.24,1.92,2.41,2.6,7.36,1.5,10.2-.82,2.11-1.74,2.92-4.1,2.8-2.18-.11-3.38-2.31-3.77-4.19-.62-3.01-.79-5.82.92-8.48.98-1.54,2.12-2.37,4-1.55ZM127.56,255.59c-.47.23-1.06.5-1.38.92-1.45,1.84.12,10.45,2.94,8.04,1.86-1.59.81-9.36-1.55-8.96Z"/>
      <path d="M137.86,252.18c3.12-.68,5.01,5.1,5.25,7.36.23,2.14-.86,6.5-3.3,6.99-7.95,1.6-6.97-13.26-1.96-14.35ZM137.11,254.55c-1.25,1.89-1.33,3.4-1.1,5.59.5,4.88,4.53,5.74,4.63.75.05-2.55-.11-6.72-3.52-6.34Z"/>
      <path d="M114.65,254.66c.14.11,1.36,1.69,1.45,1.88.86,1.74-1.48,7.29-2.78,8.84.25.27.33.35.71.34,1.11-.02,3.08-.9,3.76.31,1.1,1.96-2.76,2.44-4.06,2.61-1.66.22-4.3.88-4.4-1.38l2.51-3.93c.58-2.27,2.31-4.26,1.91-6.69-2.09-.45-2.9,2.6-4.58,1.81-1.2-.56-.24-1.85.37-2.62,1.09-1.36,3.58-2.36,5.1-1.18Z"/>
      <path d="M105.58,254.45c.2,1.58.05,3.16.22,4.73.27,2.55,1.07,5.61,1.13,8.14.03,1.25-.87,2.34-1.93,1.32-.94-.91-.49-3.42-.65-4.83s-.75-2.84-.65-4.36c-.7.23-2.5.84-3,.26-.73-1.85,1.08-2.4,2.05-3.32.41-.38.5-.99.81-1.24.08-.07,1.94-.78,2.02-.71Z"/>
      <path d="M119.94,265.2c-.96-.82-.39-2.85,1.23-2.55,2.39.43.37,3.92-1.23,2.55Z"/>
      <path d="M118.69,257.13c.14-.27,2.17-1.18,2.53-.4.45.47.11,1.24-.17,1.75-.92.65-2.94-.2-2.36-1.36Z"/>
      <path d="M100.36,108.78c.17.09.72,1.68.78,2.03.47,2.55.88,7.9.84,10.5,0,.35-.02.99-.26,1.23-3.71,1.58-2.71-2.19-2.88-4.7-.03-.37.46-1.41-.38-1.12-.59.2-1.09,1.23-1.79,1.39-.99.23-3.25-.94-3.6-1.86-.39-1.02-.4-4.92-.04-6,.51-1.56,2.76-2.52,4.28-2.4.96.07,1.19.68,1.88.91.35.12.91-.12,1.17.01ZM96.69,109.95c-2.09.83-2.74,5.36.14,5.27,3.06-.1,2.67-5.03-.14-5.27Z"/>
      <path d="M116.59,119.6c-2.63,3.64-6.58,1.61-7.65-2.12-1.05-3.68.41-13.28,5.78-9.9,3.09,1.94,3.92,9.17,1.87,12.02ZM112.59,108.91c-2.4,1.83-2.21,5.28-1.52,7.93.32,1.25,1.2,2.18,2.57,1.98,2.96-.43,1.89-9.17-1.05-9.91Z"/>
      <path d="M120.72,119c-2.4-2.58-2.03-9.22.41-11.78,3.33-3.49,5.93,1.32,6.56,4.35.72,3.47.02,9.83-4.98,8.65-.18-.04-1.88-1.1-1.99-1.22ZM125,117.24c1.49-1.81.67-9.54-2.2-8.9-2.1.47-2.51,7.03-.81,8.55.66.59,2.35,1.16,3.01.35Z"/>
      <path d="M106.98,116.83c1.11,1.76-.77,2.2-2.29,2.07-1.24-1.86.62-2.81,2.29-2.07Z"/>
      <path d="M104.77,110.72c2.32-.69,1.87,2.17.42,2.36-1.6.21-2.05-1.88-.42-2.36Z"/>
      <path d="M132.81,155.08c2.29,1.95,3.65,9.98,1.27,12.02-2.62,2.24-6.28,1.12-7.46-2.1-1.12-3.03-.63-6,1.02-8.67,1.31-2.13,3.08-3.03,5.17-1.25ZM130.16,156.61c-2.18.65-2,5.04-1.66,6.79.38,1.94,1.11,2.07,2.91,2.38,2.53-1.6,1.78-6.73.42-8.77-.41-.61-1.01-.6-1.67-.4Z"/>
      <path d="M118.07,155.99c.32-.33.13-.46.82-.68,6.6-2.13,7.76,12.28,3.85,13.5-7.36,2.31-8.58-8.82-4.67-12.82ZM121.57,166.62c.18-.12.93-2.36.96-2.75.17-2.38-.22-5.15-2.08-6.77-3.69-.03-2.77,7.54-1.15,9.06.49.46,1.71.86,2.27.46Z"/>
      <path d="M107.8,169.7c-.29.25-2.37.78-2.81.79-1.2.02-2.7-.96-3.25-2.01-1.25-2.37-1.64-5.23-1.07-7.88.22-1.02,1.22-3.24,2.11-3.76,1.11-.65,2.74-.77,3.79.06.41.32,2.05,2.99,2.25,3.57.48,1.37.53,5.78.09,7.15-.07.23-1.02,2.01-1.11,2.09ZM104.96,158.31c-1.65.79-2.25,1.08-2.44,3.01-.09.92.33,4.72.62,5.5.62,1.65,2.5,1.65,3.29-.26,1.11-2.65.36-6.15-1.47-8.25Z"/>
      <path d="M97.89,170.51c-.59.54-1.45.44-1.9-.25l-.79-9.16-2.02.97c-2.69-.9,2.66-5.41,3.21-5.33,1.17.17.63,2.25.68,2.91.16,1.99.3,4,.48,5.98.15,1.61,1,3.17.34,4.88Z"/>
      <path d="M111.47,158.69c.5-.22,1.52-.25,1.98.05l.47.72-.2.88c-.42.61-1.84.72-2.45.34-.73-.4-.45-1.71.2-1.99Z"/>
      <path d="M113.99,164.79c1.18,1.03-.39,2.5-1.74,2.04-.15-.5-.67-1.73-.21-2.11.32-.26,1.72-.13,1.95.07Z"/>
      <path d="M135.36,302.64c.16.17,1.56,4.13,1.59,4.5s-.2,4.67-.31,5.02c-.75,2.49-2.45,3.57-5.04,3.13-2.73-.47-3.5-3.31-3.88-5.71-.45-2.78.38-7.07,3.33-8.26,1.04-.42,3.65.61,4.32,1.32ZM131.96,303.53c-3.5-.01-2.39,7.98-.57,9.22,2.04,1.4,3.23-1.37,3.22-3.12-.01-1.43-.7-6.09-2.64-6.1Z"/>
      <path d="M141.33,314.25c-.19-.08-2.25-1.8-2.38-2.01-1.85-2.94-.81-10.03,2.39-11.66,1.47-.74,3.9.65,4.5,2,.52,1.19,1.47,5.24,1.52,6.53.11,3.24-2.49,6.67-6.03,5.14ZM141.39,311.7c.27.17,1.91.48,2.24.36,2.42-.89.82-7.08-.07-8.66-.69-1.24-2.69-.47-3.13.9-.53,1.62-.64,6.41.96,7.4Z"/>
      <path d="M119.1,302.83c.07.07.99,1.61,1.03,1.74.87,2.75-1.93,6.51-2.63,9.14h3.97c.26,1.16.17,1.51-.9,1.96-1.25.52-6.58,1.69-7.14.17l-.07-.75c1.82-2.14,3.6-5.49,4.29-8.25.33-1.29.81-2.72-.97-2.42-1.5.25-1.93,2.96-3.98,1.4.11-2.86,4.02-5.36,6.39-2.99Z"/>
      <path d="M110.59,317.07c-.34.65-1.8.3-1.97-.29-.42-1.46-.28-4.21-.48-5.9-.08-.68-.39-1.28-.48-1.95-.08-.59.57-1.93-.49-1.77-.7.11-2.27,1.33-2.81-.26-.19-.57,1.33-2.18,1.82-2.39.27-.12.76.12.84.04.04-.05.05-.72.34-1.18.46-.74,1.41-1.38,2.24-.74.98,1.12.19,2.07.19,3.02.01,2.43.58,4.69.78,7.04.05.62.13,4.12,0,4.37Z"/>
      <path d="M123.33,311.27l2.21-.63c1.81,1.48-.7,3.21-2.11,1.84l-.1-1.2Z"/>
      <path d="M124.1,304.37c1.24-.34,2.1.73,1.09,1.74-1.47,1.46-3.23-1.16-1.09-1.74Z"/>
      <path d="M96.7,69.93c-.84-.09-.43.28-.59.67-.44,1.12-1.43,4.37-2.82,4.18-1.34-1.39-1.92-3.24-2.73-4.93-.48.38-.3.83-.33,1.31-.11,1.88.98,9.19-2.54,5.92l.07-11.99c-.07-1.51,1.65-1.87,2.61-.93.57.56,2.7,4.87,2.98,4.9,2.62-.77,1.82-6.48,5.31-5.02l1.63,11.97c-.23,1.01-2.53.9-3.09.3l-.51-6.38Z"/>
      <path d="M126.15,74.12c-1,.26-1.82,1.08-2.9.53-1.02-.52-3.65-5.87-4.8-5.92-.22,0-.48.08-.72.08.11,1.18,1.36,6.36-.41,6.53-3.08.29-1.71-3.17-1.74-4.79-.05-2.95-.39-5.99-.43-8.95.88-.07,2.02-.34,2.73.36,1.52,2.29,2.94,5.13,4.66,7.24.19.24,0,.53.66.32l-.51-6.38c0-.12-.34-.57-.4-1.1-.21-2.19,2.72-1.92,2.76-1.38l1.09,13.47Z"/>
      <path d="M112.08,74.29c-.81.93-2.7,1.59-3.92,1.81-9.47,1.74-7.49-15.8.44-14.42,1.6.28,3.09,1.89,3.79,3.3.96,1.93,1.45,5.68.66,7.64-.16.41-.7,1.35-.98,1.67ZM107.04,64.59c-3.19.99-3.93,11.53,1.64,8.79,4.02-1.97,2.61-10.11-1.64-8.79Z"/>
      <path d="M158.23,69.44c1.55-1.29.94-4.39.9-6.02-.01-.54.25-1.09.2-1.75-.07-1.02-.81-2.55-.65-3.31.27-1.33,2.67-1.58,3.05.17.55,2.53.56,9.07-.68,11.33-2.13,3.89-9,3.18-8.88-1.98l-.07-8.8c.2-.84,2.21-.95,2.5.39l.42,9.77c.74.88,2.37.89,3.2.2Z"/>
      <path d="M172.21,58.63l-5.25,1.08.38,3.4c.62.75,4-.88,4.13.94.15,2.03-3.25,1.15-4.06,1.74-1.08,5.83,2.92,2.03,5.4,3,2,.78.2,2.51-1.66,2.59l-.74-.54c.11,1.22-4.14,1.06-4.79.81-.33-.13-.55-.47-.63-.82l-.51-13.49c1.83-.2,3.69-.28,5.53-.44,1.53-.13,2.85-1.06,2.2,1.74Z"/>
      <path d="M149.67,58.59c1.13,2.59-1.69,2.25-3.44,2.49.36,3.3.73,6.47.86,9.77.03.72.64,1.15.12,2.02s-1.93.93-2.56.16c-1.13-1.38-.58-9.01-.97-11.28-.46-1.1-3.61.76-4.27-.89-.95-2.38,3-1.7,4.23-1.85s5.21-1.21,6.03-.42Z"/>
      <path d="M201.82,54.1c.38.34.5,1.17.44,1.68l-2.07,12.25c-3.31,2.3-3.58-2.36-5.08-4.32-1.35.03-1,4.17-1.71,5.14-.67.92-1.89.69-2.78.28-.48-1.69-3.76-12.28-3.28-13.1.39-.66,1.73-.3,2.12.34.93,1.5.97,5.34,1.86,7.12l.94,2.15c.27-1.15.24-5.22,1.41-5.54.33-.09,1.89-.22,2.09-.12l2.67,4.3,1.77-9.92.72-.47c.28-.04.69.01.9.2Z"/>
      <path d="M207.01,60.1c.99,1.04,3.81-.89,3.98.74.2,1.85-2.45,1.41-3.59,1.59l.25.5c-.78.05-.26,2.69.07,2.86.73.35,5.54-1.29,5.61.01-.46.56-.55.97-.1,1.58l-4.3,1.2-.23-.53-.56.03.33.54-1.86.18-.59-.55-.24.59-1.05-1.18-.44-13.55c.37-.65,2.06-.12,2.85-.19,1.27-.11,3.96-1.08,4.89.16.23.31.08.48-.03.77-.77,2.11-3.99.72-4.96,1.6-.71.64-.64,3.02-.03,3.66Z"/>
      <path d="M215.55,67.47c-.94-.62-.96-12.53-.91-14.47,2.3.03,4.38-.34,6.37,1.05,4.11,2.86,3.93,9.45-.19,12.27-1.78,1.22-3.28.88-5.27,1.15ZM221.11,63.52c2.33-3.13.5-8.7-3.83-8.43l-.41.72.43,8.96c1.44-.09,2.86.02,3.8-1.25Z"/>
      <path d="M259.79,64.2c-4.41,1.02-1.79-3.44-3.01-5.63l-4,.32c-.96,1.62.61,3.29-.29,5.05-.44.6-1.92.54-2.3-.1l-.37-13.26c.4-.33,2.2-.28,2.33.16.49,2.01-.07,3.8.17,5.79.72-.3,4.39.16,4.54-.55l.03-6.2c.26-.51,1.57-.66,1.87-.06l1.03,14.48Z"/>
      <path d="M271.87,54.81c.01,1.34-.14,3.75-.59,5.04-1.14,3.27-6.4,4.63-8.2,1.88s-.97-8.96-.78-12.16l1.52-.26c.56.09.68,2.17.7,2.68.1,2.42.03,4.95.01,7.38.34,1.48,2.05,2.07,3.3,1.32,1.13-.68,1.24-2.5,1.36-3.69.13-1.29.25-4.6.09-5.71-.06-.43-.55-.67-.63-1.09-.4-1.94,2.68-2.23,2.75-1.35.15,1.92.46,4.06.48,5.96Z"/>
      <path d="M247.26,50.67c.67,2.37-.99,2.34-2.8,2.31l-.52.78c.1,3.09,1.33,7.67,1.02,10.62-.15,1.37-1.79,1.4-2.49.46-1.26-1.67-.29-11.18-.99-11.72-1.16.15-3.34.94-3.9-.54-.24-.9.2-1.34,1.08-1.5,2.7-.5,5.86-.23,8.62-.41Z"/>
      <path d="M296.63,46.82c.21-.94,4.85-.74,5.87-.38,3.51,1.21,2.7,4.9,1.1,7.38-.36.56-.96.46-.91,1.06.11,1.35,4.21,2.44,4.32,4.48-1.93,3.64-6.44-3.87-7.35-3.22l.61,4.47c-.19.35-2.17.64-2.52.1l-1.12-13.9ZM299.74,53.56c3.2-.6,4.48-5.99.33-5.4-1.19.28-.66,5.2-.33,5.4Z"/>
      <path d="M288.85,53.01c1.55.52,4.31-1.34,4.32,1.16,0,1.55-2.74,1.18-3.83,1.37-.22,1.67,1.05,3.8.53,5.32-.19.54-1.8.88-2.2.7-1.25-.54-.89-5.63-.95-6.8-.12-2.41-.68-4.85-.28-7.24,1.32.17,6.97-1.41,7.81-.39.39.48.1,1.75-.47,2-1.07.46-3.69-.09-4.49.67l-.43,3.2Z"/>
      <path d="M309.13,59.59c-.91-.77-.58-11.61-1.14-13.4-.01-.96,1.46-1.06,2.11-.6.48.34.32,2.98.43,3.83.41,2.99.85,5.99,1.3,8.99.32,1.42-2.09,1.69-2.7,1.18Z"/>
      <path d="M176.05,88.12c-.03,1.08.58,2.01.77,2.97,1.21,6.09,1.14,13.48,1.67,19.78.33,3.97,1.4,8.12.97,12.16-.05.48-.17,1.34-.53,1.66-1.09.98-6.81,1.36-8.46,1.51-6.92.63-14.1.54-21.03,1.11-1.26.1-4.49,1.26-5.55.33-.29-.25-.74-2.5-.82-3.07-.66-4.48-.55-10.1-.84-14.74-.34-5.23-1.25-10.86-.93-16.11.09-1.42.68-2.57,2.13-2.94,1.82-.48,3.77-.35,5.57-.55,7.82-.86,15.68-1.5,23.56-2.17.52-.04,3.35-.16,3.52.06ZM162.89,90.85c-.39.56-1.59.13-1.66.18s-.06.45-.3.66c-.2.18-.65.16-.74.29-.16.21.06.86-.21,1.27-.41.61-1.22.08-1.07,1.2l-.86-.08.3.79c-1.06.69-1.58,2.29-2.88,2.58.62.98-.6,1.39-1.14,2.19-.13.19-1.05,1.86-.96,1.95.64.56.69-.93,1.36-.97l.4-.84.51.18c1.23-2.68,3.67-5.06,5.7-7.17.4-.42,1.37-.79,1.77-1.41l-.21-.84ZM148.48,92.58l-3.81.85c-.67,1.54-1.24,3.09-.31,4.62l1.19-1.22,2.93-4.25ZM151.76,96.96c.25-.33.99-.57,1.39-1.08.31-.4,1.97-3.14,1.89-3.4-.38-1.29-2.69,1.62-3.1,2.12-1.84,2.25-3.49,4.93-5.65,6.91-.07.07-.44-.09-.64.12-.7.71-1.19,1.41-1.38,2.41l.86.07,5.14-5.41c.23-.11,1.41-.65,1.47-.71.04-.04-.3-.59.02-1.03ZM171.47,91.02c-2.74-.2-1.89.76-2.56,1.91-.28.48-1.21.43-1.44.76-.36.5.25,1.65-1.09,1.45l.6.38c-.65,1.18-2.06,1.94-2.84,2.85-.32.37-.46.28-.27.97l7.6-8.31ZM173.28,97.84c.34-.45,2.12-2.12,1.95-2.71-.64-.82-.95.07-1.58.24-.59.16-2.03.26-2.36.63l.11,1.29-.59-.24c.41,1.11-1.12,1.36-1.56,1.85-.32.35.82.04.62.66-.7,1.29-2.69,1.49-2.6,3.21l-.57-.24c-.1,1.83-2.23,2.33-1.94,4.43l2.72-3.37c2.04-.07,1.73-2.2,2.32-2.77.5-.48,2.48-.59,2.64-.79.1-.13-.03-.93.13-1.33.09-.24.5-.58.71-.85ZM152.72,102.8c-1.01.12-1.86,1.38-2.5,1.84-.19.14-.59-.12-.78.01-.72.51-1.26,1.66-2.11,2.01l.6.37c-.52.57-1.42.09-1.62,1.13l.58.1c-.94,1.24-2.86,1.48-1.87,3.44l7.7-8.9ZM175.43,104.68l-1.98.16c.75,2.97-2.13,2.81-3.31,4.78-.48.8-.61.73.1,1.47l-.54.33,1.18.35,4.56-7.08ZM154.63,108.64l-.18-.55c-.33.53-1.22.36-1.48.51-.44.26-1.29,2.33-2.39,2.42l.28.5-.83.09c0,2.98-5.96,5.74-3.45,8.82.17.06.6-3.35,1.94-2.44l-.27-.65,7.76-8.94c-.6-.96-1.25.36-1.4.25ZM161.4,111.24c-.54-.08-.65.35-.95.64-2.46,2.43-4.5,5.28-6.57,7.68-1.22,1.41-3.78,2.57-3.13,4.8.49.08.15-.41.27-.53.07-.07.51.18.8.01,1.73-1.02,2.85-3.46,4.21-5.14.78-.95,2.02-2.48,2.74-3.28.5-.56,1.64-.47,1.68-1.55l-.96.37-.19-.56,2.08-2.45ZM170.34,121.48c.57-.46.99-1.11,1.49-1.51.8-.64,3.7-2.25,4.05-2.89.6-1.09-.33-2.14-.29-3.28-.04-.05-.79.48-.95.64-2.07,2.22-3.93,5.55-5.93,7.62-.34.35-.95.37-1.23.82-.13.77.93,0,1.12-.1.89-.45,1.12-.79,1.74-1.3ZM158.13,123.77l3.97-.32-.03-.81.81-.12-.62-.41c-.53-1.62,3.1-5.03,4.08-6.28.26-.34.63-.55.48-1.05-.87,1.37-1.85.38-1.95.45-.07.04-.37,1.2-.97,1.28l.25.49-1.13.1.61.52-1.37,1.47c-.84-.38-.33.2-.71.85-.94,1.56-2.84,2.03-3.41,3.84Z"/>
      <path d="M233.6,147.59c-.08.14-.53,0-.47.24l.63.81c1.03,7.24,1.08,14.45,1.19,21.73-3.58.92-7.24,1.01-10.88,1.44-7.88.93-15.88,1.73-23.76,2.52-1.26.13-4.24.58-4.78-.61-.21-2.26-.34-4.56-.54-6.82-.73-8.23-1.25-16.78-2.55-24.94-.13-.83.48-1.52-.45-1.66l-.03-.42c.73-.01.75-.72.75-1.35l-.81.63c.18-1.79.02-3.5,2.15-3.94,3.68-.75,8.8-.8,12.7-1.12,5.52-.46,11.2-.74,16.76-1.04,1.78-.1,7.76-1.21,8.86.14.98,1.21.4,2.76.49,4.09.1,1.47.99,9.84.75,10.29ZM215.37,137.35c.38-.38.34-1.09-.37-.99-1.28.17-2.43,2.18-3.71,2.54l.05.56.82-.35c.35.27-2.56,3.81-3.01,4.23-.26.24-.83.28-1.14.56-1.33,1.18-2.44,2.54-2.82,4.33.77-.73,1.95-.87,1.83-2.15l.84.2c.22-.7.7-1.5,1.14-2.07.81-1.05,2.89-3.64,3.76-4.46.33-.31.67-.49,1.13-.49l-.33-.8c.11-.21,1.61-.91,1.8-1.1ZM208.39,138.27c.13-2.23-2.87.04-3.63.74-1.78,1.63-3.84,5.04-5.87,7.16-.58.61-1.36.69-1.69,1.99.33.31.4.52.87.22.82-.53,2.47-2.72,3.29-3.55,1.38-1.39,2.58-2.73,3.95-4.05.44-.42,1.25-.11.9-1.2.74.39,1.1-.12,1.56-.8.28-.4-.37-1.04.61-.52ZM196.21,142.96c.48-.22.86-.57,1.21-.94.27-.28,2.24-2.86,2.32-3.05.17-.4.15-.46-.2-.71-1.2-.46-2.73.28-3.21,1.37s.21,2.2-.13,3.33ZM217.79,142.84c.24-.24.37-.78.7-1.11,1.34-1.34,2.68-2.62,3.82-4.15-2.69-2.21-3.92,1.89-5.14,3.55-3.59,4.88-7.19,10.3-11.52,14.5-.55.53-1.78.62-1.74,1.56l-.6-.52c-.68.77-.14,1.31-.28,1.73-.09.25-1.4,1.66-1.72,1.99-.49.5-1.36.29-1.02,1.38l-.56.04-.17-.53-.99.34.37,1.11-.58-.09.51,2.37c2.13.34,2.96-4.63,3.61-5.07.29-.19.73-.1,1.07-.15l-.61-.52c2.27-.34,2.78-3.51,4.2-4.75.47-.41,1.04-.19,1.63-.69,1.28-1.07,1.24-2.88,2.81-3.58l-.29-.5,1.14-.1-.28-.5c.61-.35.9-.82,1.63-.46-1.34-3.44,2.43-4.27,4-5.84ZM224.72,141.33c.17-.28,2.09-1.93,1.71-2.23-1.18.52-1.27,2.1-2.7,1.93l.25.49c-1.04.07-.04,2.33.51,1.73-.42-.66-.15-1.3.23-1.92ZM229.21,141.73l-10.57,13.98c1.4.47,1.3-.52,1.94-.88.32-.18.78.1.82.07.05-.04.19-.9.48-1.31.86-1.22,3.5-4.28,4.56-5.36,1.99-2.01,3.73-1.97,3.11-5.48-.06-.36-.28-.66-.35-1.01ZM203.89,149.76c-.52.36-1.01.13-1.54.4-1.18.59-.83,1.39-1.2,2.02-.33.55-2.91,2.52-3.59,2.99l.18,3.07.26-.57.85.2c-.98-1.95,2.11-1.47,1.15-3.52l1.4-.14-.28-1.68c1.17-.56,3.22-1.13,2.78-2.78ZM216.29,151.33c-.25-.21-1.68,1.34-1.92,1.6-1.21,1.29-3.23,4.28-4.51,5.22-.39.28-.61.06-1,.05-.08.08.36.44.22.82-.23.62-2.76,3.14-3.41,3.99-1.19,1.58-2.24,3.65-3.31,5.11-.36.48-1.14.43-1.6,1.01-1.25,1.56.92,1.51,2.07,1.23,1.52-.38,1.46-2.16,2.22-3.41.63-1.03,2.08-2.38,3.13-3l-.04-.56c-1.79.89-1.2-1.55.21-.87l-.63-.8c2.4.62,1.64-1.1,2.02-2.35.36-1.19,1.33-2.42,2.67-2.38l1.29-2.88.84.21c-.25-1.19.77-.85,1.28-1.72-.16-.44.82-1,.48-1.28ZM227.8,158.23c.31-.33.82-.41,1.12-.79.45-.59.08-1.09.2-1.44.27-.73,1.79-1.37.9-2.63-1.43,1.25-2.76,2.58-3.7,4.25-.24.43-.26,1.16-.3,1.21-.02.03-.4-.23-.5-.16-.96.66-2.73,4.01-3.65,4.96-.29.3-.45.3-.83.19l.05.84c-1.34-.56-.77.4-1.07.78-.63.77-2.17,1.27-2.05,2.89,1.98.67,3.67-3.42,4.34-3.71.38-.16,1.02.49,1.02-.72l.89.5-.34-.66.79-.95-.61-.51c.58-.95,1.27-1.52,2.2-2.11.25-.16.71.01.73-.02.18-.22.13-1.16.84-1.92ZM218.7,159.99c-.5-.09-.55.25-.82.49-.71.64-1.83,1.98-2.51,2.76-.45.51-5.34,6.3-5.01,6.55.57.08.65-.34.92-.67.74-.9,1.54-2.37,2.29-3.2,1.33-1.47,2.91-2.59,4.77-3.34l-.66-1.08c1.04.16.94-.67,1.02-1.51ZM230.6,162.45l-2.31,1.99-1.83,3.19c.55.07,1.07-.61,1.53-.59.28.01.57.52.72.4.03-.02-.07-.38.05-.48.25-.21.69-.06.97-.24.06-.04.92-1.1.96-1.17.64-1.08.1-1.99-.09-3.11Z"/>
      <path d="M317.56,175.42l.27-.54c1.71.33,6.3-1,6.92,1.26.3,1.1-.03,2.26.08,3.25.75,6.44,1.92,12.92,2.07,19.43l1.48,13.4c-.21.34-.45.67-.83.84-.35.16-4.49.45-5.32.53-7.52.75-17.01,1.93-24.41,1.97-.7,0-1.4-.11-2.09-.18-.81-1.28-.27-2.51-.35-3.76-.56-9.36-1.41-18.85-2.59-28.06-.15-1.17.35-1.52-.77-2.79l.58.1c-.5-3.56,2.47-3.75,5.24-4.13,4.84-.67,12.82-1.51,17.59-1.43.57,0,1.01.1,1.46.46l.5-.89.19.56ZM301.85,180.31c1.28-1.77-2.72-1.11-3.51-.5-.17.13-2.3,3.34-2.35,3.55-.17.78.18,1.82.16,2.64.48.08.14-.4.29-.54.06-.05,1.47-.12,1.58-.26.18-.21.15-.77.4-1.08.58-.74,1.21-1.44,1.82-2.16l.51,1.1-.14-1.69,1.39-.41-.61-.51c.14,0,.38-.03.44-.13ZM311.83,178.74c-.97-.36-1.36.15-1.98.3-.32.08-.67-.05-.79,0-.14.06-1.55,2.06-1.89,2.45-1.86,2.15-3.61,4.01-5.7,5.89-.32.29-1.2,1.57-1.51,1.72l-.33-.54c-.86,1.56-2.91,2.68-2.19,4.75l2.78-1.74c.48-1.04,1.45-1.24,1.31-2.59l.61.52.46-1.46.61.52c.22-.73.78-1.8,1.61-1.27l-.05-.82c1.57.23,1.48-.85,1.97-1.24.47-.37,1.24-.51,1.69-1.08.3-.38.26-.85.44-1.08,1.1-1.39,2.81-2.51,2.97-4.34ZM319.76,178.11c-1.09-.1-2.27-.17-2.76,1.06,1.3-.3,1.22.96,2.67.08l.08-1.14ZM322.12,183.1l-1.01-.83c-.57.93-1,1.95-1.63,2.84-.42.6-1.49,1.99-1.96,2.55-1.05,1.25-3.36,2.92-4.22,4.07s-.8,2.57.34,1.34c.92-1,1.77-2.42,2.76-3.46.56-.58,1.55-.95,2-1.99l.75.51.04-1.17.71-.04c-.49-2.11,2.77-1.51,2.22-3.83ZM306.08,192.33c-.11-.08.18-.7-.33-.54l-.08.86-.46-.4c-.32,1.99-.77,1.33-1.69,1.99-.72.52-1.34,1.21-1.7,2.02l-.86-.1c1.06,1.65-1.22,2.11-1.7,2.79-.14.2-.05.66-.28.94-.28.34-.9.38-1.05.56-.11.14-.16,2.93-.63,3.43l1.15-.22.29-1.34c1.39-.06.16-.46.6-1.04.29-.38.94-.48,1.27-.79.55-.55.9-1.51,1.68-2l-.87-.21c1.03-.94,1.93-2.43,2.85-3.39.99-1.03,2.52-1.31,2.9-3.21-.49-.18-.92.78-1.09.66ZM322.53,194.72c.08-.09.25-2.28-.32-2.25-1.3.88-2.23,2.13-3.32,3.25-1.46,1.5-1.23,1.27-2.29,3.07-.8,1.35-3.07,3.05-3.95,4.35-.18.27-.15.87-.23.94-.04.04-.35-.22-.49-.15-.07.04-.19.8-1.14.61l.04.82-.59-.25c.6,1.14.1.66-.47,1.31-1.14,1.28-1.97,2.74-3.29,3.84l-.66-.2-.46,1.73c2.46.35,2.9-1.23,4.26-2.59.72-.72,1.4-.2,1.39-1.44,1.1.23.31-.15.38-.6.06-.39.53-.53.35-1.03l-.56.19,1.03-1.36.21.84,1.18-1.51.55-.06.05.56c.65-.68,1.75-1.74,1.47-2.97l.58.24c.19-3.11,2.13-4.05,4.11-5.88.43-.4.66-1.19.94-1.4.42-.3,1.15,0,1.21-.07ZM303.94,206.09c.62-.79,2.47-2.94,2.74-3.63.22-.57-.2-1.08-.1-1.42.15-.55.82-.75.66-1.39-.42.46-1.15.7-1.54,1.07-1.08,1.01-6.26,7.98-6.67,9.25-.08.25-.33,1.44-.25,1.5.58.08.75-.19,1.11-.5,1.14-.99,3.04-3.57,4.05-4.87ZM323.94,201.45c-.23-.22-1.62.88-1.75,1.01-.43.46-1.06,1.51-1.56,2.13-.54.67-1.27.51-.87,1.77l-.61-.52c-.19,1.2-1.45,2.07-2.07,2.86-.24.31-.12.79-.24.98-.03.05-1.02-.26-.75.68l2.84-.23c-.13-.27-.29-.48-.21-.82.09-.4,2.15-2.92,2.58-3.37s2.58-1.95,2.77-2.28c.06-.1-.24-1.84-.13-2.21Z"/>
      <path d="M285.77,228.31c.7.53,1.39,3.4,1.3,4.19-.04.36-.7.04-.54.51l.59.1c-1.11,1.77-.11,2.73.05,4.29.74,7.21,1.08,15.32,1.13,22.55.01,1.67.81,4.84-1.36,5.5-.8.25-3.17.57-4.15.69-7.27.91-16.54,1.9-23.82,2.21-1.45.06-3.24.05-4.65-.28-.27-.26-.99-4.61-1.09-5.4-.77-6.4-.83-13.19-1.3-19.59-.24-3.32-.99-7.35-.73-10.45.08-1.01.48-2.52,1.57-2.81,3.68-.97,8.69-.31,12.55-.6,5.43-.4,11.79-1.76,17.17-1.56.89.03,2.6.13,3.28.65ZM259.07,232.37c-.77-.56-2.98.1-3.53.83-.78,1.04-.42,3.12-.33,4.33.44-.02.41-.78.53-.87.09-.07.82.28,1.12.16.02-.49-.83-.29-.9-.64-.06-.28,1.81-2.39,2.36-2.48-.11-.4.82-1.29.75-1.34ZM265.61,232.13l-.56.04c.03,1.21-1.54,2.23-2.3,3.26-2.55,3.48-3.09,4.06-6.17,6.85-.62.56-1.06.16-1.31,1.53-.08.42.12.74.09.98-.05.39-.51.55-.34,1.03l1.13-.09c-.59-.96.53-.93.93-1.33.82-.83,1-1.96,2.04-2.61l.19.54.41-.02c.42-.65.54-1.29,1.47-1.26l-.92-.78c.43-.39,1.85-1.11,2.12-1.36.04-.03-.25-.43.1-.82,1.55-1.73,3.52-2.69,4.4-4.88l.54.2.17-1.44-1.79.73-.19-.57ZM272.56,235.39c.23-.23.68-.3.99-.61.86-.87,1.68-1.95,2.61-2.8-.04-.68-2.99,0-3.33.2-.24.14-3.24,3.52-3.62,4.04-.79,1.07-1.63,3.03-2.49,4.1-1.14,1.42-3.18,2.35-3.8,4.29.47.04.76-.27,1.08-.53,3.08-2.53,5.73-5.84,8.57-8.68ZM283.01,231.87c-.5.19-1.19-.21-1.56-.16-.15.02-.13.4-.24.48-.25.17-.62.13-.69.19-.06.05.19,1.14-.22,1.55,1.51.42-.45,1.28-.89,1.74-.62.65-1.39,1.58-1.9,2.34l3.94-2.98c.46-1.2,1.93-1.75,1.55-3.17ZM282.32,241.05l.43-1.74c-2.02.63-2.51,3.01-4.23,3.93l-4.23,4.45,1.51-.41.8.8c-.16-.71.35-.36.66-.61,1.95-1.56,3.61-3.74,5.56-5.33l.33-1.44-.82.35ZM272.2,243.01c-.17-.13-1.75,1.08-1.96,1.29-1.39,1.42-2.87,4.35-4.98,4.69.58.51-.71,1.7-1.42,1.55l-.61-.52c-1.09.5-1.46,1.52-2.11,2.17-1.47,1.46-3.14,2.73-4.07,4.45-.18.34-.64.55-.73.98-.19.89.35,1.69.31,2.34-.03.48-.85,1.76-.58,2.04,2.32-1.85,3.06-5.05,6.39-5.66l-.05-.56-.84.21c1.38-1.66,2.92-3.04,4.82-4.09.82-1.08-1.99.52-1.75-.43,1.57-1.79,3.14-3.8,4.9-5.39.3-.27.94-.36,1.46-.82.7-.62.6-1.58,1.23-2.25ZM261.87,245.84l-2.63,1.72c-.25.5-.67,1.57-.94,1.99-.15.23-1.15-.02-.89,1.21l2.34-2.23-.27-.49c1.24-.42,2.17-.88,2.39-2.2ZM284.55,247.44c-.68-.03-1.11.57-1.65.81-.27.12-.75-.11-.82-.02s.05.62-.24.99c-.51.66-2.49,1.81-2.79,2.4-.71,1.42-.52,2.19-2.19,3.42-.67.5-1.46-.09-1.27,1.69-.74-.48-.45.15-.88.45-1.31.95-2.33,1.59-3.29,3.02.99,1.45-.13.75-.7,1.21-.28.23-.31.63-.62.89-.47.38-1.59.17-1.36,1.54,2.66.4,1.86-1.12,2.75-2.15.7-.81,2.7-1.83,3.36-2.42.33-.3,1.35-2.47,1.93-3.11,1.51-1.69,3.74-3.43,5.47-5.25.42-.44,1.87-1.45,2.02-1.74.21-.42-.36-1.16.28-1.72ZM270.3,254.87c-.39-.25-2.2.88-2.47,1.21-1.56,1.91-3.7,4.07-5.3,5.98-.28.33-1.56,1.75-1.19,2.09.38-.62,1.09-.33,1.31-.46.63-.36,2.05-3.03,2.49-3.57,1.06-1.33,2.59-2.5,3.27-3.96l.55-.04.19.54,1.14-1.8ZM283.48,257.88c.5-.84,1.88-1.33,1.11-2.74-.83.57-1.71.31-1.58,1.42l-1.14.23.61.52c-1.09-.17-2.04,1.15-2.11,2.17l-.47-.53c-.8,1.4-2.34,2.49-2.09,4.16,2.34.27,1.54-.23,2.05-1.28.34-.7,2.5-3.01,3.35-2.57-.02-.49.01-.93.27-1.37Z"/>
      <path class="cls-1" d="M121.91,206.64c.42-.15,1.72.34,1.98.67.91,1.14,1.39,6.93.23,8.09-3.33,3.32-5.53-7.62-2.21-8.76Z"/>
      <path class="cls-1" d="M132.41,205.8c1.65-.59,2.66,1.89,3.05,3.13.71,2.29.45,5.47-2.06,6.45l-2.09-1.25c-.62-1.65-.89-7.61,1.11-8.33Z"/>
      <path class="cls-1" d="M127.56,255.59c2.36-.4,3.41,7.37,1.55,8.96-2.82,2.41-4.38-6.21-2.94-8.04.33-.42.91-.69,1.38-.92Z"/>
      <path class="cls-1" d="M137.11,254.55c3.41-.38,3.58,3.79,3.52,6.34-.1,4.99-4.13,4.13-4.63-.75-.23-2.19-.14-3.7,1.1-5.59Z"/>
      <path class="cls-1" d="M96.69,109.95c2.81.24,3.2,5.17.14,5.27-2.88.09-2.23-4.44-.14-5.27Z"/>
      <path class="cls-1" d="M112.59,108.91c2.94.74,4.01,9.48,1.05,9.91-1.37.2-2.25-.73-2.57-1.98-.68-2.66-.88-6.11,1.52-7.93Z"/>
      <path class="cls-1" d="M125,117.24c-.67.81-2.35.24-3.01-.35-1.7-1.52-1.29-8.08.81-8.55,2.87-.65,3.69,7.09,2.2,8.9Z"/>
      <path class="cls-1" d="M130.16,156.61c.65-.2,1.26-.21,1.67.4,1.36,2.04,2.12,7.17-.42,8.77-1.8-.31-2.53-.44-2.91-2.38-.34-1.75-.52-6.14,1.66-6.79Z"/>
      <path class="cls-1" d="M121.57,166.62c-.57.39-1.78,0-2.27-.46-1.62-1.51-2.54-9.09,1.15-9.06,1.86,1.62,2.24,4.39,2.08,6.77-.03.39-.78,2.63-.96,2.75Z"/>
      <path class="cls-1" d="M104.96,158.31c1.84,2.09,2.58,5.59,1.47,8.25-.8,1.91-2.68,1.91-3.29.26-.29-.78-.71-4.58-.62-5.5.19-1.93.8-2.22,2.44-3.01Z"/>
      <path class="cls-1" d="M131.96,303.53c1.94,0,2.63,4.66,2.64,6.1.02,1.76-1.18,4.52-3.22,3.12-1.81-1.24-2.93-9.23.57-9.22Z"/>
      <path class="cls-1" d="M141.39,311.7c-1.6-.99-1.48-5.78-.96-7.4.45-1.38,2.44-2.14,3.13-.9.89,1.58,2.48,7.77.07,8.66-.34.12-1.97-.19-2.24-.36Z"/>
      <path class="cls-1" d="M107.04,64.59c4.25-1.32,5.66,6.82,1.64,8.79-5.57,2.73-4.83-7.8-1.64-8.79Z"/>
      <path class="cls-1" d="M221.11,63.52c-.95,1.27-2.36,1.17-3.8,1.25l-.43-8.96.41-.72c4.33-.27,6.16,5.3,3.83,8.43Z"/>
      <path class="cls-1" d="M299.74,53.56c-.33-.2-.86-5.11.33-5.4,4.15-.59,2.87,4.79-.33,5.4Z"/>
      <path class="cls-1" d="M154.63,108.64c.15.11.8-1.22,1.4-.25l-7.76,8.94.27.65c-1.35-.91-1.77,2.5-1.94,2.44-2.51-3.07,3.46-5.83,3.45-8.82l.83-.09-.28-.5c1.1-.09,1.95-2.16,2.39-2.42.25-.15,1.14.02,1.48-.51l.18.55Z"/>
      <path class="cls-1" d="M173.28,97.84c-.21.28-.62.62-.71.85-.16.4-.02,1.21-.13,1.33-.16.2-2.14.31-2.64.79-.59.57-.28,2.7-2.32,2.77l-2.72,3.37c-.3-2.1,1.84-2.61,1.94-4.43l.57.24c-.09-1.72,1.91-1.92,2.6-3.21.2-.62-.94-.3-.62-.66.44-.49,1.97-.73,1.56-1.85l.59.24-.11-1.29c.33-.37,1.77-.47,2.36-.63.63-.18.93-1.07,1.58-.24.17.59-1.61,2.25-1.95,2.71Z"/>
      <path class="cls-1" d="M161.4,111.24l-2.08,2.45.19.56.96-.37c-.04,1.08-1.18.99-1.68,1.55-.72.8-1.97,2.33-2.74,3.28-1.37,1.67-2.49,4.12-4.21,5.14-.29.17-.73-.08-.8-.01-.13.12.22.61-.27.53-.65-2.23,1.91-3.39,3.13-4.8,2.07-2.4,4.11-5.25,6.57-7.68.3-.29.41-.72.95-.64Z"/>
      <path class="cls-1" d="M170.34,121.48c-.61.5-.84.84-1.74,1.3-.19.1-1.25.87-1.12.1.27-.45.89-.47,1.23-.82,2.01-2.07,3.86-5.4,5.93-7.62.16-.17.91-.69.95-.64-.05,1.14.89,2.19.29,3.28-.35.64-3.25,2.25-4.05,2.89-.49.39-.92,1.04-1.49,1.51Z"/>
      <path class="cls-1" d="M158.13,123.77c.57-1.81,2.48-2.28,3.41-3.84.39-.64-.12-1.22.71-.85l1.37-1.47-.61-.52,1.13-.1-.25-.49c.6-.07.9-1.23.97-1.28.1-.06,1.09.92,1.95-.45.15.5-.21.71-.48,1.05-.98,1.25-4.61,4.65-4.08,6.28l.62.41-.81.12.03.81-3.97.32Z"/>
      <path class="cls-1" d="M162.89,90.85l.21.84c-.4.62-1.37.99-1.77,1.41-2.03,2.11-4.47,4.49-5.7,7.17l-.51-.18-.4.84c-.67.04-.72,1.52-1.36.97-.1-.08.83-1.75.96-1.95.54-.8,1.77-1.21,1.14-2.19,1.31-.29,1.82-1.88,2.88-2.58l-.3-.79.86.08c-.15-1.12.67-.59,1.07-1.2.28-.41.05-1.06.21-1.27.1-.13.54-.11.74-.29.24-.21.23-.61.3-.66s1.27.37,1.66-.18Z"/>
      <path class="cls-1" d="M152.72,102.8l-7.7,8.9c-1-1.96.93-2.2,1.87-3.44l-.58-.1c.2-1.04,1.1-.56,1.62-1.13l-.6-.37c.85-.35,1.4-1.51,2.11-2.01.19-.13.58.13.78-.01.64-.46,1.49-1.72,2.5-1.84Z"/>
      <path class="cls-1" d="M151.76,96.96c-.33.44.02.99-.02,1.03-.06.06-1.24.6-1.47.71l-5.14,5.41-.86-.07c.19-1,.68-1.7,1.38-2.41.2-.21.57-.05.64-.12,2.16-1.98,3.81-4.67,5.65-6.91.41-.5,2.73-3.41,3.1-2.12.08.27-1.58,3-1.89,3.4-.39.5-1.14.74-1.39,1.08Z"/>
      <path class="cls-1" d="M148.48,92.58l-2.93,4.25-1.19,1.22c-.93-1.53-.36-3.07.31-4.62l3.81-.85Z"/>
      <path class="cls-1" d="M175.43,104.68l-4.56,7.08-1.18-.35.54-.33c-.71-.74-.58-.67-.1-1.47,1.18-1.97,4.06-1.81,3.31-4.78l1.98-.16Z"/>
      <path class="cls-1" d="M171.47,91.02l-7.6,8.31c-.19-.69-.05-.6.27-.97.79-.9,2.19-1.67,2.84-2.85l-.6-.38c1.33.2.73-.95,1.09-1.45.23-.32,1.17-.28,1.44-.76.67-1.15-.19-2.12,2.56-1.91Z"/>
      <path class="cls-1" d="M229.21,141.73c.07.35.29.65.35,1.01.62,3.52-1.12,3.48-3.11,5.48-1.07,1.08-3.71,4.14-4.56,5.36-.29.41-.43,1.27-.48,1.31-.05.04-.51-.25-.82-.07-.64.36-.54,1.35-1.94.88l10.57-13.98Z"/>
      <path class="cls-1" d="M216.29,151.33c.34.28-.64.84-.48,1.28-.51.86-1.53.52-1.28,1.72l-.84-.21-1.29,2.88c-1.33-.05-2.31,1.19-2.67,2.38-.38,1.25.37,2.97-2.02,2.35l.63.8c-1.41-.68-2.01,1.77-.21.87l.04.56c-1.05.62-2.5,1.97-3.13,3-.76,1.25-.7,3.03-2.22,3.41-1.14.28-3.31.33-2.07-1.23.47-.58,1.25-.53,1.6-1.01,1.07-1.46,2.12-3.53,3.31-5.11.64-.86,3.18-3.37,3.41-3.99.14-.39-.3-.74-.22-.82.4,0,.61.23,1-.05,1.28-.94,3.3-3.93,4.51-5.22.25-.26,1.67-1.81,1.92-1.6Z"/>
      <path class="cls-1" d="M227.8,158.23c-.71.76-.66,1.7-.84,1.92-.02.03-.48-.14-.73.02-.93.59-1.62,1.16-2.2,2.11l.61.51-.79.95.34.66-.89-.5c0,1.21-.64.55-1.02.72-.67.29-2.35,4.38-4.34,3.71-.12-1.62,1.42-2.12,2.05-2.89.31-.38-.26-1.34,1.07-.78l-.05-.84c.37.11.54.1.83-.19.92-.95,2.69-4.3,3.65-4.96.11-.07.48.19.5.16.04-.05.06-.78.3-1.21.95-1.67,2.27-3,3.7-4.25.9,1.26-.63,1.9-.9,2.63-.13.35.25.85-.2,1.44-.29.38-.8.45-1.12.79Z"/>
      <path class="cls-1" d="M217.79,142.84c-1.57,1.57-5.34,2.41-4,5.84-.72-.36-1.02.12-1.63.46l.28.5-1.14.1.29.5c-1.57.7-1.53,2.5-2.81,3.58-.59.5-1.16.28-1.63.69-1.42,1.24-1.93,4.41-4.2,4.75l.61.52c-.34.05-.78-.04-1.07.15-.65.44-1.48,5.41-3.61,5.07l-.51-2.37.58.09-.37-1.11.99-.34.17.53.56-.04c-.34-1.09.53-.88,1.02-1.38.32-.33,1.64-1.74,1.72-1.99.14-.42-.4-.96.28-1.73l.6.52c-.04-.94,1.19-1.03,1.74-1.56,4.33-4.2,7.93-9.62,11.52-14.5,1.22-1.66,2.44-5.75,5.14-3.55-1.13,1.53-2.48,2.81-3.82,4.15-.34.34-.46.87-.7,1.11Z"/>
      <path class="cls-1" d="M208.39,138.27c-.98-.52-.34.11-.61.52-.46.67-.82,1.19-1.56.8.34,1.09-.47.78-.9,1.2-1.36,1.32-2.57,2.66-3.95,4.05-.81.82-2.47,3.02-3.29,3.55-.47.3-.54.09-.87-.22.33-1.3,1.1-1.39,1.69-1.99,2.03-2.12,4.09-5.53,5.87-7.16.76-.7,3.76-2.97,3.63-.74Z"/>
      <path class="cls-1" d="M215.37,137.35c-.19.19-1.69.89-1.8,1.1l.33.8c-.46,0-.8.18-1.13.49-.87.83-2.95,3.42-3.76,4.46-.44.58-.92,1.37-1.14,2.07l-.84-.2c.13,1.28-1.06,1.42-1.83,2.15.38-1.8,1.49-3.16,2.82-4.33.32-.28.89-.32,1.14-.56.44-.42,3.36-3.96,3.01-4.23l-.82.35-.05-.56c1.27-.36,2.42-2.36,3.71-2.54.7-.1.75.61.37.99Z"/>
      <path class="cls-1" d="M230.6,162.45c.19,1.12.73,2.03.09,3.11-.04.06-.9,1.12-.96,1.17-.27.18-.71.03-.97.24-.12.1-.03.45-.05.48-.15.12-.44-.38-.72-.4-.45-.02-.98.66-1.53.59l1.83-3.19,2.31-1.99Z"/>
      <path class="cls-1" d="M196.21,142.96c.34-1.14-.34-2.29.13-3.33s2.01-1.83,3.21-1.37c.35.25.37.31.2.71-.08.18-2.05,2.76-2.32,3.05-.36.38-.74.73-1.21.94Z"/>
      <path class="cls-1" d="M203.89,149.76c.44,1.64-1.62,2.22-2.78,2.78l.28,1.68-1.4.14c.96,2.05-2.12,1.56-1.15,3.52l-.85-.2-.26.57-.18-3.07c.68-.47,3.26-2.44,3.59-2.99.38-.63.03-1.43,1.2-2.02.53-.27,1.02-.04,1.54-.4Z"/>
      <path class="cls-1" d="M218.7,159.99c-.08.84.02,1.67-1.02,1.51l.66,1.08c-1.86.76-3.44,1.87-4.77,3.34-.75.83-1.56,2.3-2.29,3.2-.27.33-.35.75-.92.67-.32-.26,4.57-6.04,5.01-6.55.68-.78,1.8-2.11,2.51-2.76.27-.24.32-.58.82-.49Z"/>
      <path class="cls-1" d="M224.72,141.33c-.39.62-.66,1.26-.23,1.92-.55.59-1.54-1.66-.51-1.73l-.25-.49c1.43.17,1.52-1.42,2.7-1.93.37.31-1.54,1.96-1.71,2.23Z"/>
      <path class="cls-1" d="M311.83,178.74c-.16,1.82-1.87,2.95-2.97,4.34-.18.23-.13.7-.44,1.08-.45.56-1.22.71-1.69,1.08-.49.39-.4,1.47-1.97,1.24l.05.82c-.83-.54-1.4.54-1.61,1.27l-.61-.52-.46,1.46-.61-.52c.14,1.34-.83,1.54-1.31,2.59l-2.78,1.74c-.72-2.07,1.34-3.18,2.19-4.75l.33.54c.31-.15,1.18-1.43,1.51-1.72,2.1-1.88,3.85-3.74,5.7-5.89.34-.39,1.75-2.39,1.89-2.45.12-.06.48.07.79,0,.62-.15,1.01-.66,1.98-.3Z"/>
      <path class="cls-1" d="M322.53,194.72c-.06.07-.79-.24-1.21.07-.28.2-.5,1-.94,1.4-1.98,1.83-3.92,2.77-4.11,5.88l-.58-.24c.28,1.24-.82,2.3-1.47,2.97l-.05-.56-.55.06-1.18,1.51-.21-.84-1.03,1.36.56-.19c.18.49-.29.63-.35,1.03-.07.45.72.83-.38.6,0,1.24-.67.72-1.39,1.44-1.37,1.36-1.81,2.94-4.26,2.59l.46-1.73.66.2c1.32-1.1,2.15-2.56,3.29-3.84.58-.65,1.08-.16.47-1.31l.59.25-.04-.82c.95.19,1.07-.57,1.14-.61.14-.08.45.18.49.15.08-.07.05-.67.23-.94.87-1.3,3.14-3,3.95-4.35,1.07-1.8.84-1.57,2.29-3.07,1.09-1.12,2.02-2.37,3.32-3.25.57-.03.39,2.16.32,2.25Z"/>
      <path class="cls-1" d="M303.94,206.09c-1.01,1.3-2.91,3.88-4.05,4.87-.36.32-.53.58-1.11.5-.08-.06.17-1.24.25-1.5.41-1.26,5.59-8.24,6.67-9.25.39-.37,1.12-.61,1.54-1.07.16.64-.51.83-.66,1.39-.09.34.33.85.1,1.42-.27.68-2.12,2.83-2.74,3.63Z"/>
      <path class="cls-1" d="M301.85,180.31c-.07.09-.31.13-.44.13l.61.51-1.39.41.14,1.69-.51-1.1c-.61.72-1.23,1.42-1.82,2.16-.25.32-.23.87-.4,1.08-.12.14-1.52.21-1.58.26-.15.14.18.62-.29.54.02-.82-.33-1.86-.16-2.64.04-.21,2.18-3.42,2.35-3.55.8-.61,4.79-1.27,3.51.5Z"/>
      <path class="cls-1" d="M306.08,192.33c.17.13.59-.84,1.09-.66-.38,1.9-1.91,2.18-2.9,3.21-.92.95-1.82,2.45-2.85,3.39l.87.21c-.78.49-1.13,1.46-1.68,2-.32.32-.98.41-1.27.79-.44.57.79.97-.6,1.04l-.29,1.34-1.15.22c.47-.51.52-3.3.63-3.43.15-.18.77-.22,1.05-.56.24-.28.14-.73.28-.94.48-.68,2.75-1.13,1.7-2.79l.86.1c.36-.81.98-1.5,1.7-2.02.92-.66,1.37,0,1.69-1.99l.46.4.08-.86c.51-.15.22.46.33.54Z"/>
      <path class="cls-1" d="M323.94,201.45c-.11.36.19,2.11.13,2.21-.19.33-2.34,1.83-2.77,2.28s-2.49,2.97-2.58,3.37c-.08.33.08.54.21.82l-2.84.23c-.26-.95.72-.63.75-.68.12-.19,0-.67.24-.98.62-.79,1.88-1.66,2.07-2.86l.61.52c-.4-1.26.33-1.1.87-1.77.5-.62,1.12-1.66,1.56-2.13.12-.13,1.51-1.23,1.75-1.01Z"/>
      <path class="cls-1" d="M322.12,183.1c.55,2.31-2.71,1.72-2.22,3.83l-.71.04-.04,1.17-.75-.51c-.44,1.05-1.44,1.41-2,1.99-.99,1.03-1.84,2.45-2.76,3.46-1.14,1.24-1.17-.21-.34-1.34s3.16-2.83,4.22-4.07c.47-.56,1.54-1.95,1.96-2.55.63-.9,1.06-1.92,1.63-2.84l1.01.83Z"/>
      <path class="cls-1" d="M319.76,178.11l-.08,1.14c-1.45.87-1.38-.38-2.67-.08.48-1.23,1.67-1.16,2.76-1.06Z"/>
      <path class="cls-1" d="M272.2,243.01c-.63.67-.53,1.63-1.23,2.25-.52.46-1.16.55-1.46.82-1.76,1.59-3.33,3.6-4.9,5.39-.24.95,2.58-.65,1.75.43-1.9,1.05-3.43,2.43-4.82,4.09l.84-.21.05.56c-3.33.6-4.07,3.81-6.39,5.66-.27-.28.55-1.57.58-2.04.04-.66-.5-1.46-.31-2.34.09-.43.55-.64.73-.98.93-1.72,2.6-2.99,4.07-4.45.65-.64,1.02-1.66,2.11-2.17l.61.52c.71.15,2.01-1.04,1.42-1.55,2.11-.34,3.59-3.27,4.98-4.69.21-.21,1.79-1.43,1.96-1.29Z"/>
      <path class="cls-1" d="M284.55,247.44c-.64.57-.07,1.3-.28,1.72-.15.29-1.6,1.3-2.02,1.74-1.73,1.82-3.96,3.56-5.47,5.25-.57.64-1.59,2.82-1.93,3.11-.66.59-2.66,1.62-3.36,2.42-.89,1.03-.09,2.55-2.75,2.15-.23-1.37.89-1.16,1.36-1.54.31-.25.33-.66.62-.89.58-.46,1.69.23.7-1.21.95-1.43,1.98-2.07,3.29-3.02.42-.3.14-.93.88-.45-.19-1.78.6-1.2,1.27-1.69,1.66-1.24,1.48-2,2.19-3.42.3-.59,2.28-1.74,2.79-2.4.29-.37.17-.9.24-.99s.55.14.82.02c.54-.24.97-.83,1.65-.81Z"/>
      <path class="cls-1" d="M265.61,232.13l.19.57,1.79-.73-.17,1.44-.54-.2c-.87,2.18-2.85,3.15-4.4,4.88-.34.39-.06.78-.1.82-.27.25-1.69.97-2.12,1.36l.92.78c-.93-.03-1.05.61-1.47,1.26l-.41.02-.19-.54c-1.04.65-1.22,1.79-2.04,2.61-.4.4-1.51.38-.93,1.33l-1.13.09c-.17-.48.29-.64.34-1.03.03-.24-.17-.57-.09-.98.25-1.37.69-.97,1.31-1.53,3.08-2.79,3.62-3.37,6.17-6.85.75-1.03,2.33-2.05,2.3-3.26l.56-.04Z"/>
      <path class="cls-1" d="M272.56,235.39c-2.84,2.84-5.48,6.15-8.57,8.68-.32.26-.61.58-1.08.53.63-1.94,2.66-2.87,3.8-4.29.86-1.07,1.7-3.03,2.49-4.1.38-.51,3.38-3.9,3.62-4.04.35-.21,3.29-.88,3.33-.2-.93.85-1.75,1.93-2.61,2.8-.31.31-.77.38-.99.61Z"/>
      <path class="cls-1" d="M282.32,241.05l.82-.35-.33,1.44c-1.95,1.59-3.61,3.76-5.56,5.33-.31.25-.82-.1-.66.61l-.8-.8-1.51.41,4.23-4.45c1.72-.93,2.2-3.3,4.23-3.93l-.43,1.74Z"/>
      <path class="cls-1" d="M283.48,257.88c-.26.44-.29.87-.27,1.37-.85-.44-3.01,1.87-3.35,2.57-.51,1.05.29,1.55-2.05,1.28-.24-1.67,1.29-2.76,2.09-4.16l.47.53c.07-1.02,1.02-2.34,2.11-2.17l-.61-.52,1.14-.23c-.13-1.11.75-.84,1.58-1.42.77,1.41-.61,1.9-1.11,2.74Z"/>
      <path class="cls-1" d="M259.07,232.37c.07.05-.85.94-.75,1.34-.55.09-2.42,2.2-2.36,2.48.07.34.92.15.9.64-.3.12-1.03-.23-1.12-.16-.11.09-.09.85-.53.87-.08-1.22-.45-3.29.33-4.33.54-.73,2.75-1.38,3.53-.83Z"/>
      <path class="cls-1" d="M283.01,231.87c.38,1.41-1.1,1.97-1.55,3.17l-3.94,2.98c.51-.76,1.28-1.69,1.9-2.34.45-.46,2.4-1.32.89-1.74.41-.41.16-1.5.22-1.55.07-.06.44-.02.69-.19.11-.08.09-.46.24-.48.37-.05,1.06.35,1.56.16Z"/>
      <path class="cls-1" d="M270.3,254.87l-1.14,1.8-.19-.54-.55.04c-.68,1.45-2.2,2.63-3.27,3.96-.44.55-1.86,3.21-2.49,3.57-.22.12-.93-.17-1.31.46-.37-.35.91-1.76,1.19-2.09,1.59-1.92,3.74-4.07,5.3-5.98.27-.33,2.08-1.46,2.47-1.21Z"/>
      <path class="cls-1" d="M261.87,245.84c-.21,1.32-1.15,1.78-2.39,2.2l.27.49-2.34,2.23c-.27-1.23.74-.98.89-1.21.27-.42.69-1.49.94-1.99l2.63-1.72Z"/>
    </g>
  </g>
</svg>