<svg width="657" height="115" viewBox="0 0 657 115" fill="none" xmlns="http://www.w3.org/2000/svg">
<g clip-path="url(#clip0_160_472)">
<path d="M77.11 5.43988C77.11 7.06988 76.75 10.0599 76.02 14.4199C75.11 20.5899 74.66 23.7599 74.66 23.9399C74.39 25.8399 73.3 26.8399 71.4 26.9299L37.13 28.9699C35.23 29.0599 34.05 30.0599 33.59 31.9599C32.14 39.2099 31.41 44.7399 31.41 48.5499C31.41 49.9999 32.18 50.7299 33.72 50.7299C38.07 50.7299 43.04 50.5099 48.61 50.0499C54.19 49.5999 59.15 49.3699 63.5 49.3699C65.31 49.3699 66.22 50.2799 66.22 52.0899V52.2299L65.81 69.9099C65.72 72.0899 64.72 73.1699 62.82 73.1699L31.68 73.7099C29.96 73.7099 29.05 75.1199 28.96 77.9299L27.87 105.4C27.78 107.3 26.82 108.3 25 108.39L2.71999 110.29H2.44999C0.80999 110.29 -0.0100098 109.38 -0.0100098 107.57L1.49999 4.61988C1.49999 2.62988 2.44999 1.62988 4.35999 1.62988H4.49999L74.4 2.84988C76.21 2.84988 77.12 3.70988 77.12 5.42988L77.11 5.43988Z" fill="#37251E"/>
<path d="M186.73 96.58C173.31 87.98 163.88 80.14 158.44 73.08C164.6 67.92 168.91 63.26 171.36 59.09C174.8 53.48 176.53 46.64 176.53 38.58C176.53 25.54 170.32 15.62 157.9 8.83002C147.38 3.13002 134 0.27002 117.78 0.27002C103.36 0.27002 90.94 2.36002 80.52 6.53002L78.75 109.62C78.75 110.44 79.25 110.84 80.25 110.84H80.39L107.45 109.34C108.45 109.25 108.99 108.66 109.08 107.56L110.17 85.82L124.18 84.73C128.71 88.99 134.79 93.84 142.4 99.28C151.28 105.54 159.44 110.48 166.88 114.1C167.06 114.28 167.33 114.37 167.7 114.37C168.24 114.37 168.61 114.23 168.79 113.96L187.15 98.07C187.33 97.89 187.42 97.71 187.42 97.53C187.42 97.17 187.19 96.85 186.74 96.58H186.73ZM149.41 53.61C148.34 58.56 145.15 62.55 139.84 65.57C134.88 68.39 129.61 69.3 124.05 68.3C117.72 67.09 112.91 63.58 109.61 57.78C108.82 56.38 108.93 55.44 109.95 54.95L118.61 53.74C127.1 52.56 134.79 48.09 140.02 41.29L143 37.42C144.26 36.71 145.44 37.33 146.55 39.28C149.41 44.31 150.36 49.09 149.41 53.6V53.61Z" fill="#37251E"/>
<path d="M270.37 104.04L195.3 110.3C193.85 110.48 192.94 109.58 192.58 107.58C191.22 98.2399 190.54 83.0099 190.54 61.8799C190.54 35.8599 191.72 16.7699 194.08 4.61988C194.44 2.62988 195.44 1.62988 197.07 1.62988L267.11 2.84988C268.83 2.84988 269.69 3.70988 269.69 5.42988C269.69 7.14988 269.37 10.0499 268.74 14.4099C267.74 20.5799 267.24 23.7499 267.24 23.9299C267.06 25.8299 265.97 26.8299 263.98 26.9199L228.48 28.9599C226.58 29.0499 225.4 30.0499 224.94 31.9499C223.49 38.8399 222.76 43.1499 222.76 44.8699C222.76 46.3199 223.53 47.0499 225.07 47.0499C229.42 47.0499 236 46.7599 244.79 46.1699C253.58 45.5799 260.16 45.2899 264.51 45.2899C266.41 45.2899 267.32 46.2399 267.23 48.1499L266.69 63.7899C266.6 65.7899 265.6 66.8699 263.7 67.0499L224.67 71.5399C223.94 71.6299 223.31 72.1499 222.77 73.0999C222.23 74.0499 221.96 74.9399 221.96 75.7499C221.96 79.2899 223 81.0099 225.09 80.9199L269.29 79.4199C271.1 79.3299 272.1 80.2799 272.28 82.2799L273.1 101.05C273.1 102.86 272.19 103.86 270.38 104.04H270.37Z" fill="#37251E"/>
<path d="M383.38 3.12995L379.57 108.12C379.48 109.12 378.98 109.62 378.07 109.62L348.97 109.89C347.79 109.89 346.7 109.3 345.71 108.12C337.28 97.51 327.76 82.14 317.15 62.02C316.51 61.02 315.79 60.52 314.97 60.52C313.7 60.52 313.02 61.3799 312.93 63.0999L309.53 110.43C309.44 111.34 308.89 111.79 307.9 111.79L278.8 110.16C277.89 110.07 277.44 109.62 277.44 108.8C280.88 79.15 282.79 44.47 283.15 4.75995C283.15 3.93995 283.65 3.53995 284.65 3.53995L320.15 5.03995C321.51 5.12995 322.41 5.71995 322.87 6.80995C326.22 15.24 329.53 23.67 332.8 32.11C337.51 43.53 341.68 51.92 345.31 57.27C345.85 58.36 346.49 58.9 347.21 58.9C348.48 58.9 349.11 58.04 349.11 56.32L349.65 1.91995C349.65 1.09995 350.06 0.699951 350.87 0.699951C356.4 1.78995 363.06 2.32995 370.86 2.32995C371.04 2.32995 374.89 2.14995 382.42 1.78995C382.78 2.05995 383.1 2.51995 383.37 3.14995L383.38 3.12995Z" fill="#37251E"/>
<path d="M482.66 51.2701C482.66 70.4901 477.47 85.1301 467.09 95.2001C456.71 105.26 442.09 110.3 423.23 110.3C409.63 110.3 399.11 109.67 391.68 108.4C390.05 108.13 389.23 107.31 389.23 105.95L390.32 9.12011C390.32 7.31011 391.09 6.13011 392.63 5.58011C400.34 2.77011 409.58 1.36011 420.37 1.36011C440.04 1.36011 454.78 4.62011 464.57 11.1501C476.63 19.1301 482.66 32.5001 482.66 51.2701ZM448.81 79.9901C454.81 76.6001 458.42 72.1201 459.64 66.5301C460.72 61.4401 459.66 56.0501 456.45 50.3701C455.2 48.1601 453.87 47.4601 452.45 48.2601L415.14 67.9201C413.99 68.4601 413.86 69.5301 414.75 71.1101C418.45 77.6601 423.87 81.6301 431 83.0201C437.27 84.1701 443.21 83.1601 448.81 79.9901Z" fill="#37251E"/>
<path d="M568.07 80.24V80.38L566.98 105.4C566.98 106.58 566.57 107.21 565.76 107.3C547.17 109.48 521.79 111.38 489.6 113.01C488.6 113.01 488.1 112.56 488.1 111.65V111.51C489.91 88.66 490.82 56.39 490.82 14.68V2.18001C490.82 1.36001 491.41 0.96001 492.59 0.96001L525.37 0.0100098H525.51C526.51 0.0100098 527.01 0.42001 527.01 1.23001C527.01 1.32001 526.96 1.41001 526.87 1.50001C525.69 11.02 524.51 23.35 523.33 38.49C522.06 54.45 521.43 66.01 521.43 73.17C521.43 76.98 521.57 79.06 521.84 79.43C522.66 80.34 527.32 80.79 535.85 80.79C539.3 80.79 544.46 80.5 551.35 79.91C558.24 79.32 563.36 79.03 566.72 79.03C567.63 79.03 568.08 79.44 568.08 80.25L568.07 80.24Z" fill="#37251E"/>
<path d="M653.47 104.04L578.4 110.3C576.95 110.48 576.04 109.58 575.68 107.58C574.32 98.2399 573.64 83.0099 573.64 61.8799C573.64 35.8599 574.82 16.7699 577.18 4.61988C577.54 2.62988 578.54 1.62988 580.17 1.62988L650.21 2.84988C651.93 2.84988 652.79 3.70988 652.79 5.42988C652.79 7.14988 652.47 10.0499 651.84 14.4099C650.84 20.5799 650.34 23.7499 650.34 23.9299C650.16 25.8299 649.07 26.8299 647.08 26.9199L611.58 28.9599C609.68 29.0499 608.5 30.0499 608.04 31.9499C606.59 38.8399 605.86 43.1499 605.86 44.8699C605.86 46.3199 606.63 47.0499 608.17 47.0499C612.52 47.0499 619.09 46.7599 627.89 46.1699C636.68 45.5799 643.26 45.2899 647.61 45.2899C649.51 45.2899 650.42 46.2399 650.33 48.1499L649.79 63.7899C649.7 65.7899 648.7 66.8699 646.8 67.0499L607.77 71.5399C607.04 71.6299 606.41 72.1499 605.87 73.0999C605.33 74.0499 605.05 74.9399 605.05 75.7499C605.05 79.2899 606.09 81.0099 608.18 80.9199L652.38 79.4199C654.19 79.3299 655.19 80.2799 655.37 82.2799L656.19 101.05C656.19 102.86 655.28 103.86 653.47 104.04Z" fill="#37251E"/>
</g>
<defs>
<clipPath id="clip0_160_472">
<rect width="656.19" height="114.38" fill="white"/>
</clipPath>
</defs>
</svg>
