<svg width="32" height="33" viewBox="0 0 32 33" fill="none" xmlns="http://www.w3.org/2000/svg">
<path d="M23.7509 31.6904C23.2365 31.995 22.5003 32.2665 21.9233 32.4122C21.743 32.4582 21.8045 32.3516 21.6795 32.3788C21.4364 32.4307 21.2264 32.5397 20.9811 32.5751C20.8999 32.5862 20.9602 32.4368 20.8763 32.451C20.4183 32.5282 20.003 32.6659 19.5388 32.7352C17.2605 33.0711 14.9817 33.0102 12.7488 32.4703C12.0102 32.2938 11.1658 31.9259 10.4245 31.6943C10.3376 31.6675 10.3485 31.79 10.3291 31.7923C10.0237 31.8232 10.1897 31.6482 10.0371 31.5545C9.43133 31.1813 8.74507 30.8319 8.14113 30.5322C7.88436 30.4042 8.0213 30.7392 7.83422 30.4851C7.82132 30.4677 7.94396 30.4043 7.8831 30.3532C7.74464 30.2382 7.44969 30.0763 7.33994 29.9919C7.12898 29.8297 7.0926 29.806 6.88857 29.6608C6.6099 29.4601 6.32239 29.1683 6.02243 28.956C5.95796 28.9107 5.96196 29.0701 5.85172 29.0055C5.74104 28.9413 5.495 28.7155 5.4306 28.6187C5.36576 28.5225 5.46488 28.4843 5.46464 28.4549C5.4666 28.212 5.01914 28.1366 4.97843 28.1044C4.25725 27.5491 3.85238 26.8621 3.34911 26.1923C2.96791 25.6848 2.55726 25.1434 2.258 24.6123C2.25552 24.6079 2.25304 24.6035 2.25057 24.5991C1.89466 23.9614 1.68258 23.3836 1.39875 22.7387C1.36917 22.6705 1.27209 22.8056 1.23564 22.7217C0.849323 21.8295 0.574623 20.8916 0.466613 19.9294C0.456048 19.8329 0.603275 19.9286 0.600245 19.8313C0.572614 19.2325 0.698511 18.3118 0.134211 18.0112C0.118596 17.6104 0.11774 17.1214 0.223756 16.7643C0.292397 16.5348 0.428067 16.7562 0.370868 16.4771C0.358512 16.4141 0.239223 16.4953 0.229845 16.4001C0.190742 15.998 0.251327 15.5625 0.225997 15.1611C0.220587 15.0793 0.112925 15.0914 0.0960131 15.0666C-0.0406719 14.8566 0.252615 14.5626 0.280607 14.4972C0.488651 13.9882 0.502977 13.6017 0.612188 13.1185C0.63809 13.0066 0.469047 13.1081 0.489342 12.9987C0.597211 12.4311 0.77488 11.8551 1.0185 11.3429C1.0731 11.2293 1.1502 11.3779 1.18214 11.3259C1.32202 11.0988 1.12706 10.9646 1.26459 10.7457C1.29344 10.6997 1.37938 10.7657 1.39355 10.7608C1.61512 10.6868 1.42937 10.4712 1.4395 10.4322C1.56095 9.94453 1.93533 9.76919 2.11463 9.33385C2.13639 9.28121 1.96038 9.33516 2.02927 9.19028C2.48825 8.22449 3.14968 7.287 3.89709 6.54056C4.01332 6.42432 4.01557 6.57751 4.03159 6.57716C4.28383 6.57029 4.15726 6.32601 4.18508 6.2787C4.40733 5.91292 4.829 5.77742 4.81277 5.36141C5.87936 4.39976 6.96489 3.44966 8.25118 2.82295C8.56858 2.66834 8.88995 2.53792 9.22645 2.43177C9.24784 2.42475 9.26772 2.55505 9.30992 2.54068C9.81925 2.37376 9.64012 2.24473 9.87452 1.88007C9.93519 1.78783 10.299 1.94971 10.328 1.96141C10.4378 2.00133 10.4237 2.2084 10.4562 2.21162C10.719 2.23533 10.4597 1.67116 10.7724 1.55601C10.7824 1.55347 10.7805 1.67524 10.8103 1.67645C10.9029 1.68069 10.9679 1.6098 11.0598 1.61959C11.2708 1.64361 11.426 1.9075 11.6489 1.65568C11.6775 1.62368 11.5202 1.30285 11.809 1.23617C11.9228 1.20838 12.4278 1.07016 12.575 1.06165C12.7218 1.05102 12.6496 1.18369 12.661 1.18608C13.073 1.24718 12.9423 1.34039 13.1735 1.51842C13.4013 1.69814 13.2502 1.19236 13.3174 1.11991C13.3847 1.04715 13.6868 1.12063 13.7615 1.15301C13.8365 1.1847 13.7624 1.26892 13.8267 1.28351C14.2496 1.38128 13.966 0.999341 14.0891 0.897797C14.385 0.659365 14.6804 1.02106 14.9691 1.03663C15.0481 1.04094 14.9774 0.957203 15.0469 0.943747C15.3241 0.892716 15.4955 1.00546 15.8085 0.88574C15.8587 0.865981 16.1167 0.627506 16.2838 0.801306C16.3071 0.826332 16.2399 0.922797 16.358 0.945748C16.5343 0.979779 16.851 1.01142 17.0421 0.990281C17.1835 0.974485 17.0321 0.804842 17.2064 0.865623C17.2836 0.893065 17.1321 0.976633 17.2767 1.02055C17.4206 1.06354 17.7925 1.09385 17.934 1.10787C18.0753 1.12092 18.0126 0.99144 18.0249 0.984598C18.0997 0.945574 18.3814 0.923954 18.4057 0.928136C19.6344 1.09092 20.6794 1.57782 21.8096 1.93668C21.8986 1.96546 21.8868 1.82365 21.9008 1.82681C22.2205 1.89476 21.8602 2.1183 22.0222 2.30637C22.0905 2.05382 22.195 2.14575 22.4127 2.2087C22.5176 2.23909 22.5038 2.12342 22.517 2.1179C22.7276 2.04315 22.75 2.27101 22.7588 2.31946C22.7931 2.49868 22.9723 2.3895 22.9949 2.51072C23.0165 2.6308 22.8052 2.6903 22.9966 2.78169C23.0917 2.72491 23.0555 2.43583 23.2204 2.47344C23.8535 2.60975 24.761 3.37969 25.1491 3.68623C25.5444 3.98761 25.6811 4.07461 25.8882 4.27862C26.2572 4.65264 26.2217 4.39325 26.5257 4.54184C26.8291 4.69587 26.4143 4.92407 26.3866 5.02634C26.3571 5.12758 26.4591 5.08695 26.4658 5.16357C26.472 5.23979 26.3395 5.20733 26.4229 5.30942C26.5065 5.41039 26.8805 5.53205 26.9843 5.49525C27.2031 5.41447 27.2417 5.13837 27.4403 5.44777C27.4514 5.46563 27.3217 5.50023 27.3683 5.56438C27.7382 6.06811 28.1563 6.55749 28.4673 7.09237C28.5097 7.16592 28.361 7.18525 28.3842 7.22873C28.6219 7.68328 28.688 7.40798 29.0508 7.49681C28.7496 7.63269 28.6794 7.86934 28.8878 8.18746C29.0126 8.38075 29.1086 8.26983 29.2731 8.34358C29.3228 8.36578 29.3262 8.55636 29.3983 8.54735C29.6347 8.52006 29.7642 8.25788 29.8878 8.66024C29.8878 8.66041 29.8879 8.66058 29.8879 8.66074C29.8897 8.66705 29.8745 8.67234 29.8551 8.6791C29.8297 8.68798 29.7971 8.6994 29.7865 8.71873C29.7823 8.72639 29.7815 8.73528 29.786 8.74576C29.941 9.11462 30.1629 9.04552 30.3857 9.42C30.5617 9.71558 30.6869 10.3223 30.8068 10.6863C30.4676 10.816 30.6742 11.112 30.9595 11.165C31.0358 11.4022 31.1353 11.6513 31.1742 11.8919C31.1875 11.9743 31.0707 11.9537 31.063 11.967C30.939 12.1702 31.2021 12.202 31.2264 12.2513C31.4759 12.7868 31.4011 13.2863 31.6772 13.7966C31.6869 13.8145 31.9421 13.803 31.785 13.9818C31.7738 13.9931 31.6308 13.8315 31.6642 14.0903C31.6983 14.3507 31.6272 14.8493 31.7735 15.1971C31.8093 15.2802 32.0315 15.489 31.8812 15.6773C31.8608 15.7022 31.787 15.6804 31.7486 15.7166C31.626 15.8321 31.884 15.8813 31.6718 16.0181C31.4592 16.1549 31.305 16.4153 31.4498 16.7704C31.454 16.7815 31.6554 16.8692 31.649 16.983C31.6391 17.1638 31.5849 17.4175 31.573 17.6048C31.5675 17.6946 31.6969 17.6461 31.6981 17.6618C31.7222 18.2775 31.5579 18.7005 31.3965 19.3305C31.3671 19.4449 31.4683 19.8183 31.2834 20.0148C31.0802 20.227 30.5443 19.8369 30.5472 20.4142C30.5471 20.6409 31.216 21.1552 30.6963 21.4317C30.5309 22.2378 30.0482 22.8473 29.8053 23.6315C29.7943 23.6666 29.9338 23.8716 29.8894 23.9477C29.8235 24.0599 29.6997 24.0725 29.649 24.1492C29.4338 24.4689 29.3243 24.8153 29.1072 25.1196C29.0248 25.2347 28.9646 25.1352 28.8656 25.2702C28.7664 25.404 28.8156 25.5767 28.6263 25.7214C28.4823 25.8307 28.1541 25.7937 27.9904 25.9467C28.2046 26.1273 28.1047 26.2466 27.9825 26.507C27.959 26.5571 28.0706 26.5762 28.0632 26.6033C28.0346 26.7151 27.9106 26.735 27.8868 26.8451C27.8808 26.8718 27.9519 26.936 27.9509 26.9615C27.9447 27.1825 27.5959 27.2421 27.537 27.2492C27.3097 27.2824 27.3408 27.4287 27.2031 27.4881C27.066 27.5463 27.1617 27.3512 27.0243 27.4405C26.7414 27.624 26.4414 27.9232 26.1849 28.1375C26.083 28.2235 26.2351 28.2614 26.2224 28.2759C26.0311 28.4826 25.7268 28.5516 25.7614 28.8469C25.206 28.4432 25.6693 29.0022 25.2636 29.1348C25.2316 29.1446 25.0188 28.9144 25.0879 28.8081C25.1568 28.7019 25.3594 28.6726 25.4457 28.5157C25.4674 28.4784 25.4583 28.1139 25.4695 28.0817C25.5625 27.8289 25.884 28.1646 25.9107 28.176C26.1991 28.2952 26.2011 27.8766 26.2382 27.8137C26.4154 27.522 26.6578 27.3805 26.8005 27.1371C26.8933 26.9784 26.6859 26.754 26.7864 26.6626C27.1151 26.359 27.5471 26.5114 27.5408 25.944C27.5384 25.8222 27.2236 25.6848 27.6303 25.5944C27.6556 25.5896 27.9955 25.543 27.9586 25.3377C27.9539 25.3121 27.8756 25.2547 27.8828 25.2312C27.9322 25.0754 28.0553 25.0368 28.1215 24.8771C28.1872 24.7178 28.2537 24.5193 28.3843 24.3758C28.463 24.2896 28.6949 24.258 28.7622 24.2323C28.9547 24.1615 28.86 23.9083 29.0425 23.8996C29.2272 23.8882 29.3345 24.1789 29.5536 23.9927C29.3379 23.8617 29.1222 23.7169 28.9073 23.5813C29.1858 23.0932 29.4993 22.6256 29.704 22.0946C29.729 22.0288 29.5765 22.0443 29.5996 21.9729C29.6965 21.6732 29.8826 21.4469 29.9496 21.1227C30.0007 20.8716 29.9431 20.5654 29.9762 20.3043C30.2977 20.2251 30.2993 19.8154 30.3823 19.5421C30.4116 19.4459 30.4857 19.4678 30.5244 19.4022C30.6673 19.1533 30.3922 19.2309 30.3663 19.1514C30.2519 18.8142 30.8269 18.8817 30.8653 18.4997C30.868 18.4784 30.5923 18.1987 30.5763 18.1649C30.4747 17.9421 30.6868 18.1418 30.723 18.0119C30.788 17.7746 30.8753 17.6083 30.8008 17.3178C30.7788 17.2321 30.5957 17.0281 30.7471 16.8714C30.767 16.8506 30.8684 16.8644 30.8747 16.8474C30.9789 16.5367 30.6575 16.5267 30.5478 16.3547C30.4379 16.1833 30.6476 15.9091 30.7079 15.8492C30.8649 15.6958 30.7836 15.9573 30.7996 15.9643C30.9951 16.0499 30.9548 15.8502 30.9617 15.6951C31.2736 15.6549 31.2399 15.4354 30.967 15.5343C30.9374 15.5453 30.9743 15.6633 30.9617 15.6951C30.6469 15.5766 30.5925 15.3567 30.8519 15.0689C30.9725 14.9334 31.1439 15.0316 31.0411 14.6639C30.9932 14.498 30.7882 14.592 30.7092 14.4539C30.529 14.1409 30.6482 13.6771 30.5389 13.3399C30.4996 13.2194 30.4119 13.3654 30.381 13.2845C30.2986 13.0714 30.3345 12.8543 30.2289 12.6452C30.2192 12.6265 30.1138 12.7081 30.0932 12.6409C29.9332 12.1329 29.8579 11.6653 29.6503 11.1433C29.5512 10.8907 29.2919 10.4768 29.1798 10.221C29.0551 9.93217 28.9589 9.58097 28.8297 9.27111C28.7588 9.10035 28.6801 8.94545 28.5881 8.82733C28.4193 8.61147 28.3468 8.73005 28.2132 8.67866C27.9569 8.58246 27.9727 8.09741 27.9758 8.02603C27.9764 8.02365 28.1355 8.19702 28.115 8.05855C28.1802 7.9222 27.9777 8.02775 27.9758 8.02603C27.9803 7.9792 27.721 7.58639 27.6435 7.52962C27.6022 7.49806 27.5277 7.59281 27.508 7.57518C27.0395 7.15309 26.6094 6.72109 26.1983 6.24543C26.192 6.23605 26.2952 6.15363 26.2792 6.13261C26.0561 5.83679 25.7709 5.79684 25.4845 5.67658C25.1969 5.55638 25.0358 5.38852 25.0324 5.10174C24.8367 4.98571 24.6315 4.714 24.5097 4.55723C24.3878 4.40003 24.2228 4.59772 24.2067 4.59278C23.6922 4.44623 23.5209 4.17156 23.0639 3.89523C22.8475 3.76299 22.3819 3.5725 22.1213 3.48755C21.9161 3.41975 21.82 3.31372 21.6214 3.27363C21.5947 3.26823 21.5769 3.38364 21.5677 3.3846C21.3137 3.42875 21.5141 3.21042 21.4899 3.14728C21.4009 2.91898 21.3345 2.78951 21.0334 2.77303C20.9628 2.76859 20.6534 3.08554 20.5356 3.07257C20.3809 3.05444 20.4789 2.93487 20.3143 2.92087C20.3003 2.91966 20.2775 3.00484 20.1838 2.97313C19.7487 2.82725 19.2712 2.65885 18.7979 2.57974C18.7335 2.56867 18.79 2.72165 18.6972 2.70827C18.2619 2.64558 17.7878 2.57786 17.3656 2.47685C17.2615 2.45159 17.3355 2.35921 17.3148 2.32827C17.1854 2.14057 16.9659 2.38435 16.9338 2.38776C16.1455 2.47229 15.5349 2.25385 14.7391 2.44188C14.694 2.45215 14.3968 2.76248 14.2183 2.55081C14.2069 2.53651 14.0227 2.31908 13.9173 2.5032C13.9111 2.51473 14.0217 2.62228 13.8608 2.63586C13.6987 2.6498 13.463 2.77757 13.2177 2.69107C13.141 2.66358 12.9214 2.46515 12.761 2.70238C12.748 2.71861 12.549 3.21762 12.3599 2.96144C12.329 2.91942 12.2603 2.60816 12.0631 2.83613C12.0261 2.88022 12.1298 2.92237 12.022 3.0014C11.8581 3.12272 11.5876 3.12286 11.4135 3.3361C11.3825 3.37374 11.2962 3.63431 11.1078 3.53325C11.0781 3.51746 11.0784 3.40379 11.0051 3.41997C10.6553 3.49728 10.3429 3.71186 9.9883 3.80346C9.86196 3.83681 9.84546 3.65434 9.70342 3.67427C9.561 3.69413 9.29838 3.78286 9.21132 3.92078C9.12534 4.058 9.39168 4.22051 9.22088 4.34202C9.19903 4.35769 9.17712 4.37323 9.15513 4.38864C8.43957 4.89143 7.64741 5.26559 6.96261 5.82145C6.859 5.9062 7.00588 5.9072 6.86 6.03761C6.30955 6.5164 5.5374 7.48537 4.9967 7.86433C4.55575 8.16818 4.84571 7.57886 4.55357 7.85265C4.4114 7.9884 4.55002 8.34054 4.53299 8.38243C4.3638 8.80191 4.08211 8.98419 3.91513 9.35138C3.8813 9.4269 4.03263 9.42207 4.00303 9.48522C3.90358 9.70077 3.73408 9.89198 3.63949 10.099C3.59753 10.1919 3.69345 10.2194 3.64506 10.2991C3.53075 10.4906 3.4098 10.6511 3.23695 10.8141C3.2211 10.8293 3.16478 10.6554 3.09271 10.8072C2.97712 11.0521 2.7648 11.3345 2.74547 11.6617C2.74025 11.7592 2.94959 11.8361 2.7391 11.9725C2.69553 12.0012 2.45629 11.8655 2.6043 12.1595C2.62718 12.2108 2.81322 12.6672 2.57025 12.7936C2.50577 12.8269 2.25937 12.8946 2.26503 13.0125C2.26667 13.0285 2.39803 12.9998 2.38675 13.0919C2.3455 13.4157 2.26125 13.7447 2.2398 14.0784C2.2345 14.1673 2.37978 14.0598 2.36841 14.1906C2.33735 14.5496 2.24833 14.9886 2.17919 15.3365C2.15341 15.4647 2.05845 15.3665 2.04645 15.3749C1.85155 15.5135 2.09134 15.6236 2.1024 15.6741C2.16849 15.9922 2.04532 16.227 2.07409 16.5181C2.08195 16.5982 2.19958 16.5417 2.21 16.5576C2.3125 16.721 2.1013 16.5994 2.07865 16.7041C2.01507 16.9985 2.03785 17.3267 2.07498 17.6223C2.08888 17.7304 2.21531 17.5984 2.22636 17.6948C2.29494 18.2645 2.36669 18.8541 2.4073 19.4187C2.41488 19.5254 2.29867 19.4818 2.27978 19.5084C2.14759 19.6955 2.42235 19.8651 2.45571 19.9087C2.60807 20.1114 2.54194 20.2223 2.61458 20.4167C2.96545 21.3634 3.38749 22.5289 3.82322 23.383C3.866 23.4683 3.9087 23.5521 3.95144 23.6346C4.46775 24.6215 4.94772 25.4161 5.7092 26.2173C5.76177 26.2721 5.81251 26.1214 5.85887 26.167C6.45094 26.7558 7.02818 27.3497 7.72287 27.8218C7.77965 27.8605 7.77999 27.6957 7.87324 27.7536C8.06514 27.8715 8.29102 28.039 8.4574 28.1996C8.53874 28.2778 8.35163 28.2903 8.43552 28.3673C8.63134 28.5467 8.86738 28.7033 9.11199 28.8196C9.216 28.8686 9.13377 28.6657 9.26298 28.7377C10.1477 29.2232 11.0548 29.5931 11.9811 30.0658C12.0443 30.098 12.0244 30.3798 12.1861 30.3719C12.2183 30.3019 12.2426 30.2155 12.27 30.1385C13.6993 30.505 15.1517 30.7856 16.645 30.7546C16.7076 30.7531 16.5952 30.6112 16.7154 30.6075C17.414 30.5833 18.0744 30.4705 18.8044 30.4811C18.8768 30.4816 18.889 30.7412 19.0909 30.6607C19.1266 30.6471 19.4333 30.5447 19.4996 30.4706C19.5084 30.4599 19.4247 30.357 19.5228 30.3298C20.0947 30.1726 20.6903 30.0154 21.2722 29.87C21.3664 29.8465 21.3164 30.0024 21.3843 29.9864C21.8667 29.8721 22.3121 29.5646 22.7832 29.452C23.0982 29.3761 23.0974 29.6243 23.3525 29.7332C23.3887 29.7486 23.5683 29.6543 23.6397 29.7584C23.8204 30.0205 23.9013 30.3734 24.1038 30.6472C24.1476 30.7067 24.3639 30.492 24.3003 30.7315C24.2957 30.748 24.1376 30.9043 24.1196 30.9819C24.1069 31.0359 24.2276 31.116 24.1862 31.1989C24.1443 31.282 24.0198 31.2272 23.9373 31.3407C23.8541 31.4548 23.9731 31.5587 23.7509 31.6904ZM23.9358 3.86321C23.8454 3.66548 23.5945 4.03829 23.8122 4.0441C23.8229 4.04396 23.9405 3.87312 23.9358 3.86321ZM29.7964 22.7634C30.0744 22.6294 29.8691 22.3659 29.6642 22.4556C29.4601 22.542 29.7125 22.8027 29.7964 22.7634ZM28.7372 24.9649C29.0212 24.8181 28.5083 24.4392 28.4578 24.7503C28.4546 24.7681 28.7207 24.9733 28.7372 24.9649ZM22.6628 30.1549C22.6676 30.1594 22.8016 30.101 22.8021 30.0939C22.8088 29.9324 22.5434 30.0482 22.6628 30.1549ZM27.3423 26.9782C27.4651 26.9737 27.5612 26.7193 27.4089 26.7281C27.2875 26.7348 27.1907 26.9836 27.3423 26.9782ZM14.9937 1.25436C14.9904 1.24783 14.8835 1.25045 14.8888 1.28801C14.9063 1.4085 15.0501 1.36274 14.9937 1.25436ZM24.1113 29.6112C24.6432 29.3126 25.2609 29.5236 24.6454 29.8564C24.5348 29.9145 24.7809 29.5702 24.6219 29.6162C24.3355 29.6976 24.3418 30.0806 23.9935 30.0785C23.9325 30.0771 24.0821 29.6272 24.1118 29.61C24.1117 29.6104 24.1115 29.6108 24.1113 29.6112ZM24.1247 3.34778C24.1247 3.34065 23.9998 3.26013 23.9936 3.26356C23.8531 3.34592 24.1023 3.50657 24.1247 3.34778ZM8.92208 2.72454C8.90871 2.71624 8.59575 2.87192 8.59169 2.88857C8.54703 3.17757 9.17001 2.86808 8.92208 2.72454ZM30.8001 10.6955C30.9946 10.7941 31.0832 10.9787 30.9594 11.1642C30.9118 11.0068 30.8533 10.8511 30.8001 10.6955Z" fill="#8F8F8F"/>
</svg>
