<svg width="33" height="34" viewBox="0 0 33 34" fill="none" xmlns="http://www.w3.org/2000/svg">
<mask id="path-1-inside-1_65_502" fill="white">
<path d="M0.816406 0H32.8164V33.085H0.816406V0Z"/>
</mask>
<path d="M32.8164 33.085V32.085H0.816406V33.085V34.085H32.8164V33.085Z" fill="#181715" mask="url(#path-1-inside-1_65_502)"/>
<path d="M19.2959 4.78494C24.2933 6.08415 28.0253 10.5244 28.2559 15.8719L28.2666 16.406C28.2604 22.7655 23.1871 28.0689 16.8672 28.3836L16.5654 28.3943C13.0291 28.481 9.82996 27.0353 7.58105 24.6746C8.52816 24.9177 9.51919 25.0483 10.54 25.0506L11.0439 25.0418C17.0547 24.8092 21.9855 20.0824 22.5332 14.1482L22.5723 13.5701C22.7186 10.1646 21.4443 7.05611 19.2959 4.78494Z" stroke="#181715"/>
<path d="M16.4898 18.1372L14.6038 17.0552L12.9916 18.514C12.7989 18.6892 12.4944 18.514 12.547 18.2577L12.9938 16.1286L11.1079 15.0465C10.8823 14.9173 10.9545 14.5734 11.213 14.5449L13.375 14.3127L13.8218 12.1836C13.8766 11.9274 14.2249 11.8901 14.3322 12.1289L15.2215 14.1134L17.3835 13.8812C17.6441 13.8527 17.7865 14.1747 17.5937 14.35L15.9816 15.8088L16.8709 17.7933C16.9782 18.0321 16.7176 18.2665 16.4898 18.1372Z" fill="#181715"/>
<path d="M15.3836 8.68552L14.5797 8.22553L13.8941 8.84761C13.7014 9.02284 13.3969 8.84761 13.4495 8.59133L13.64 7.68449L12.8361 7.2245C12.6105 7.09527 12.6828 6.75137 12.9413 6.72289L13.8613 6.62432L14.0518 5.71749C14.1066 5.4612 14.4549 5.42397 14.5622 5.66272L14.9411 6.50823L15.8611 6.40966C16.1218 6.38119 16.2642 6.70318 16.0714 6.87841L15.3858 7.50049L15.7648 8.346C15.8721 8.58476 15.6114 8.81913 15.3836 8.6899V8.68552Z" fill="#181715"/>
<path d="M7.54597 16.5711L6.74208 16.1111L6.05648 16.7332C5.86372 16.9084 5.55925 16.7332 5.61182 16.4769L5.80239 15.57L4.9985 15.1101C4.77289 14.9808 4.84517 14.6369 5.10364 14.6085L6.02362 14.5099L6.21419 13.603C6.26895 13.3468 6.61723 13.3095 6.72456 13.5483L7.1035 14.3938L8.02348 14.2952C8.28414 14.2667 8.42652 14.5887 8.23376 14.764L7.54816 15.3861L7.9271 16.2316C8.03443 16.4703 7.77377 16.7047 7.54597 16.5755V16.5711Z" fill="#181715"/>
</svg>
